%TF.GenerationSoftware,KiCad,Pcbnew,9.0.3*%
%TF.CreationDate,2025-09-07T17:59:26+02:00*%
%TF.ProjectId,AM03127-Controller,414d3033-3132-4372-9d43-6f6e74726f6c,rev?*%
%TF.SameCoordinates,Original*%
%TF.FileFunction,Soldermask,Top*%
%TF.FilePolarity,Negative*%
%FSLAX46Y46*%
G04 Gerber Fmt 4.6, Leading zero omitted, Abs format (unit mm)*
G04 Created by KiCad (PCBNEW 9.0.3) date 2025-09-07 17:59:26*
%MOMM*%
%LPD*%
G01*
G04 APERTURE LIST*
G04 Aperture macros list*
%AMRoundRect*
0 Rectangle with rounded corners*
0 $1 Rounding radius*
0 $2 $3 $4 $5 $6 $7 $8 $9 X,Y pos of 4 corners*
0 Add a 4 corners polygon primitive as box body*
4,1,4,$2,$3,$4,$5,$6,$7,$8,$9,$2,$3,0*
0 Add four circle primitives for the rounded corners*
1,1,$1+$1,$2,$3*
1,1,$1+$1,$4,$5*
1,1,$1+$1,$6,$7*
1,1,$1+$1,$8,$9*
0 Add four rect primitives between the rounded corners*
20,1,$1+$1,$2,$3,$4,$5,0*
20,1,$1+$1,$4,$5,$6,$7,0*
20,1,$1+$1,$6,$7,$8,$9,0*
20,1,$1+$1,$8,$9,$2,$3,0*%
G04 Aperture macros list end*
%ADD10RoundRect,0.269000X-0.269000X-0.494000X0.269000X-0.494000X0.269000X0.494000X-0.269000X0.494000X0*%
%ADD11RoundRect,0.159000X0.189000X-0.159000X0.189000X0.159000X-0.189000X0.159000X-0.189000X-0.159000X0*%
%ADD12RoundRect,0.269000X0.269000X0.494000X-0.269000X0.494000X-0.269000X-0.494000X0.269000X-0.494000X0*%
%ADD13C,1.900000*%
%ADD14C,1.700000*%
%ADD15R,2.100000X2.000000*%
%ADD16R,2.500000X1.900000*%
%ADD17R,2.000000X2.000000*%
%ADD18RoundRect,0.150000X-0.825000X-0.150000X0.825000X-0.150000X0.825000X0.150000X-0.825000X0.150000X0*%
%ADD19RoundRect,0.131500X0.206500X0.131500X-0.206500X0.131500X-0.206500X-0.131500X0.206500X-0.131500X0*%
%ADD20RoundRect,0.159000X-0.189000X0.159000X-0.189000X-0.159000X0.189000X-0.159000X0.189000X0.159000X0*%
%ADD21RoundRect,0.250000X0.275000X0.700000X-0.275000X0.700000X-0.275000X-0.700000X0.275000X-0.700000X0*%
%ADD22RoundRect,0.150000X-0.512500X-0.150000X0.512500X-0.150000X0.512500X0.150000X-0.512500X0.150000X0*%
%ADD23RoundRect,0.152400X0.609600X-1.063600X0.609600X1.063600X-0.609600X1.063600X-0.609600X-1.063600X0*%
%ADD24C,1.524000*%
%ADD25RoundRect,0.152400X-0.609600X1.063600X-0.609600X-1.063600X0.609600X-1.063600X0.609600X1.063600X0*%
%ADD26C,2.300000*%
%ADD27R,1.500000X1.500000*%
%ADD28C,1.500000*%
G04 APERTURE END LIST*
D10*
%TO.C,C6*%
X140100000Y-84000000D03*
X142000000Y-84000000D03*
%TD*%
%TO.C,C1*%
X136700000Y-126000000D03*
X134800000Y-126000000D03*
%TD*%
D11*
%TO.C,C9*%
X134000000Y-82250000D03*
X134000000Y-83250000D03*
%TD*%
D12*
%TO.C,C2*%
X131800000Y-121000000D03*
X129900000Y-121000000D03*
%TD*%
D13*
%TO.C,DC1*%
X135300000Y-134250000D03*
D14*
X135300000Y-138550000D03*
D15*
X129800000Y-132550000D03*
X129800000Y-138550000D03*
D16*
X141000000Y-138550000D03*
D17*
X140750000Y-132450000D03*
%TD*%
D18*
%TO.C,U3*%
X132525000Y-84555000D03*
X132525000Y-85825000D03*
X132525000Y-87095000D03*
X132525000Y-88365000D03*
X132525000Y-89635000D03*
X132525000Y-90905000D03*
X132525000Y-92175000D03*
X132525000Y-93445000D03*
X137475000Y-93445000D03*
X137475000Y-92175000D03*
X137475000Y-90905000D03*
X137475000Y-89635000D03*
X137475000Y-88365000D03*
X137475000Y-87095000D03*
X137475000Y-85825000D03*
X137475000Y-84555000D03*
%TD*%
D19*
%TO.C,D1*%
X142200000Y-118000000D03*
X140100000Y-118000000D03*
%TD*%
D12*
%TO.C,C3*%
X131800000Y-124000000D03*
X129900000Y-124000000D03*
%TD*%
D11*
%TO.C,C4*%
X139000000Y-122500000D03*
X139000000Y-121500000D03*
%TD*%
D20*
%TO.C,C10*%
X129961800Y-91865000D03*
X129961800Y-92865000D03*
%TD*%
D21*
%TO.C,L1*%
X137520000Y-118000000D03*
X134380000Y-118000000D03*
%TD*%
D22*
%TO.C,U1*%
X134725000Y-122000000D03*
X134725000Y-122950000D03*
X134725000Y-123900000D03*
X137000000Y-123900000D03*
X137000000Y-122950000D03*
X137000000Y-122000000D03*
%TD*%
D20*
%TO.C,C7*%
X129961800Y-84865000D03*
X129961800Y-85865000D03*
%TD*%
D23*
%TO.C,U2*%
X142240000Y-97000000D03*
D24*
X142240000Y-97835000D03*
D23*
X139700000Y-97000000D03*
D24*
X139700000Y-97835000D03*
D23*
X137160000Y-97000000D03*
D24*
X137160000Y-97835000D03*
D23*
X134620000Y-97000000D03*
D24*
X134620000Y-97835000D03*
D23*
X132080000Y-97000000D03*
D24*
X132080000Y-97835000D03*
D23*
X129540000Y-97000000D03*
D24*
X129540000Y-97835000D03*
D23*
X127000000Y-97000000D03*
D24*
X127000000Y-97835000D03*
X127000000Y-113075000D03*
D25*
X127000000Y-113910000D03*
D24*
X129540000Y-113075000D03*
D25*
X129540000Y-113910000D03*
D24*
X132080000Y-113075000D03*
D25*
X132080000Y-113910000D03*
D24*
X134620000Y-113075000D03*
D25*
X134620000Y-113910000D03*
D24*
X137160000Y-113075000D03*
D25*
X137160000Y-113910000D03*
D24*
X139700000Y-113075000D03*
D25*
X139700000Y-113910000D03*
D24*
X142240000Y-113075000D03*
D25*
X142240000Y-113910000D03*
%TD*%
D20*
%TO.C,C8*%
X129961800Y-88365000D03*
X129961800Y-89365000D03*
%TD*%
D11*
%TO.C,C5*%
X137500000Y-82250000D03*
X137500000Y-83250000D03*
%TD*%
D26*
%TO.C,RJ11*%
X141172500Y-74532500D03*
X129172500Y-74532500D03*
D27*
X133642500Y-76832500D03*
D28*
X134662500Y-79372500D03*
X135682500Y-76832500D03*
X136702500Y-79372500D03*
%TD*%
M02*
