%TF.GenerationSoftware,KiCad,Pcbnew,9.0.3*%
%TF.CreationDate,2025-09-07T17:59:26+02:00*%
%TF.ProjectId,AM03127-Controller,414d3033-3132-4372-9d43-6f6e74726f6c,rev?*%
%TF.SameCoordinates,Original*%
%TF.FileFunction,Legend,Bot*%
%TF.FilePolarity,Positive*%
%FSLAX46Y46*%
G04 Gerber Fmt 4.6, Leading zero omitted, Abs format (unit mm)*
G04 Created by KiCad (PCBNEW 9.0.3) date 2025-09-07 17:59:26*
%MOMM*%
%LPD*%
G01*
G04 APERTURE LIST*
%ADD10C,0.300000*%
%ADD11C,1.900000*%
%ADD12C,1.700000*%
%ADD13C,1.524000*%
%ADD14C,2.300000*%
%ADD15R,1.500000X1.500000*%
%ADD16C,1.500000*%
G04 APERTURE END LIST*
D10*
X145372257Y-114483082D02*
X145372257Y-115197368D01*
X145800828Y-114340225D02*
X144300828Y-114840225D01*
X144300828Y-114840225D02*
X145800828Y-115340225D01*
X145800828Y-115840224D02*
X144300828Y-115840224D01*
X144300828Y-115840224D02*
X145372257Y-116340224D01*
X145372257Y-116340224D02*
X144300828Y-116840224D01*
X144300828Y-116840224D02*
X145800828Y-116840224D01*
X144300828Y-117840225D02*
X144300828Y-117983082D01*
X144300828Y-117983082D02*
X144372257Y-118125939D01*
X144372257Y-118125939D02*
X144443685Y-118197368D01*
X144443685Y-118197368D02*
X144586542Y-118268796D01*
X144586542Y-118268796D02*
X144872257Y-118340225D01*
X144872257Y-118340225D02*
X145229400Y-118340225D01*
X145229400Y-118340225D02*
X145515114Y-118268796D01*
X145515114Y-118268796D02*
X145657971Y-118197368D01*
X145657971Y-118197368D02*
X145729400Y-118125939D01*
X145729400Y-118125939D02*
X145800828Y-117983082D01*
X145800828Y-117983082D02*
X145800828Y-117840225D01*
X145800828Y-117840225D02*
X145729400Y-117697368D01*
X145729400Y-117697368D02*
X145657971Y-117625939D01*
X145657971Y-117625939D02*
X145515114Y-117554510D01*
X145515114Y-117554510D02*
X145229400Y-117483082D01*
X145229400Y-117483082D02*
X144872257Y-117483082D01*
X144872257Y-117483082D02*
X144586542Y-117554510D01*
X144586542Y-117554510D02*
X144443685Y-117625939D01*
X144443685Y-117625939D02*
X144372257Y-117697368D01*
X144372257Y-117697368D02*
X144300828Y-117840225D01*
X144300828Y-118840224D02*
X144300828Y-119768796D01*
X144300828Y-119768796D02*
X144872257Y-119268796D01*
X144872257Y-119268796D02*
X144872257Y-119483081D01*
X144872257Y-119483081D02*
X144943685Y-119625939D01*
X144943685Y-119625939D02*
X145015114Y-119697367D01*
X145015114Y-119697367D02*
X145157971Y-119768796D01*
X145157971Y-119768796D02*
X145515114Y-119768796D01*
X145515114Y-119768796D02*
X145657971Y-119697367D01*
X145657971Y-119697367D02*
X145729400Y-119625939D01*
X145729400Y-119625939D02*
X145800828Y-119483081D01*
X145800828Y-119483081D02*
X145800828Y-119054510D01*
X145800828Y-119054510D02*
X145729400Y-118911653D01*
X145729400Y-118911653D02*
X145657971Y-118840224D01*
X145800828Y-121197367D02*
X145800828Y-120340224D01*
X145800828Y-120768795D02*
X144300828Y-120768795D01*
X144300828Y-120768795D02*
X144515114Y-120625938D01*
X144515114Y-120625938D02*
X144657971Y-120483081D01*
X144657971Y-120483081D02*
X144729400Y-120340224D01*
X144443685Y-121768795D02*
X144372257Y-121840223D01*
X144372257Y-121840223D02*
X144300828Y-121983081D01*
X144300828Y-121983081D02*
X144300828Y-122340223D01*
X144300828Y-122340223D02*
X144372257Y-122483081D01*
X144372257Y-122483081D02*
X144443685Y-122554509D01*
X144443685Y-122554509D02*
X144586542Y-122625938D01*
X144586542Y-122625938D02*
X144729400Y-122625938D01*
X144729400Y-122625938D02*
X144943685Y-122554509D01*
X144943685Y-122554509D02*
X145800828Y-121697366D01*
X145800828Y-121697366D02*
X145800828Y-122625938D01*
X144300828Y-123125937D02*
X144300828Y-124125937D01*
X144300828Y-124125937D02*
X145800828Y-123483080D01*
X145229400Y-124697365D02*
X145229400Y-125840223D01*
X145657971Y-127411651D02*
X145729400Y-127340223D01*
X145729400Y-127340223D02*
X145800828Y-127125937D01*
X145800828Y-127125937D02*
X145800828Y-126983080D01*
X145800828Y-126983080D02*
X145729400Y-126768794D01*
X145729400Y-126768794D02*
X145586542Y-126625937D01*
X145586542Y-126625937D02*
X145443685Y-126554508D01*
X145443685Y-126554508D02*
X145157971Y-126483080D01*
X145157971Y-126483080D02*
X144943685Y-126483080D01*
X144943685Y-126483080D02*
X144657971Y-126554508D01*
X144657971Y-126554508D02*
X144515114Y-126625937D01*
X144515114Y-126625937D02*
X144372257Y-126768794D01*
X144372257Y-126768794D02*
X144300828Y-126983080D01*
X144300828Y-126983080D02*
X144300828Y-127125937D01*
X144300828Y-127125937D02*
X144372257Y-127340223D01*
X144372257Y-127340223D02*
X144443685Y-127411651D01*
X145800828Y-128268794D02*
X145729400Y-128125937D01*
X145729400Y-128125937D02*
X145657971Y-128054508D01*
X145657971Y-128054508D02*
X145515114Y-127983080D01*
X145515114Y-127983080D02*
X145086542Y-127983080D01*
X145086542Y-127983080D02*
X144943685Y-128054508D01*
X144943685Y-128054508D02*
X144872257Y-128125937D01*
X144872257Y-128125937D02*
X144800828Y-128268794D01*
X144800828Y-128268794D02*
X144800828Y-128483080D01*
X144800828Y-128483080D02*
X144872257Y-128625937D01*
X144872257Y-128625937D02*
X144943685Y-128697366D01*
X144943685Y-128697366D02*
X145086542Y-128768794D01*
X145086542Y-128768794D02*
X145515114Y-128768794D01*
X145515114Y-128768794D02*
X145657971Y-128697366D01*
X145657971Y-128697366D02*
X145729400Y-128625937D01*
X145729400Y-128625937D02*
X145800828Y-128483080D01*
X145800828Y-128483080D02*
X145800828Y-128268794D01*
X144800828Y-129411651D02*
X145800828Y-129411651D01*
X144943685Y-129411651D02*
X144872257Y-129483080D01*
X144872257Y-129483080D02*
X144800828Y-129625937D01*
X144800828Y-129625937D02*
X144800828Y-129840223D01*
X144800828Y-129840223D02*
X144872257Y-129983080D01*
X144872257Y-129983080D02*
X145015114Y-130054509D01*
X145015114Y-130054509D02*
X145800828Y-130054509D01*
X144800828Y-130554509D02*
X144800828Y-131125937D01*
X144300828Y-130768794D02*
X145586542Y-130768794D01*
X145586542Y-130768794D02*
X145729400Y-130840223D01*
X145729400Y-130840223D02*
X145800828Y-130983080D01*
X145800828Y-130983080D02*
X145800828Y-131125937D01*
X145800828Y-131625937D02*
X144800828Y-131625937D01*
X145086542Y-131625937D02*
X144943685Y-131697366D01*
X144943685Y-131697366D02*
X144872257Y-131768795D01*
X144872257Y-131768795D02*
X144800828Y-131911652D01*
X144800828Y-131911652D02*
X144800828Y-132054509D01*
X145800828Y-132768794D02*
X145729400Y-132625937D01*
X145729400Y-132625937D02*
X145657971Y-132554508D01*
X145657971Y-132554508D02*
X145515114Y-132483080D01*
X145515114Y-132483080D02*
X145086542Y-132483080D01*
X145086542Y-132483080D02*
X144943685Y-132554508D01*
X144943685Y-132554508D02*
X144872257Y-132625937D01*
X144872257Y-132625937D02*
X144800828Y-132768794D01*
X144800828Y-132768794D02*
X144800828Y-132983080D01*
X144800828Y-132983080D02*
X144872257Y-133125937D01*
X144872257Y-133125937D02*
X144943685Y-133197366D01*
X144943685Y-133197366D02*
X145086542Y-133268794D01*
X145086542Y-133268794D02*
X145515114Y-133268794D01*
X145515114Y-133268794D02*
X145657971Y-133197366D01*
X145657971Y-133197366D02*
X145729400Y-133125937D01*
X145729400Y-133125937D02*
X145800828Y-132983080D01*
X145800828Y-132983080D02*
X145800828Y-132768794D01*
X145800828Y-134125937D02*
X145729400Y-133983080D01*
X145729400Y-133983080D02*
X145586542Y-133911651D01*
X145586542Y-133911651D02*
X144300828Y-133911651D01*
X145800828Y-134911651D02*
X145729400Y-134768794D01*
X145729400Y-134768794D02*
X145586542Y-134697365D01*
X145586542Y-134697365D02*
X144300828Y-134697365D01*
X145729400Y-136054508D02*
X145800828Y-135911651D01*
X145800828Y-135911651D02*
X145800828Y-135625937D01*
X145800828Y-135625937D02*
X145729400Y-135483079D01*
X145729400Y-135483079D02*
X145586542Y-135411651D01*
X145586542Y-135411651D02*
X145015114Y-135411651D01*
X145015114Y-135411651D02*
X144872257Y-135483079D01*
X144872257Y-135483079D02*
X144800828Y-135625937D01*
X144800828Y-135625937D02*
X144800828Y-135911651D01*
X144800828Y-135911651D02*
X144872257Y-136054508D01*
X144872257Y-136054508D02*
X145015114Y-136125937D01*
X145015114Y-136125937D02*
X145157971Y-136125937D01*
X145157971Y-136125937D02*
X145300828Y-135411651D01*
X145800828Y-136768793D02*
X144800828Y-136768793D01*
X145086542Y-136768793D02*
X144943685Y-136840222D01*
X144943685Y-136840222D02*
X144872257Y-136911651D01*
X144872257Y-136911651D02*
X144800828Y-137054508D01*
X144800828Y-137054508D02*
X144800828Y-137197365D01*
X144800828Y-138697364D02*
X145800828Y-139054507D01*
X145800828Y-139054507D02*
X144800828Y-139411650D01*
X145800828Y-140768793D02*
X145800828Y-139911650D01*
X145800828Y-140340221D02*
X144300828Y-140340221D01*
X144300828Y-140340221D02*
X144515114Y-140197364D01*
X144515114Y-140197364D02*
X144657971Y-140054507D01*
X144657971Y-140054507D02*
X144729400Y-139911650D01*
X145657971Y-141411649D02*
X145729400Y-141483078D01*
X145729400Y-141483078D02*
X145800828Y-141411649D01*
X145800828Y-141411649D02*
X145729400Y-141340221D01*
X145729400Y-141340221D02*
X145657971Y-141411649D01*
X145657971Y-141411649D02*
X145800828Y-141411649D01*
X144300828Y-142411650D02*
X144300828Y-142554507D01*
X144300828Y-142554507D02*
X144372257Y-142697364D01*
X144372257Y-142697364D02*
X144443685Y-142768793D01*
X144443685Y-142768793D02*
X144586542Y-142840221D01*
X144586542Y-142840221D02*
X144872257Y-142911650D01*
X144872257Y-142911650D02*
X145229400Y-142911650D01*
X145229400Y-142911650D02*
X145515114Y-142840221D01*
X145515114Y-142840221D02*
X145657971Y-142768793D01*
X145657971Y-142768793D02*
X145729400Y-142697364D01*
X145729400Y-142697364D02*
X145800828Y-142554507D01*
X145800828Y-142554507D02*
X145800828Y-142411650D01*
X145800828Y-142411650D02*
X145729400Y-142268793D01*
X145729400Y-142268793D02*
X145657971Y-142197364D01*
X145657971Y-142197364D02*
X145515114Y-142125935D01*
X145515114Y-142125935D02*
X145229400Y-142054507D01*
X145229400Y-142054507D02*
X144872257Y-142054507D01*
X144872257Y-142054507D02*
X144586542Y-142125935D01*
X144586542Y-142125935D02*
X144443685Y-142197364D01*
X144443685Y-142197364D02*
X144372257Y-142268793D01*
X144372257Y-142268793D02*
X144300828Y-142411650D01*
%LPC*%
D11*
%TO.C,DC1*%
X135300000Y-134250000D03*
D12*
X135300000Y-138550000D03*
%TD*%
D13*
%TO.C,U2*%
X142240000Y-97835000D03*
X139700000Y-97835000D03*
X137160000Y-97835000D03*
X134620000Y-97835000D03*
X132080000Y-97835000D03*
X129540000Y-97835000D03*
X127000000Y-97835000D03*
X127000000Y-113075000D03*
X129540000Y-113075000D03*
X132080000Y-113075000D03*
X134620000Y-113075000D03*
X137160000Y-113075000D03*
X139700000Y-113075000D03*
X142240000Y-113075000D03*
%TD*%
D14*
%TO.C,RJ11*%
X141172500Y-74532500D03*
X129172500Y-74532500D03*
D15*
X133642500Y-76832500D03*
D16*
X134662500Y-79372500D03*
X135682500Y-76832500D03*
X136702500Y-79372500D03*
%TD*%
%LPD*%
M02*
