%TF.GenerationSoftware,KiCad,Pcbnew,9.0.2*%
%TF.CreationDate,2025-08-12T12:41:44+02:00*%
%TF.ProjectId,AM03127-Controller,414d3033-3132-4372-9d43-6f6e74726f6c,rev?*%
%TF.SameCoordinates,Original*%
%TF.FileFunction,Legend,Top*%
%TF.FilePolarity,Positive*%
%FSLAX46Y46*%
G04 Gerber Fmt 4.6, Leading zero omitted, Abs format (unit mm)*
G04 Created by KiCad (PCBNEW 9.0.2) date 2025-08-12 12:41:44*
%MOMM*%
%LPD*%
G01*
G04 APERTURE LIST*
G04 Aperture macros list*
%AMRoundRect*
0 Rectangle with rounded corners*
0 $1 Rounding radius*
0 $2 $3 $4 $5 $6 $7 $8 $9 X,Y pos of 4 corners*
0 Add a 4 corners polygon primitive as box body*
4,1,4,$2,$3,$4,$5,$6,$7,$8,$9,$2,$3,0*
0 Add four circle primitives for the rounded corners*
1,1,$1+$1,$2,$3*
1,1,$1+$1,$4,$5*
1,1,$1+$1,$6,$7*
1,1,$1+$1,$8,$9*
0 Add four rect primitives between the rounded corners*
20,1,$1+$1,$2,$3,$4,$5,0*
20,1,$1+$1,$4,$5,$6,$7,0*
20,1,$1+$1,$6,$7,$8,$9,0*
20,1,$1+$1,$8,$9,$2,$3,0*%
G04 Aperture macros list end*
%ADD10C,0.150000*%
%ADD11C,0.101600*%
%ADD12C,0.250000*%
%ADD13C,0.120000*%
%ADD14C,0.127000*%
%ADD15C,0.100000*%
%ADD16C,0.504000*%
%ADD17C,1.900000*%
%ADD18C,1.700000*%
%ADD19R,2.100000X2.000000*%
%ADD20R,2.000000X2.000000*%
%ADD21R,2.500000X1.900000*%
%ADD22RoundRect,0.159000X-0.189000X0.159000X-0.189000X-0.159000X0.189000X-0.159000X0.189000X0.159000X0*%
%ADD23RoundRect,0.150000X-0.825000X-0.150000X0.825000X-0.150000X0.825000X0.150000X-0.825000X0.150000X0*%
%ADD24C,2.300000*%
%ADD25R,1.500000X1.500000*%
%ADD26C,1.500000*%
%ADD27RoundRect,0.250000X0.275000X-0.980000X0.275000X0.980000X-0.275000X0.980000X-0.275000X-0.980000X0*%
%ADD28C,0.500000*%
%ADD29RoundRect,0.250000X1.520000X-0.980000X1.520000X0.980000X-1.520000X0.980000X-1.520000X-0.980000X0*%
%ADD30RoundRect,0.266521X0.346479X0.671479X-0.346479X0.671479X-0.346479X-0.671479X0.346479X-0.671479X0*%
%ADD31RoundRect,0.131500X0.206500X0.131500X-0.206500X0.131500X-0.206500X-0.131500X0.206500X-0.131500X0*%
%ADD32RoundRect,0.159000X0.159000X0.189000X-0.159000X0.189000X-0.159000X-0.189000X0.159000X-0.189000X0*%
%ADD33RoundRect,0.152400X0.609600X-1.063600X0.609600X1.063600X-0.609600X1.063600X-0.609600X-1.063600X0*%
%ADD34C,1.524000*%
%ADD35RoundRect,0.152400X-0.609600X1.063600X-0.609600X-1.063600X0.609600X-1.063600X0.609600X1.063600X0*%
G04 APERTURE END LIST*
D10*
X143380952Y-141704819D02*
X142809524Y-141704819D01*
X143095238Y-141704819D02*
X143095238Y-140704819D01*
X143095238Y-140704819D02*
X143000000Y-140847676D01*
X143000000Y-140847676D02*
X142904762Y-140942914D01*
X142904762Y-140942914D02*
X142809524Y-140990533D01*
X143761905Y-140800057D02*
X143809524Y-140752438D01*
X143809524Y-140752438D02*
X143904762Y-140704819D01*
X143904762Y-140704819D02*
X144142857Y-140704819D01*
X144142857Y-140704819D02*
X144238095Y-140752438D01*
X144238095Y-140752438D02*
X144285714Y-140800057D01*
X144285714Y-140800057D02*
X144333333Y-140895295D01*
X144333333Y-140895295D02*
X144333333Y-140990533D01*
X144333333Y-140990533D02*
X144285714Y-141133390D01*
X144285714Y-141133390D02*
X143714286Y-141704819D01*
X143714286Y-141704819D02*
X144333333Y-141704819D01*
X144619048Y-140704819D02*
X144952381Y-141704819D01*
X144952381Y-141704819D02*
X145285714Y-140704819D01*
X142333333Y-85724580D02*
X142285714Y-85772200D01*
X142285714Y-85772200D02*
X142142857Y-85819819D01*
X142142857Y-85819819D02*
X142047619Y-85819819D01*
X142047619Y-85819819D02*
X141904762Y-85772200D01*
X141904762Y-85772200D02*
X141809524Y-85676961D01*
X141809524Y-85676961D02*
X141761905Y-85581723D01*
X141761905Y-85581723D02*
X141714286Y-85391247D01*
X141714286Y-85391247D02*
X141714286Y-85248390D01*
X141714286Y-85248390D02*
X141761905Y-85057914D01*
X141761905Y-85057914D02*
X141809524Y-84962676D01*
X141809524Y-84962676D02*
X141904762Y-84867438D01*
X141904762Y-84867438D02*
X142047619Y-84819819D01*
X142047619Y-84819819D02*
X142142857Y-84819819D01*
X142142857Y-84819819D02*
X142285714Y-84867438D01*
X142285714Y-84867438D02*
X142333333Y-84915057D01*
X142666667Y-84819819D02*
X143285714Y-84819819D01*
X143285714Y-84819819D02*
X142952381Y-85200771D01*
X142952381Y-85200771D02*
X143095238Y-85200771D01*
X143095238Y-85200771D02*
X143190476Y-85248390D01*
X143190476Y-85248390D02*
X143238095Y-85296009D01*
X143238095Y-85296009D02*
X143285714Y-85391247D01*
X143285714Y-85391247D02*
X143285714Y-85629342D01*
X143285714Y-85629342D02*
X143238095Y-85724580D01*
X143238095Y-85724580D02*
X143190476Y-85772200D01*
X143190476Y-85772200D02*
X143095238Y-85819819D01*
X143095238Y-85819819D02*
X142809524Y-85819819D01*
X142809524Y-85819819D02*
X142714286Y-85772200D01*
X142714286Y-85772200D02*
X142666667Y-85724580D01*
X129238095Y-82454819D02*
X129238095Y-83264342D01*
X129238095Y-83264342D02*
X129285714Y-83359580D01*
X129285714Y-83359580D02*
X129333333Y-83407200D01*
X129333333Y-83407200D02*
X129428571Y-83454819D01*
X129428571Y-83454819D02*
X129619047Y-83454819D01*
X129619047Y-83454819D02*
X129714285Y-83407200D01*
X129714285Y-83407200D02*
X129761904Y-83359580D01*
X129761904Y-83359580D02*
X129809523Y-83264342D01*
X129809523Y-83264342D02*
X129809523Y-82454819D01*
X130238095Y-82550057D02*
X130285714Y-82502438D01*
X130285714Y-82502438D02*
X130380952Y-82454819D01*
X130380952Y-82454819D02*
X130619047Y-82454819D01*
X130619047Y-82454819D02*
X130714285Y-82502438D01*
X130714285Y-82502438D02*
X130761904Y-82550057D01*
X130761904Y-82550057D02*
X130809523Y-82645295D01*
X130809523Y-82645295D02*
X130809523Y-82740533D01*
X130809523Y-82740533D02*
X130761904Y-82883390D01*
X130761904Y-82883390D02*
X130190476Y-83454819D01*
X130190476Y-83454819D02*
X130809523Y-83454819D01*
X125976190Y-81454819D02*
X125642857Y-80978628D01*
X125404762Y-81454819D02*
X125404762Y-80454819D01*
X125404762Y-80454819D02*
X125785714Y-80454819D01*
X125785714Y-80454819D02*
X125880952Y-80502438D01*
X125880952Y-80502438D02*
X125928571Y-80550057D01*
X125928571Y-80550057D02*
X125976190Y-80645295D01*
X125976190Y-80645295D02*
X125976190Y-80788152D01*
X125976190Y-80788152D02*
X125928571Y-80883390D01*
X125928571Y-80883390D02*
X125880952Y-80931009D01*
X125880952Y-80931009D02*
X125785714Y-80978628D01*
X125785714Y-80978628D02*
X125404762Y-80978628D01*
X126690476Y-80454819D02*
X126690476Y-81169104D01*
X126690476Y-81169104D02*
X126642857Y-81311961D01*
X126642857Y-81311961D02*
X126547619Y-81407200D01*
X126547619Y-81407200D02*
X126404762Y-81454819D01*
X126404762Y-81454819D02*
X126309524Y-81454819D01*
X127690476Y-81454819D02*
X127119048Y-81454819D01*
X127404762Y-81454819D02*
X127404762Y-80454819D01*
X127404762Y-80454819D02*
X127309524Y-80597676D01*
X127309524Y-80597676D02*
X127214286Y-80692914D01*
X127214286Y-80692914D02*
X127119048Y-80740533D01*
X128642857Y-81454819D02*
X128071429Y-81454819D01*
X128357143Y-81454819D02*
X128357143Y-80454819D01*
X128357143Y-80454819D02*
X128261905Y-80597676D01*
X128261905Y-80597676D02*
X128166667Y-80692914D01*
X128166667Y-80692914D02*
X128071429Y-80740533D01*
X129983333Y-116359580D02*
X129935714Y-116407200D01*
X129935714Y-116407200D02*
X129792857Y-116454819D01*
X129792857Y-116454819D02*
X129697619Y-116454819D01*
X129697619Y-116454819D02*
X129554762Y-116407200D01*
X129554762Y-116407200D02*
X129459524Y-116311961D01*
X129459524Y-116311961D02*
X129411905Y-116216723D01*
X129411905Y-116216723D02*
X129364286Y-116026247D01*
X129364286Y-116026247D02*
X129364286Y-115883390D01*
X129364286Y-115883390D02*
X129411905Y-115692914D01*
X129411905Y-115692914D02*
X129459524Y-115597676D01*
X129459524Y-115597676D02*
X129554762Y-115502438D01*
X129554762Y-115502438D02*
X129697619Y-115454819D01*
X129697619Y-115454819D02*
X129792857Y-115454819D01*
X129792857Y-115454819D02*
X129935714Y-115502438D01*
X129935714Y-115502438D02*
X129983333Y-115550057D01*
X130935714Y-116454819D02*
X130364286Y-116454819D01*
X130650000Y-116454819D02*
X130650000Y-115454819D01*
X130650000Y-115454819D02*
X130554762Y-115597676D01*
X130554762Y-115597676D02*
X130459524Y-115692914D01*
X130459524Y-115692914D02*
X130364286Y-115740533D01*
X140411905Y-116454819D02*
X140411905Y-115454819D01*
X140411905Y-115454819D02*
X140650000Y-115454819D01*
X140650000Y-115454819D02*
X140792857Y-115502438D01*
X140792857Y-115502438D02*
X140888095Y-115597676D01*
X140888095Y-115597676D02*
X140935714Y-115692914D01*
X140935714Y-115692914D02*
X140983333Y-115883390D01*
X140983333Y-115883390D02*
X140983333Y-116026247D01*
X140983333Y-116026247D02*
X140935714Y-116216723D01*
X140935714Y-116216723D02*
X140888095Y-116311961D01*
X140888095Y-116311961D02*
X140792857Y-116407200D01*
X140792857Y-116407200D02*
X140650000Y-116454819D01*
X140650000Y-116454819D02*
X140411905Y-116454819D01*
X141935714Y-116454819D02*
X141364286Y-116454819D01*
X141650000Y-116454819D02*
X141650000Y-115454819D01*
X141650000Y-115454819D02*
X141554762Y-115597676D01*
X141554762Y-115597676D02*
X141459524Y-115692914D01*
X141459524Y-115692914D02*
X141364286Y-115740533D01*
X135833333Y-116359580D02*
X135785714Y-116407200D01*
X135785714Y-116407200D02*
X135642857Y-116454819D01*
X135642857Y-116454819D02*
X135547619Y-116454819D01*
X135547619Y-116454819D02*
X135404762Y-116407200D01*
X135404762Y-116407200D02*
X135309524Y-116311961D01*
X135309524Y-116311961D02*
X135261905Y-116216723D01*
X135261905Y-116216723D02*
X135214286Y-116026247D01*
X135214286Y-116026247D02*
X135214286Y-115883390D01*
X135214286Y-115883390D02*
X135261905Y-115692914D01*
X135261905Y-115692914D02*
X135309524Y-115597676D01*
X135309524Y-115597676D02*
X135404762Y-115502438D01*
X135404762Y-115502438D02*
X135547619Y-115454819D01*
X135547619Y-115454819D02*
X135642857Y-115454819D01*
X135642857Y-115454819D02*
X135785714Y-115502438D01*
X135785714Y-115502438D02*
X135833333Y-115550057D01*
X136214286Y-115550057D02*
X136261905Y-115502438D01*
X136261905Y-115502438D02*
X136357143Y-115454819D01*
X136357143Y-115454819D02*
X136595238Y-115454819D01*
X136595238Y-115454819D02*
X136690476Y-115502438D01*
X136690476Y-115502438D02*
X136738095Y-115550057D01*
X136738095Y-115550057D02*
X136785714Y-115645295D01*
X136785714Y-115645295D02*
X136785714Y-115740533D01*
X136785714Y-115740533D02*
X136738095Y-115883390D01*
X136738095Y-115883390D02*
X136166667Y-116454819D01*
X136166667Y-116454819D02*
X136785714Y-116454819D01*
X127295133Y-92724580D02*
X127247514Y-92772200D01*
X127247514Y-92772200D02*
X127104657Y-92819819D01*
X127104657Y-92819819D02*
X127009419Y-92819819D01*
X127009419Y-92819819D02*
X126866562Y-92772200D01*
X126866562Y-92772200D02*
X126771324Y-92676961D01*
X126771324Y-92676961D02*
X126723705Y-92581723D01*
X126723705Y-92581723D02*
X126676086Y-92391247D01*
X126676086Y-92391247D02*
X126676086Y-92248390D01*
X126676086Y-92248390D02*
X126723705Y-92057914D01*
X126723705Y-92057914D02*
X126771324Y-91962676D01*
X126771324Y-91962676D02*
X126866562Y-91867438D01*
X126866562Y-91867438D02*
X127009419Y-91819819D01*
X127009419Y-91819819D02*
X127104657Y-91819819D01*
X127104657Y-91819819D02*
X127247514Y-91867438D01*
X127247514Y-91867438D02*
X127295133Y-91915057D01*
X127628467Y-91819819D02*
X128295133Y-91819819D01*
X128295133Y-91819819D02*
X127866562Y-92819819D01*
X127295133Y-85724580D02*
X127247514Y-85772200D01*
X127247514Y-85772200D02*
X127104657Y-85819819D01*
X127104657Y-85819819D02*
X127009419Y-85819819D01*
X127009419Y-85819819D02*
X126866562Y-85772200D01*
X126866562Y-85772200D02*
X126771324Y-85676961D01*
X126771324Y-85676961D02*
X126723705Y-85581723D01*
X126723705Y-85581723D02*
X126676086Y-85391247D01*
X126676086Y-85391247D02*
X126676086Y-85248390D01*
X126676086Y-85248390D02*
X126723705Y-85057914D01*
X126723705Y-85057914D02*
X126771324Y-84962676D01*
X126771324Y-84962676D02*
X126866562Y-84867438D01*
X126866562Y-84867438D02*
X127009419Y-84819819D01*
X127009419Y-84819819D02*
X127104657Y-84819819D01*
X127104657Y-84819819D02*
X127247514Y-84867438D01*
X127247514Y-84867438D02*
X127295133Y-84915057D01*
X128152276Y-85153152D02*
X128152276Y-85819819D01*
X127914181Y-84772200D02*
X127676086Y-85486485D01*
X127676086Y-85486485D02*
X128295133Y-85486485D01*
D11*
X144516190Y-94653479D02*
X144516190Y-95167526D01*
X144516190Y-95167526D02*
X144546428Y-95228002D01*
X144546428Y-95228002D02*
X144576666Y-95258241D01*
X144576666Y-95258241D02*
X144637142Y-95288479D01*
X144637142Y-95288479D02*
X144758095Y-95288479D01*
X144758095Y-95288479D02*
X144818571Y-95258241D01*
X144818571Y-95258241D02*
X144848809Y-95228002D01*
X144848809Y-95228002D02*
X144879047Y-95167526D01*
X144879047Y-95167526D02*
X144879047Y-94653479D01*
X145514047Y-95288479D02*
X145151190Y-95288479D01*
X145332618Y-95288479D02*
X145332618Y-94653479D01*
X145332618Y-94653479D02*
X145272142Y-94744193D01*
X145272142Y-94744193D02*
X145211666Y-94804669D01*
X145211666Y-94804669D02*
X145151190Y-94834907D01*
D10*
X127295133Y-89224580D02*
X127247514Y-89272200D01*
X127247514Y-89272200D02*
X127104657Y-89319819D01*
X127104657Y-89319819D02*
X127009419Y-89319819D01*
X127009419Y-89319819D02*
X126866562Y-89272200D01*
X126866562Y-89272200D02*
X126771324Y-89176961D01*
X126771324Y-89176961D02*
X126723705Y-89081723D01*
X126723705Y-89081723D02*
X126676086Y-88891247D01*
X126676086Y-88891247D02*
X126676086Y-88748390D01*
X126676086Y-88748390D02*
X126723705Y-88557914D01*
X126723705Y-88557914D02*
X126771324Y-88462676D01*
X126771324Y-88462676D02*
X126866562Y-88367438D01*
X126866562Y-88367438D02*
X127009419Y-88319819D01*
X127009419Y-88319819D02*
X127104657Y-88319819D01*
X127104657Y-88319819D02*
X127247514Y-88367438D01*
X127247514Y-88367438D02*
X127295133Y-88415057D01*
X128199895Y-88319819D02*
X127723705Y-88319819D01*
X127723705Y-88319819D02*
X127676086Y-88796009D01*
X127676086Y-88796009D02*
X127723705Y-88748390D01*
X127723705Y-88748390D02*
X127818943Y-88700771D01*
X127818943Y-88700771D02*
X128057038Y-88700771D01*
X128057038Y-88700771D02*
X128152276Y-88748390D01*
X128152276Y-88748390D02*
X128199895Y-88796009D01*
X128199895Y-88796009D02*
X128247514Y-88891247D01*
X128247514Y-88891247D02*
X128247514Y-89129342D01*
X128247514Y-89129342D02*
X128199895Y-89224580D01*
X128199895Y-89224580D02*
X128152276Y-89272200D01*
X128152276Y-89272200D02*
X128057038Y-89319819D01*
X128057038Y-89319819D02*
X127818943Y-89319819D01*
X127818943Y-89319819D02*
X127723705Y-89272200D01*
X127723705Y-89272200D02*
X127676086Y-89224580D01*
D12*
%TO.C,12V*%
X130700000Y-137320000D02*
X130700000Y-133780000D01*
X139800000Y-133680000D02*
X139800000Y-137370000D01*
X130700000Y-141620000D02*
X139800000Y-141620000D01*
X139800000Y-130630000D02*
X130700000Y-130630000D01*
X139800000Y-128450000D02*
X139800000Y-131220000D01*
X137210000Y-129580000D02*
X130700000Y-129580000D01*
X137210000Y-128450000D02*
X137210000Y-129580000D01*
X139800000Y-128450000D02*
X137210000Y-128450000D01*
X130700000Y-129580000D02*
X130700000Y-131320000D01*
X139800000Y-139730000D02*
X139800000Y-143350000D01*
X130700000Y-143350000D02*
X130700000Y-139780000D01*
X139800000Y-143350000D02*
X130700000Y-143350000D01*
D13*
%TO.C,U2*%
X132300000Y-83995000D02*
X132060000Y-83665000D01*
X132540000Y-83665000D01*
X132300000Y-83995000D01*
G36*
X132300000Y-83995000D02*
G01*
X132060000Y-83665000D01*
X132540000Y-83665000D01*
X132300000Y-83995000D01*
G37*
X135000000Y-83940000D02*
X133050000Y-83940000D01*
X135000000Y-83940000D02*
X136950000Y-83940000D01*
X135000000Y-94060000D02*
X133050000Y-94060000D01*
X135000000Y-94060000D02*
X136950000Y-94060000D01*
D12*
%TO.C,RJ11*%
X128072500Y-70832500D02*
X128072500Y-72032500D01*
X129072500Y-70832500D02*
X128072500Y-70832500D01*
X129072500Y-72032500D02*
X128072500Y-72032500D01*
X129072500Y-73132500D02*
X129072500Y-68532500D01*
X129072500Y-81532500D02*
X129072500Y-75932500D01*
X141272500Y-68532500D02*
X129072500Y-68532500D01*
X141272500Y-68532500D02*
X141272500Y-73132500D01*
X141272500Y-70832500D02*
X142272500Y-70832500D01*
X141272500Y-72032500D02*
X142272500Y-72032500D01*
X141272500Y-75932500D02*
X141272500Y-81532500D01*
X141272500Y-81532500D02*
X129072500Y-81532500D01*
X142272500Y-72032500D02*
X142272500Y-70832500D01*
D10*
%TO.C,U3*%
X130300000Y-123460000D02*
X137100000Y-123460000D01*
X130300000Y-126260000D02*
X130300000Y-123460000D01*
X137100000Y-123460000D02*
X137100000Y-126260000D01*
X137100000Y-126260000D02*
X130300000Y-126260000D01*
X136730000Y-123110000D02*
G75*
G02*
X136670000Y-123110000I-30000J0D01*
G01*
X136670000Y-123110000D02*
G75*
G02*
X136730000Y-123110000I30000J0D01*
G01*
%TO.C,D1*%
X142760000Y-117150000D02*
X140100000Y-117150000D01*
X142760000Y-118850000D02*
X140100000Y-118850000D01*
X142760000Y-118850000D02*
X142760000Y-117150000D01*
D14*
%TO.C,U1*%
X124206000Y-98470000D02*
X124206000Y-112440000D01*
X126111000Y-96565000D02*
X143256000Y-96565000D01*
X126111000Y-114345000D02*
X143256000Y-114345000D01*
X145161000Y-100960000D02*
X146171272Y-100963728D01*
D15*
X145161000Y-112440000D02*
X145161000Y-98470000D01*
D14*
X145161000Y-112440000D02*
X145161000Y-98470000D01*
X146171000Y-109959000D02*
X145161000Y-109959000D01*
X146671000Y-101463728D02*
X146671000Y-109459000D01*
X124206000Y-98470000D02*
G75*
G02*
X126111000Y-96565000I1905001J-1D01*
G01*
X126111000Y-114345000D02*
G75*
G02*
X124206000Y-112440000I0J1905000D01*
G01*
X143256000Y-96565000D02*
G75*
G02*
X145161000Y-98470000I-1J-1905001D01*
G01*
X145161000Y-112440000D02*
G75*
G02*
X143256000Y-114345000I-1905000J0D01*
G01*
X146171272Y-100963728D02*
G75*
G02*
X146670999Y-101463728I-291J-500018D01*
G01*
X146671000Y-109459000D02*
G75*
G02*
X146171000Y-109959000I-500000J0D01*
G01*
D16*
X144242000Y-97598000D02*
G75*
G02*
X143738000Y-97598000I-252000J0D01*
G01*
X143738000Y-97598000D02*
G75*
G02*
X144242000Y-97598000I252000J0D01*
G01*
X145122000Y-96455000D02*
G75*
G02*
X144618000Y-96455000I-252000J0D01*
G01*
X144618000Y-96455000D02*
G75*
G02*
X145122000Y-96455000I252000J0D01*
G01*
%TD*%
%LPC*%
D17*
%TO.C,12V*%
X135300000Y-134250000D03*
D18*
X135300000Y-138550000D03*
D19*
X129800000Y-132550000D03*
D20*
X140750000Y-132450000D03*
D21*
X141000000Y-138550000D03*
D19*
X129800000Y-138550000D03*
%TD*%
D22*
%TO.C,C3*%
X140000000Y-85865000D03*
X140000000Y-84865000D03*
%TD*%
D23*
%TO.C,U2*%
X137475000Y-84555000D03*
X137475000Y-85825000D03*
X137475000Y-87095000D03*
X137475000Y-88365000D03*
X137475000Y-89635000D03*
X137475000Y-90905000D03*
X137475000Y-92175000D03*
X137475000Y-93445000D03*
X132525000Y-93445000D03*
X132525000Y-92175000D03*
X132525000Y-90905000D03*
X132525000Y-89635000D03*
X132525000Y-88365000D03*
X132525000Y-87095000D03*
X132525000Y-85825000D03*
X132525000Y-84555000D03*
%TD*%
D24*
%TO.C,RJ11*%
X141172500Y-74532500D03*
X129172500Y-74532500D03*
D25*
X133642500Y-76832500D03*
D26*
X134662500Y-79372500D03*
X135682500Y-76832500D03*
X136702500Y-79372500D03*
%TD*%
D27*
%TO.C,U3*%
X136000000Y-122000000D03*
X133700000Y-122000000D03*
X131400000Y-122000000D03*
D28*
X132700000Y-127860000D03*
X133700000Y-127860000D03*
D29*
X133700000Y-127860000D03*
D28*
X134700000Y-127860000D03*
%TD*%
D30*
%TO.C,C1*%
X131630000Y-118000000D03*
X128670000Y-118000000D03*
%TD*%
D31*
%TO.C,D1*%
X142200000Y-118000000D03*
X140100000Y-118000000D03*
%TD*%
D30*
%TO.C,C2*%
X137480000Y-118000000D03*
X134520000Y-118000000D03*
%TD*%
D22*
%TO.C,C7*%
X129961800Y-91865000D03*
X129961800Y-92865000D03*
%TD*%
D32*
%TO.C,C6*%
X134461800Y-82365000D03*
X133461800Y-82365000D03*
%TD*%
D22*
%TO.C,C4*%
X129961800Y-84865000D03*
X129961800Y-85865000D03*
%TD*%
D33*
%TO.C,U1*%
X142240000Y-97000000D03*
D34*
X142240000Y-97835000D03*
D33*
X139700000Y-97000000D03*
D34*
X139700000Y-97835000D03*
D33*
X137160000Y-97000000D03*
D34*
X137160000Y-97835000D03*
D33*
X134620000Y-97000000D03*
D34*
X134620000Y-97835000D03*
D33*
X132080000Y-97000000D03*
D34*
X132080000Y-97835000D03*
D33*
X129540000Y-97000000D03*
D34*
X129540000Y-97835000D03*
D33*
X127000000Y-97000000D03*
D34*
X127000000Y-97835000D03*
X127000000Y-113075000D03*
D35*
X127000000Y-113910000D03*
D34*
X129540000Y-113075000D03*
D35*
X129540000Y-113910000D03*
D34*
X132080000Y-113075000D03*
D35*
X132080000Y-113910000D03*
D34*
X134620000Y-113075000D03*
D35*
X134620000Y-113910000D03*
D34*
X137160000Y-113075000D03*
D35*
X137160000Y-113910000D03*
D34*
X139700000Y-113075000D03*
D35*
X139700000Y-113910000D03*
D34*
X142240000Y-113075000D03*
D35*
X142240000Y-113910000D03*
%TD*%
D22*
%TO.C,C5*%
X129961800Y-88365000D03*
X129961800Y-89365000D03*
%TD*%
%LPD*%
M02*
