M48
; DRILL file {KiCad 9.0.3} date 2025-09-11T19:13:47+0200
; FORMAT={-:-/ absolute / inch / decimal}
; #@! TF.CreationDate,2025-09-11T19:13:47+02:00
; #@! TF.GenerationSoftware,Kicad,Pcbnew,9.0.3
; #@! TF.FileFunction,Plated,1,2,PTH
FMAT,2
INCH
; #@! TA.AperFunction,Plated,PTH,ViaDrill
T1C0.0118
; #@! TA.AperFunction,Plated,PTH,ComponentDrill
T2C0.0315
; #@! TA.AperFunction,Plated,PTH,ComponentDrill
T3C0.0350
; #@! TA.AperFunction,Plated,PTH,ComponentDrill
T4C0.0669
; #@! TA.AperFunction,Plated,PTH,ComponentDrill
T5C0.0748
; #@! TA.AperFunction,Plated,PTH,ComponentDrill
T6C0.0906
%
G90
G05
T1
X5.1181Y-3.7008
X5.315Y-4.5669
X5.3445Y-3.2382
X5.3937Y-4.9213
X5.5512Y-3.376
X5.5512Y-5.3543
T2
X5.2615Y-3.0249
X5.3017Y-3.1249
X5.3418Y-3.0249
X5.382Y-3.1249
T3
X5.0Y-3.8518
X5.0Y-4.4518
X5.1Y-3.8518
X5.1Y-4.4518
X5.2Y-3.8518
X5.2Y-4.4518
X5.3Y-3.8518
X5.3Y-4.4518
X5.4Y-3.8518
X5.4Y-4.4518
X5.5Y-3.8518
X5.5Y-4.4518
X5.6Y-3.8518
X5.6Y-4.4518
T4
X5.3268Y-5.4547
T5
X5.3268Y-5.2854
T6
X5.0855Y-2.9344
X5.558Y-2.9344
M30
