%TF.GenerationSoftware,KiCad,Pcbnew,9.0.3*%
%TF.CreationDate,2025-09-07T17:59:26+02:00*%
%TF.ProjectId,AM03127-Controller,414d3033-3132-4372-9d43-6f6e74726f6c,rev?*%
%TF.SameCoordinates,Original*%
%TF.FileFunction,Copper,L1,Top*%
%TF.FilePolarity,Positive*%
%FSLAX46Y46*%
G04 Gerber Fmt 4.6, Leading zero omitted, Abs format (unit mm)*
G04 Created by KiCad (PCBNEW 9.0.3) date 2025-09-07 17:59:26*
%MOMM*%
%LPD*%
G01*
G04 APERTURE LIST*
G04 Aperture macros list*
%AMRoundRect*
0 Rectangle with rounded corners*
0 $1 Rounding radius*
0 $2 $3 $4 $5 $6 $7 $8 $9 X,Y pos of 4 corners*
0 Add a 4 corners polygon primitive as box body*
4,1,4,$2,$3,$4,$5,$6,$7,$8,$9,$2,$3,0*
0 Add four circle primitives for the rounded corners*
1,1,$1+$1,$2,$3*
1,1,$1+$1,$4,$5*
1,1,$1+$1,$6,$7*
1,1,$1+$1,$8,$9*
0 Add four rect primitives between the rounded corners*
20,1,$1+$1,$2,$3,$4,$5,0*
20,1,$1+$1,$4,$5,$6,$7,0*
20,1,$1+$1,$6,$7,$8,$9,0*
20,1,$1+$1,$8,$9,$2,$3,0*%
G04 Aperture macros list end*
%TA.AperFunction,SMDPad,CuDef*%
%ADD10RoundRect,0.250000X-0.250000X-0.475000X0.250000X-0.475000X0.250000X0.475000X-0.250000X0.475000X0*%
%TD*%
%TA.AperFunction,SMDPad,CuDef*%
%ADD11RoundRect,0.140000X0.170000X-0.140000X0.170000X0.140000X-0.170000X0.140000X-0.170000X-0.140000X0*%
%TD*%
%TA.AperFunction,SMDPad,CuDef*%
%ADD12RoundRect,0.250000X0.250000X0.475000X-0.250000X0.475000X-0.250000X-0.475000X0.250000X-0.475000X0*%
%TD*%
%TA.AperFunction,ComponentPad*%
%ADD13C,1.900000*%
%TD*%
%TA.AperFunction,ComponentPad*%
%ADD14C,1.700000*%
%TD*%
%TA.AperFunction,SMDPad,CuDef*%
%ADD15R,2.100000X2.000000*%
%TD*%
%TA.AperFunction,SMDPad,CuDef*%
%ADD16R,2.500000X1.900000*%
%TD*%
%TA.AperFunction,SMDPad,CuDef*%
%ADD17R,2.000000X2.000000*%
%TD*%
%TA.AperFunction,SMDPad,CuDef*%
%ADD18RoundRect,0.150000X-0.825000X-0.150000X0.825000X-0.150000X0.825000X0.150000X-0.825000X0.150000X0*%
%TD*%
%TA.AperFunction,SMDPad,CuDef*%
%ADD19RoundRect,0.112500X0.187500X0.112500X-0.187500X0.112500X-0.187500X-0.112500X0.187500X-0.112500X0*%
%TD*%
%TA.AperFunction,SMDPad,CuDef*%
%ADD20RoundRect,0.140000X-0.170000X0.140000X-0.170000X-0.140000X0.170000X-0.140000X0.170000X0.140000X0*%
%TD*%
%TA.AperFunction,SMDPad,CuDef*%
%ADD21RoundRect,0.250000X0.275000X0.700000X-0.275000X0.700000X-0.275000X-0.700000X0.275000X-0.700000X0*%
%TD*%
%TA.AperFunction,SMDPad,CuDef*%
%ADD22RoundRect,0.150000X-0.512500X-0.150000X0.512500X-0.150000X0.512500X0.150000X-0.512500X0.150000X0*%
%TD*%
%TA.AperFunction,SMDPad,CuDef*%
%ADD23RoundRect,0.152400X0.609600X-1.063600X0.609600X1.063600X-0.609600X1.063600X-0.609600X-1.063600X0*%
%TD*%
%TA.AperFunction,ComponentPad*%
%ADD24C,1.524000*%
%TD*%
%TA.AperFunction,SMDPad,CuDef*%
%ADD25RoundRect,0.152400X-0.609600X1.063600X-0.609600X-1.063600X0.609600X-1.063600X0.609600X1.063600X0*%
%TD*%
%TA.AperFunction,ComponentPad*%
%ADD26C,2.300000*%
%TD*%
%TA.AperFunction,ComponentPad*%
%ADD27R,1.500000X1.500000*%
%TD*%
%TA.AperFunction,ComponentPad*%
%ADD28C,1.500000*%
%TD*%
%TA.AperFunction,ViaPad*%
%ADD29C,0.600000*%
%TD*%
%TA.AperFunction,Conductor*%
%ADD30C,0.300000*%
%TD*%
%TA.AperFunction,Conductor*%
%ADD31C,0.500000*%
%TD*%
%TA.AperFunction,Conductor*%
%ADD32C,0.400000*%
%TD*%
G04 APERTURE END LIST*
D10*
%TO.P,C6,1*%
%TO.N,+3.3V*%
X140100000Y-84000000D03*
%TO.P,C6,2*%
%TO.N,GND*%
X142000000Y-84000000D03*
%TD*%
%TO.P,C1,2*%
%TO.N,GND*%
X136700000Y-126000000D03*
%TO.P,C1,1*%
%TO.N,+12V*%
X134800000Y-126000000D03*
%TD*%
D11*
%TO.P,C9,2*%
%TO.N,GND*%
X134000000Y-82250000D03*
%TO.P,C9,1*%
%TO.N,Net-(U3-VS+)*%
X134000000Y-83250000D03*
%TD*%
D12*
%TO.P,C2,1*%
%TO.N,/BuckFeedback*%
X131800000Y-121000000D03*
%TO.P,C2,2*%
%TO.N,GND*%
X129900000Y-121000000D03*
%TD*%
D13*
%TO.P,DC1,*%
%TO.N,*%
X135300000Y-134250000D03*
D14*
X135300000Y-138550000D03*
D15*
%TO.P,DC1,1,1*%
%TO.N,+12V*%
X129800000Y-132550000D03*
X129800000Y-138550000D03*
D16*
%TO.P,DC1,2,2*%
%TO.N,GND*%
X141000000Y-138550000D03*
D17*
%TO.P,DC1,3,3*%
X140750000Y-132450000D03*
%TD*%
D18*
%TO.P,U3,1,C1+*%
%TO.N,Net-(U3-C1+)*%
X132525000Y-84555000D03*
%TO.P,U3,2,VS+*%
%TO.N,Net-(U3-VS+)*%
X132525000Y-85825000D03*
%TO.P,U3,3,C1-*%
%TO.N,Net-(U3-C1-)*%
X132525000Y-87095000D03*
%TO.P,U3,4,C2+*%
%TO.N,Net-(U3-C2+)*%
X132525000Y-88365000D03*
%TO.P,U3,5,C2-*%
%TO.N,Net-(U3-C2-)*%
X132525000Y-89635000D03*
%TO.P,U3,6,VS-*%
%TO.N,Net-(U3-VS-)*%
X132525000Y-90905000D03*
%TO.P,U3,7,T2OUT*%
%TO.N,unconnected-(U3-T2OUT-Pad7)*%
X132525000Y-92175000D03*
%TO.P,U3,8,R2IN*%
%TO.N,unconnected-(U3-R2IN-Pad8)*%
X132525000Y-93445000D03*
%TO.P,U3,9,R2OUT*%
%TO.N,unconnected-(U3-R2OUT-Pad9)*%
X137475000Y-93445000D03*
%TO.P,U3,10,T2IN*%
%TO.N,unconnected-(U3-T2IN-Pad10)*%
X137475000Y-92175000D03*
%TO.P,U3,11,T1IN*%
%TO.N,/UART TX*%
X137475000Y-90905000D03*
%TO.P,U3,12,R1OUT*%
%TO.N,/UART RX*%
X137475000Y-89635000D03*
%TO.P,U3,13,R1IN*%
%TO.N,/RS232 RX*%
X137475000Y-88365000D03*
%TO.P,U3,14,T1OUT*%
%TO.N,/RS232 TX*%
X137475000Y-87095000D03*
%TO.P,U3,15,GND*%
%TO.N,GND*%
X137475000Y-85825000D03*
%TO.P,U3,16,VCC*%
%TO.N,+3.3V*%
X137475000Y-84555000D03*
%TD*%
D19*
%TO.P,D1,1*%
%TO.N,+5V*%
X142200000Y-118000000D03*
%TO.P,D1,2*%
%TO.N,/BuckFeedback*%
X140100000Y-118000000D03*
%TD*%
D12*
%TO.P,C3,1*%
%TO.N,/BuckFeedback*%
X131800000Y-124000000D03*
%TO.P,C3,2*%
%TO.N,GND*%
X129900000Y-124000000D03*
%TD*%
D11*
%TO.P,C4,1*%
%TO.N,Net-(U1-SW)*%
X139000000Y-122500000D03*
%TO.P,C4,2*%
%TO.N,/BuckOut*%
X139000000Y-121500000D03*
%TD*%
D20*
%TO.P,C10,1*%
%TO.N,Net-(U3-VS-)*%
X129961800Y-91865000D03*
%TO.P,C10,2*%
%TO.N,GND*%
X129961800Y-92865000D03*
%TD*%
D21*
%TO.P,L1,1*%
%TO.N,/BuckOut*%
X137520000Y-118000000D03*
%TO.P,L1,2*%
%TO.N,/BuckFeedback*%
X134380000Y-118000000D03*
%TD*%
D22*
%TO.P,U1,1,FB*%
%TO.N,/BuckFeedback*%
X134725000Y-122000000D03*
%TO.P,U1,2,EN*%
%TO.N,+12V*%
X134725000Y-122950000D03*
%TO.P,U1,3,IN*%
X134725000Y-123900000D03*
%TO.P,U1,4,GND*%
%TO.N,GND*%
X137000000Y-123900000D03*
%TO.P,U1,5,SW*%
%TO.N,Net-(U1-SW)*%
X137000000Y-122950000D03*
%TO.P,U1,6,BST*%
%TO.N,/BuckOut*%
X137000000Y-122000000D03*
%TD*%
D20*
%TO.P,C7,1*%
%TO.N,Net-(U3-C1+)*%
X129961800Y-84865000D03*
%TO.P,C7,2*%
%TO.N,Net-(U3-C1-)*%
X129961800Y-85865000D03*
%TD*%
D23*
%TO.P,U2,1,GPIO2/A0/D0*%
%TO.N,/UART RX*%
X142240000Y-97000000D03*
D24*
X142240000Y-97835000D03*
D23*
%TO.P,U2,2,GPIO3/A1/D1*%
%TO.N,/UART TX*%
X139700000Y-97000000D03*
D24*
X139700000Y-97835000D03*
D23*
%TO.P,U2,3,GPIO4/A2/D2*%
%TO.N,unconnected-(U2-GPIO4{slash}A2{slash}D2-Pad3)*%
X137160000Y-97000000D03*
D24*
%TO.N,unconnected-(U2-GPIO4{slash}A2{slash}D2-Pad3)_1*%
X137160000Y-97835000D03*
D23*
%TO.P,U2,4,GPIO5/A3/D3*%
%TO.N,unconnected-(U2-GPIO5{slash}A3{slash}D3-Pad4)_1*%
X134620000Y-97000000D03*
D24*
%TO.N,unconnected-(U2-GPIO5{slash}A3{slash}D3-Pad4)*%
X134620000Y-97835000D03*
D23*
%TO.P,U2,5,GPIO6/D4/SDA*%
%TO.N,unconnected-(U2-GPIO6{slash}D4{slash}SDA-Pad5)*%
X132080000Y-97000000D03*
D24*
%TO.N,unconnected-(U2-GPIO6{slash}D4{slash}SDA-Pad5)_1*%
X132080000Y-97835000D03*
D23*
%TO.P,U2,6,GPIO7/D5/SCL*%
%TO.N,unconnected-(U2-GPIO7{slash}D5{slash}SCL-Pad6)*%
X129540000Y-97000000D03*
D24*
%TO.N,unconnected-(U2-GPIO7{slash}D5{slash}SCL-Pad6)_1*%
X129540000Y-97835000D03*
D23*
%TO.P,U2,7,GPIO21/D6/TX*%
%TO.N,unconnected-(U2-GPIO21{slash}D6{slash}TX-Pad7)*%
X127000000Y-97000000D03*
D24*
%TO.N,unconnected-(U2-GPIO21{slash}D6{slash}TX-Pad7)_1*%
X127000000Y-97835000D03*
%TO.P,U2,8,GPIO20/D7/RX*%
%TO.N,unconnected-(U2-GPIO20{slash}D7{slash}RX-Pad8)*%
X127000000Y-113075000D03*
D25*
%TO.N,unconnected-(U2-GPIO20{slash}D7{slash}RX-Pad8)_1*%
X127000000Y-113910000D03*
D24*
%TO.P,U2,9,GPIO8/D8/SCK*%
%TO.N,unconnected-(U2-GPIO8{slash}D8{slash}SCK-Pad9)*%
X129540000Y-113075000D03*
D25*
%TO.N,unconnected-(U2-GPIO8{slash}D8{slash}SCK-Pad9)_1*%
X129540000Y-113910000D03*
D24*
%TO.P,U2,10,GPIO9/D9/MISO*%
%TO.N,unconnected-(U2-GPIO9{slash}D9{slash}MISO-Pad10)_1*%
X132080000Y-113075000D03*
D25*
%TO.N,unconnected-(U2-GPIO9{slash}D9{slash}MISO-Pad10)*%
X132080000Y-113910000D03*
D24*
%TO.P,U2,11,GPIO10/D10/MOSI*%
%TO.N,unconnected-(U2-GPIO10{slash}D10{slash}MOSI-Pad11)*%
X134620000Y-113075000D03*
D25*
%TO.N,unconnected-(U2-GPIO10{slash}D10{slash}MOSI-Pad11)_1*%
X134620000Y-113910000D03*
D24*
%TO.P,U2,12,VCC_3V3*%
%TO.N,+3.3V*%
X137160000Y-113075000D03*
D25*
X137160000Y-113910000D03*
D24*
%TO.P,U2,13,GND*%
%TO.N,GND*%
X139700000Y-113075000D03*
D25*
X139700000Y-113910000D03*
D24*
%TO.P,U2,14,VBUS*%
%TO.N,+5V*%
X142240000Y-113075000D03*
D25*
X142240000Y-113910000D03*
%TD*%
D20*
%TO.P,C8,1*%
%TO.N,Net-(U3-C2+)*%
X129961800Y-88365000D03*
%TO.P,C8,2*%
%TO.N,Net-(U3-C2-)*%
X129961800Y-89365000D03*
%TD*%
D11*
%TO.P,C5,2*%
%TO.N,GND*%
X137500000Y-82250000D03*
%TO.P,C5,1*%
%TO.N,+3.3V*%
X137500000Y-83250000D03*
%TD*%
D26*
%TO.P,RJ11,*%
%TO.N,*%
X141172500Y-74532500D03*
X129172500Y-74532500D03*
D27*
%TO.P,RJ11,1,1*%
%TO.N,GND*%
X133642500Y-76832500D03*
D28*
%TO.P,RJ11,2,2*%
%TO.N,/RS232 TX*%
X134662500Y-79372500D03*
%TO.P,RJ11,3,3*%
%TO.N,/RS232 RX*%
X135682500Y-76832500D03*
%TO.P,RJ11,4,4*%
%TO.N,unconnected-(RJ11-Pad4)*%
X136702500Y-79372500D03*
%TD*%
D29*
%TO.N,+3.3V*%
X136000000Y-84500000D03*
%TD*%
D30*
%TO.N,/RS232 RX*%
X145000000Y-86000000D02*
X145000000Y-81000000D01*
%TO.N,/RS232 TX*%
X137475000Y-87095000D02*
X141905000Y-87095000D01*
X141905000Y-87095000D02*
X144000000Y-85000000D01*
X144000000Y-85000000D02*
X144000000Y-82000000D01*
X144000000Y-82000000D02*
X140000000Y-78000000D01*
X140000000Y-78000000D02*
X136035000Y-78000000D01*
X136035000Y-78000000D02*
X134662500Y-79372500D01*
%TO.N,/RS232 RX*%
X137475000Y-88365000D02*
X142635000Y-88365000D01*
X142635000Y-88365000D02*
X145000000Y-86000000D01*
X145000000Y-81000000D02*
X140832500Y-76832500D01*
X140832500Y-76832500D02*
X135682500Y-76832500D01*
D31*
%TO.N,+3.3V*%
X137475000Y-84555000D02*
X139545000Y-84555000D01*
X139545000Y-84555000D02*
X140100000Y-84000000D01*
X137475000Y-84555000D02*
X137475000Y-83275000D01*
X137475000Y-83275000D02*
X137500000Y-83250000D01*
X136000000Y-84500000D02*
X137420000Y-84500000D01*
X137420000Y-84500000D02*
X137475000Y-84555000D01*
%TO.N,+12V*%
X134800000Y-126000000D02*
X134800000Y-123975000D01*
X134800000Y-123975000D02*
X134725000Y-123900000D01*
X129800000Y-129200000D02*
X133000000Y-126000000D01*
X133000000Y-126000000D02*
X134800000Y-126000000D01*
D30*
%TO.N,Net-(U3-VS+)*%
X132525000Y-85825000D02*
X133499999Y-85825000D01*
X133499999Y-85825000D02*
X134000000Y-85324999D01*
X134000000Y-85324999D02*
X134000000Y-83250000D01*
D31*
%TO.N,+3.3V*%
X137500000Y-84500000D02*
X137500000Y-84530000D01*
X137500000Y-84530000D02*
X137475000Y-84555000D01*
D30*
%TO.N,GND*%
X133642500Y-77357500D02*
X133642500Y-76832500D01*
%TO.N,Net-(U3-C1-)*%
X132525000Y-87095000D02*
X131191800Y-87095000D01*
X131191800Y-87095000D02*
X129961800Y-85865000D01*
%TO.N,Net-(U3-C1+)*%
X130271800Y-84555000D02*
X129961800Y-84865000D01*
X132525000Y-84555000D02*
X130271800Y-84555000D01*
%TO.N,Net-(U3-C2+)*%
X132525000Y-88365000D02*
X129961800Y-88365000D01*
%TO.N,Net-(U3-C2-)*%
X132525000Y-89635000D02*
X132447300Y-89712700D01*
X130231800Y-89635000D02*
X129961800Y-89365000D01*
X132525000Y-89635000D02*
X130231800Y-89635000D01*
D31*
%TO.N,+12V*%
X129800000Y-138550000D02*
X129800000Y-132550000D01*
X129800000Y-132550000D02*
X129800000Y-129200000D01*
X134725000Y-123900000D02*
X134725000Y-122950000D01*
D30*
%TO.N,Net-(U3-VS-)*%
X130921800Y-90905000D02*
X132525000Y-90905000D01*
X129961800Y-91865000D02*
X130921800Y-90905000D01*
D31*
%TO.N,+3.3V*%
X137160000Y-113910000D02*
X137160000Y-113075000D01*
D30*
%TO.N,/RS232 TX*%
X136811146Y-87095000D02*
X137475000Y-87095000D01*
%TO.N,Net-(U1-SW)*%
X138550000Y-122950000D02*
X139000000Y-122500000D01*
X137000000Y-122950000D02*
X138550000Y-122950000D01*
%TO.N,/RS232 RX*%
X135645450Y-76832500D02*
X135682500Y-76832500D01*
%TO.N,/UART TX*%
X139700000Y-97000000D02*
X139700000Y-97835000D01*
X139700000Y-92155001D02*
X139700000Y-97835000D01*
X137475000Y-90905000D02*
X138449999Y-90905000D01*
X138449999Y-90905000D02*
X139700000Y-92155001D01*
%TO.N,/UART RX*%
X138449999Y-89635000D02*
X142240000Y-93425001D01*
X137475000Y-89635000D02*
X138449999Y-89635000D01*
X142240000Y-97835000D02*
X142240000Y-97000000D01*
X142240000Y-93425001D02*
X142240000Y-97835000D01*
D31*
%TO.N,+5V*%
X142200000Y-118000000D02*
X142200000Y-113950000D01*
X142200000Y-113950000D02*
X142240000Y-113910000D01*
D32*
X142240000Y-113075000D02*
X142240000Y-113910000D01*
D31*
%TO.N,/BuckFeedback*%
X134725000Y-122000000D02*
X134725000Y-118345000D01*
X134725000Y-122000000D02*
X133800000Y-122000000D01*
X135781000Y-116599000D02*
X138699000Y-116599000D01*
X138699000Y-116599000D02*
X140100000Y-118000000D01*
X132800000Y-122000000D02*
X131800000Y-121000000D01*
X134380000Y-118000000D02*
X135781000Y-116599000D01*
X134725000Y-118345000D02*
X134380000Y-118000000D01*
X134725000Y-122000000D02*
X133430000Y-122000000D01*
X133800000Y-122000000D02*
X131800000Y-124000000D01*
X134725000Y-122000000D02*
X132800000Y-122000000D01*
%TO.N,/BuckOut*%
X139000000Y-121500000D02*
X137500000Y-121500000D01*
X137000000Y-122000000D02*
X137000000Y-118520000D01*
X137500000Y-121500000D02*
X137000000Y-122000000D01*
X137000000Y-118520000D02*
X137520000Y-118000000D01*
%TD*%
%TA.AperFunction,Conductor*%
%TO.N,GND*%
G36*
X146442539Y-68520185D02*
G01*
X146488294Y-68572989D01*
X146499500Y-68624500D01*
X146499500Y-143330500D01*
X146479815Y-143397539D01*
X146427011Y-143443294D01*
X146375500Y-143454500D01*
X124624500Y-143454500D01*
X124557461Y-143434815D01*
X124511706Y-143382011D01*
X124500500Y-143330500D01*
X124500500Y-124524986D01*
X128900001Y-124524986D01*
X128910494Y-124627697D01*
X128965641Y-124794119D01*
X128965643Y-124794124D01*
X129057684Y-124943345D01*
X129181654Y-125067315D01*
X129330875Y-125159356D01*
X129330880Y-125159358D01*
X129497302Y-125214505D01*
X129497309Y-125214506D01*
X129600019Y-125224999D01*
X129649999Y-125224998D01*
X129650000Y-125224998D01*
X129650000Y-124250000D01*
X128900001Y-124250000D01*
X128900001Y-124524986D01*
X124500500Y-124524986D01*
X124500500Y-123475013D01*
X128900000Y-123475013D01*
X128900000Y-123750000D01*
X129650000Y-123750000D01*
X129650000Y-122775000D01*
X129649999Y-122774999D01*
X129600029Y-122775000D01*
X129600011Y-122775001D01*
X129497302Y-122785494D01*
X129330880Y-122840641D01*
X129330875Y-122840643D01*
X129181654Y-122932684D01*
X129057684Y-123056654D01*
X128965643Y-123205875D01*
X128965641Y-123205880D01*
X128910494Y-123372302D01*
X128910493Y-123372309D01*
X128900000Y-123475013D01*
X124500500Y-123475013D01*
X124500500Y-121524986D01*
X128900001Y-121524986D01*
X128910494Y-121627697D01*
X128965641Y-121794119D01*
X128965643Y-121794124D01*
X129057684Y-121943345D01*
X129181654Y-122067315D01*
X129330875Y-122159356D01*
X129330880Y-122159358D01*
X129497302Y-122214505D01*
X129497309Y-122214506D01*
X129600019Y-122224999D01*
X129649999Y-122224998D01*
X129650000Y-122224998D01*
X129650000Y-121250000D01*
X128900001Y-121250000D01*
X128900001Y-121524986D01*
X124500500Y-121524986D01*
X124500500Y-120475013D01*
X128900000Y-120475013D01*
X128900000Y-120750000D01*
X129650000Y-120750000D01*
X129650000Y-119775000D01*
X129649999Y-119774999D01*
X129600029Y-119775000D01*
X129600011Y-119775001D01*
X129497302Y-119785494D01*
X129330880Y-119840641D01*
X129330875Y-119840643D01*
X129181654Y-119932684D01*
X129057684Y-120056654D01*
X128965643Y-120205875D01*
X128965641Y-120205880D01*
X128910494Y-120372302D01*
X128910493Y-120372309D01*
X128900000Y-120475013D01*
X124500500Y-120475013D01*
X124500500Y-112780458D01*
X125737500Y-112780458D01*
X125737500Y-115039541D01*
X125740412Y-115076546D01*
X125740413Y-115076552D01*
X125786434Y-115234954D01*
X125786435Y-115234957D01*
X125870405Y-115376943D01*
X125870412Y-115376952D01*
X125987047Y-115493587D01*
X125987051Y-115493590D01*
X125987053Y-115493592D01*
X126129041Y-115577564D01*
X126137536Y-115580032D01*
X126287447Y-115623586D01*
X126287450Y-115623586D01*
X126287452Y-115623587D01*
X126324466Y-115626500D01*
X126324474Y-115626500D01*
X127675526Y-115626500D01*
X127675534Y-115626500D01*
X127712548Y-115623587D01*
X127712550Y-115623586D01*
X127712552Y-115623586D01*
X127799909Y-115598206D01*
X127870959Y-115577564D01*
X128012947Y-115493592D01*
X128129592Y-115376947D01*
X128163268Y-115320003D01*
X128214337Y-115272321D01*
X128283079Y-115259817D01*
X128347668Y-115286462D01*
X128376732Y-115320004D01*
X128410405Y-115376943D01*
X128410407Y-115376946D01*
X128410412Y-115376952D01*
X128527047Y-115493587D01*
X128527051Y-115493590D01*
X128527053Y-115493592D01*
X128669041Y-115577564D01*
X128677536Y-115580032D01*
X128827447Y-115623586D01*
X128827450Y-115623586D01*
X128827452Y-115623587D01*
X128864466Y-115626500D01*
X128864474Y-115626500D01*
X130215526Y-115626500D01*
X130215534Y-115626500D01*
X130252548Y-115623587D01*
X130252550Y-115623586D01*
X130252552Y-115623586D01*
X130339909Y-115598206D01*
X130410959Y-115577564D01*
X130552947Y-115493592D01*
X130669592Y-115376947D01*
X130703268Y-115320003D01*
X130754337Y-115272321D01*
X130823079Y-115259817D01*
X130887668Y-115286462D01*
X130916732Y-115320004D01*
X130950405Y-115376943D01*
X130950407Y-115376946D01*
X130950412Y-115376952D01*
X131067047Y-115493587D01*
X131067051Y-115493590D01*
X131067053Y-115493592D01*
X131209041Y-115577564D01*
X131217536Y-115580032D01*
X131367447Y-115623586D01*
X131367450Y-115623586D01*
X131367452Y-115623587D01*
X131404466Y-115626500D01*
X131404474Y-115626500D01*
X132755526Y-115626500D01*
X132755534Y-115626500D01*
X132792548Y-115623587D01*
X132792550Y-115623586D01*
X132792552Y-115623586D01*
X132879909Y-115598206D01*
X132950959Y-115577564D01*
X133092947Y-115493592D01*
X133209592Y-115376947D01*
X133243268Y-115320003D01*
X133294337Y-115272321D01*
X133363079Y-115259817D01*
X133427668Y-115286462D01*
X133456732Y-115320004D01*
X133490405Y-115376943D01*
X133490407Y-115376946D01*
X133490412Y-115376952D01*
X133607047Y-115493587D01*
X133607051Y-115493590D01*
X133607053Y-115493592D01*
X133749041Y-115577564D01*
X133757536Y-115580032D01*
X133907447Y-115623586D01*
X133907450Y-115623586D01*
X133907452Y-115623587D01*
X133944466Y-115626500D01*
X133944474Y-115626500D01*
X135295526Y-115626500D01*
X135295534Y-115626500D01*
X135332548Y-115623587D01*
X135332550Y-115623586D01*
X135332552Y-115623586D01*
X135419909Y-115598206D01*
X135490959Y-115577564D01*
X135632947Y-115493592D01*
X135749592Y-115376947D01*
X135783268Y-115320003D01*
X135834337Y-115272321D01*
X135903079Y-115259817D01*
X135967668Y-115286462D01*
X135996732Y-115320004D01*
X136030405Y-115376943D01*
X136030407Y-115376946D01*
X136030412Y-115376952D01*
X136147047Y-115493587D01*
X136147051Y-115493590D01*
X136147053Y-115493592D01*
X136289041Y-115577564D01*
X136297536Y-115580032D01*
X136384933Y-115605424D01*
X136443819Y-115643030D01*
X136473025Y-115706503D01*
X136463279Y-115775689D01*
X136417675Y-115828624D01*
X136350692Y-115848499D01*
X136350338Y-115848500D01*
X135707080Y-115848500D01*
X135562092Y-115877340D01*
X135562082Y-115877343D01*
X135425511Y-115933912D01*
X135425498Y-115933919D01*
X135302584Y-116016048D01*
X135302580Y-116016051D01*
X134804853Y-116513778D01*
X134743530Y-116547263D01*
X134708185Y-116549251D01*
X134708165Y-116549661D01*
X134705015Y-116549500D01*
X134705009Y-116549500D01*
X134705002Y-116549500D01*
X134054998Y-116549500D01*
X134054980Y-116549501D01*
X133952203Y-116560000D01*
X133952200Y-116560001D01*
X133785668Y-116615185D01*
X133785663Y-116615187D01*
X133636342Y-116707289D01*
X133512289Y-116831342D01*
X133420187Y-116980663D01*
X133420186Y-116980666D01*
X133365001Y-117147203D01*
X133365001Y-117147204D01*
X133365000Y-117147204D01*
X133354500Y-117249983D01*
X133354500Y-118750001D01*
X133354501Y-118750018D01*
X133365000Y-118852796D01*
X133365001Y-118852799D01*
X133420185Y-119019331D01*
X133420186Y-119019334D01*
X133512288Y-119168656D01*
X133636344Y-119292712D01*
X133785666Y-119384814D01*
X133889505Y-119419223D01*
X133946949Y-119458995D01*
X133973772Y-119523510D01*
X133974500Y-119536928D01*
X133974500Y-121125500D01*
X133954815Y-121192539D01*
X133902011Y-121238294D01*
X133850500Y-121249500D01*
X133162229Y-121249500D01*
X133095190Y-121229815D01*
X133074548Y-121213181D01*
X132836818Y-120975450D01*
X132803333Y-120914127D01*
X132800499Y-120887769D01*
X132800499Y-120474998D01*
X132800498Y-120474981D01*
X132789999Y-120372203D01*
X132789998Y-120372200D01*
X132734814Y-120205666D01*
X132642712Y-120056344D01*
X132518656Y-119932288D01*
X132369334Y-119840186D01*
X132202797Y-119785001D01*
X132202795Y-119785000D01*
X132100010Y-119774500D01*
X131499998Y-119774500D01*
X131499980Y-119774501D01*
X131397203Y-119785000D01*
X131397200Y-119785001D01*
X131230668Y-119840185D01*
X131230663Y-119840187D01*
X131081342Y-119932289D01*
X130957288Y-120056343D01*
X130957283Y-120056349D01*
X130955241Y-120059661D01*
X130953247Y-120061453D01*
X130952807Y-120062011D01*
X130952711Y-120061935D01*
X130903291Y-120106383D01*
X130834328Y-120117602D01*
X130770247Y-120089755D01*
X130744168Y-120059656D01*
X130742319Y-120056659D01*
X130742316Y-120056655D01*
X130618345Y-119932684D01*
X130469124Y-119840643D01*
X130469119Y-119840641D01*
X130302697Y-119785494D01*
X130302690Y-119785493D01*
X130199986Y-119775000D01*
X130150000Y-119775000D01*
X130150000Y-122224999D01*
X130199972Y-122224999D01*
X130199986Y-122224998D01*
X130302697Y-122214505D01*
X130469119Y-122159358D01*
X130469124Y-122159356D01*
X130618345Y-122067315D01*
X130742318Y-121943342D01*
X130744165Y-121940348D01*
X130745969Y-121938724D01*
X130746798Y-121937677D01*
X130746976Y-121937818D01*
X130796110Y-121893621D01*
X130865073Y-121882396D01*
X130929156Y-121910236D01*
X130955243Y-121940341D01*
X130957288Y-121943656D01*
X131081344Y-122067712D01*
X131230666Y-122159814D01*
X131397203Y-122214999D01*
X131499991Y-122225500D01*
X131912769Y-122225499D01*
X131942215Y-122234145D01*
X131972196Y-122240667D01*
X131977209Y-122244420D01*
X131979808Y-122245183D01*
X132000445Y-122261813D01*
X132150952Y-122412319D01*
X132184436Y-122473641D01*
X132179452Y-122543332D01*
X132150951Y-122587680D01*
X132000450Y-122738181D01*
X131939127Y-122771666D01*
X131912769Y-122774500D01*
X131499998Y-122774500D01*
X131499980Y-122774501D01*
X131397203Y-122785000D01*
X131397200Y-122785001D01*
X131230668Y-122840185D01*
X131230663Y-122840187D01*
X131081342Y-122932289D01*
X130957288Y-123056343D01*
X130957283Y-123056349D01*
X130955241Y-123059661D01*
X130953247Y-123061453D01*
X130952807Y-123062011D01*
X130952711Y-123061935D01*
X130903291Y-123106383D01*
X130834328Y-123117602D01*
X130770247Y-123089755D01*
X130744168Y-123059656D01*
X130742319Y-123056659D01*
X130742316Y-123056655D01*
X130618345Y-122932684D01*
X130469124Y-122840643D01*
X130469119Y-122840641D01*
X130302697Y-122785494D01*
X130302690Y-122785493D01*
X130199986Y-122775000D01*
X130150000Y-122775000D01*
X130150000Y-125224999D01*
X130199972Y-125224999D01*
X130199986Y-125224998D01*
X130302697Y-125214505D01*
X130469119Y-125159358D01*
X130469124Y-125159356D01*
X130618345Y-125067315D01*
X130742318Y-124943342D01*
X130744165Y-124940348D01*
X130745969Y-124938724D01*
X130746798Y-124937677D01*
X130746976Y-124937818D01*
X130796110Y-124893621D01*
X130865073Y-124882396D01*
X130929156Y-124910236D01*
X130955243Y-124940341D01*
X130957288Y-124943656D01*
X131081344Y-125067712D01*
X131230666Y-125159814D01*
X131397203Y-125214999D01*
X131499991Y-125225500D01*
X132100008Y-125225499D01*
X132100016Y-125225498D01*
X132100019Y-125225498D01*
X132156302Y-125219748D01*
X132202797Y-125214999D01*
X132369334Y-125159814D01*
X132518656Y-125067712D01*
X132642712Y-124943656D01*
X132734814Y-124794334D01*
X132789999Y-124627797D01*
X132800500Y-124525009D01*
X132800499Y-124112228D01*
X132820183Y-124045190D01*
X132836813Y-124024553D01*
X133367127Y-123494239D01*
X133428448Y-123460756D01*
X133498140Y-123465740D01*
X133554073Y-123507612D01*
X133578490Y-123573076D01*
X133573883Y-123616514D01*
X133564902Y-123647426D01*
X133564901Y-123647432D01*
X133562000Y-123684298D01*
X133562000Y-124115701D01*
X133564901Y-124152567D01*
X133564902Y-124152573D01*
X133610754Y-124310393D01*
X133610755Y-124310396D01*
X133694232Y-124451550D01*
X133694418Y-124451864D01*
X133694423Y-124451870D01*
X133810629Y-124568076D01*
X133810632Y-124568078D01*
X133810635Y-124568081D01*
X133952102Y-124651744D01*
X133960090Y-124654064D01*
X133982507Y-124668379D01*
X134006703Y-124679429D01*
X134011499Y-124686892D01*
X134018977Y-124691667D01*
X134030097Y-124715831D01*
X134044477Y-124738207D01*
X134046332Y-124751110D01*
X134048186Y-124755139D01*
X134049500Y-124773142D01*
X134049500Y-124912770D01*
X134029815Y-124979809D01*
X134013181Y-125000451D01*
X133957289Y-125056342D01*
X133874481Y-125190597D01*
X133822533Y-125237321D01*
X133768942Y-125249500D01*
X132926080Y-125249500D01*
X132781092Y-125278340D01*
X132781082Y-125278343D01*
X132644511Y-125334912D01*
X132644498Y-125334919D01*
X132521584Y-125417048D01*
X132521580Y-125417051D01*
X129217050Y-128721580D01*
X129217044Y-128721588D01*
X129167812Y-128795268D01*
X129167813Y-128795269D01*
X129134921Y-128844496D01*
X129134914Y-128844508D01*
X129078342Y-128981086D01*
X129078340Y-128981092D01*
X129049500Y-129126079D01*
X129049500Y-130925500D01*
X129029815Y-130992539D01*
X128977011Y-131038294D01*
X128925501Y-131049500D01*
X128702130Y-131049500D01*
X128702123Y-131049501D01*
X128642516Y-131055908D01*
X128507671Y-131106202D01*
X128507664Y-131106206D01*
X128392455Y-131192452D01*
X128392452Y-131192455D01*
X128306206Y-131307664D01*
X128306202Y-131307671D01*
X128255908Y-131442517D01*
X128249501Y-131502116D01*
X128249501Y-131502123D01*
X128249500Y-131502135D01*
X128249500Y-133597870D01*
X128249501Y-133597876D01*
X128255908Y-133657483D01*
X128306202Y-133792328D01*
X128306206Y-133792335D01*
X128392452Y-133907544D01*
X128392455Y-133907547D01*
X128507664Y-133993793D01*
X128507671Y-133993797D01*
X128552618Y-134010561D01*
X128642517Y-134044091D01*
X128702127Y-134050500D01*
X128925500Y-134050499D01*
X128992539Y-134070183D01*
X129038294Y-134122987D01*
X129049500Y-134174499D01*
X129049500Y-136925500D01*
X129029815Y-136992539D01*
X128977011Y-137038294D01*
X128925501Y-137049500D01*
X128702130Y-137049500D01*
X128702123Y-137049501D01*
X128642516Y-137055908D01*
X128507671Y-137106202D01*
X128507664Y-137106206D01*
X128392455Y-137192452D01*
X128392452Y-137192455D01*
X128306206Y-137307664D01*
X128306202Y-137307671D01*
X128255908Y-137442517D01*
X128250522Y-137492620D01*
X128249501Y-137502123D01*
X128249500Y-137502135D01*
X128249500Y-139597870D01*
X128249501Y-139597876D01*
X128255908Y-139657483D01*
X128306202Y-139792328D01*
X128306206Y-139792335D01*
X128392452Y-139907544D01*
X128392455Y-139907547D01*
X128507664Y-139993793D01*
X128507671Y-139993797D01*
X128642517Y-140044091D01*
X128642516Y-140044091D01*
X128649444Y-140044835D01*
X128702127Y-140050500D01*
X130897872Y-140050499D01*
X130957483Y-140044091D01*
X131092331Y-139993796D01*
X131207546Y-139907546D01*
X131293796Y-139792331D01*
X131344091Y-139657483D01*
X131350500Y-139597873D01*
X131350499Y-138443713D01*
X133949500Y-138443713D01*
X133949500Y-138656286D01*
X133982753Y-138866239D01*
X134048444Y-139068414D01*
X134144951Y-139257820D01*
X134269890Y-139429786D01*
X134420213Y-139580109D01*
X134592179Y-139705048D01*
X134592181Y-139705049D01*
X134592184Y-139705051D01*
X134781588Y-139801557D01*
X134983757Y-139867246D01*
X135193713Y-139900500D01*
X135193714Y-139900500D01*
X135406286Y-139900500D01*
X135406287Y-139900500D01*
X135616243Y-139867246D01*
X135818412Y-139801557D01*
X136007816Y-139705051D01*
X136073290Y-139657482D01*
X136179786Y-139580109D01*
X136179788Y-139580106D01*
X136179792Y-139580104D01*
X136212052Y-139547844D01*
X139250000Y-139547844D01*
X139256401Y-139607372D01*
X139256403Y-139607379D01*
X139306645Y-139742086D01*
X139306649Y-139742093D01*
X139392809Y-139857187D01*
X139392812Y-139857190D01*
X139507906Y-139943350D01*
X139507913Y-139943354D01*
X139642620Y-139993596D01*
X139642627Y-139993598D01*
X139702155Y-139999999D01*
X139702172Y-140000000D01*
X140750000Y-140000000D01*
X141250000Y-140000000D01*
X142297828Y-140000000D01*
X142297844Y-139999999D01*
X142357372Y-139993598D01*
X142357379Y-139993596D01*
X142492086Y-139943354D01*
X142492093Y-139943350D01*
X142607187Y-139857190D01*
X142607190Y-139857187D01*
X142693350Y-139742093D01*
X142693354Y-139742086D01*
X142743596Y-139607379D01*
X142743598Y-139607372D01*
X142749999Y-139547844D01*
X142750000Y-139547827D01*
X142750000Y-138800000D01*
X141250000Y-138800000D01*
X141250000Y-140000000D01*
X140750000Y-140000000D01*
X140750000Y-138800000D01*
X139250000Y-138800000D01*
X139250000Y-139547844D01*
X136212052Y-139547844D01*
X136330104Y-139429792D01*
X136330106Y-139429788D01*
X136330109Y-139429786D01*
X136455048Y-139257820D01*
X136455047Y-139257820D01*
X136455051Y-139257816D01*
X136551557Y-139068412D01*
X136617246Y-138866243D01*
X136650500Y-138656287D01*
X136650500Y-138443713D01*
X136617246Y-138233757D01*
X136551557Y-138031588D01*
X136455051Y-137842184D01*
X136455049Y-137842181D01*
X136455048Y-137842179D01*
X136330109Y-137670213D01*
X136212051Y-137552155D01*
X139250000Y-137552155D01*
X139250000Y-138300000D01*
X140750000Y-138300000D01*
X141250000Y-138300000D01*
X142750000Y-138300000D01*
X142750000Y-137552172D01*
X142749999Y-137552155D01*
X142743598Y-137492627D01*
X142743596Y-137492620D01*
X142693354Y-137357913D01*
X142693350Y-137357906D01*
X142607190Y-137242812D01*
X142607187Y-137242809D01*
X142492093Y-137156649D01*
X142492086Y-137156645D01*
X142357379Y-137106403D01*
X142357372Y-137106401D01*
X142297844Y-137100000D01*
X141250000Y-137100000D01*
X141250000Y-138300000D01*
X140750000Y-138300000D01*
X140750000Y-137100000D01*
X139702155Y-137100000D01*
X139642627Y-137106401D01*
X139642620Y-137106403D01*
X139507913Y-137156645D01*
X139507906Y-137156649D01*
X139392812Y-137242809D01*
X139392809Y-137242812D01*
X139306649Y-137357906D01*
X139306645Y-137357913D01*
X139256403Y-137492620D01*
X139256401Y-137492627D01*
X139250000Y-137552155D01*
X136212051Y-137552155D01*
X136179786Y-137519890D01*
X136007820Y-137394951D01*
X135818414Y-137298444D01*
X135818413Y-137298443D01*
X135818412Y-137298443D01*
X135616243Y-137232754D01*
X135616241Y-137232753D01*
X135616240Y-137232753D01*
X135454957Y-137207208D01*
X135406287Y-137199500D01*
X135193713Y-137199500D01*
X135145042Y-137207208D01*
X134983760Y-137232753D01*
X134781585Y-137298444D01*
X134592179Y-137394951D01*
X134420213Y-137519890D01*
X134269890Y-137670213D01*
X134144951Y-137842179D01*
X134048444Y-138031585D01*
X133982753Y-138233760D01*
X133949500Y-138443713D01*
X131350499Y-138443713D01*
X131350499Y-137502128D01*
X131344091Y-137442517D01*
X131326349Y-137394949D01*
X131293797Y-137307671D01*
X131293793Y-137307664D01*
X131207547Y-137192455D01*
X131207544Y-137192452D01*
X131092335Y-137106206D01*
X131092328Y-137106202D01*
X130957482Y-137055908D01*
X130957483Y-137055908D01*
X130897883Y-137049501D01*
X130897881Y-137049500D01*
X130897873Y-137049500D01*
X130897865Y-137049500D01*
X130674500Y-137049500D01*
X130607461Y-137029815D01*
X130561706Y-136977011D01*
X130550500Y-136925500D01*
X130550500Y-134174499D01*
X130561853Y-134135837D01*
X133849500Y-134135837D01*
X133849500Y-134364162D01*
X133885215Y-134589660D01*
X133955770Y-134806803D01*
X134059421Y-135010228D01*
X134193621Y-135194937D01*
X134355063Y-135356379D01*
X134539772Y-135490579D01*
X134635884Y-135539550D01*
X134743196Y-135594229D01*
X134743198Y-135594229D01*
X134743201Y-135594231D01*
X134859592Y-135632049D01*
X134960339Y-135664784D01*
X135185838Y-135700500D01*
X135185843Y-135700500D01*
X135414162Y-135700500D01*
X135639660Y-135664784D01*
X135856799Y-135594231D01*
X136060228Y-135490579D01*
X136244937Y-135356379D01*
X136406379Y-135194937D01*
X136540579Y-135010228D01*
X136644231Y-134806799D01*
X136714784Y-134589660D01*
X136750500Y-134364162D01*
X136750500Y-134135837D01*
X136714784Y-133910339D01*
X136644229Y-133693196D01*
X136575023Y-133557372D01*
X136544692Y-133497844D01*
X139250000Y-133497844D01*
X139256401Y-133557372D01*
X139256403Y-133557379D01*
X139306645Y-133692086D01*
X139306649Y-133692093D01*
X139392809Y-133807187D01*
X139392812Y-133807190D01*
X139507906Y-133893350D01*
X139507913Y-133893354D01*
X139642620Y-133943596D01*
X139642627Y-133943598D01*
X139702155Y-133949999D01*
X139702172Y-133950000D01*
X140500000Y-133950000D01*
X141000000Y-133950000D01*
X141797828Y-133950000D01*
X141797844Y-133949999D01*
X141857372Y-133943598D01*
X141857379Y-133943596D01*
X141992086Y-133893354D01*
X141992093Y-133893350D01*
X142107187Y-133807190D01*
X142107190Y-133807187D01*
X142193350Y-133692093D01*
X142193354Y-133692086D01*
X142243596Y-133557379D01*
X142243598Y-133557372D01*
X142249999Y-133497844D01*
X142250000Y-133497827D01*
X142250000Y-132700000D01*
X141000000Y-132700000D01*
X141000000Y-133950000D01*
X140500000Y-133950000D01*
X140500000Y-132700000D01*
X139250000Y-132700000D01*
X139250000Y-133497844D01*
X136544692Y-133497844D01*
X136540579Y-133489772D01*
X136406379Y-133305063D01*
X136244937Y-133143621D01*
X136060228Y-133009421D01*
X135856803Y-132905770D01*
X135639660Y-132835215D01*
X135414162Y-132799500D01*
X135414157Y-132799500D01*
X135185843Y-132799500D01*
X135185838Y-132799500D01*
X134960339Y-132835215D01*
X134743196Y-132905770D01*
X134539771Y-133009421D01*
X134355061Y-133143622D01*
X134193622Y-133305061D01*
X134059421Y-133489771D01*
X133955770Y-133693196D01*
X133885215Y-133910339D01*
X133849500Y-134135837D01*
X130561853Y-134135837D01*
X130570185Y-134107460D01*
X130622989Y-134061705D01*
X130674500Y-134050499D01*
X130897871Y-134050499D01*
X130897872Y-134050499D01*
X130957483Y-134044091D01*
X130957488Y-134044089D01*
X131036047Y-134014789D01*
X131092328Y-133993797D01*
X131092327Y-133993797D01*
X131092331Y-133993796D01*
X131207546Y-133907546D01*
X131293796Y-133792331D01*
X131344091Y-133657483D01*
X131350500Y-133597873D01*
X131350499Y-132200000D01*
X131350499Y-131502129D01*
X131350498Y-131502123D01*
X131350497Y-131502116D01*
X131344091Y-131442517D01*
X131343967Y-131442184D01*
X131329037Y-131402155D01*
X139250000Y-131402155D01*
X139250000Y-132200000D01*
X140500000Y-132200000D01*
X141000000Y-132200000D01*
X142250000Y-132200000D01*
X142250000Y-131402172D01*
X142249999Y-131402155D01*
X142243598Y-131342627D01*
X142243596Y-131342620D01*
X142193354Y-131207913D01*
X142193350Y-131207906D01*
X142107190Y-131092812D01*
X142107187Y-131092809D01*
X141992093Y-131006649D01*
X141992086Y-131006645D01*
X141857379Y-130956403D01*
X141857372Y-130956401D01*
X141797844Y-130950000D01*
X141000000Y-130950000D01*
X141000000Y-132200000D01*
X140500000Y-132200000D01*
X140500000Y-130950000D01*
X139702155Y-130950000D01*
X139642627Y-130956401D01*
X139642620Y-130956403D01*
X139507913Y-131006645D01*
X139507906Y-131006649D01*
X139392812Y-131092809D01*
X139392809Y-131092812D01*
X139306649Y-131207906D01*
X139306645Y-131207913D01*
X139256403Y-131342620D01*
X139256401Y-131342627D01*
X139250000Y-131402155D01*
X131329037Y-131402155D01*
X131293797Y-131307671D01*
X131293793Y-131307664D01*
X131207547Y-131192455D01*
X131207544Y-131192452D01*
X131092335Y-131106206D01*
X131092328Y-131106202D01*
X130957482Y-131055908D01*
X130957483Y-131055908D01*
X130897883Y-131049501D01*
X130897881Y-131049500D01*
X130897873Y-131049500D01*
X130897865Y-131049500D01*
X130674500Y-131049500D01*
X130607461Y-131029815D01*
X130561706Y-130977011D01*
X130550500Y-130925500D01*
X130550500Y-129562229D01*
X130570185Y-129495190D01*
X130586819Y-129474548D01*
X133274548Y-126786819D01*
X133335871Y-126753334D01*
X133362229Y-126750500D01*
X133768942Y-126750500D01*
X133835981Y-126770185D01*
X133874479Y-126809401D01*
X133957288Y-126943656D01*
X134081344Y-127067712D01*
X134230666Y-127159814D01*
X134397203Y-127214999D01*
X134499991Y-127225500D01*
X135100008Y-127225499D01*
X135100016Y-127225498D01*
X135100019Y-127225498D01*
X135156302Y-127219748D01*
X135202797Y-127214999D01*
X135369334Y-127159814D01*
X135518656Y-127067712D01*
X135642712Y-126943656D01*
X135644752Y-126940347D01*
X135646745Y-126938555D01*
X135647193Y-126937989D01*
X135647289Y-126938065D01*
X135696694Y-126893623D01*
X135765656Y-126882395D01*
X135829740Y-126910234D01*
X135855829Y-126940339D01*
X135857681Y-126943341D01*
X135857683Y-126943344D01*
X135981654Y-127067315D01*
X136130875Y-127159356D01*
X136130880Y-127159358D01*
X136297302Y-127214505D01*
X136297309Y-127214506D01*
X136400019Y-127224999D01*
X136950000Y-127224999D01*
X136999972Y-127224999D01*
X136999986Y-127224998D01*
X137102697Y-127214505D01*
X137269119Y-127159358D01*
X137269124Y-127159356D01*
X137418345Y-127067315D01*
X137542315Y-126943345D01*
X137634356Y-126794124D01*
X137634358Y-126794119D01*
X137689505Y-126627697D01*
X137689506Y-126627690D01*
X137699999Y-126524986D01*
X137700000Y-126524973D01*
X137700000Y-126250000D01*
X136950000Y-126250000D01*
X136950000Y-127224999D01*
X136400019Y-127224999D01*
X136449999Y-127224998D01*
X136450000Y-127224998D01*
X136450000Y-126124000D01*
X136469685Y-126056961D01*
X136522489Y-126011206D01*
X136574000Y-126000000D01*
X136700000Y-126000000D01*
X136700000Y-125874000D01*
X136719685Y-125806961D01*
X136772489Y-125761206D01*
X136824000Y-125750000D01*
X137699999Y-125750000D01*
X137699999Y-125475028D01*
X137699998Y-125475013D01*
X137689505Y-125372302D01*
X137634358Y-125205880D01*
X137634356Y-125205875D01*
X137542315Y-125056654D01*
X137418345Y-124932684D01*
X137413246Y-124929539D01*
X137366522Y-124877591D01*
X137355300Y-124808628D01*
X137383143Y-124744546D01*
X137441212Y-124705690D01*
X137478343Y-124700000D01*
X137578134Y-124700000D01*
X137578149Y-124699999D01*
X137614989Y-124697100D01*
X137614995Y-124697099D01*
X137772693Y-124651283D01*
X137772696Y-124651282D01*
X137914052Y-124567685D01*
X137914061Y-124567678D01*
X138030178Y-124451561D01*
X138030185Y-124451552D01*
X138113781Y-124310198D01*
X138159600Y-124152486D01*
X138159795Y-124150001D01*
X138159795Y-124150000D01*
X137124000Y-124150000D01*
X137115314Y-124147449D01*
X137106353Y-124148738D01*
X137082312Y-124137759D01*
X137056961Y-124130315D01*
X137051033Y-124123474D01*
X137042797Y-124119713D01*
X137028507Y-124097478D01*
X137011206Y-124077511D01*
X137008918Y-124066996D01*
X137005023Y-124060935D01*
X137000000Y-124026000D01*
X137000000Y-123874500D01*
X137019685Y-123807461D01*
X137072489Y-123761706D01*
X137124000Y-123750500D01*
X137578186Y-123750500D01*
X137578194Y-123750500D01*
X137615069Y-123747598D01*
X137615071Y-123747597D01*
X137615073Y-123747597D01*
X137656691Y-123735505D01*
X137772898Y-123701744D01*
X137831194Y-123667268D01*
X137894315Y-123650000D01*
X138159796Y-123650000D01*
X138168737Y-123640328D01*
X138228698Y-123604462D01*
X138259792Y-123600500D01*
X138614071Y-123600500D01*
X138698615Y-123583682D01*
X138739744Y-123575501D01*
X138858127Y-123526465D01*
X138894944Y-123501865D01*
X138964669Y-123455277D01*
X139103128Y-123316817D01*
X139164449Y-123283334D01*
X139190808Y-123280500D01*
X139234682Y-123280500D01*
X139234690Y-123280500D01*
X139270993Y-123277643D01*
X139270995Y-123277642D01*
X139270997Y-123277642D01*
X139311975Y-123265736D01*
X139426395Y-123232494D01*
X139565687Y-123150117D01*
X139680117Y-123035687D01*
X139762494Y-122896395D01*
X139807643Y-122740993D01*
X139810500Y-122704690D01*
X139810500Y-122295310D01*
X139807643Y-122259007D01*
X139805171Y-122250500D01*
X139762495Y-122103609D01*
X139762494Y-122103605D01*
X139738551Y-122063120D01*
X139721368Y-121995398D01*
X139738552Y-121936878D01*
X139754308Y-121910236D01*
X139762494Y-121896395D01*
X139807643Y-121740993D01*
X139810500Y-121704690D01*
X139810500Y-121295310D01*
X139807643Y-121259007D01*
X139805026Y-121250000D01*
X139762495Y-121103609D01*
X139762494Y-121103606D01*
X139762494Y-121103605D01*
X139680117Y-120964313D01*
X139680115Y-120964311D01*
X139680112Y-120964307D01*
X139565692Y-120849887D01*
X139565684Y-120849881D01*
X139426393Y-120767505D01*
X139426390Y-120767504D01*
X139270997Y-120722357D01*
X139270991Y-120722356D01*
X139234697Y-120719500D01*
X139234690Y-120719500D01*
X138765310Y-120719500D01*
X138765302Y-120719500D01*
X138729008Y-120722356D01*
X138729005Y-120722357D01*
X138670835Y-120739257D01*
X138652528Y-120744576D01*
X138617934Y-120749500D01*
X137874500Y-120749500D01*
X137807461Y-120729815D01*
X137761706Y-120677011D01*
X137750500Y-120625500D01*
X137750500Y-119572131D01*
X137770185Y-119505092D01*
X137822989Y-119459337D01*
X137861897Y-119448773D01*
X137947797Y-119439999D01*
X138114334Y-119384814D01*
X138263656Y-119292712D01*
X138387712Y-119168656D01*
X138479814Y-119019334D01*
X138534999Y-118852797D01*
X138545500Y-118750009D01*
X138545499Y-117806227D01*
X138565183Y-117739189D01*
X138617987Y-117693434D01*
X138687146Y-117683490D01*
X138750702Y-117712515D01*
X138757180Y-117718547D01*
X139302017Y-118263384D01*
X139333412Y-118316469D01*
X139345445Y-118357887D01*
X139345446Y-118357888D01*
X139424282Y-118491194D01*
X139424289Y-118491203D01*
X139533796Y-118600710D01*
X139533800Y-118600713D01*
X139533802Y-118600715D01*
X139667113Y-118679555D01*
X139815844Y-118722765D01*
X139850595Y-118725500D01*
X139888187Y-118725499D01*
X139912379Y-118727881D01*
X139937469Y-118732872D01*
X140026080Y-118750500D01*
X140026082Y-118750500D01*
X140173918Y-118750500D01*
X140223780Y-118740581D01*
X140287622Y-118727881D01*
X140311813Y-118725499D01*
X140349394Y-118725499D01*
X140349404Y-118725499D01*
X140384156Y-118722765D01*
X140532887Y-118679555D01*
X140666198Y-118600715D01*
X140775715Y-118491198D01*
X140854555Y-118357887D01*
X140897765Y-118209156D01*
X140900500Y-118174405D01*
X140900499Y-117825596D01*
X140897765Y-117790844D01*
X140854555Y-117642113D01*
X140775715Y-117508802D01*
X140775713Y-117508800D01*
X140775710Y-117508796D01*
X140666203Y-117399289D01*
X140666194Y-117399282D01*
X140582016Y-117349500D01*
X140532887Y-117320445D01*
X140491469Y-117308412D01*
X140438384Y-117277017D01*
X139177421Y-116016052D01*
X139177414Y-116016046D01*
X139103729Y-115966812D01*
X139103729Y-115966813D01*
X139054491Y-115933913D01*
X138917917Y-115877343D01*
X138917907Y-115877340D01*
X138772920Y-115848500D01*
X138772918Y-115848500D01*
X137969662Y-115848500D01*
X137902623Y-115828815D01*
X137856868Y-115776011D01*
X137846924Y-115706853D01*
X137875949Y-115643297D01*
X137934727Y-115605523D01*
X137935067Y-115605424D01*
X137989195Y-115589697D01*
X138030959Y-115577564D01*
X138172947Y-115493592D01*
X138289592Y-115376947D01*
X138289776Y-115376637D01*
X138323558Y-115319514D01*
X138374626Y-115271830D01*
X138443368Y-115259326D01*
X138507958Y-115285971D01*
X138537022Y-115319513D01*
X138570803Y-115376634D01*
X138570810Y-115376643D01*
X138687356Y-115493189D01*
X138687365Y-115493196D01*
X138829243Y-115577102D01*
X138829246Y-115577103D01*
X138987526Y-115623088D01*
X138987532Y-115623089D01*
X139024518Y-115625999D01*
X140375469Y-115625999D01*
X140375491Y-115625998D01*
X140412466Y-115623089D01*
X140570757Y-115577102D01*
X140712634Y-115493196D01*
X140712643Y-115493189D01*
X140829189Y-115376643D01*
X140829193Y-115376637D01*
X140862976Y-115319514D01*
X140914045Y-115271830D01*
X140982787Y-115259326D01*
X141047376Y-115285971D01*
X141076440Y-115319511D01*
X141110408Y-115376947D01*
X141110410Y-115376949D01*
X141110412Y-115376952D01*
X141227047Y-115493587D01*
X141227051Y-115493590D01*
X141227053Y-115493592D01*
X141369041Y-115577564D01*
X141369044Y-115577565D01*
X141374745Y-115580032D01*
X141428454Y-115624721D01*
X141449475Y-115691354D01*
X141449500Y-115693834D01*
X141449500Y-117610508D01*
X141444577Y-117645098D01*
X141423239Y-117718547D01*
X141402234Y-117790847D01*
X141402234Y-117790849D01*
X141399500Y-117825589D01*
X141399500Y-118174393D01*
X141399501Y-118174415D01*
X141402234Y-118209152D01*
X141402234Y-118209155D01*
X141402235Y-118209156D01*
X141445445Y-118357887D01*
X141445446Y-118357888D01*
X141524282Y-118491194D01*
X141524289Y-118491203D01*
X141633796Y-118600710D01*
X141633800Y-118600713D01*
X141633802Y-118600715D01*
X141767113Y-118679555D01*
X141915844Y-118722765D01*
X141950595Y-118725500D01*
X141988187Y-118725499D01*
X142012379Y-118727881D01*
X142037469Y-118732872D01*
X142126080Y-118750500D01*
X142126082Y-118750500D01*
X142273919Y-118750500D01*
X142323781Y-118740581D01*
X142387623Y-118727881D01*
X142411814Y-118725499D01*
X142449394Y-118725499D01*
X142449404Y-118725499D01*
X142484156Y-118722765D01*
X142632887Y-118679555D01*
X142766198Y-118600715D01*
X142875715Y-118491198D01*
X142954555Y-118357887D01*
X142997765Y-118209156D01*
X143000500Y-118174405D01*
X143000499Y-117825596D01*
X142997765Y-117790844D01*
X142955422Y-117645098D01*
X142950500Y-117610508D01*
X142950500Y-115717283D01*
X142970185Y-115650244D01*
X143022989Y-115604489D01*
X143039894Y-115598210D01*
X143110959Y-115577564D01*
X143252947Y-115493592D01*
X143369592Y-115376947D01*
X143453564Y-115234959D01*
X143499587Y-115076548D01*
X143502500Y-115039534D01*
X143502500Y-112780466D01*
X143499587Y-112743452D01*
X143492573Y-112719311D01*
X143453565Y-112585045D01*
X143453564Y-112585042D01*
X143453564Y-112585041D01*
X143392795Y-112482287D01*
X143369594Y-112443056D01*
X143369590Y-112443051D01*
X143369585Y-112443046D01*
X143273390Y-112346851D01*
X143260758Y-112332060D01*
X143202984Y-112252539D01*
X143062466Y-112112021D01*
X143062464Y-112112019D01*
X142901694Y-111995213D01*
X142724632Y-111904994D01*
X142724629Y-111904993D01*
X142535637Y-111843587D01*
X142437498Y-111828043D01*
X142339361Y-111812500D01*
X142140639Y-111812500D01*
X142075214Y-111822862D01*
X141944362Y-111843587D01*
X141755370Y-111904993D01*
X141755367Y-111904994D01*
X141578305Y-111995213D01*
X141417533Y-112112021D01*
X141277018Y-112252536D01*
X141219239Y-112332061D01*
X141213992Y-112338784D01*
X141210469Y-112342990D01*
X141110408Y-112443053D01*
X141071285Y-112509204D01*
X141064779Y-112516975D01*
X141043798Y-112530964D01*
X141025371Y-112548170D01*
X141015227Y-112550015D01*
X141006647Y-112555736D01*
X140981433Y-112556161D01*
X140956629Y-112560673D01*
X140947097Y-112556740D01*
X140936787Y-112556915D01*
X140915347Y-112543642D01*
X140892040Y-112534027D01*
X140883043Y-112523643D01*
X140877380Y-112520138D01*
X140874161Y-112513393D01*
X140862977Y-112500486D01*
X140829195Y-112443364D01*
X140829192Y-112443360D01*
X140757191Y-112371360D01*
X140137647Y-112990904D01*
X140114208Y-112903429D01*
X140055689Y-112802070D01*
X139972930Y-112719311D01*
X139871571Y-112660792D01*
X139784094Y-112637352D01*
X140398716Y-112022731D01*
X140398715Y-112022730D01*
X140361432Y-111995641D01*
X140184437Y-111905457D01*
X139995522Y-111844075D01*
X139799321Y-111813000D01*
X139600679Y-111813000D01*
X139404479Y-111844075D01*
X139404476Y-111844075D01*
X139215562Y-111905457D01*
X139038564Y-111995643D01*
X139001283Y-112022729D01*
X139001282Y-112022730D01*
X139615906Y-112637352D01*
X139528429Y-112660792D01*
X139427070Y-112719311D01*
X139344311Y-112802070D01*
X139285792Y-112903429D01*
X139262352Y-112990905D01*
X138642807Y-112371360D01*
X138570810Y-112443357D01*
X138570800Y-112443370D01*
X138537021Y-112500487D01*
X138485952Y-112548170D01*
X138417210Y-112560673D01*
X138352621Y-112534027D01*
X138335220Y-112516975D01*
X138328716Y-112509208D01*
X138289592Y-112443053D01*
X138189518Y-112342979D01*
X138186007Y-112338786D01*
X138185489Y-112337600D01*
X138180758Y-112332060D01*
X138122984Y-112252539D01*
X137982466Y-112112021D01*
X137982464Y-112112019D01*
X137821694Y-111995213D01*
X137644632Y-111904994D01*
X137644629Y-111904993D01*
X137455637Y-111843587D01*
X137357498Y-111828043D01*
X137259361Y-111812500D01*
X137060639Y-111812500D01*
X136995214Y-111822862D01*
X136864362Y-111843587D01*
X136675370Y-111904993D01*
X136675367Y-111904994D01*
X136498305Y-111995213D01*
X136337533Y-112112021D01*
X136197018Y-112252536D01*
X136139239Y-112332061D01*
X136133960Y-112338821D01*
X136130446Y-112343013D01*
X136030408Y-112443053D01*
X135991564Y-112508733D01*
X135985038Y-112516521D01*
X135964076Y-112530485D01*
X135945662Y-112547679D01*
X135935492Y-112549528D01*
X135926891Y-112555259D01*
X135901703Y-112555674D01*
X135876921Y-112560182D01*
X135867366Y-112556240D01*
X135857031Y-112556411D01*
X135835616Y-112543142D01*
X135812331Y-112533536D01*
X135803308Y-112523123D01*
X135797638Y-112519610D01*
X135794426Y-112512873D01*
X135783268Y-112499996D01*
X135749592Y-112443053D01*
X135653390Y-112346851D01*
X135640758Y-112332060D01*
X135582984Y-112252539D01*
X135442466Y-112112021D01*
X135442464Y-112112019D01*
X135281694Y-111995213D01*
X135104632Y-111904994D01*
X135104629Y-111904993D01*
X134915637Y-111843587D01*
X134817498Y-111828043D01*
X134719361Y-111812500D01*
X134520639Y-111812500D01*
X134455214Y-111822862D01*
X134324362Y-111843587D01*
X134135370Y-111904993D01*
X134135367Y-111904994D01*
X133958305Y-111995213D01*
X133797533Y-112112021D01*
X133657018Y-112252536D01*
X133599239Y-112332061D01*
X133593960Y-112338821D01*
X133590446Y-112343013D01*
X133490408Y-112443053D01*
X133451564Y-112508733D01*
X133445038Y-112516521D01*
X133424076Y-112530485D01*
X133405662Y-112547679D01*
X133395492Y-112549528D01*
X133386891Y-112555259D01*
X133361703Y-112555674D01*
X133336921Y-112560182D01*
X133327366Y-112556240D01*
X133317031Y-112556411D01*
X133295616Y-112543142D01*
X133272331Y-112533536D01*
X133263308Y-112523123D01*
X133257638Y-112519610D01*
X133254426Y-112512873D01*
X133243268Y-112499996D01*
X133209592Y-112443053D01*
X133113390Y-112346851D01*
X133100758Y-112332060D01*
X133042984Y-112252539D01*
X132902466Y-112112021D01*
X132902464Y-112112019D01*
X132741694Y-111995213D01*
X132564632Y-111904994D01*
X132564629Y-111904993D01*
X132375637Y-111843587D01*
X132277498Y-111828043D01*
X132179361Y-111812500D01*
X131980639Y-111812500D01*
X131915214Y-111822862D01*
X131784362Y-111843587D01*
X131595370Y-111904993D01*
X131595367Y-111904994D01*
X131418305Y-111995213D01*
X131257533Y-112112021D01*
X131117018Y-112252536D01*
X131059239Y-112332061D01*
X131053960Y-112338821D01*
X131050446Y-112343013D01*
X130950408Y-112443053D01*
X130911564Y-112508733D01*
X130905038Y-112516521D01*
X130884076Y-112530485D01*
X130865662Y-112547679D01*
X130855492Y-112549528D01*
X130846891Y-112555259D01*
X130821703Y-112555674D01*
X130796921Y-112560182D01*
X130787366Y-112556240D01*
X130777031Y-112556411D01*
X130755616Y-112543142D01*
X130732331Y-112533536D01*
X130723308Y-112523123D01*
X130717638Y-112519610D01*
X130714426Y-112512873D01*
X130703268Y-112499996D01*
X130669592Y-112443053D01*
X130573390Y-112346851D01*
X130560758Y-112332060D01*
X130502984Y-112252539D01*
X130362466Y-112112021D01*
X130362464Y-112112019D01*
X130201694Y-111995213D01*
X130024632Y-111904994D01*
X130024629Y-111904993D01*
X129835637Y-111843587D01*
X129737498Y-111828043D01*
X129639361Y-111812500D01*
X129440639Y-111812500D01*
X129375214Y-111822862D01*
X129244362Y-111843587D01*
X129055370Y-111904993D01*
X129055367Y-111904994D01*
X128878305Y-111995213D01*
X128717533Y-112112021D01*
X128577018Y-112252536D01*
X128519239Y-112332061D01*
X128513960Y-112338821D01*
X128510446Y-112343013D01*
X128410408Y-112443053D01*
X128371564Y-112508733D01*
X128365038Y-112516521D01*
X128344076Y-112530485D01*
X128325662Y-112547679D01*
X128315492Y-112549528D01*
X128306891Y-112555259D01*
X128281703Y-112555674D01*
X128256921Y-112560182D01*
X128247366Y-112556240D01*
X128237031Y-112556411D01*
X128215616Y-112543142D01*
X128192331Y-112533536D01*
X128183308Y-112523123D01*
X128177638Y-112519610D01*
X128174426Y-112512873D01*
X128163268Y-112499996D01*
X128129592Y-112443053D01*
X128033390Y-112346851D01*
X128020758Y-112332060D01*
X127962984Y-112252539D01*
X127822466Y-112112021D01*
X127822464Y-112112019D01*
X127661694Y-111995213D01*
X127484632Y-111904994D01*
X127484629Y-111904993D01*
X127295637Y-111843587D01*
X127197498Y-111828043D01*
X127099361Y-111812500D01*
X126900639Y-111812500D01*
X126835214Y-111822862D01*
X126704362Y-111843587D01*
X126515370Y-111904993D01*
X126515367Y-111904994D01*
X126338305Y-111995213D01*
X126177533Y-112112021D01*
X126037018Y-112252536D01*
X125979239Y-112332061D01*
X125966604Y-112346854D01*
X125870413Y-112443046D01*
X125870405Y-112443056D01*
X125786435Y-112585042D01*
X125786434Y-112585045D01*
X125740413Y-112743447D01*
X125740412Y-112743453D01*
X125737500Y-112780458D01*
X124500500Y-112780458D01*
X124500500Y-95870458D01*
X125737500Y-95870458D01*
X125737500Y-98129541D01*
X125740412Y-98166546D01*
X125740413Y-98166552D01*
X125786434Y-98324954D01*
X125786435Y-98324957D01*
X125870405Y-98466943D01*
X125870406Y-98466944D01*
X125870408Y-98466947D01*
X125966608Y-98563147D01*
X125979240Y-98577938D01*
X126037019Y-98657464D01*
X126177536Y-98797981D01*
X126338306Y-98914787D01*
X126425149Y-98959035D01*
X126515367Y-99005005D01*
X126515370Y-99005006D01*
X126609866Y-99035709D01*
X126704364Y-99066413D01*
X126900639Y-99097500D01*
X126900640Y-99097500D01*
X127099360Y-99097500D01*
X127099361Y-99097500D01*
X127295636Y-99066413D01*
X127484632Y-99005005D01*
X127661694Y-98914787D01*
X127822464Y-98797981D01*
X127962981Y-98657464D01*
X128020762Y-98577933D01*
X128026039Y-98571175D01*
X128029537Y-98567000D01*
X128129592Y-98466947D01*
X128168439Y-98401259D01*
X128174962Y-98393477D01*
X128195927Y-98379509D01*
X128214337Y-98362321D01*
X128224505Y-98360471D01*
X128233110Y-98354739D01*
X128258299Y-98354324D01*
X128283079Y-98349817D01*
X128292634Y-98353759D01*
X128302970Y-98353589D01*
X128324379Y-98366854D01*
X128347668Y-98376462D01*
X128356691Y-98386875D01*
X128362363Y-98390390D01*
X128365575Y-98397128D01*
X128376732Y-98410004D01*
X128410405Y-98466943D01*
X128410408Y-98466947D01*
X128506608Y-98563147D01*
X128519240Y-98577938D01*
X128577019Y-98657464D01*
X128717536Y-98797981D01*
X128878306Y-98914787D01*
X128965149Y-98959035D01*
X129055367Y-99005005D01*
X129055370Y-99005006D01*
X129149866Y-99035709D01*
X129244364Y-99066413D01*
X129440639Y-99097500D01*
X129440640Y-99097500D01*
X129639360Y-99097500D01*
X129639361Y-99097500D01*
X129835636Y-99066413D01*
X130024632Y-99005005D01*
X130201694Y-98914787D01*
X130362464Y-98797981D01*
X130502981Y-98657464D01*
X130560762Y-98577933D01*
X130566039Y-98571175D01*
X130569537Y-98567000D01*
X130669592Y-98466947D01*
X130708439Y-98401259D01*
X130714962Y-98393477D01*
X130735927Y-98379509D01*
X130754337Y-98362321D01*
X130764505Y-98360471D01*
X130773110Y-98354739D01*
X130798299Y-98354324D01*
X130823079Y-98349817D01*
X130832634Y-98353759D01*
X130842970Y-98353589D01*
X130864379Y-98366854D01*
X130887668Y-98376462D01*
X130896691Y-98386875D01*
X130902363Y-98390390D01*
X130905575Y-98397128D01*
X130916732Y-98410004D01*
X130950405Y-98466943D01*
X130950408Y-98466947D01*
X131046608Y-98563147D01*
X131059240Y-98577938D01*
X131117019Y-98657464D01*
X131257536Y-98797981D01*
X131418306Y-98914787D01*
X131505149Y-98959035D01*
X131595367Y-99005005D01*
X131595370Y-99005006D01*
X131689866Y-99035709D01*
X131784364Y-99066413D01*
X131980639Y-99097500D01*
X131980640Y-99097500D01*
X132179360Y-99097500D01*
X132179361Y-99097500D01*
X132375636Y-99066413D01*
X132564632Y-99005005D01*
X132741694Y-98914787D01*
X132902464Y-98797981D01*
X133042981Y-98657464D01*
X133100762Y-98577933D01*
X133106039Y-98571175D01*
X133109537Y-98567000D01*
X133209592Y-98466947D01*
X133248439Y-98401259D01*
X133254962Y-98393477D01*
X133275927Y-98379509D01*
X133294337Y-98362321D01*
X133304505Y-98360471D01*
X133313110Y-98354739D01*
X133338299Y-98354324D01*
X133363079Y-98349817D01*
X133372634Y-98353759D01*
X133382970Y-98353589D01*
X133404379Y-98366854D01*
X133427668Y-98376462D01*
X133436691Y-98386875D01*
X133442363Y-98390390D01*
X133445575Y-98397128D01*
X133456732Y-98410004D01*
X133490405Y-98466943D01*
X133490408Y-98466947D01*
X133586608Y-98563147D01*
X133599240Y-98577938D01*
X133657019Y-98657464D01*
X133797536Y-98797981D01*
X133958306Y-98914787D01*
X134045149Y-98959035D01*
X134135367Y-99005005D01*
X134135370Y-99005006D01*
X134229866Y-99035709D01*
X134324364Y-99066413D01*
X134520639Y-99097500D01*
X134520640Y-99097500D01*
X134719360Y-99097500D01*
X134719361Y-99097500D01*
X134915636Y-99066413D01*
X135104632Y-99005005D01*
X135281694Y-98914787D01*
X135442464Y-98797981D01*
X135582981Y-98657464D01*
X135640762Y-98577933D01*
X135646039Y-98571175D01*
X135649537Y-98567000D01*
X135749592Y-98466947D01*
X135788439Y-98401259D01*
X135794962Y-98393477D01*
X135815927Y-98379509D01*
X135834337Y-98362321D01*
X135844505Y-98360471D01*
X135853110Y-98354739D01*
X135878299Y-98354324D01*
X135903079Y-98349817D01*
X135912634Y-98353759D01*
X135922970Y-98353589D01*
X135944379Y-98366854D01*
X135967668Y-98376462D01*
X135976691Y-98386875D01*
X135982363Y-98390390D01*
X135985575Y-98397128D01*
X135996732Y-98410004D01*
X136030405Y-98466943D01*
X136030408Y-98466947D01*
X136126608Y-98563147D01*
X136139240Y-98577938D01*
X136197019Y-98657464D01*
X136337536Y-98797981D01*
X136498306Y-98914787D01*
X136585149Y-98959035D01*
X136675367Y-99005005D01*
X136675370Y-99005006D01*
X136769866Y-99035709D01*
X136864364Y-99066413D01*
X137060639Y-99097500D01*
X137060640Y-99097500D01*
X137259360Y-99097500D01*
X137259361Y-99097500D01*
X137455636Y-99066413D01*
X137644632Y-99005005D01*
X137821694Y-98914787D01*
X137982464Y-98797981D01*
X138122981Y-98657464D01*
X138180762Y-98577933D01*
X138186039Y-98571175D01*
X138189537Y-98567000D01*
X138289592Y-98466947D01*
X138328439Y-98401259D01*
X138334962Y-98393477D01*
X138355927Y-98379509D01*
X138374337Y-98362321D01*
X138384505Y-98360471D01*
X138393110Y-98354739D01*
X138418299Y-98354324D01*
X138443079Y-98349817D01*
X138452634Y-98353759D01*
X138462970Y-98353589D01*
X138484379Y-98366854D01*
X138507668Y-98376462D01*
X138516691Y-98386875D01*
X138522363Y-98390390D01*
X138525575Y-98397128D01*
X138536732Y-98410004D01*
X138570405Y-98466943D01*
X138570408Y-98466947D01*
X138666608Y-98563147D01*
X138679240Y-98577938D01*
X138737019Y-98657464D01*
X138877536Y-98797981D01*
X139038306Y-98914787D01*
X139125149Y-98959035D01*
X139215367Y-99005005D01*
X139215370Y-99005006D01*
X139309866Y-99035709D01*
X139404364Y-99066413D01*
X139600639Y-99097500D01*
X139600640Y-99097500D01*
X139799360Y-99097500D01*
X139799361Y-99097500D01*
X139995636Y-99066413D01*
X140184632Y-99005005D01*
X140361694Y-98914787D01*
X140522464Y-98797981D01*
X140662981Y-98657464D01*
X140720762Y-98577933D01*
X140726039Y-98571175D01*
X140729537Y-98567000D01*
X140829592Y-98466947D01*
X140868439Y-98401259D01*
X140874962Y-98393477D01*
X140895927Y-98379509D01*
X140914337Y-98362321D01*
X140924505Y-98360471D01*
X140933110Y-98354739D01*
X140958299Y-98354324D01*
X140983079Y-98349817D01*
X140992634Y-98353759D01*
X141002970Y-98353589D01*
X141024379Y-98366854D01*
X141047668Y-98376462D01*
X141056691Y-98386875D01*
X141062363Y-98390390D01*
X141065575Y-98397128D01*
X141076732Y-98410004D01*
X141110405Y-98466943D01*
X141110408Y-98466947D01*
X141206608Y-98563147D01*
X141219240Y-98577938D01*
X141277019Y-98657464D01*
X141417536Y-98797981D01*
X141578306Y-98914787D01*
X141665149Y-98959035D01*
X141755367Y-99005005D01*
X141755370Y-99005006D01*
X141849866Y-99035709D01*
X141944364Y-99066413D01*
X142140639Y-99097500D01*
X142140640Y-99097500D01*
X142339360Y-99097500D01*
X142339361Y-99097500D01*
X142535636Y-99066413D01*
X142724632Y-99005005D01*
X142901694Y-98914787D01*
X143062464Y-98797981D01*
X143202981Y-98657464D01*
X143260760Y-98577936D01*
X143273389Y-98563148D01*
X143369592Y-98466947D01*
X143453564Y-98324959D01*
X143499587Y-98166548D01*
X143502500Y-98129534D01*
X143502500Y-95870466D01*
X143499587Y-95833452D01*
X143453564Y-95675041D01*
X143369592Y-95533053D01*
X143369590Y-95533051D01*
X143369587Y-95533047D01*
X143252952Y-95416412D01*
X143252943Y-95416405D01*
X143110957Y-95332435D01*
X143110954Y-95332433D01*
X142979905Y-95294360D01*
X142921019Y-95256754D01*
X142891813Y-95193281D01*
X142890500Y-95175284D01*
X142890500Y-93360929D01*
X142865502Y-93235262D01*
X142865501Y-93235261D01*
X142865501Y-93235257D01*
X142816465Y-93116874D01*
X142761493Y-93034602D01*
X142761493Y-93034601D01*
X142753385Y-93022467D01*
X142745277Y-93010332D01*
X140855631Y-91120686D01*
X138962127Y-89227181D01*
X138928642Y-89165858D01*
X138933626Y-89096166D01*
X138975498Y-89040233D01*
X139040962Y-89015816D01*
X139049808Y-89015500D01*
X142699071Y-89015500D01*
X142783615Y-88998682D01*
X142824744Y-88990501D01*
X142943127Y-88941465D01*
X142979944Y-88916865D01*
X143049669Y-88870277D01*
X145505277Y-86414669D01*
X145576465Y-86308127D01*
X145625501Y-86189744D01*
X145636763Y-86133127D01*
X145647831Y-86077486D01*
X145650500Y-86064070D01*
X145650500Y-80935928D01*
X145625502Y-80810261D01*
X145625501Y-80810260D01*
X145625501Y-80810256D01*
X145576465Y-80691873D01*
X145530446Y-80623000D01*
X145530446Y-80622999D01*
X145517861Y-80604165D01*
X145505277Y-80585331D01*
X143477797Y-78557851D01*
X141302301Y-76382354D01*
X141268816Y-76321031D01*
X141273800Y-76251339D01*
X141315672Y-76195406D01*
X141370583Y-76172200D01*
X141558993Y-76142360D01*
X141806072Y-76062079D01*
X142037551Y-75944134D01*
X142247729Y-75791431D01*
X142431431Y-75607729D01*
X142584134Y-75397551D01*
X142702079Y-75166072D01*
X142782360Y-74918993D01*
X142805039Y-74775798D01*
X142823000Y-74662402D01*
X142823000Y-74402597D01*
X142801447Y-74266521D01*
X142782360Y-74146007D01*
X142702079Y-73898928D01*
X142702077Y-73898925D01*
X142702077Y-73898923D01*
X142659287Y-73814945D01*
X142584134Y-73667449D01*
X142431431Y-73457271D01*
X142247729Y-73273569D01*
X142037551Y-73120866D01*
X141965264Y-73084034D01*
X141806076Y-73002922D01*
X141558993Y-72922640D01*
X141302402Y-72882000D01*
X141302397Y-72882000D01*
X141042603Y-72882000D01*
X141042598Y-72882000D01*
X140786006Y-72922640D01*
X140538923Y-73002922D01*
X140307445Y-73120868D01*
X140097274Y-73273566D01*
X140097268Y-73273571D01*
X139913571Y-73457268D01*
X139913566Y-73457274D01*
X139760868Y-73667445D01*
X139642922Y-73898923D01*
X139562640Y-74146006D01*
X139522000Y-74402597D01*
X139522000Y-74662402D01*
X139562640Y-74918993D01*
X139642922Y-75166076D01*
X139724034Y-75325264D01*
X139760866Y-75397551D01*
X139913569Y-75607729D01*
X140097271Y-75791431D01*
X140097274Y-75791433D01*
X140307447Y-75944133D01*
X140314084Y-75947515D01*
X140364881Y-75995489D01*
X140381676Y-76063310D01*
X140359139Y-76129445D01*
X140304424Y-76172897D01*
X140257790Y-76182000D01*
X136818768Y-76182000D01*
X136751729Y-76162315D01*
X136718450Y-76130885D01*
X136668459Y-76062079D01*
X136636328Y-76017854D01*
X136497146Y-75878672D01*
X136337905Y-75762976D01*
X136162529Y-75673617D01*
X135975326Y-75612790D01*
X135780922Y-75582000D01*
X135780917Y-75582000D01*
X135584083Y-75582000D01*
X135584078Y-75582000D01*
X135389673Y-75612790D01*
X135202470Y-75673617D01*
X135027092Y-75762977D01*
X134964571Y-75808401D01*
X134898765Y-75831880D01*
X134830711Y-75816054D01*
X134792420Y-75782393D01*
X134749686Y-75725309D01*
X134634593Y-75639149D01*
X134634586Y-75639145D01*
X134499879Y-75588903D01*
X134499872Y-75588901D01*
X134440344Y-75582500D01*
X133892500Y-75582500D01*
X133892500Y-76516816D01*
X133888105Y-76512421D01*
X133796894Y-76459760D01*
X133695161Y-76432501D01*
X133589839Y-76432501D01*
X133488106Y-76459760D01*
X133396895Y-76512421D01*
X133392500Y-76516816D01*
X133392500Y-75582500D01*
X132844655Y-75582500D01*
X132785127Y-75588901D01*
X132785120Y-75588903D01*
X132650413Y-75639145D01*
X132650406Y-75639149D01*
X132535312Y-75725309D01*
X132535309Y-75725312D01*
X132449149Y-75840406D01*
X132449145Y-75840413D01*
X132398903Y-75975120D01*
X132398901Y-75975127D01*
X132392500Y-76034655D01*
X132392500Y-76582500D01*
X133326816Y-76582500D01*
X133322421Y-76586895D01*
X133269760Y-76678106D01*
X133242501Y-76779839D01*
X133242501Y-76885161D01*
X133269760Y-76986894D01*
X133322421Y-77078105D01*
X133326816Y-77082500D01*
X132392500Y-77082500D01*
X132392500Y-77630344D01*
X132398901Y-77689872D01*
X132398903Y-77689879D01*
X132449145Y-77824586D01*
X132449149Y-77824593D01*
X132535309Y-77939687D01*
X132535312Y-77939690D01*
X132650406Y-78025850D01*
X132650413Y-78025854D01*
X132785120Y-78076096D01*
X132785127Y-78076098D01*
X132844655Y-78082499D01*
X132844672Y-78082500D01*
X133392500Y-78082500D01*
X133392500Y-77148184D01*
X133396895Y-77152579D01*
X133488106Y-77205240D01*
X133589839Y-77232499D01*
X133695161Y-77232499D01*
X133796894Y-77205240D01*
X133888105Y-77152579D01*
X133892500Y-77148184D01*
X133892500Y-78082500D01*
X133928921Y-78082500D01*
X133995960Y-78102185D01*
X134041715Y-78154989D01*
X134051659Y-78224147D01*
X134022634Y-78287703D01*
X134001807Y-78306817D01*
X133847854Y-78418672D01*
X133847852Y-78418674D01*
X133847851Y-78418674D01*
X133708674Y-78557851D01*
X133708674Y-78557852D01*
X133708672Y-78557854D01*
X133658985Y-78626241D01*
X133592976Y-78717094D01*
X133503617Y-78892470D01*
X133442790Y-79079673D01*
X133412000Y-79274077D01*
X133412000Y-79470922D01*
X133442790Y-79665326D01*
X133503617Y-79852529D01*
X133592976Y-80027905D01*
X133708672Y-80187146D01*
X133847854Y-80326328D01*
X134007095Y-80442024D01*
X134089955Y-80484243D01*
X134182470Y-80531382D01*
X134182472Y-80531382D01*
X134182475Y-80531384D01*
X134282817Y-80563987D01*
X134369673Y-80592209D01*
X134564078Y-80623000D01*
X134564083Y-80623000D01*
X134760922Y-80623000D01*
X134955326Y-80592209D01*
X134976503Y-80585328D01*
X135142525Y-80531384D01*
X135317905Y-80442024D01*
X135477146Y-80326328D01*
X135594819Y-80208655D01*
X135656142Y-80175170D01*
X135725834Y-80180154D01*
X135770181Y-80208655D01*
X135887854Y-80326328D01*
X136047095Y-80442024D01*
X136129955Y-80484243D01*
X136222470Y-80531382D01*
X136222472Y-80531382D01*
X136222475Y-80531384D01*
X136322817Y-80563987D01*
X136409673Y-80592209D01*
X136604078Y-80623000D01*
X136604083Y-80623000D01*
X136800922Y-80623000D01*
X136995326Y-80592209D01*
X137016503Y-80585328D01*
X137182525Y-80531384D01*
X137357905Y-80442024D01*
X137517146Y-80326328D01*
X137656328Y-80187146D01*
X137772024Y-80027905D01*
X137861384Y-79852525D01*
X137922209Y-79665326D01*
X137953000Y-79470922D01*
X137953000Y-79274077D01*
X137922209Y-79079673D01*
X137861381Y-78892467D01*
X137829957Y-78830794D01*
X137817061Y-78762125D01*
X137843338Y-78697385D01*
X137900444Y-78657128D01*
X137940442Y-78650500D01*
X139679192Y-78650500D01*
X139746231Y-78670185D01*
X139766873Y-78686819D01*
X143313181Y-82233127D01*
X143346666Y-82294450D01*
X143349500Y-82320808D01*
X143349500Y-84679192D01*
X143329815Y-84746231D01*
X143313181Y-84766873D01*
X143118601Y-84961452D01*
X143057278Y-84994937D01*
X142987586Y-84989953D01*
X142931653Y-84948081D01*
X142907236Y-84882617D01*
X142922088Y-84814344D01*
X142925383Y-84808671D01*
X142934356Y-84794123D01*
X142934358Y-84794119D01*
X142989505Y-84627697D01*
X142989506Y-84627690D01*
X142999999Y-84524986D01*
X143000000Y-84524973D01*
X143000000Y-84250000D01*
X142250000Y-84250000D01*
X142250000Y-85224999D01*
X142299972Y-85224999D01*
X142299986Y-85224998D01*
X142402697Y-85214505D01*
X142569119Y-85159358D01*
X142569123Y-85159356D01*
X142583671Y-85150383D01*
X142651063Y-85131941D01*
X142717727Y-85152862D01*
X142762498Y-85206503D01*
X142771162Y-85275833D01*
X142740967Y-85338841D01*
X142736452Y-85343601D01*
X141671873Y-86408181D01*
X141610550Y-86441666D01*
X141584192Y-86444500D01*
X138994896Y-86444500D01*
X138927857Y-86424815D01*
X138882102Y-86372011D01*
X138872158Y-86302853D01*
X138888164Y-86257379D01*
X138901281Y-86235198D01*
X138947100Y-86077486D01*
X138947295Y-86075001D01*
X138947295Y-86075000D01*
X136002705Y-86075000D01*
X136002704Y-86075001D01*
X136002899Y-86077486D01*
X136048718Y-86235198D01*
X136132314Y-86376552D01*
X136137100Y-86382722D01*
X136134640Y-86384629D01*
X136161210Y-86433288D01*
X136156226Y-86502980D01*
X136135162Y-86535781D01*
X136136699Y-86536974D01*
X136131915Y-86543140D01*
X136048255Y-86684603D01*
X136048254Y-86684606D01*
X136002402Y-86842426D01*
X136002401Y-86842432D01*
X135999500Y-86879298D01*
X135999500Y-87310701D01*
X136002401Y-87347567D01*
X136002402Y-87347573D01*
X136048254Y-87505393D01*
X136048255Y-87505396D01*
X136048256Y-87505398D01*
X136082997Y-87564142D01*
X136131917Y-87646862D01*
X136136702Y-87653031D01*
X136134256Y-87654927D01*
X136160857Y-87703642D01*
X136155873Y-87773334D01*
X136135069Y-87805703D01*
X136136702Y-87806969D01*
X136131917Y-87813137D01*
X136048255Y-87954603D01*
X136048254Y-87954606D01*
X136002402Y-88112426D01*
X136002401Y-88112432D01*
X135999500Y-88149298D01*
X135999500Y-88580701D01*
X136002401Y-88617567D01*
X136002402Y-88617573D01*
X136048254Y-88775393D01*
X136048255Y-88775396D01*
X136131917Y-88916862D01*
X136136702Y-88923031D01*
X136134256Y-88924927D01*
X136160857Y-88973642D01*
X136155873Y-89043334D01*
X136135069Y-89075703D01*
X136136702Y-89076969D01*
X136131917Y-89083137D01*
X136048255Y-89224603D01*
X136048254Y-89224606D01*
X136002402Y-89382426D01*
X136002401Y-89382432D01*
X135999500Y-89419298D01*
X135999500Y-89850701D01*
X136002401Y-89887567D01*
X136002402Y-89887573D01*
X136048254Y-90045393D01*
X136048255Y-90045396D01*
X136131917Y-90186862D01*
X136136702Y-90193031D01*
X136134256Y-90194927D01*
X136160857Y-90243642D01*
X136155873Y-90313334D01*
X136135069Y-90345703D01*
X136136702Y-90346969D01*
X136131917Y-90353137D01*
X136048255Y-90494603D01*
X136048254Y-90494606D01*
X136002402Y-90652426D01*
X136002401Y-90652432D01*
X135999500Y-90689298D01*
X135999500Y-91120701D01*
X136002401Y-91157567D01*
X136002402Y-91157573D01*
X136048254Y-91315393D01*
X136048255Y-91315396D01*
X136048256Y-91315398D01*
X136085681Y-91378681D01*
X136131917Y-91456862D01*
X136136702Y-91463031D01*
X136134256Y-91464927D01*
X136160857Y-91513642D01*
X136155873Y-91583334D01*
X136135069Y-91615703D01*
X136136702Y-91616969D01*
X136131917Y-91623137D01*
X136048255Y-91764603D01*
X136048254Y-91764606D01*
X136002402Y-91922426D01*
X136002401Y-91922432D01*
X135999500Y-91959298D01*
X135999500Y-92390701D01*
X136002401Y-92427567D01*
X136002402Y-92427573D01*
X136048254Y-92585393D01*
X136048255Y-92585396D01*
X136131917Y-92726862D01*
X136136702Y-92733031D01*
X136134256Y-92734927D01*
X136160857Y-92783642D01*
X136155873Y-92853334D01*
X136135069Y-92885703D01*
X136136702Y-92886969D01*
X136131917Y-92893137D01*
X136048255Y-93034603D01*
X136048255Y-93034604D01*
X136002402Y-93192426D01*
X136002401Y-93192432D01*
X135999500Y-93229298D01*
X135999500Y-93660701D01*
X136002401Y-93697567D01*
X136002402Y-93697573D01*
X136048254Y-93855393D01*
X136048255Y-93855396D01*
X136131917Y-93996862D01*
X136131923Y-93996870D01*
X136248129Y-94113076D01*
X136248133Y-94113079D01*
X136248135Y-94113081D01*
X136389602Y-94196744D01*
X136431224Y-94208836D01*
X136547426Y-94242597D01*
X136547429Y-94242597D01*
X136547431Y-94242598D01*
X136584306Y-94245500D01*
X136584314Y-94245500D01*
X138365686Y-94245500D01*
X138365694Y-94245500D01*
X138402569Y-94242598D01*
X138402571Y-94242597D01*
X138402573Y-94242597D01*
X138444191Y-94230505D01*
X138560398Y-94196744D01*
X138701865Y-94113081D01*
X138818081Y-93996865D01*
X138818766Y-93995705D01*
X138819540Y-93994982D01*
X138822861Y-93990702D01*
X138823551Y-93991237D01*
X138869833Y-93948022D01*
X138938574Y-93935515D01*
X139003164Y-93962158D01*
X139043097Y-94019492D01*
X139049500Y-94058824D01*
X139049500Y-95175284D01*
X139029815Y-95242323D01*
X138977011Y-95288078D01*
X138960095Y-95294360D01*
X138829045Y-95332433D01*
X138829042Y-95332435D01*
X138687056Y-95416405D01*
X138687047Y-95416412D01*
X138570412Y-95533047D01*
X138570408Y-95533053D01*
X138536732Y-95589996D01*
X138485662Y-95637679D01*
X138416921Y-95650182D01*
X138352331Y-95623536D01*
X138323268Y-95589996D01*
X138289592Y-95533053D01*
X138289589Y-95533050D01*
X138289587Y-95533047D01*
X138172952Y-95416412D01*
X138172943Y-95416405D01*
X138030957Y-95332435D01*
X138030954Y-95332434D01*
X137872552Y-95286413D01*
X137872546Y-95286412D01*
X137835541Y-95283500D01*
X137835534Y-95283500D01*
X136484466Y-95283500D01*
X136484458Y-95283500D01*
X136447453Y-95286412D01*
X136447447Y-95286413D01*
X136289045Y-95332434D01*
X136289042Y-95332435D01*
X136147056Y-95416405D01*
X136147047Y-95416412D01*
X136030412Y-95533047D01*
X136030408Y-95533053D01*
X135996732Y-95589996D01*
X135945662Y-95637679D01*
X135876921Y-95650182D01*
X135812331Y-95623536D01*
X135783268Y-95589996D01*
X135749592Y-95533053D01*
X135749589Y-95533050D01*
X135749587Y-95533047D01*
X135632952Y-95416412D01*
X135632943Y-95416405D01*
X135490957Y-95332435D01*
X135490954Y-95332434D01*
X135332552Y-95286413D01*
X135332546Y-95286412D01*
X135295541Y-95283500D01*
X135295534Y-95283500D01*
X133944466Y-95283500D01*
X133944458Y-95283500D01*
X133907453Y-95286412D01*
X133907447Y-95286413D01*
X133749045Y-95332434D01*
X133749042Y-95332435D01*
X133607056Y-95416405D01*
X133607047Y-95416412D01*
X133490412Y-95533047D01*
X133490408Y-95533053D01*
X133456732Y-95589996D01*
X133405662Y-95637679D01*
X133336921Y-95650182D01*
X133272331Y-95623536D01*
X133243268Y-95589996D01*
X133209592Y-95533053D01*
X133209589Y-95533050D01*
X133209587Y-95533047D01*
X133092952Y-95416412D01*
X133092943Y-95416405D01*
X132950957Y-95332435D01*
X132950954Y-95332434D01*
X132792552Y-95286413D01*
X132792546Y-95286412D01*
X132755541Y-95283500D01*
X132755534Y-95283500D01*
X131404466Y-95283500D01*
X131404458Y-95283500D01*
X131367453Y-95286412D01*
X131367447Y-95286413D01*
X131209045Y-95332434D01*
X131209042Y-95332435D01*
X131067056Y-95416405D01*
X131067047Y-95416412D01*
X130950412Y-95533047D01*
X130950408Y-95533053D01*
X130916732Y-95589996D01*
X130865662Y-95637679D01*
X130796921Y-95650182D01*
X130732331Y-95623536D01*
X130703268Y-95589996D01*
X130669592Y-95533053D01*
X130669589Y-95533050D01*
X130669587Y-95533047D01*
X130552952Y-95416412D01*
X130552943Y-95416405D01*
X130410957Y-95332435D01*
X130410954Y-95332434D01*
X130252552Y-95286413D01*
X130252546Y-95286412D01*
X130215541Y-95283500D01*
X130215534Y-95283500D01*
X128864466Y-95283500D01*
X128864458Y-95283500D01*
X128827453Y-95286412D01*
X128827447Y-95286413D01*
X128669045Y-95332434D01*
X128669042Y-95332435D01*
X128527056Y-95416405D01*
X128527047Y-95416412D01*
X128410412Y-95533047D01*
X128410408Y-95533053D01*
X128376732Y-95589996D01*
X128325662Y-95637679D01*
X128256921Y-95650182D01*
X128192331Y-95623536D01*
X128163268Y-95589996D01*
X128129592Y-95533053D01*
X128129589Y-95533050D01*
X128129587Y-95533047D01*
X128012952Y-95416412D01*
X128012943Y-95416405D01*
X127870957Y-95332435D01*
X127870954Y-95332434D01*
X127712552Y-95286413D01*
X127712546Y-95286412D01*
X127675541Y-95283500D01*
X127675534Y-95283500D01*
X126324466Y-95283500D01*
X126324458Y-95283500D01*
X126287453Y-95286412D01*
X126287447Y-95286413D01*
X126129045Y-95332434D01*
X126129042Y-95332435D01*
X125987056Y-95416405D01*
X125987047Y-95416412D01*
X125870412Y-95533047D01*
X125870405Y-95533056D01*
X125786435Y-95675042D01*
X125786434Y-95675045D01*
X125740413Y-95833447D01*
X125740412Y-95833453D01*
X125737500Y-95870458D01*
X124500500Y-95870458D01*
X124500500Y-93115000D01*
X129157296Y-93115000D01*
X129199768Y-93261195D01*
X129282078Y-93400374D01*
X129282085Y-93400383D01*
X129396416Y-93514714D01*
X129396425Y-93514721D01*
X129535604Y-93597031D01*
X129690889Y-93642145D01*
X129711800Y-93643789D01*
X130211800Y-93643789D01*
X130232710Y-93642145D01*
X130387995Y-93597031D01*
X130527174Y-93514721D01*
X130527183Y-93514714D01*
X130641514Y-93400383D01*
X130641521Y-93400374D01*
X130723831Y-93261195D01*
X130766304Y-93115000D01*
X130211800Y-93115000D01*
X130211800Y-93643789D01*
X129711800Y-93643789D01*
X129711800Y-93115000D01*
X129157296Y-93115000D01*
X124500500Y-93115000D01*
X124500500Y-84660302D01*
X129151300Y-84660302D01*
X129151300Y-85069697D01*
X129154156Y-85105991D01*
X129154157Y-85105997D01*
X129199304Y-85261390D01*
X129199306Y-85261395D01*
X129223248Y-85301881D01*
X129240429Y-85369606D01*
X129223248Y-85428119D01*
X129199306Y-85468604D01*
X129199304Y-85468609D01*
X129154157Y-85624002D01*
X129154156Y-85624008D01*
X129151300Y-85660302D01*
X129151300Y-86069697D01*
X129154156Y-86105991D01*
X129154157Y-86105997D01*
X129199304Y-86261390D01*
X129199305Y-86261393D01*
X129199306Y-86261395D01*
X129223824Y-86302853D01*
X129281681Y-86400684D01*
X129281687Y-86400692D01*
X129396107Y-86515112D01*
X129396111Y-86515115D01*
X129396113Y-86515117D01*
X129535405Y-86597494D01*
X129576387Y-86609400D01*
X129690802Y-86642642D01*
X129690805Y-86642642D01*
X129690807Y-86642643D01*
X129727110Y-86645500D01*
X129770992Y-86645500D01*
X129838031Y-86665185D01*
X129858673Y-86681819D01*
X130679672Y-87502819D01*
X130690284Y-87522255D01*
X130704785Y-87538989D01*
X130706701Y-87552320D01*
X130713157Y-87564142D01*
X130711577Y-87586228D01*
X130714729Y-87608147D01*
X130709133Y-87620398D01*
X130708173Y-87633834D01*
X130694902Y-87651560D01*
X130685704Y-87671703D01*
X130674372Y-87678985D01*
X130666301Y-87689767D01*
X130645555Y-87697504D01*
X130626926Y-87709477D01*
X130605007Y-87712628D01*
X130600837Y-87714184D01*
X130591991Y-87714500D01*
X130560761Y-87714500D01*
X130497640Y-87697232D01*
X130485017Y-87689767D01*
X130388195Y-87632506D01*
X130388194Y-87632505D01*
X130388193Y-87632505D01*
X130388190Y-87632504D01*
X130232797Y-87587357D01*
X130232791Y-87587356D01*
X130196497Y-87584500D01*
X130196490Y-87584500D01*
X129727110Y-87584500D01*
X129727102Y-87584500D01*
X129690808Y-87587356D01*
X129690802Y-87587357D01*
X129535409Y-87632504D01*
X129535406Y-87632505D01*
X129396115Y-87714881D01*
X129396107Y-87714887D01*
X129281687Y-87829307D01*
X129281681Y-87829315D01*
X129199305Y-87968606D01*
X129199304Y-87968609D01*
X129154157Y-88124002D01*
X129154156Y-88124008D01*
X129151300Y-88160302D01*
X129151300Y-88569697D01*
X129154156Y-88605991D01*
X129154157Y-88605997D01*
X129199304Y-88761390D01*
X129199306Y-88761395D01*
X129223248Y-88801881D01*
X129240429Y-88869606D01*
X129223248Y-88928119D01*
X129199306Y-88968604D01*
X129199304Y-88968609D01*
X129154157Y-89124002D01*
X129154156Y-89124008D01*
X129151300Y-89160302D01*
X129151300Y-89569697D01*
X129154156Y-89605991D01*
X129154157Y-89605997D01*
X129199304Y-89761390D01*
X129199305Y-89761393D01*
X129281681Y-89900684D01*
X129281687Y-89900692D01*
X129396107Y-90015112D01*
X129396111Y-90015115D01*
X129396113Y-90015117D01*
X129535405Y-90097494D01*
X129576387Y-90109400D01*
X129690802Y-90142642D01*
X129690805Y-90142642D01*
X129690807Y-90142643D01*
X129727110Y-90145500D01*
X129787333Y-90145500D01*
X129801748Y-90149174D01*
X129813622Y-90148319D01*
X129836540Y-90158044D01*
X129846698Y-90160634D01*
X129851591Y-90163302D01*
X129923674Y-90211466D01*
X129985124Y-90236919D01*
X130042056Y-90260501D01*
X130042060Y-90260501D01*
X130042061Y-90260502D01*
X130167728Y-90285500D01*
X130167731Y-90285500D01*
X130321991Y-90285500D01*
X130389030Y-90305185D01*
X130434785Y-90357989D01*
X130444729Y-90427147D01*
X130415704Y-90490703D01*
X130409672Y-90497181D01*
X129858673Y-91048181D01*
X129797350Y-91081666D01*
X129770992Y-91084500D01*
X129727102Y-91084500D01*
X129690808Y-91087356D01*
X129690802Y-91087357D01*
X129535409Y-91132504D01*
X129535406Y-91132505D01*
X129396115Y-91214881D01*
X129396107Y-91214887D01*
X129281687Y-91329307D01*
X129281681Y-91329315D01*
X129199305Y-91468606D01*
X129199304Y-91468609D01*
X129154157Y-91624002D01*
X129154156Y-91624008D01*
X129151300Y-91660302D01*
X129151300Y-92069697D01*
X129154156Y-92105991D01*
X129154157Y-92105997D01*
X129199304Y-92261390D01*
X129199305Y-92261393D01*
X129223538Y-92302369D01*
X129240721Y-92370093D01*
X129223539Y-92428610D01*
X129199768Y-92468805D01*
X129157296Y-92615000D01*
X129578013Y-92615000D01*
X129612608Y-92619923D01*
X129690807Y-92642643D01*
X129727110Y-92645500D01*
X129727118Y-92645500D01*
X130196482Y-92645500D01*
X130196490Y-92645500D01*
X130232793Y-92642643D01*
X130310991Y-92619923D01*
X130345587Y-92615000D01*
X130766304Y-92615000D01*
X130723831Y-92468804D01*
X130700061Y-92428611D01*
X130682878Y-92360887D01*
X130700060Y-92302371D01*
X130724294Y-92261395D01*
X130769443Y-92105993D01*
X130772300Y-92069690D01*
X130772300Y-92025808D01*
X130780944Y-91996367D01*
X130787468Y-91966381D01*
X130791222Y-91961365D01*
X130791985Y-91958769D01*
X130808619Y-91938127D01*
X130837819Y-91908927D01*
X130899142Y-91875442D01*
X130968834Y-91880426D01*
X131024767Y-91922298D01*
X131049184Y-91987762D01*
X131049500Y-91996608D01*
X131049500Y-92390701D01*
X131052401Y-92427567D01*
X131052402Y-92427573D01*
X131098254Y-92585393D01*
X131098255Y-92585396D01*
X131181917Y-92726862D01*
X131186702Y-92733031D01*
X131184256Y-92734927D01*
X131210857Y-92783642D01*
X131205873Y-92853334D01*
X131185069Y-92885703D01*
X131186702Y-92886969D01*
X131181917Y-92893137D01*
X131098255Y-93034603D01*
X131098255Y-93034604D01*
X131052402Y-93192426D01*
X131052401Y-93192432D01*
X131049500Y-93229298D01*
X131049500Y-93660701D01*
X131052401Y-93697567D01*
X131052402Y-93697573D01*
X131098254Y-93855393D01*
X131098255Y-93855396D01*
X131181917Y-93996862D01*
X131181923Y-93996870D01*
X131298129Y-94113076D01*
X131298133Y-94113079D01*
X131298135Y-94113081D01*
X131439602Y-94196744D01*
X131481224Y-94208836D01*
X131597426Y-94242597D01*
X131597429Y-94242597D01*
X131597431Y-94242598D01*
X131634306Y-94245500D01*
X131634314Y-94245500D01*
X133415686Y-94245500D01*
X133415694Y-94245500D01*
X133452569Y-94242598D01*
X133452571Y-94242597D01*
X133452573Y-94242597D01*
X133494191Y-94230505D01*
X133610398Y-94196744D01*
X133751865Y-94113081D01*
X133868081Y-93996865D01*
X133951744Y-93855398D01*
X133997598Y-93697569D01*
X134000500Y-93660694D01*
X134000500Y-93229306D01*
X133997598Y-93192431D01*
X133975646Y-93116874D01*
X133951745Y-93034604D01*
X133951744Y-93034603D01*
X133951744Y-93034602D01*
X133868081Y-92893135D01*
X133868078Y-92893132D01*
X133863298Y-92886969D01*
X133865750Y-92885066D01*
X133839155Y-92836421D01*
X133844104Y-92766726D01*
X133864940Y-92734304D01*
X133863298Y-92733031D01*
X133868075Y-92726870D01*
X133868081Y-92726865D01*
X133951744Y-92585398D01*
X133997598Y-92427569D01*
X134000500Y-92390694D01*
X134000500Y-91959306D01*
X133997598Y-91922431D01*
X133997559Y-91922298D01*
X133951745Y-91764606D01*
X133951744Y-91764603D01*
X133951744Y-91764602D01*
X133868081Y-91623135D01*
X133868078Y-91623132D01*
X133863298Y-91616969D01*
X133865750Y-91615066D01*
X133839155Y-91566421D01*
X133844104Y-91496726D01*
X133864940Y-91464304D01*
X133863298Y-91463031D01*
X133868075Y-91456870D01*
X133868081Y-91456865D01*
X133951744Y-91315398D01*
X133997598Y-91157569D01*
X134000500Y-91120694D01*
X134000500Y-90689306D01*
X133997598Y-90652431D01*
X133951744Y-90494602D01*
X133868081Y-90353135D01*
X133868078Y-90353132D01*
X133863298Y-90346969D01*
X133865750Y-90345066D01*
X133839155Y-90296421D01*
X133844104Y-90226726D01*
X133864940Y-90194304D01*
X133863298Y-90193031D01*
X133868075Y-90186870D01*
X133868081Y-90186865D01*
X133951744Y-90045398D01*
X133997598Y-89887569D01*
X134000500Y-89850694D01*
X134000500Y-89419306D01*
X133997598Y-89382431D01*
X133951744Y-89224602D01*
X133868081Y-89083135D01*
X133868078Y-89083132D01*
X133863298Y-89076969D01*
X133865750Y-89075066D01*
X133839155Y-89026421D01*
X133844104Y-88956726D01*
X133864940Y-88924304D01*
X133863298Y-88923031D01*
X133868075Y-88916870D01*
X133868081Y-88916865D01*
X133951744Y-88775398D01*
X133997598Y-88617569D01*
X134000500Y-88580694D01*
X134000500Y-88149306D01*
X133997598Y-88112431D01*
X133951744Y-87954602D01*
X133868081Y-87813135D01*
X133868078Y-87813132D01*
X133863298Y-87806969D01*
X133865750Y-87805066D01*
X133839155Y-87756421D01*
X133844104Y-87686726D01*
X133864940Y-87654304D01*
X133863298Y-87653031D01*
X133868075Y-87646870D01*
X133868081Y-87646865D01*
X133951744Y-87505398D01*
X133997598Y-87347569D01*
X134000500Y-87310694D01*
X134000500Y-86879306D01*
X133997598Y-86842431D01*
X133951744Y-86684602D01*
X133868081Y-86543135D01*
X133868078Y-86543132D01*
X133863298Y-86536969D01*
X133865742Y-86535072D01*
X133839142Y-86486357D01*
X133844126Y-86416665D01*
X133859528Y-86387754D01*
X133865442Y-86379503D01*
X133868081Y-86376865D01*
X133871601Y-86370912D01*
X133874780Y-86366478D01*
X133885090Y-86358422D01*
X133906671Y-86335620D01*
X133914668Y-86330277D01*
X134505276Y-85739668D01*
X134576465Y-85633126D01*
X134625501Y-85514743D01*
X134630323Y-85490501D01*
X134650500Y-85389068D01*
X134650500Y-84421153D01*
X135199500Y-84421153D01*
X135199500Y-84578846D01*
X135230261Y-84733489D01*
X135230264Y-84733501D01*
X135290602Y-84879172D01*
X135290609Y-84879185D01*
X135378210Y-85010288D01*
X135378213Y-85010292D01*
X135489707Y-85121786D01*
X135489711Y-85121789D01*
X135620814Y-85209390D01*
X135620827Y-85209397D01*
X135766498Y-85269735D01*
X135766503Y-85269737D01*
X135921158Y-85300500D01*
X135921163Y-85300500D01*
X135927218Y-85301097D01*
X135926981Y-85303497D01*
X135983812Y-85320185D01*
X136029567Y-85372989D01*
X136039511Y-85442147D01*
X136035850Y-85459094D01*
X136002899Y-85572511D01*
X136002704Y-85574998D01*
X136002705Y-85575000D01*
X138947295Y-85575000D01*
X138947295Y-85574998D01*
X138947100Y-85572511D01*
X138947099Y-85572505D01*
X138915603Y-85464095D01*
X138915802Y-85394225D01*
X138953744Y-85335555D01*
X139017383Y-85306712D01*
X139034679Y-85305500D01*
X139618920Y-85305500D01*
X139763908Y-85276659D01*
X139763908Y-85276658D01*
X139763913Y-85276658D01*
X139827063Y-85250500D01*
X139864633Y-85234938D01*
X139912086Y-85225499D01*
X140400002Y-85225499D01*
X140400008Y-85225499D01*
X140502797Y-85214999D01*
X140669334Y-85159814D01*
X140818656Y-85067712D01*
X140942712Y-84943656D01*
X140944752Y-84940347D01*
X140946745Y-84938555D01*
X140947193Y-84937989D01*
X140947289Y-84938065D01*
X140996694Y-84893623D01*
X141065656Y-84882395D01*
X141129740Y-84910234D01*
X141155829Y-84940339D01*
X141157681Y-84943341D01*
X141157683Y-84943344D01*
X141281654Y-85067315D01*
X141430875Y-85159356D01*
X141430880Y-85159358D01*
X141597302Y-85214505D01*
X141597309Y-85214506D01*
X141700019Y-85224999D01*
X141749999Y-85224998D01*
X141750000Y-85224998D01*
X141750000Y-83750000D01*
X142250000Y-83750000D01*
X142999999Y-83750000D01*
X142999999Y-83475028D01*
X142999998Y-83475013D01*
X142989505Y-83372302D01*
X142934358Y-83205880D01*
X142934356Y-83205875D01*
X142842315Y-83056654D01*
X142718345Y-82932684D01*
X142569124Y-82840643D01*
X142569119Y-82840641D01*
X142402697Y-82785494D01*
X142402690Y-82785493D01*
X142299986Y-82775000D01*
X142250000Y-82775000D01*
X142250000Y-83750000D01*
X141750000Y-83750000D01*
X141750000Y-82775000D01*
X141749999Y-82774999D01*
X141700029Y-82775000D01*
X141700011Y-82775001D01*
X141597302Y-82785494D01*
X141430880Y-82840641D01*
X141430875Y-82840643D01*
X141281654Y-82932684D01*
X141157683Y-83056655D01*
X141157679Y-83056660D01*
X141155826Y-83059665D01*
X141154018Y-83061290D01*
X141153202Y-83062323D01*
X141153025Y-83062183D01*
X141103874Y-83106385D01*
X141034911Y-83117601D01*
X140970831Y-83089752D01*
X140944753Y-83059653D01*
X140944737Y-83059628D01*
X140942712Y-83056344D01*
X140818656Y-82932288D01*
X140725888Y-82875069D01*
X140669336Y-82840187D01*
X140669331Y-82840185D01*
X140667862Y-82839698D01*
X140502797Y-82785001D01*
X140502795Y-82785000D01*
X140400010Y-82774500D01*
X139799998Y-82774500D01*
X139799980Y-82774501D01*
X139697203Y-82785000D01*
X139697200Y-82785001D01*
X139530668Y-82840185D01*
X139530663Y-82840187D01*
X139381342Y-82932289D01*
X139257289Y-83056342D01*
X139165187Y-83205663D01*
X139165185Y-83205668D01*
X139165115Y-83205880D01*
X139110001Y-83372203D01*
X139110001Y-83372204D01*
X139110000Y-83372204D01*
X139099500Y-83474983D01*
X139099500Y-83680500D01*
X139079815Y-83747539D01*
X139027011Y-83793294D01*
X138975500Y-83804500D01*
X138582328Y-83804500D01*
X138551431Y-83800589D01*
X138549571Y-83800110D01*
X138402569Y-83757402D01*
X138375200Y-83755248D01*
X138364768Y-83752564D01*
X138343635Y-83739970D01*
X138320648Y-83731209D01*
X138314150Y-83722399D01*
X138304748Y-83716796D01*
X138293779Y-83694778D01*
X138279177Y-83674979D01*
X138278474Y-83664054D01*
X138273593Y-83654257D01*
X138276269Y-83629801D01*
X138274690Y-83605253D01*
X138276589Y-83597879D01*
X138277163Y-83595904D01*
X138307643Y-83490993D01*
X138310500Y-83454690D01*
X138310500Y-83045310D01*
X138307643Y-83009007D01*
X138262494Y-82853605D01*
X138254557Y-82840185D01*
X138238261Y-82812629D01*
X138221078Y-82744906D01*
X138238263Y-82686384D01*
X138262031Y-82646196D01*
X138304504Y-82500000D01*
X137883787Y-82500000D01*
X137849191Y-82495076D01*
X137770994Y-82472357D01*
X137770991Y-82472356D01*
X137734697Y-82469500D01*
X137734690Y-82469500D01*
X137265310Y-82469500D01*
X137265302Y-82469500D01*
X137229008Y-82472356D01*
X137229005Y-82472357D01*
X137150809Y-82495076D01*
X137116213Y-82500000D01*
X136695496Y-82500000D01*
X136737968Y-82646195D01*
X136737968Y-82646196D01*
X136761738Y-82686388D01*
X136778921Y-82754112D01*
X136761739Y-82812629D01*
X136737504Y-82853608D01*
X136737504Y-82853609D01*
X136692357Y-83009002D01*
X136692356Y-83009008D01*
X136689500Y-83045302D01*
X136689500Y-83454697D01*
X136692356Y-83490991D01*
X136692357Y-83490993D01*
X136719576Y-83584681D01*
X136724500Y-83619274D01*
X136724500Y-83625500D01*
X136704815Y-83692539D01*
X136652011Y-83738294D01*
X136600500Y-83749500D01*
X136304604Y-83749500D01*
X136257155Y-83740062D01*
X136233497Y-83730263D01*
X136233493Y-83730262D01*
X136233488Y-83730260D01*
X136078845Y-83699500D01*
X136078842Y-83699500D01*
X135921158Y-83699500D01*
X135921155Y-83699500D01*
X135766510Y-83730261D01*
X135766498Y-83730264D01*
X135620827Y-83790602D01*
X135620814Y-83790609D01*
X135489711Y-83878210D01*
X135489707Y-83878213D01*
X135378213Y-83989707D01*
X135378210Y-83989711D01*
X135290609Y-84120814D01*
X135290602Y-84120827D01*
X135230264Y-84266498D01*
X135230261Y-84266510D01*
X135199500Y-84421153D01*
X134650500Y-84421153D01*
X134650500Y-83866324D01*
X134670185Y-83799285D01*
X134676520Y-83790324D01*
X134680111Y-83785692D01*
X134680117Y-83785687D01*
X134762494Y-83646395D01*
X134807643Y-83490993D01*
X134810500Y-83454690D01*
X134810500Y-83045310D01*
X134807643Y-83009007D01*
X134762494Y-82853605D01*
X134754557Y-82840185D01*
X134738261Y-82812629D01*
X134721078Y-82744906D01*
X134738263Y-82686384D01*
X134762031Y-82646196D01*
X134804504Y-82500000D01*
X134383787Y-82500000D01*
X134349191Y-82495076D01*
X134270994Y-82472357D01*
X134270991Y-82472356D01*
X134234697Y-82469500D01*
X134234690Y-82469500D01*
X133765310Y-82469500D01*
X133765302Y-82469500D01*
X133729008Y-82472356D01*
X133729005Y-82472357D01*
X133650809Y-82495076D01*
X133616213Y-82500000D01*
X133195496Y-82500000D01*
X133237968Y-82646195D01*
X133237968Y-82646196D01*
X133261738Y-82686388D01*
X133278921Y-82754112D01*
X133261739Y-82812629D01*
X133237504Y-82853608D01*
X133237504Y-82853609D01*
X133192357Y-83009002D01*
X133192356Y-83009008D01*
X133189500Y-83045302D01*
X133189500Y-83454697D01*
X133192356Y-83490991D01*
X133192357Y-83490994D01*
X133222837Y-83595904D01*
X133222638Y-83665774D01*
X133184696Y-83724444D01*
X133121058Y-83753288D01*
X133103761Y-83754500D01*
X131634298Y-83754500D01*
X131597432Y-83757401D01*
X131597426Y-83757402D01*
X131439606Y-83803254D01*
X131439603Y-83803255D01*
X131297605Y-83887232D01*
X131234484Y-83904500D01*
X130207729Y-83904500D01*
X130082061Y-83929497D01*
X130082055Y-83929499D01*
X129963675Y-83978533D01*
X129963666Y-83978538D01*
X129857131Y-84049723D01*
X129852421Y-84053589D01*
X129851290Y-84052211D01*
X129797350Y-84081666D01*
X129770992Y-84084500D01*
X129727102Y-84084500D01*
X129690808Y-84087356D01*
X129690802Y-84087357D01*
X129535409Y-84132504D01*
X129535406Y-84132505D01*
X129396115Y-84214881D01*
X129396107Y-84214887D01*
X129281687Y-84329307D01*
X129281681Y-84329315D01*
X129199305Y-84468606D01*
X129199304Y-84468609D01*
X129154157Y-84624002D01*
X129154156Y-84624008D01*
X129151300Y-84660302D01*
X124500500Y-84660302D01*
X124500500Y-82000000D01*
X133195496Y-82000000D01*
X133750000Y-82000000D01*
X134250000Y-82000000D01*
X134804504Y-82000000D01*
X136695496Y-82000000D01*
X137250000Y-82000000D01*
X137750000Y-82000000D01*
X138304504Y-82000000D01*
X138262031Y-81853804D01*
X138179721Y-81714625D01*
X138179714Y-81714616D01*
X138065383Y-81600285D01*
X138065374Y-81600278D01*
X137926195Y-81517968D01*
X137926190Y-81517966D01*
X137770918Y-81472855D01*
X137770912Y-81472854D01*
X137750000Y-81471209D01*
X137750000Y-82000000D01*
X137250000Y-82000000D01*
X137250000Y-81471210D01*
X137249999Y-81471209D01*
X137229087Y-81472854D01*
X137229081Y-81472855D01*
X137073809Y-81517966D01*
X137073804Y-81517968D01*
X136934625Y-81600278D01*
X136934616Y-81600285D01*
X136820285Y-81714616D01*
X136820278Y-81714625D01*
X136737968Y-81853804D01*
X136695496Y-82000000D01*
X134804504Y-82000000D01*
X134762031Y-81853804D01*
X134679721Y-81714625D01*
X134679714Y-81714616D01*
X134565383Y-81600285D01*
X134565374Y-81600278D01*
X134426195Y-81517968D01*
X134426190Y-81517966D01*
X134270918Y-81472855D01*
X134270912Y-81472854D01*
X134250000Y-81471209D01*
X134250000Y-82000000D01*
X133750000Y-82000000D01*
X133750000Y-81471210D01*
X133749999Y-81471209D01*
X133729087Y-81472854D01*
X133729081Y-81472855D01*
X133573809Y-81517966D01*
X133573804Y-81517968D01*
X133434625Y-81600278D01*
X133434616Y-81600285D01*
X133320285Y-81714616D01*
X133320278Y-81714625D01*
X133237968Y-81853804D01*
X133195496Y-82000000D01*
X124500500Y-82000000D01*
X124500500Y-74402597D01*
X127522000Y-74402597D01*
X127522000Y-74662402D01*
X127562640Y-74918993D01*
X127642922Y-75166076D01*
X127724034Y-75325264D01*
X127760866Y-75397551D01*
X127913569Y-75607729D01*
X128097271Y-75791431D01*
X128307449Y-75944134D01*
X128452126Y-76017851D01*
X128538923Y-76062077D01*
X128538925Y-76062077D01*
X128538928Y-76062079D01*
X128786007Y-76142360D01*
X128918206Y-76163297D01*
X129042598Y-76183000D01*
X129042603Y-76183000D01*
X129302402Y-76183000D01*
X129415798Y-76165039D01*
X129558993Y-76142360D01*
X129806072Y-76062079D01*
X130037551Y-75944134D01*
X130247729Y-75791431D01*
X130431431Y-75607729D01*
X130584134Y-75397551D01*
X130702079Y-75166072D01*
X130782360Y-74918993D01*
X130805039Y-74775798D01*
X130823000Y-74662402D01*
X130823000Y-74402597D01*
X130801447Y-74266521D01*
X130782360Y-74146007D01*
X130702079Y-73898928D01*
X130702077Y-73898925D01*
X130702077Y-73898923D01*
X130659287Y-73814945D01*
X130584134Y-73667449D01*
X130431431Y-73457271D01*
X130247729Y-73273569D01*
X130037551Y-73120866D01*
X129965264Y-73084034D01*
X129806076Y-73002922D01*
X129558993Y-72922640D01*
X129302402Y-72882000D01*
X129302397Y-72882000D01*
X129042603Y-72882000D01*
X129042598Y-72882000D01*
X128786006Y-72922640D01*
X128538923Y-73002922D01*
X128307445Y-73120868D01*
X128097274Y-73273566D01*
X128097268Y-73273571D01*
X127913571Y-73457268D01*
X127913566Y-73457274D01*
X127760868Y-73667445D01*
X127642922Y-73898923D01*
X127562640Y-74146006D01*
X127522000Y-74402597D01*
X124500500Y-74402597D01*
X124500500Y-68624500D01*
X124520185Y-68557461D01*
X124572989Y-68511706D01*
X124624500Y-68500500D01*
X146375500Y-68500500D01*
X146442539Y-68520185D01*
G37*
%TD.AperFunction*%
%TD*%
M02*
