%TF.GenerationSoftware,KiCad,Pcbnew,9.0.4*%
%TF.CreationDate,2025-09-27T12:37:43+02:00*%
%TF.ProjectId,AM03127-Controller,414d3033-3132-4372-9d43-6f6e74726f6c,rev?*%
%TF.SameCoordinates,Original*%
%TF.FileFunction,Legend,Top*%
%TF.FilePolarity,Positive*%
%FSLAX46Y46*%
G04 Gerber Fmt 4.6, Leading zero omitted, Abs format (unit mm)*
G04 Created by KiCad (PCBNEW 9.0.4) date 2025-09-27 12:37:43*
%MOMM*%
%LPD*%
G01*
G04 APERTURE LIST*
G04 Aperture macros list*
%AMRoundRect*
0 Rectangle with rounded corners*
0 $1 Rounding radius*
0 $2 $3 $4 $5 $6 $7 $8 $9 X,Y pos of 4 corners*
0 Add a 4 corners polygon primitive as box body*
4,1,4,$2,$3,$4,$5,$6,$7,$8,$9,$2,$3,0*
0 Add four circle primitives for the rounded corners*
1,1,$1+$1,$2,$3*
1,1,$1+$1,$4,$5*
1,1,$1+$1,$6,$7*
1,1,$1+$1,$8,$9*
0 Add four rect primitives between the rounded corners*
20,1,$1+$1,$2,$3,$4,$5,0*
20,1,$1+$1,$4,$5,$6,$7,0*
20,1,$1+$1,$6,$7,$8,$9,0*
20,1,$1+$1,$8,$9,$2,$3,0*%
G04 Aperture macros list end*
%ADD10C,0.150000*%
%ADD11C,0.101600*%
%ADD12C,0.250000*%
%ADD13C,0.120000*%
%ADD14C,0.127000*%
%ADD15C,0.100000*%
%ADD16C,0.504000*%
%ADD17C,2.300000*%
%ADD18R,1.500000X1.500000*%
%ADD19C,1.500000*%
%ADD20RoundRect,0.266521X0.671479X-0.346479X0.671479X0.346479X-0.671479X0.346479X-0.671479X-0.346479X0*%
%ADD21C,1.900000*%
%ADD22C,1.700000*%
%ADD23R,2.100000X2.000000*%
%ADD24R,2.500000X1.900000*%
%ADD25R,2.000000X2.000000*%
%ADD26RoundRect,0.150000X-0.825000X-0.150000X0.825000X-0.150000X0.825000X0.150000X-0.825000X0.150000X0*%
%ADD27RoundRect,0.131500X0.206500X0.131500X-0.206500X0.131500X-0.206500X-0.131500X0.206500X-0.131500X0*%
%ADD28RoundRect,0.159000X-0.189000X0.159000X-0.189000X-0.159000X0.189000X-0.159000X0.189000X0.159000X0*%
%ADD29RoundRect,0.159000X0.189000X-0.159000X0.189000X0.159000X-0.189000X0.159000X-0.189000X-0.159000X0*%
%ADD30RoundRect,0.266521X-0.346479X-0.671479X0.346479X-0.671479X0.346479X0.671479X-0.346479X0.671479X0*%
%ADD31RoundRect,0.250000X0.850000X-0.375000X0.850000X0.375000X-0.850000X0.375000X-0.850000X-0.375000X0*%
%ADD32RoundRect,0.152400X0.609600X-1.063600X0.609600X1.063600X-0.609600X1.063600X-0.609600X-1.063600X0*%
%ADD33C,1.524000*%
%ADD34RoundRect,0.152400X-0.609600X1.063600X-0.609600X-1.063600X0.609600X-1.063600X0.609600X1.063600X0*%
%ADD35RoundRect,0.150000X-0.512500X-0.150000X0.512500X-0.150000X0.512500X0.150000X-0.512500X0.150000X0*%
G04 APERTURE END LIST*
D10*
X144869819Y-73091792D02*
X144393628Y-73425125D01*
X144869819Y-73663220D02*
X143869819Y-73663220D01*
X143869819Y-73663220D02*
X143869819Y-73282268D01*
X143869819Y-73282268D02*
X143917438Y-73187030D01*
X143917438Y-73187030D02*
X143965057Y-73139411D01*
X143965057Y-73139411D02*
X144060295Y-73091792D01*
X144060295Y-73091792D02*
X144203152Y-73091792D01*
X144203152Y-73091792D02*
X144298390Y-73139411D01*
X144298390Y-73139411D02*
X144346009Y-73187030D01*
X144346009Y-73187030D02*
X144393628Y-73282268D01*
X144393628Y-73282268D02*
X144393628Y-73663220D01*
X144822200Y-72710839D02*
X144869819Y-72567982D01*
X144869819Y-72567982D02*
X144869819Y-72329887D01*
X144869819Y-72329887D02*
X144822200Y-72234649D01*
X144822200Y-72234649D02*
X144774580Y-72187030D01*
X144774580Y-72187030D02*
X144679342Y-72139411D01*
X144679342Y-72139411D02*
X144584104Y-72139411D01*
X144584104Y-72139411D02*
X144488866Y-72187030D01*
X144488866Y-72187030D02*
X144441247Y-72234649D01*
X144441247Y-72234649D02*
X144393628Y-72329887D01*
X144393628Y-72329887D02*
X144346009Y-72520363D01*
X144346009Y-72520363D02*
X144298390Y-72615601D01*
X144298390Y-72615601D02*
X144250771Y-72663220D01*
X144250771Y-72663220D02*
X144155533Y-72710839D01*
X144155533Y-72710839D02*
X144060295Y-72710839D01*
X144060295Y-72710839D02*
X143965057Y-72663220D01*
X143965057Y-72663220D02*
X143917438Y-72615601D01*
X143917438Y-72615601D02*
X143869819Y-72520363D01*
X143869819Y-72520363D02*
X143869819Y-72282268D01*
X143869819Y-72282268D02*
X143917438Y-72139411D01*
X143965057Y-71758458D02*
X143917438Y-71710839D01*
X143917438Y-71710839D02*
X143869819Y-71615601D01*
X143869819Y-71615601D02*
X143869819Y-71377506D01*
X143869819Y-71377506D02*
X143917438Y-71282268D01*
X143917438Y-71282268D02*
X143965057Y-71234649D01*
X143965057Y-71234649D02*
X144060295Y-71187030D01*
X144060295Y-71187030D02*
X144155533Y-71187030D01*
X144155533Y-71187030D02*
X144298390Y-71234649D01*
X144298390Y-71234649D02*
X144869819Y-71806077D01*
X144869819Y-71806077D02*
X144869819Y-71187030D01*
X143869819Y-70853696D02*
X143869819Y-70234649D01*
X143869819Y-70234649D02*
X144250771Y-70567982D01*
X144250771Y-70567982D02*
X144250771Y-70425125D01*
X144250771Y-70425125D02*
X144298390Y-70329887D01*
X144298390Y-70329887D02*
X144346009Y-70282268D01*
X144346009Y-70282268D02*
X144441247Y-70234649D01*
X144441247Y-70234649D02*
X144679342Y-70234649D01*
X144679342Y-70234649D02*
X144774580Y-70282268D01*
X144774580Y-70282268D02*
X144822200Y-70329887D01*
X144822200Y-70329887D02*
X144869819Y-70425125D01*
X144869819Y-70425125D02*
X144869819Y-70710839D01*
X144869819Y-70710839D02*
X144822200Y-70806077D01*
X144822200Y-70806077D02*
X144774580Y-70853696D01*
X143965057Y-69853696D02*
X143917438Y-69806077D01*
X143917438Y-69806077D02*
X143869819Y-69710839D01*
X143869819Y-69710839D02*
X143869819Y-69472744D01*
X143869819Y-69472744D02*
X143917438Y-69377506D01*
X143917438Y-69377506D02*
X143965057Y-69329887D01*
X143965057Y-69329887D02*
X144060295Y-69282268D01*
X144060295Y-69282268D02*
X144155533Y-69282268D01*
X144155533Y-69282268D02*
X144298390Y-69329887D01*
X144298390Y-69329887D02*
X144869819Y-69901315D01*
X144869819Y-69901315D02*
X144869819Y-69282268D01*
X141860588Y-142869819D02*
X141289160Y-142869819D01*
X141574874Y-142869819D02*
X141574874Y-141869819D01*
X141574874Y-141869819D02*
X141479636Y-142012676D01*
X141479636Y-142012676D02*
X141384398Y-142107914D01*
X141384398Y-142107914D02*
X141289160Y-142155533D01*
X142241541Y-141965057D02*
X142289160Y-141917438D01*
X142289160Y-141917438D02*
X142384398Y-141869819D01*
X142384398Y-141869819D02*
X142622493Y-141869819D01*
X142622493Y-141869819D02*
X142717731Y-141917438D01*
X142717731Y-141917438D02*
X142765350Y-141965057D01*
X142765350Y-141965057D02*
X142812969Y-142060295D01*
X142812969Y-142060295D02*
X142812969Y-142155533D01*
X142812969Y-142155533D02*
X142765350Y-142298390D01*
X142765350Y-142298390D02*
X142193922Y-142869819D01*
X142193922Y-142869819D02*
X142812969Y-142869819D01*
X143098684Y-141869819D02*
X143432017Y-142869819D01*
X143432017Y-142869819D02*
X143765350Y-141869819D01*
X125976190Y-81454819D02*
X125642857Y-80978628D01*
X125404762Y-81454819D02*
X125404762Y-80454819D01*
X125404762Y-80454819D02*
X125785714Y-80454819D01*
X125785714Y-80454819D02*
X125880952Y-80502438D01*
X125880952Y-80502438D02*
X125928571Y-80550057D01*
X125928571Y-80550057D02*
X125976190Y-80645295D01*
X125976190Y-80645295D02*
X125976190Y-80788152D01*
X125976190Y-80788152D02*
X125928571Y-80883390D01*
X125928571Y-80883390D02*
X125880952Y-80931009D01*
X125880952Y-80931009D02*
X125785714Y-80978628D01*
X125785714Y-80978628D02*
X125404762Y-80978628D01*
X126690476Y-80454819D02*
X126690476Y-81169104D01*
X126690476Y-81169104D02*
X126642857Y-81311961D01*
X126642857Y-81311961D02*
X126547619Y-81407200D01*
X126547619Y-81407200D02*
X126404762Y-81454819D01*
X126404762Y-81454819D02*
X126309524Y-81454819D01*
X127690476Y-81454819D02*
X127119048Y-81454819D01*
X127404762Y-81454819D02*
X127404762Y-80454819D01*
X127404762Y-80454819D02*
X127309524Y-80597676D01*
X127309524Y-80597676D02*
X127214286Y-80692914D01*
X127214286Y-80692914D02*
X127119048Y-80740533D01*
X128642857Y-81454819D02*
X128071429Y-81454819D01*
X128357143Y-81454819D02*
X128357143Y-80454819D01*
X128357143Y-80454819D02*
X128261905Y-80597676D01*
X128261905Y-80597676D02*
X128166667Y-80692914D01*
X128166667Y-80692914D02*
X128071429Y-80740533D01*
X134833333Y-118359580D02*
X134785714Y-118407200D01*
X134785714Y-118407200D02*
X134642857Y-118454819D01*
X134642857Y-118454819D02*
X134547619Y-118454819D01*
X134547619Y-118454819D02*
X134404762Y-118407200D01*
X134404762Y-118407200D02*
X134309524Y-118311961D01*
X134309524Y-118311961D02*
X134261905Y-118216723D01*
X134261905Y-118216723D02*
X134214286Y-118026247D01*
X134214286Y-118026247D02*
X134214286Y-117883390D01*
X134214286Y-117883390D02*
X134261905Y-117692914D01*
X134261905Y-117692914D02*
X134309524Y-117597676D01*
X134309524Y-117597676D02*
X134404762Y-117502438D01*
X134404762Y-117502438D02*
X134547619Y-117454819D01*
X134547619Y-117454819D02*
X134642857Y-117454819D01*
X134642857Y-117454819D02*
X134785714Y-117502438D01*
X134785714Y-117502438D02*
X134833333Y-117550057D01*
X135166667Y-117454819D02*
X135785714Y-117454819D01*
X135785714Y-117454819D02*
X135452381Y-117835771D01*
X135452381Y-117835771D02*
X135595238Y-117835771D01*
X135595238Y-117835771D02*
X135690476Y-117883390D01*
X135690476Y-117883390D02*
X135738095Y-117931009D01*
X135738095Y-117931009D02*
X135785714Y-118026247D01*
X135785714Y-118026247D02*
X135785714Y-118264342D01*
X135785714Y-118264342D02*
X135738095Y-118359580D01*
X135738095Y-118359580D02*
X135690476Y-118407200D01*
X135690476Y-118407200D02*
X135595238Y-118454819D01*
X135595238Y-118454819D02*
X135309524Y-118454819D01*
X135309524Y-118454819D02*
X135214286Y-118407200D01*
X135214286Y-118407200D02*
X135166667Y-118359580D01*
X128238095Y-82454819D02*
X128238095Y-83264342D01*
X128238095Y-83264342D02*
X128285714Y-83359580D01*
X128285714Y-83359580D02*
X128333333Y-83407200D01*
X128333333Y-83407200D02*
X128428571Y-83454819D01*
X128428571Y-83454819D02*
X128619047Y-83454819D01*
X128619047Y-83454819D02*
X128714285Y-83407200D01*
X128714285Y-83407200D02*
X128761904Y-83359580D01*
X128761904Y-83359580D02*
X128809523Y-83264342D01*
X128809523Y-83264342D02*
X128809523Y-82454819D01*
X129190476Y-82454819D02*
X129809523Y-82454819D01*
X129809523Y-82454819D02*
X129476190Y-82835771D01*
X129476190Y-82835771D02*
X129619047Y-82835771D01*
X129619047Y-82835771D02*
X129714285Y-82883390D01*
X129714285Y-82883390D02*
X129761904Y-82931009D01*
X129761904Y-82931009D02*
X129809523Y-83026247D01*
X129809523Y-83026247D02*
X129809523Y-83264342D01*
X129809523Y-83264342D02*
X129761904Y-83359580D01*
X129761904Y-83359580D02*
X129714285Y-83407200D01*
X129714285Y-83407200D02*
X129619047Y-83454819D01*
X129619047Y-83454819D02*
X129333333Y-83454819D01*
X129333333Y-83454819D02*
X129238095Y-83407200D01*
X129238095Y-83407200D02*
X129190476Y-83359580D01*
X140411905Y-116454819D02*
X140411905Y-115454819D01*
X140411905Y-115454819D02*
X140650000Y-115454819D01*
X140650000Y-115454819D02*
X140792857Y-115502438D01*
X140792857Y-115502438D02*
X140888095Y-115597676D01*
X140888095Y-115597676D02*
X140935714Y-115692914D01*
X140935714Y-115692914D02*
X140983333Y-115883390D01*
X140983333Y-115883390D02*
X140983333Y-116026247D01*
X140983333Y-116026247D02*
X140935714Y-116216723D01*
X140935714Y-116216723D02*
X140888095Y-116311961D01*
X140888095Y-116311961D02*
X140792857Y-116407200D01*
X140792857Y-116407200D02*
X140650000Y-116454819D01*
X140650000Y-116454819D02*
X140411905Y-116454819D01*
X141935714Y-116454819D02*
X141364286Y-116454819D01*
X141650000Y-116454819D02*
X141650000Y-115454819D01*
X141650000Y-115454819D02*
X141554762Y-115597676D01*
X141554762Y-115597676D02*
X141459524Y-115692914D01*
X141459524Y-115692914D02*
X141364286Y-115740533D01*
X129683333Y-118359580D02*
X129635714Y-118407200D01*
X129635714Y-118407200D02*
X129492857Y-118454819D01*
X129492857Y-118454819D02*
X129397619Y-118454819D01*
X129397619Y-118454819D02*
X129254762Y-118407200D01*
X129254762Y-118407200D02*
X129159524Y-118311961D01*
X129159524Y-118311961D02*
X129111905Y-118216723D01*
X129111905Y-118216723D02*
X129064286Y-118026247D01*
X129064286Y-118026247D02*
X129064286Y-117883390D01*
X129064286Y-117883390D02*
X129111905Y-117692914D01*
X129111905Y-117692914D02*
X129159524Y-117597676D01*
X129159524Y-117597676D02*
X129254762Y-117502438D01*
X129254762Y-117502438D02*
X129397619Y-117454819D01*
X129397619Y-117454819D02*
X129492857Y-117454819D01*
X129492857Y-117454819D02*
X129635714Y-117502438D01*
X129635714Y-117502438D02*
X129683333Y-117550057D01*
X130064286Y-117550057D02*
X130111905Y-117502438D01*
X130111905Y-117502438D02*
X130207143Y-117454819D01*
X130207143Y-117454819D02*
X130445238Y-117454819D01*
X130445238Y-117454819D02*
X130540476Y-117502438D01*
X130540476Y-117502438D02*
X130588095Y-117550057D01*
X130588095Y-117550057D02*
X130635714Y-117645295D01*
X130635714Y-117645295D02*
X130635714Y-117740533D01*
X130635714Y-117740533D02*
X130588095Y-117883390D01*
X130588095Y-117883390D02*
X130016667Y-118454819D01*
X130016667Y-118454819D02*
X130635714Y-118454819D01*
X138333333Y-120859580D02*
X138285714Y-120907200D01*
X138285714Y-120907200D02*
X138142857Y-120954819D01*
X138142857Y-120954819D02*
X138047619Y-120954819D01*
X138047619Y-120954819D02*
X137904762Y-120907200D01*
X137904762Y-120907200D02*
X137809524Y-120811961D01*
X137809524Y-120811961D02*
X137761905Y-120716723D01*
X137761905Y-120716723D02*
X137714286Y-120526247D01*
X137714286Y-120526247D02*
X137714286Y-120383390D01*
X137714286Y-120383390D02*
X137761905Y-120192914D01*
X137761905Y-120192914D02*
X137809524Y-120097676D01*
X137809524Y-120097676D02*
X137904762Y-120002438D01*
X137904762Y-120002438D02*
X138047619Y-119954819D01*
X138047619Y-119954819D02*
X138142857Y-119954819D01*
X138142857Y-119954819D02*
X138285714Y-120002438D01*
X138285714Y-120002438D02*
X138333333Y-120050057D01*
X139190476Y-120288152D02*
X139190476Y-120954819D01*
X138952381Y-119907200D02*
X138714286Y-120621485D01*
X138714286Y-120621485D02*
X139333333Y-120621485D01*
X126818942Y-92724580D02*
X126771323Y-92772200D01*
X126771323Y-92772200D02*
X126628466Y-92819819D01*
X126628466Y-92819819D02*
X126533228Y-92819819D01*
X126533228Y-92819819D02*
X126390371Y-92772200D01*
X126390371Y-92772200D02*
X126295133Y-92676961D01*
X126295133Y-92676961D02*
X126247514Y-92581723D01*
X126247514Y-92581723D02*
X126199895Y-92391247D01*
X126199895Y-92391247D02*
X126199895Y-92248390D01*
X126199895Y-92248390D02*
X126247514Y-92057914D01*
X126247514Y-92057914D02*
X126295133Y-91962676D01*
X126295133Y-91962676D02*
X126390371Y-91867438D01*
X126390371Y-91867438D02*
X126533228Y-91819819D01*
X126533228Y-91819819D02*
X126628466Y-91819819D01*
X126628466Y-91819819D02*
X126771323Y-91867438D01*
X126771323Y-91867438D02*
X126818942Y-91915057D01*
X127771323Y-92819819D02*
X127199895Y-92819819D01*
X127485609Y-92819819D02*
X127485609Y-91819819D01*
X127485609Y-91819819D02*
X127390371Y-91962676D01*
X127390371Y-91962676D02*
X127295133Y-92057914D01*
X127295133Y-92057914D02*
X127199895Y-92105533D01*
X128390371Y-91819819D02*
X128485609Y-91819819D01*
X128485609Y-91819819D02*
X128580847Y-91867438D01*
X128580847Y-91867438D02*
X128628466Y-91915057D01*
X128628466Y-91915057D02*
X128676085Y-92010295D01*
X128676085Y-92010295D02*
X128723704Y-92200771D01*
X128723704Y-92200771D02*
X128723704Y-92438866D01*
X128723704Y-92438866D02*
X128676085Y-92629342D01*
X128676085Y-92629342D02*
X128628466Y-92724580D01*
X128628466Y-92724580D02*
X128580847Y-92772200D01*
X128580847Y-92772200D02*
X128485609Y-92819819D01*
X128485609Y-92819819D02*
X128390371Y-92819819D01*
X128390371Y-92819819D02*
X128295133Y-92772200D01*
X128295133Y-92772200D02*
X128247514Y-92724580D01*
X128247514Y-92724580D02*
X128199895Y-92629342D01*
X128199895Y-92629342D02*
X128152276Y-92438866D01*
X128152276Y-92438866D02*
X128152276Y-92200771D01*
X128152276Y-92200771D02*
X128199895Y-92010295D01*
X128199895Y-92010295D02*
X128247514Y-91915057D01*
X128247514Y-91915057D02*
X128295133Y-91867438D01*
X128295133Y-91867438D02*
X128390371Y-91819819D01*
X131833333Y-83109580D02*
X131785714Y-83157200D01*
X131785714Y-83157200D02*
X131642857Y-83204819D01*
X131642857Y-83204819D02*
X131547619Y-83204819D01*
X131547619Y-83204819D02*
X131404762Y-83157200D01*
X131404762Y-83157200D02*
X131309524Y-83061961D01*
X131309524Y-83061961D02*
X131261905Y-82966723D01*
X131261905Y-82966723D02*
X131214286Y-82776247D01*
X131214286Y-82776247D02*
X131214286Y-82633390D01*
X131214286Y-82633390D02*
X131261905Y-82442914D01*
X131261905Y-82442914D02*
X131309524Y-82347676D01*
X131309524Y-82347676D02*
X131404762Y-82252438D01*
X131404762Y-82252438D02*
X131547619Y-82204819D01*
X131547619Y-82204819D02*
X131642857Y-82204819D01*
X131642857Y-82204819D02*
X131785714Y-82252438D01*
X131785714Y-82252438D02*
X131833333Y-82300057D01*
X132309524Y-83204819D02*
X132500000Y-83204819D01*
X132500000Y-83204819D02*
X132595238Y-83157200D01*
X132595238Y-83157200D02*
X132642857Y-83109580D01*
X132642857Y-83109580D02*
X132738095Y-82966723D01*
X132738095Y-82966723D02*
X132785714Y-82776247D01*
X132785714Y-82776247D02*
X132785714Y-82395295D01*
X132785714Y-82395295D02*
X132738095Y-82300057D01*
X132738095Y-82300057D02*
X132690476Y-82252438D01*
X132690476Y-82252438D02*
X132595238Y-82204819D01*
X132595238Y-82204819D02*
X132404762Y-82204819D01*
X132404762Y-82204819D02*
X132309524Y-82252438D01*
X132309524Y-82252438D02*
X132261905Y-82300057D01*
X132261905Y-82300057D02*
X132214286Y-82395295D01*
X132214286Y-82395295D02*
X132214286Y-82633390D01*
X132214286Y-82633390D02*
X132261905Y-82728628D01*
X132261905Y-82728628D02*
X132309524Y-82776247D01*
X132309524Y-82776247D02*
X132404762Y-82823866D01*
X132404762Y-82823866D02*
X132595238Y-82823866D01*
X132595238Y-82823866D02*
X132690476Y-82776247D01*
X132690476Y-82776247D02*
X132738095Y-82728628D01*
X132738095Y-82728628D02*
X132785714Y-82633390D01*
X143833333Y-122454819D02*
X143357143Y-122454819D01*
X143357143Y-122454819D02*
X143357143Y-121454819D01*
X144690476Y-122454819D02*
X144119048Y-122454819D01*
X144404762Y-122454819D02*
X144404762Y-121454819D01*
X144404762Y-121454819D02*
X144309524Y-121597676D01*
X144309524Y-121597676D02*
X144214286Y-121692914D01*
X144214286Y-121692914D02*
X144119048Y-121740533D01*
X142833333Y-81359580D02*
X142785714Y-81407200D01*
X142785714Y-81407200D02*
X142642857Y-81454819D01*
X142642857Y-81454819D02*
X142547619Y-81454819D01*
X142547619Y-81454819D02*
X142404762Y-81407200D01*
X142404762Y-81407200D02*
X142309524Y-81311961D01*
X142309524Y-81311961D02*
X142261905Y-81216723D01*
X142261905Y-81216723D02*
X142214286Y-81026247D01*
X142214286Y-81026247D02*
X142214286Y-80883390D01*
X142214286Y-80883390D02*
X142261905Y-80692914D01*
X142261905Y-80692914D02*
X142309524Y-80597676D01*
X142309524Y-80597676D02*
X142404762Y-80502438D01*
X142404762Y-80502438D02*
X142547619Y-80454819D01*
X142547619Y-80454819D02*
X142642857Y-80454819D01*
X142642857Y-80454819D02*
X142785714Y-80502438D01*
X142785714Y-80502438D02*
X142833333Y-80550057D01*
X143690476Y-80454819D02*
X143500000Y-80454819D01*
X143500000Y-80454819D02*
X143404762Y-80502438D01*
X143404762Y-80502438D02*
X143357143Y-80550057D01*
X143357143Y-80550057D02*
X143261905Y-80692914D01*
X143261905Y-80692914D02*
X143214286Y-80883390D01*
X143214286Y-80883390D02*
X143214286Y-81264342D01*
X143214286Y-81264342D02*
X143261905Y-81359580D01*
X143261905Y-81359580D02*
X143309524Y-81407200D01*
X143309524Y-81407200D02*
X143404762Y-81454819D01*
X143404762Y-81454819D02*
X143595238Y-81454819D01*
X143595238Y-81454819D02*
X143690476Y-81407200D01*
X143690476Y-81407200D02*
X143738095Y-81359580D01*
X143738095Y-81359580D02*
X143785714Y-81264342D01*
X143785714Y-81264342D02*
X143785714Y-81026247D01*
X143785714Y-81026247D02*
X143738095Y-80931009D01*
X143738095Y-80931009D02*
X143690476Y-80883390D01*
X143690476Y-80883390D02*
X143595238Y-80835771D01*
X143595238Y-80835771D02*
X143404762Y-80835771D01*
X143404762Y-80835771D02*
X143309524Y-80883390D01*
X143309524Y-80883390D02*
X143261905Y-80931009D01*
X143261905Y-80931009D02*
X143214286Y-81026247D01*
X135333333Y-83109580D02*
X135285714Y-83157200D01*
X135285714Y-83157200D02*
X135142857Y-83204819D01*
X135142857Y-83204819D02*
X135047619Y-83204819D01*
X135047619Y-83204819D02*
X134904762Y-83157200D01*
X134904762Y-83157200D02*
X134809524Y-83061961D01*
X134809524Y-83061961D02*
X134761905Y-82966723D01*
X134761905Y-82966723D02*
X134714286Y-82776247D01*
X134714286Y-82776247D02*
X134714286Y-82633390D01*
X134714286Y-82633390D02*
X134761905Y-82442914D01*
X134761905Y-82442914D02*
X134809524Y-82347676D01*
X134809524Y-82347676D02*
X134904762Y-82252438D01*
X134904762Y-82252438D02*
X135047619Y-82204819D01*
X135047619Y-82204819D02*
X135142857Y-82204819D01*
X135142857Y-82204819D02*
X135285714Y-82252438D01*
X135285714Y-82252438D02*
X135333333Y-82300057D01*
X136238095Y-82204819D02*
X135761905Y-82204819D01*
X135761905Y-82204819D02*
X135714286Y-82681009D01*
X135714286Y-82681009D02*
X135761905Y-82633390D01*
X135761905Y-82633390D02*
X135857143Y-82585771D01*
X135857143Y-82585771D02*
X136095238Y-82585771D01*
X136095238Y-82585771D02*
X136190476Y-82633390D01*
X136190476Y-82633390D02*
X136238095Y-82681009D01*
X136238095Y-82681009D02*
X136285714Y-82776247D01*
X136285714Y-82776247D02*
X136285714Y-83014342D01*
X136285714Y-83014342D02*
X136238095Y-83109580D01*
X136238095Y-83109580D02*
X136190476Y-83157200D01*
X136190476Y-83157200D02*
X136095238Y-83204819D01*
X136095238Y-83204819D02*
X135857143Y-83204819D01*
X135857143Y-83204819D02*
X135761905Y-83157200D01*
X135761905Y-83157200D02*
X135714286Y-83109580D01*
X127295133Y-85724580D02*
X127247514Y-85772200D01*
X127247514Y-85772200D02*
X127104657Y-85819819D01*
X127104657Y-85819819D02*
X127009419Y-85819819D01*
X127009419Y-85819819D02*
X126866562Y-85772200D01*
X126866562Y-85772200D02*
X126771324Y-85676961D01*
X126771324Y-85676961D02*
X126723705Y-85581723D01*
X126723705Y-85581723D02*
X126676086Y-85391247D01*
X126676086Y-85391247D02*
X126676086Y-85248390D01*
X126676086Y-85248390D02*
X126723705Y-85057914D01*
X126723705Y-85057914D02*
X126771324Y-84962676D01*
X126771324Y-84962676D02*
X126866562Y-84867438D01*
X126866562Y-84867438D02*
X127009419Y-84819819D01*
X127009419Y-84819819D02*
X127104657Y-84819819D01*
X127104657Y-84819819D02*
X127247514Y-84867438D01*
X127247514Y-84867438D02*
X127295133Y-84915057D01*
X127628467Y-84819819D02*
X128295133Y-84819819D01*
X128295133Y-84819819D02*
X127866562Y-85819819D01*
X127295133Y-89224580D02*
X127247514Y-89272200D01*
X127247514Y-89272200D02*
X127104657Y-89319819D01*
X127104657Y-89319819D02*
X127009419Y-89319819D01*
X127009419Y-89319819D02*
X126866562Y-89272200D01*
X126866562Y-89272200D02*
X126771324Y-89176961D01*
X126771324Y-89176961D02*
X126723705Y-89081723D01*
X126723705Y-89081723D02*
X126676086Y-88891247D01*
X126676086Y-88891247D02*
X126676086Y-88748390D01*
X126676086Y-88748390D02*
X126723705Y-88557914D01*
X126723705Y-88557914D02*
X126771324Y-88462676D01*
X126771324Y-88462676D02*
X126866562Y-88367438D01*
X126866562Y-88367438D02*
X127009419Y-88319819D01*
X127009419Y-88319819D02*
X127104657Y-88319819D01*
X127104657Y-88319819D02*
X127247514Y-88367438D01*
X127247514Y-88367438D02*
X127295133Y-88415057D01*
X127866562Y-88748390D02*
X127771324Y-88700771D01*
X127771324Y-88700771D02*
X127723705Y-88653152D01*
X127723705Y-88653152D02*
X127676086Y-88557914D01*
X127676086Y-88557914D02*
X127676086Y-88510295D01*
X127676086Y-88510295D02*
X127723705Y-88415057D01*
X127723705Y-88415057D02*
X127771324Y-88367438D01*
X127771324Y-88367438D02*
X127866562Y-88319819D01*
X127866562Y-88319819D02*
X128057038Y-88319819D01*
X128057038Y-88319819D02*
X128152276Y-88367438D01*
X128152276Y-88367438D02*
X128199895Y-88415057D01*
X128199895Y-88415057D02*
X128247514Y-88510295D01*
X128247514Y-88510295D02*
X128247514Y-88557914D01*
X128247514Y-88557914D02*
X128199895Y-88653152D01*
X128199895Y-88653152D02*
X128152276Y-88700771D01*
X128152276Y-88700771D02*
X128057038Y-88748390D01*
X128057038Y-88748390D02*
X127866562Y-88748390D01*
X127866562Y-88748390D02*
X127771324Y-88796009D01*
X127771324Y-88796009D02*
X127723705Y-88843628D01*
X127723705Y-88843628D02*
X127676086Y-88938866D01*
X127676086Y-88938866D02*
X127676086Y-89129342D01*
X127676086Y-89129342D02*
X127723705Y-89224580D01*
X127723705Y-89224580D02*
X127771324Y-89272200D01*
X127771324Y-89272200D02*
X127866562Y-89319819D01*
X127866562Y-89319819D02*
X128057038Y-89319819D01*
X128057038Y-89319819D02*
X128152276Y-89272200D01*
X128152276Y-89272200D02*
X128199895Y-89224580D01*
X128199895Y-89224580D02*
X128247514Y-89129342D01*
X128247514Y-89129342D02*
X128247514Y-88938866D01*
X128247514Y-88938866D02*
X128199895Y-88843628D01*
X128199895Y-88843628D02*
X128152276Y-88796009D01*
X128152276Y-88796009D02*
X128057038Y-88748390D01*
D11*
X144516190Y-94653479D02*
X144516190Y-95167526D01*
X144516190Y-95167526D02*
X144546428Y-95228002D01*
X144546428Y-95228002D02*
X144576666Y-95258241D01*
X144576666Y-95258241D02*
X144637142Y-95288479D01*
X144637142Y-95288479D02*
X144758095Y-95288479D01*
X144758095Y-95288479D02*
X144818571Y-95258241D01*
X144818571Y-95258241D02*
X144848809Y-95228002D01*
X144848809Y-95228002D02*
X144879047Y-95167526D01*
X144879047Y-95167526D02*
X144879047Y-94653479D01*
X145151190Y-94713955D02*
X145181428Y-94683717D01*
X145181428Y-94683717D02*
X145241904Y-94653479D01*
X145241904Y-94653479D02*
X145393095Y-94653479D01*
X145393095Y-94653479D02*
X145453571Y-94683717D01*
X145453571Y-94683717D02*
X145483809Y-94713955D01*
X145483809Y-94713955D02*
X145514047Y-94774431D01*
X145514047Y-94774431D02*
X145514047Y-94834907D01*
X145514047Y-94834907D02*
X145483809Y-94925621D01*
X145483809Y-94925621D02*
X145120952Y-95288479D01*
X145120952Y-95288479D02*
X145514047Y-95288479D01*
D10*
X131238095Y-122454819D02*
X131238095Y-123264342D01*
X131238095Y-123264342D02*
X131285714Y-123359580D01*
X131285714Y-123359580D02*
X131333333Y-123407200D01*
X131333333Y-123407200D02*
X131428571Y-123454819D01*
X131428571Y-123454819D02*
X131619047Y-123454819D01*
X131619047Y-123454819D02*
X131714285Y-123407200D01*
X131714285Y-123407200D02*
X131761904Y-123359580D01*
X131761904Y-123359580D02*
X131809523Y-123264342D01*
X131809523Y-123264342D02*
X131809523Y-122454819D01*
X132809523Y-123454819D02*
X132238095Y-123454819D01*
X132523809Y-123454819D02*
X132523809Y-122454819D01*
X132523809Y-122454819D02*
X132428571Y-122597676D01*
X132428571Y-122597676D02*
X132333333Y-122692914D01*
X132333333Y-122692914D02*
X132238095Y-122740533D01*
D12*
%TO.C,RJ11*%
X128072500Y-70832500D02*
X128072500Y-72032500D01*
X129072500Y-70832500D02*
X128072500Y-70832500D01*
X129072500Y-72032500D02*
X128072500Y-72032500D01*
X129072500Y-73132500D02*
X129072500Y-68532500D01*
X129072500Y-81532500D02*
X129072500Y-75932500D01*
X141272500Y-68532500D02*
X129072500Y-68532500D01*
X141272500Y-68532500D02*
X141272500Y-73132500D01*
X141272500Y-70832500D02*
X142272500Y-70832500D01*
X141272500Y-72032500D02*
X142272500Y-72032500D01*
X141272500Y-75932500D02*
X141272500Y-81532500D01*
X141272500Y-81532500D02*
X129072500Y-81532500D01*
X142272500Y-72032500D02*
X142272500Y-70832500D01*
%TO.C,DC1*%
X130700000Y-129580000D02*
X130700000Y-131320000D01*
X130700000Y-137320000D02*
X130700000Y-133780000D01*
X130700000Y-141620000D02*
X139800000Y-141620000D01*
X130700000Y-143350000D02*
X130700000Y-139780000D01*
X137210000Y-128450000D02*
X137210000Y-129580000D01*
X137210000Y-129580000D02*
X130700000Y-129580000D01*
X139800000Y-128450000D02*
X137210000Y-128450000D01*
X139800000Y-128450000D02*
X139800000Y-131220000D01*
X139800000Y-130630000D02*
X130700000Y-130630000D01*
X139800000Y-133680000D02*
X139800000Y-137370000D01*
X139800000Y-139730000D02*
X139800000Y-143350000D01*
X139800000Y-143350000D02*
X130700000Y-143350000D01*
D13*
%TO.C,U3*%
X135000000Y-83940000D02*
X133050000Y-83940000D01*
X135000000Y-83940000D02*
X136950000Y-83940000D01*
X135000000Y-94060000D02*
X133050000Y-94060000D01*
X135000000Y-94060000D02*
X136950000Y-94060000D01*
X132300000Y-83995000D02*
X132060000Y-83665000D01*
X132540000Y-83665000D01*
X132300000Y-83995000D01*
G36*
X132300000Y-83995000D02*
G01*
X132060000Y-83665000D01*
X132540000Y-83665000D01*
X132300000Y-83995000D01*
G37*
D10*
%TO.C,D1*%
X142760000Y-117150000D02*
X140100000Y-117150000D01*
X142760000Y-118850000D02*
X140100000Y-118850000D01*
X142760000Y-118850000D02*
X142760000Y-117150000D01*
D13*
%TO.C,L1*%
X140390000Y-122261252D02*
X140390000Y-121738748D01*
X142610000Y-122261252D02*
X142610000Y-121738748D01*
D14*
%TO.C,U2*%
X124206000Y-98470000D02*
X124206000Y-112440000D01*
X126111000Y-96565000D02*
X143256000Y-96565000D01*
X126111000Y-114345000D02*
X143256000Y-114345000D01*
X145161000Y-100960000D02*
X146171272Y-100963728D01*
D15*
X145161000Y-112440000D02*
X145161000Y-98470000D01*
D14*
X145161000Y-112440000D02*
X145161000Y-98470000D01*
X146171000Y-109959000D02*
X145161000Y-109959000D01*
X146671000Y-101463728D02*
X146671000Y-109459000D01*
X124206000Y-98470000D02*
G75*
G02*
X126111000Y-96565000I1905001J-1D01*
G01*
X126111000Y-114345000D02*
G75*
G02*
X124206000Y-112440000I0J1905000D01*
G01*
X143256000Y-96565000D02*
G75*
G02*
X145161000Y-98470000I-1J-1905001D01*
G01*
X145161000Y-112440000D02*
G75*
G02*
X143256000Y-114345000I-1905000J0D01*
G01*
X146171272Y-100963728D02*
G75*
G02*
X146670999Y-101463728I-291J-500018D01*
G01*
X146671000Y-109459000D02*
G75*
G02*
X146171000Y-109959000I-500000J0D01*
G01*
D16*
X144242000Y-97598000D02*
G75*
G02*
X143738000Y-97598000I-252000J0D01*
G01*
X143738000Y-97598000D02*
G75*
G02*
X144242000Y-97598000I252000J0D01*
G01*
X145122000Y-96455000D02*
G75*
G02*
X144618000Y-96455000I-252000J0D01*
G01*
X144618000Y-96455000D02*
G75*
G02*
X145122000Y-96455000I252000J0D01*
G01*
D13*
%TO.C,U1*%
X135500000Y-121390000D02*
X134700000Y-121390000D01*
X135500000Y-121390000D02*
X136300000Y-121390000D01*
X135500000Y-124510000D02*
X134700000Y-124510000D01*
X135500000Y-124510000D02*
X136300000Y-124510000D01*
X134200000Y-121440000D02*
X133960000Y-121110000D01*
X134440000Y-121110000D01*
X134200000Y-121440000D01*
G36*
X134200000Y-121440000D02*
G01*
X133960000Y-121110000D01*
X134440000Y-121110000D01*
X134200000Y-121440000D01*
G37*
%TD*%
%LPC*%
D17*
%TO.C,RJ11*%
X141172500Y-74532500D03*
X129172500Y-74532500D03*
D18*
X133642500Y-76832500D03*
D19*
X134662500Y-79372500D03*
X135682500Y-76832500D03*
X136702500Y-79372500D03*
%TD*%
D20*
%TO.C,C3*%
X137500000Y-119500000D03*
X137500000Y-116540000D03*
%TD*%
D21*
%TO.C,DC1*%
X135300000Y-134250000D03*
D22*
X135300000Y-138550000D03*
D23*
X129800000Y-132550000D03*
X129800000Y-138550000D03*
D24*
X141000000Y-138550000D03*
D25*
X140750000Y-132450000D03*
%TD*%
D26*
%TO.C,U3*%
X132525000Y-84555000D03*
X132525000Y-85825000D03*
X132525000Y-87095000D03*
X132525000Y-88365000D03*
X132525000Y-89635000D03*
X132525000Y-90905000D03*
X132525000Y-92175000D03*
X132525000Y-93445000D03*
X137475000Y-93445000D03*
X137475000Y-92175000D03*
X137475000Y-90905000D03*
X137475000Y-89635000D03*
X137475000Y-88365000D03*
X137475000Y-87095000D03*
X137475000Y-85825000D03*
X137475000Y-84555000D03*
%TD*%
D27*
%TO.C,D1*%
X142200000Y-118000000D03*
X140100000Y-118000000D03*
%TD*%
D20*
%TO.C,C2*%
X132500000Y-119480000D03*
X132500000Y-116520000D03*
%TD*%
D28*
%TO.C,C4*%
X138500000Y-122000000D03*
X138500000Y-123000000D03*
%TD*%
%TO.C,C10*%
X129961800Y-91865000D03*
X129961800Y-92865000D03*
%TD*%
D29*
%TO.C,C9*%
X134000000Y-83250000D03*
X134000000Y-82250000D03*
%TD*%
D30*
%TO.C,C1*%
X134020000Y-126500000D03*
X136980000Y-126500000D03*
%TD*%
D31*
%TO.C,L1*%
X141500000Y-123075000D03*
X141500000Y-120925000D03*
%TD*%
D30*
%TO.C,C6*%
X139520000Y-83500000D03*
X142480000Y-83500000D03*
%TD*%
D29*
%TO.C,C5*%
X137500000Y-83250000D03*
X137500000Y-82250000D03*
%TD*%
D28*
%TO.C,C7*%
X129961800Y-84865000D03*
X129961800Y-85865000D03*
%TD*%
%TO.C,C8*%
X129961800Y-88365000D03*
X129961800Y-89365000D03*
%TD*%
D32*
%TO.C,U2*%
X142240000Y-97000000D03*
D33*
X142240000Y-97835000D03*
D32*
X139700000Y-97000000D03*
D33*
X139700000Y-97835000D03*
D32*
X137160000Y-97000000D03*
D33*
X137160000Y-97835000D03*
D32*
X134620000Y-97000000D03*
D33*
X134620000Y-97835000D03*
D32*
X132080000Y-97000000D03*
D33*
X132080000Y-97835000D03*
D32*
X129540000Y-97000000D03*
D33*
X129540000Y-97835000D03*
D32*
X127000000Y-97000000D03*
D33*
X127000000Y-97835000D03*
X127000000Y-113075000D03*
D34*
X127000000Y-113910000D03*
D33*
X129540000Y-113075000D03*
D34*
X129540000Y-113910000D03*
D33*
X132080000Y-113075000D03*
D34*
X132080000Y-113910000D03*
D33*
X134620000Y-113075000D03*
D34*
X134620000Y-113910000D03*
D33*
X137160000Y-113075000D03*
D34*
X137160000Y-113910000D03*
D33*
X139700000Y-113075000D03*
D34*
X139700000Y-113910000D03*
D33*
X142240000Y-113075000D03*
D34*
X142240000Y-113910000D03*
%TD*%
D35*
%TO.C,U1*%
X134362500Y-122000000D03*
X134362500Y-122950000D03*
X134362500Y-123900000D03*
X136637500Y-123900000D03*
X136637500Y-122950000D03*
X136637500Y-122000000D03*
%TD*%
%LPD*%
M02*
