%TF.GenerationSoftware,KiCad,Pcbnew,9.0.4*%
%TF.CreationDate,2025-09-27T12:37:43+02:00*%
%TF.ProjectId,AM03127-Controller,414d3033-3132-4372-9d43-6f6e74726f6c,rev?*%
%TF.SameCoordinates,Original*%
%TF.FileFunction,Copper,L1,Top*%
%TF.FilePolarity,Positive*%
%FSLAX46Y46*%
G04 Gerber Fmt 4.6, Leading zero omitted, Abs format (unit mm)*
G04 Created by KiCad (PCBNEW 9.0.4) date 2025-09-27 12:37:43*
%MOMM*%
%LPD*%
G01*
G04 APERTURE LIST*
G04 Aperture macros list*
%AMRoundRect*
0 Rectangle with rounded corners*
0 $1 Rounding radius*
0 $2 $3 $4 $5 $6 $7 $8 $9 X,Y pos of 4 corners*
0 Add a 4 corners polygon primitive as box body*
4,1,4,$2,$3,$4,$5,$6,$7,$8,$9,$2,$3,0*
0 Add four circle primitives for the rounded corners*
1,1,$1+$1,$2,$3*
1,1,$1+$1,$4,$5*
1,1,$1+$1,$6,$7*
1,1,$1+$1,$8,$9*
0 Add four rect primitives between the rounded corners*
20,1,$1+$1,$2,$3,$4,$5,0*
20,1,$1+$1,$4,$5,$6,$7,0*
20,1,$1+$1,$6,$7,$8,$9,0*
20,1,$1+$1,$8,$9,$2,$3,0*%
G04 Aperture macros list end*
%TA.AperFunction,ComponentPad*%
%ADD10C,2.300000*%
%TD*%
%TA.AperFunction,ComponentPad*%
%ADD11R,1.500000X1.500000*%
%TD*%
%TA.AperFunction,ComponentPad*%
%ADD12C,1.500000*%
%TD*%
%TA.AperFunction,SMDPad,CuDef*%
%ADD13RoundRect,0.250000X0.650000X-0.325000X0.650000X0.325000X-0.650000X0.325000X-0.650000X-0.325000X0*%
%TD*%
%TA.AperFunction,ComponentPad*%
%ADD14C,1.900000*%
%TD*%
%TA.AperFunction,ComponentPad*%
%ADD15C,1.700000*%
%TD*%
%TA.AperFunction,SMDPad,CuDef*%
%ADD16R,2.100000X2.000000*%
%TD*%
%TA.AperFunction,SMDPad,CuDef*%
%ADD17R,2.500000X1.900000*%
%TD*%
%TA.AperFunction,SMDPad,CuDef*%
%ADD18R,2.000000X2.000000*%
%TD*%
%TA.AperFunction,SMDPad,CuDef*%
%ADD19RoundRect,0.150000X-0.825000X-0.150000X0.825000X-0.150000X0.825000X0.150000X-0.825000X0.150000X0*%
%TD*%
%TA.AperFunction,SMDPad,CuDef*%
%ADD20RoundRect,0.112500X0.187500X0.112500X-0.187500X0.112500X-0.187500X-0.112500X0.187500X-0.112500X0*%
%TD*%
%TA.AperFunction,SMDPad,CuDef*%
%ADD21RoundRect,0.140000X-0.170000X0.140000X-0.170000X-0.140000X0.170000X-0.140000X0.170000X0.140000X0*%
%TD*%
%TA.AperFunction,SMDPad,CuDef*%
%ADD22RoundRect,0.140000X0.170000X-0.140000X0.170000X0.140000X-0.170000X0.140000X-0.170000X-0.140000X0*%
%TD*%
%TA.AperFunction,SMDPad,CuDef*%
%ADD23RoundRect,0.250000X-0.325000X-0.650000X0.325000X-0.650000X0.325000X0.650000X-0.325000X0.650000X0*%
%TD*%
%TA.AperFunction,SMDPad,CuDef*%
%ADD24RoundRect,0.250000X0.850000X-0.375000X0.850000X0.375000X-0.850000X0.375000X-0.850000X-0.375000X0*%
%TD*%
%TA.AperFunction,SMDPad,CuDef*%
%ADD25RoundRect,0.152400X0.609600X-1.063600X0.609600X1.063600X-0.609600X1.063600X-0.609600X-1.063600X0*%
%TD*%
%TA.AperFunction,ComponentPad*%
%ADD26C,1.524000*%
%TD*%
%TA.AperFunction,SMDPad,CuDef*%
%ADD27RoundRect,0.152400X-0.609600X1.063600X-0.609600X-1.063600X0.609600X-1.063600X0.609600X1.063600X0*%
%TD*%
%TA.AperFunction,SMDPad,CuDef*%
%ADD28RoundRect,0.150000X-0.512500X-0.150000X0.512500X-0.150000X0.512500X0.150000X-0.512500X0.150000X0*%
%TD*%
%TA.AperFunction,ViaPad*%
%ADD29C,0.600000*%
%TD*%
%TA.AperFunction,Conductor*%
%ADD30C,0.300000*%
%TD*%
%TA.AperFunction,Conductor*%
%ADD31C,0.500000*%
%TD*%
%TA.AperFunction,Conductor*%
%ADD32C,0.400000*%
%TD*%
G04 APERTURE END LIST*
D10*
%TO.P,RJ11,*%
%TO.N,*%
X141172500Y-74532500D03*
X129172500Y-74532500D03*
D11*
%TO.P,RJ11,1,1*%
%TO.N,GND*%
X133642500Y-76832500D03*
D12*
%TO.P,RJ11,2,2*%
%TO.N,/RS232 TX*%
X134662500Y-79372500D03*
%TO.P,RJ11,3,3*%
%TO.N,/RS232 RX*%
X135682500Y-76832500D03*
%TO.P,RJ11,4,4*%
%TO.N,unconnected-(RJ11-Pad4)*%
X136702500Y-79372500D03*
%TD*%
D13*
%TO.P,C3,1*%
%TO.N,/BuckFeedback*%
X137500000Y-119500000D03*
%TO.P,C3,2*%
%TO.N,GND*%
X137500000Y-116540000D03*
%TD*%
D14*
%TO.P,DC1,*%
%TO.N,*%
X135300000Y-134250000D03*
D15*
X135300000Y-138550000D03*
D16*
%TO.P,DC1,1,1*%
%TO.N,+12V*%
X129800000Y-132550000D03*
X129800000Y-138550000D03*
D17*
%TO.P,DC1,2,2*%
%TO.N,GND*%
X141000000Y-138550000D03*
D18*
%TO.P,DC1,3,3*%
X140750000Y-132450000D03*
%TD*%
D19*
%TO.P,U3,1,C1+*%
%TO.N,Net-(U3-C1+)*%
X132525000Y-84555000D03*
%TO.P,U3,2,VS+*%
%TO.N,Net-(U3-VS+)*%
X132525000Y-85825000D03*
%TO.P,U3,3,C1-*%
%TO.N,Net-(U3-C1-)*%
X132525000Y-87095000D03*
%TO.P,U3,4,C2+*%
%TO.N,Net-(U3-C2+)*%
X132525000Y-88365000D03*
%TO.P,U3,5,C2-*%
%TO.N,Net-(U3-C2-)*%
X132525000Y-89635000D03*
%TO.P,U3,6,VS-*%
%TO.N,Net-(U3-VS-)*%
X132525000Y-90905000D03*
%TO.P,U3,7,T2OUT*%
%TO.N,unconnected-(U3-T2OUT-Pad7)*%
X132525000Y-92175000D03*
%TO.P,U3,8,R2IN*%
%TO.N,unconnected-(U3-R2IN-Pad8)*%
X132525000Y-93445000D03*
%TO.P,U3,9,R2OUT*%
%TO.N,unconnected-(U3-R2OUT-Pad9)*%
X137475000Y-93445000D03*
%TO.P,U3,10,T2IN*%
%TO.N,unconnected-(U3-T2IN-Pad10)*%
X137475000Y-92175000D03*
%TO.P,U3,11,T1IN*%
%TO.N,/UART TX*%
X137475000Y-90905000D03*
%TO.P,U3,12,R1OUT*%
%TO.N,/UART RX*%
X137475000Y-89635000D03*
%TO.P,U3,13,R1IN*%
%TO.N,/RS232 RX*%
X137475000Y-88365000D03*
%TO.P,U3,14,T1OUT*%
%TO.N,/RS232 TX*%
X137475000Y-87095000D03*
%TO.P,U3,15,GND*%
%TO.N,GND*%
X137475000Y-85825000D03*
%TO.P,U3,16,VCC*%
%TO.N,+3.3V*%
X137475000Y-84555000D03*
%TD*%
D20*
%TO.P,D1,1*%
%TO.N,+5V*%
X142200000Y-118000000D03*
%TO.P,D1,2*%
%TO.N,/BuckFeedback*%
X140100000Y-118000000D03*
%TD*%
D13*
%TO.P,C2,1*%
%TO.N,/BuckFeedback*%
X132500000Y-119480000D03*
%TO.P,C2,2*%
%TO.N,GND*%
X132500000Y-116520000D03*
%TD*%
D21*
%TO.P,C4,1*%
%TO.N,Net-(U1-BST)*%
X138500000Y-122000000D03*
%TO.P,C4,2*%
%TO.N,/BuckOut*%
X138500000Y-123000000D03*
%TD*%
%TO.P,C10,1*%
%TO.N,Net-(U3-VS-)*%
X129961800Y-91865000D03*
%TO.P,C10,2*%
%TO.N,GND*%
X129961800Y-92865000D03*
%TD*%
D22*
%TO.P,C9,1*%
%TO.N,Net-(U3-VS+)*%
X134000000Y-83250000D03*
%TO.P,C9,2*%
%TO.N,GND*%
X134000000Y-82250000D03*
%TD*%
D23*
%TO.P,C1,1*%
%TO.N,+12V*%
X134020000Y-126500000D03*
%TO.P,C1,2*%
%TO.N,GND*%
X136980000Y-126500000D03*
%TD*%
D24*
%TO.P,L1,1,1*%
%TO.N,/BuckOut*%
X141500000Y-123075000D03*
%TO.P,L1,2,2*%
%TO.N,/BuckFeedback*%
X141500000Y-120925000D03*
%TD*%
D23*
%TO.P,C6,1*%
%TO.N,+3.3V*%
X139520000Y-83500000D03*
%TO.P,C6,2*%
%TO.N,GND*%
X142480000Y-83500000D03*
%TD*%
D22*
%TO.P,C5,1*%
%TO.N,+3.3V*%
X137500000Y-83250000D03*
%TO.P,C5,2*%
%TO.N,GND*%
X137500000Y-82250000D03*
%TD*%
D21*
%TO.P,C7,1*%
%TO.N,Net-(U3-C1+)*%
X129961800Y-84865000D03*
%TO.P,C7,2*%
%TO.N,Net-(U3-C1-)*%
X129961800Y-85865000D03*
%TD*%
%TO.P,C8,1*%
%TO.N,Net-(U3-C2+)*%
X129961800Y-88365000D03*
%TO.P,C8,2*%
%TO.N,Net-(U3-C2-)*%
X129961800Y-89365000D03*
%TD*%
D25*
%TO.P,U2,1,GPIO2/A0/D0*%
%TO.N,/UART RX*%
X142240000Y-97000000D03*
D26*
X142240000Y-97835000D03*
D25*
%TO.P,U2,2,GPIO3/A1/D1*%
%TO.N,/UART TX*%
X139700000Y-97000000D03*
D26*
X139700000Y-97835000D03*
D25*
%TO.P,U2,3,GPIO4/A2/D2*%
%TO.N,unconnected-(U2-GPIO4{slash}A2{slash}D2-Pad3)*%
X137160000Y-97000000D03*
D26*
%TO.N,unconnected-(U2-GPIO4{slash}A2{slash}D2-Pad3)_1*%
X137160000Y-97835000D03*
D25*
%TO.P,U2,4,GPIO5/A3/D3*%
%TO.N,unconnected-(U2-GPIO5{slash}A3{slash}D3-Pad4)_1*%
X134620000Y-97000000D03*
D26*
%TO.N,unconnected-(U2-GPIO5{slash}A3{slash}D3-Pad4)*%
X134620000Y-97835000D03*
D25*
%TO.P,U2,5,GPIO6/D4/SDA*%
%TO.N,unconnected-(U2-GPIO6{slash}D4{slash}SDA-Pad5)*%
X132080000Y-97000000D03*
D26*
%TO.N,unconnected-(U2-GPIO6{slash}D4{slash}SDA-Pad5)_1*%
X132080000Y-97835000D03*
D25*
%TO.P,U2,6,GPIO7/D5/SCL*%
%TO.N,unconnected-(U2-GPIO7{slash}D5{slash}SCL-Pad6)*%
X129540000Y-97000000D03*
D26*
%TO.N,unconnected-(U2-GPIO7{slash}D5{slash}SCL-Pad6)_1*%
X129540000Y-97835000D03*
D25*
%TO.P,U2,7,GPIO21/D6/TX*%
%TO.N,unconnected-(U2-GPIO21{slash}D6{slash}TX-Pad7)*%
X127000000Y-97000000D03*
D26*
%TO.N,unconnected-(U2-GPIO21{slash}D6{slash}TX-Pad7)_1*%
X127000000Y-97835000D03*
%TO.P,U2,8,GPIO20/D7/RX*%
%TO.N,unconnected-(U2-GPIO20{slash}D7{slash}RX-Pad8)*%
X127000000Y-113075000D03*
D27*
%TO.N,unconnected-(U2-GPIO20{slash}D7{slash}RX-Pad8)_1*%
X127000000Y-113910000D03*
D26*
%TO.P,U2,9,GPIO8/D8/SCK*%
%TO.N,unconnected-(U2-GPIO8{slash}D8{slash}SCK-Pad9)*%
X129540000Y-113075000D03*
D27*
%TO.N,unconnected-(U2-GPIO8{slash}D8{slash}SCK-Pad9)_1*%
X129540000Y-113910000D03*
D26*
%TO.P,U2,10,GPIO9/D9/MISO*%
%TO.N,unconnected-(U2-GPIO9{slash}D9{slash}MISO-Pad10)_1*%
X132080000Y-113075000D03*
D27*
%TO.N,unconnected-(U2-GPIO9{slash}D9{slash}MISO-Pad10)*%
X132080000Y-113910000D03*
D26*
%TO.P,U2,11,GPIO10/D10/MOSI*%
%TO.N,unconnected-(U2-GPIO10{slash}D10{slash}MOSI-Pad11)*%
X134620000Y-113075000D03*
D27*
%TO.N,unconnected-(U2-GPIO10{slash}D10{slash}MOSI-Pad11)_1*%
X134620000Y-113910000D03*
D26*
%TO.P,U2,12,VCC_3V3*%
%TO.N,+3.3V*%
X137160000Y-113075000D03*
D27*
X137160000Y-113910000D03*
D26*
%TO.P,U2,13,GND*%
%TO.N,GND*%
X139700000Y-113075000D03*
D27*
X139700000Y-113910000D03*
D26*
%TO.P,U2,14,VBUS*%
%TO.N,+5V*%
X142240000Y-113075000D03*
D27*
X142240000Y-113910000D03*
%TD*%
D28*
%TO.P,U1,1,FB*%
%TO.N,/BuckFeedback*%
X134362500Y-122000000D03*
%TO.P,U1,2,EN*%
%TO.N,+12V*%
X134362500Y-122950000D03*
%TO.P,U1,3,IN*%
X134362500Y-123900000D03*
%TO.P,U1,4,GND*%
%TO.N,GND*%
X136637500Y-123900000D03*
%TO.P,U1,5,SW*%
%TO.N,/BuckOut*%
X136637500Y-122950000D03*
%TO.P,U1,6,BST*%
%TO.N,Net-(U1-BST)*%
X136637500Y-122000000D03*
%TD*%
D29*
%TO.N,GND*%
X135000000Y-116000000D03*
X141000000Y-136000000D03*
X141000000Y-85750000D03*
X135750000Y-82250000D03*
X137000000Y-125000000D03*
X130000000Y-94000000D03*
%TD*%
D30*
%TO.N,/BuckOut*%
X138500000Y-123000000D02*
X141425000Y-123000000D01*
X141425000Y-123000000D02*
X141500000Y-123075000D01*
X136637500Y-122950000D02*
X138450000Y-122950000D01*
X138450000Y-122950000D02*
X138500000Y-123000000D01*
%TO.N,Net-(U1-BST)*%
X136637500Y-122000000D02*
X138500000Y-122000000D01*
D31*
%TO.N,GND*%
X136980000Y-126500000D02*
X136980000Y-125020000D01*
X141000000Y-138550000D02*
X141000000Y-136000000D01*
X135540000Y-116540000D02*
X135000000Y-116000000D01*
X132500000Y-116520000D02*
X134480000Y-116520000D01*
X141000000Y-136000000D02*
X141000000Y-132700000D01*
X137500000Y-82250000D02*
X135750000Y-82250000D01*
X130000000Y-92903200D02*
X129961800Y-92865000D01*
X134000000Y-82250000D02*
X135750000Y-82250000D01*
X136980000Y-125020000D02*
X137000000Y-125000000D01*
X130000000Y-94000000D02*
X130000000Y-92903200D01*
X137000000Y-125000000D02*
X137000000Y-124262500D01*
X141000000Y-132700000D02*
X140750000Y-132450000D01*
X137000000Y-124262500D02*
X136637500Y-123900000D01*
D30*
X133642500Y-77357500D02*
X133642500Y-76832500D01*
D31*
X137500000Y-116540000D02*
X135540000Y-116540000D01*
X141000000Y-85750000D02*
X141000000Y-84980000D01*
X134480000Y-116520000D02*
X135000000Y-116000000D01*
X141000000Y-84980000D02*
X142480000Y-83500000D01*
X137475000Y-85825000D02*
X140925000Y-85825000D01*
X140925000Y-85825000D02*
X141000000Y-85750000D01*
D30*
%TO.N,Net-(U3-C1-)*%
X132525000Y-87095000D02*
X131191800Y-87095000D01*
X131191800Y-87095000D02*
X129961800Y-85865000D01*
%TO.N,Net-(U3-C1+)*%
X130271800Y-84555000D02*
X129961800Y-84865000D01*
X132525000Y-84555000D02*
X130271800Y-84555000D01*
%TO.N,Net-(U3-C2+)*%
X132525000Y-88365000D02*
X129961800Y-88365000D01*
%TO.N,Net-(U3-C2-)*%
X132525000Y-89635000D02*
X132447300Y-89712700D01*
X130231800Y-89635000D02*
X129961800Y-89365000D01*
X132525000Y-89635000D02*
X130231800Y-89635000D01*
%TO.N,Net-(U3-VS+)*%
X134000000Y-85324999D02*
X134000000Y-83250000D01*
X132525000Y-85825000D02*
X133499999Y-85825000D01*
X133499999Y-85825000D02*
X134000000Y-85324999D01*
D31*
%TO.N,+12V*%
X129800000Y-138550000D02*
X129800000Y-132550000D01*
X129800000Y-129200000D02*
X132500000Y-126500000D01*
X134020000Y-124242500D02*
X134362500Y-123900000D01*
X134020000Y-126500000D02*
X134020000Y-124242500D01*
X129800000Y-132550000D02*
X129800000Y-129200000D01*
X132500000Y-126500000D02*
X134020000Y-126500000D01*
X134362500Y-123900000D02*
X134362500Y-122950000D01*
D30*
%TO.N,Net-(U3-VS-)*%
X130921800Y-90905000D02*
X132525000Y-90905000D01*
X129961800Y-91865000D02*
X130921800Y-90905000D01*
D31*
%TO.N,+3.3V*%
X137500000Y-84530000D02*
X137475000Y-84555000D01*
X138465000Y-84555000D02*
X139520000Y-83500000D01*
X137160000Y-113910000D02*
X137160000Y-113075000D01*
X137500000Y-84500000D02*
X137500000Y-84530000D01*
X137475000Y-84555000D02*
X138465000Y-84555000D01*
X137475000Y-84555000D02*
X137475000Y-83275000D01*
X135947000Y-85523900D02*
X136915900Y-84555000D01*
X135947000Y-111862000D02*
X135947000Y-85523900D01*
X137420000Y-84500000D02*
X137475000Y-84555000D01*
X137160000Y-113075000D02*
X135947000Y-111862000D01*
X136915900Y-84555000D02*
X137475000Y-84555000D01*
X137475000Y-83275000D02*
X137500000Y-83250000D01*
D30*
%TO.N,/RS232 TX*%
X144000000Y-82000000D02*
X140000000Y-78000000D01*
X140000000Y-78000000D02*
X136035000Y-78000000D01*
X141905000Y-87095000D02*
X144000000Y-85000000D01*
X137475000Y-87095000D02*
X141905000Y-87095000D01*
X136811146Y-87095000D02*
X137475000Y-87095000D01*
X136035000Y-78000000D02*
X134662500Y-79372500D01*
X144000000Y-85000000D02*
X144000000Y-82000000D01*
%TO.N,/BuckOut*%
X136687500Y-123000000D02*
X136637500Y-122950000D01*
%TO.N,/RS232 RX*%
X140832500Y-76832500D02*
X135682500Y-76832500D01*
X135645450Y-76832500D02*
X135682500Y-76832500D01*
X145000000Y-86000000D02*
X145000000Y-81000000D01*
X137475000Y-88365000D02*
X142635000Y-88365000D01*
X145000000Y-81000000D02*
X140832500Y-76832500D01*
X142635000Y-88365000D02*
X145000000Y-86000000D01*
%TO.N,/UART TX*%
X139700000Y-97000000D02*
X139700000Y-97835000D01*
X139700000Y-92155001D02*
X139700000Y-97835000D01*
X137475000Y-90905000D02*
X138449999Y-90905000D01*
X138449999Y-90905000D02*
X139700000Y-92155001D01*
%TO.N,/UART RX*%
X138449999Y-89635000D02*
X142240000Y-93425001D01*
X137475000Y-89635000D02*
X138449999Y-89635000D01*
X142240000Y-97835000D02*
X142240000Y-97000000D01*
X142240000Y-93425001D02*
X142240000Y-97835000D01*
D31*
%TO.N,+5V*%
X142200000Y-118000000D02*
X142200000Y-113950000D01*
X142200000Y-113950000D02*
X142240000Y-113910000D01*
D32*
X142240000Y-113075000D02*
X142240000Y-113910000D01*
D31*
%TO.N,/BuckFeedback*%
X138925000Y-120925000D02*
X137500000Y-119500000D01*
X132500000Y-119480000D02*
X137480000Y-119480000D01*
X139000000Y-118000000D02*
X137500000Y-119500000D01*
X140100000Y-118000000D02*
X139000000Y-118000000D01*
X136862500Y-119500000D02*
X134362500Y-122000000D01*
X137500000Y-119500000D02*
X136862500Y-119500000D01*
X141500000Y-120925000D02*
X138925000Y-120925000D01*
X137480000Y-119480000D02*
X137500000Y-119500000D01*
%TD*%
M02*
