%TF.GenerationSoftware,KiCad,Pcbnew,9.0.3*%
%TF.CreationDate,2025-09-11T19:13:47+02:00*%
%TF.ProjectId,AM03127-Controller,414d3033-3132-4372-9d43-6f6e74726f6c,rev?*%
%TF.SameCoordinates,Original*%
%TF.FileFunction,Copper,L2,Bot*%
%TF.FilePolarity,Positive*%
%FSLAX46Y46*%
G04 Gerber Fmt 4.6, Leading zero omitted, Abs format (unit mm)*
G04 Created by KiCad (PCBNEW 9.0.3) date 2025-09-11 19:13:47*
%MOMM*%
%LPD*%
G01*
G04 APERTURE LIST*
%TA.AperFunction,ComponentPad*%
%ADD10C,2.300000*%
%TD*%
%TA.AperFunction,ComponentPad*%
%ADD11R,1.500000X1.500000*%
%TD*%
%TA.AperFunction,ComponentPad*%
%ADD12C,1.500000*%
%TD*%
%TA.AperFunction,ComponentPad*%
%ADD13C,1.900000*%
%TD*%
%TA.AperFunction,ComponentPad*%
%ADD14C,1.700000*%
%TD*%
%TA.AperFunction,ComponentPad*%
%ADD15C,1.524000*%
%TD*%
%TA.AperFunction,ViaPad*%
%ADD16C,0.600000*%
%TD*%
G04 APERTURE END LIST*
D10*
%TO.P,RJ11,*%
%TO.N,*%
X141172500Y-74532500D03*
X129172500Y-74532500D03*
D11*
%TO.P,RJ11,1,1*%
%TO.N,GND*%
X133642500Y-76832500D03*
D12*
%TO.P,RJ11,2,2*%
%TO.N,/RS232 TX*%
X134662500Y-79372500D03*
%TO.P,RJ11,3,3*%
%TO.N,/RS232 RX*%
X135682500Y-76832500D03*
%TO.P,RJ11,4,4*%
%TO.N,unconnected-(RJ11-Pad4)*%
X136702500Y-79372500D03*
%TD*%
D13*
%TO.P,DC1,*%
%TO.N,*%
X135300000Y-134250000D03*
D14*
X135300000Y-138550000D03*
%TD*%
D15*
%TO.P,U2,1,GPIO2/A0/D0*%
%TO.N,/UART RX*%
X142240000Y-97835000D03*
%TO.P,U2,2,GPIO3/A1/D1*%
%TO.N,/UART TX*%
X139700000Y-97835000D03*
%TO.P,U2,3,GPIO4/A2/D2*%
%TO.N,unconnected-(U2-GPIO4{slash}A2{slash}D2-Pad3)_1*%
X137160000Y-97835000D03*
%TO.P,U2,4,GPIO5/A3/D3*%
%TO.N,unconnected-(U2-GPIO5{slash}A3{slash}D3-Pad4)*%
X134620000Y-97835000D03*
%TO.P,U2,5,GPIO6/D4/SDA*%
%TO.N,unconnected-(U2-GPIO6{slash}D4{slash}SDA-Pad5)_1*%
X132080000Y-97835000D03*
%TO.P,U2,6,GPIO7/D5/SCL*%
%TO.N,unconnected-(U2-GPIO7{slash}D5{slash}SCL-Pad6)_1*%
X129540000Y-97835000D03*
%TO.P,U2,7,GPIO21/D6/TX*%
%TO.N,unconnected-(U2-GPIO21{slash}D6{slash}TX-Pad7)_1*%
X127000000Y-97835000D03*
%TO.P,U2,8,GPIO20/D7/RX*%
%TO.N,unconnected-(U2-GPIO20{slash}D7{slash}RX-Pad8)*%
X127000000Y-113075000D03*
%TO.P,U2,9,GPIO8/D8/SCK*%
%TO.N,unconnected-(U2-GPIO8{slash}D8{slash}SCK-Pad9)*%
X129540000Y-113075000D03*
%TO.P,U2,10,GPIO9/D9/MISO*%
%TO.N,unconnected-(U2-GPIO9{slash}D9{slash}MISO-Pad10)_1*%
X132080000Y-113075000D03*
%TO.P,U2,11,GPIO10/D10/MOSI*%
%TO.N,unconnected-(U2-GPIO10{slash}D10{slash}MOSI-Pad11)*%
X134620000Y-113075000D03*
%TO.P,U2,12,VCC_3V3*%
%TO.N,+3.3V*%
X137160000Y-113075000D03*
%TO.P,U2,13,GND*%
%TO.N,GND*%
X139700000Y-113075000D03*
%TO.P,U2,14,VBUS*%
%TO.N,+5V*%
X142240000Y-113075000D03*
%TD*%
D16*
%TO.N,GND*%
X135000000Y-116000000D03*
X141000000Y-136000000D03*
X141000000Y-85750000D03*
X135750000Y-82250000D03*
X137000000Y-125000000D03*
X130000000Y-94000000D03*
%TD*%
%TA.AperFunction,Conductor*%
%TO.N,GND*%
G36*
X146442539Y-68520185D02*
G01*
X146488294Y-68572989D01*
X146499500Y-68624500D01*
X146499500Y-143330500D01*
X146479815Y-143397539D01*
X146427011Y-143443294D01*
X146375500Y-143454500D01*
X124624500Y-143454500D01*
X124557461Y-143434815D01*
X124511706Y-143382011D01*
X124500500Y-143330500D01*
X124500500Y-138443713D01*
X133949500Y-138443713D01*
X133949500Y-138656286D01*
X133982753Y-138866239D01*
X134048444Y-139068414D01*
X134144951Y-139257820D01*
X134269890Y-139429786D01*
X134420213Y-139580109D01*
X134592179Y-139705048D01*
X134592181Y-139705049D01*
X134592184Y-139705051D01*
X134781588Y-139801557D01*
X134983757Y-139867246D01*
X135193713Y-139900500D01*
X135193714Y-139900500D01*
X135406286Y-139900500D01*
X135406287Y-139900500D01*
X135616243Y-139867246D01*
X135818412Y-139801557D01*
X136007816Y-139705051D01*
X136029789Y-139689086D01*
X136179786Y-139580109D01*
X136179788Y-139580106D01*
X136179792Y-139580104D01*
X136330104Y-139429792D01*
X136330106Y-139429788D01*
X136330109Y-139429786D01*
X136455048Y-139257820D01*
X136455047Y-139257820D01*
X136455051Y-139257816D01*
X136551557Y-139068412D01*
X136617246Y-138866243D01*
X136650500Y-138656287D01*
X136650500Y-138443713D01*
X136617246Y-138233757D01*
X136551557Y-138031588D01*
X136455051Y-137842184D01*
X136455049Y-137842181D01*
X136455048Y-137842179D01*
X136330109Y-137670213D01*
X136179786Y-137519890D01*
X136007820Y-137394951D01*
X135818414Y-137298444D01*
X135818413Y-137298443D01*
X135818412Y-137298443D01*
X135616243Y-137232754D01*
X135616241Y-137232753D01*
X135616240Y-137232753D01*
X135454957Y-137207208D01*
X135406287Y-137199500D01*
X135193713Y-137199500D01*
X135145042Y-137207208D01*
X134983760Y-137232753D01*
X134781585Y-137298444D01*
X134592179Y-137394951D01*
X134420213Y-137519890D01*
X134269890Y-137670213D01*
X134144951Y-137842179D01*
X134048444Y-138031585D01*
X133982753Y-138233760D01*
X133949500Y-138443713D01*
X124500500Y-138443713D01*
X124500500Y-134135837D01*
X133849500Y-134135837D01*
X133849500Y-134364162D01*
X133885215Y-134589660D01*
X133955770Y-134806803D01*
X134059421Y-135010228D01*
X134193621Y-135194937D01*
X134355063Y-135356379D01*
X134539772Y-135490579D01*
X134635884Y-135539550D01*
X134743196Y-135594229D01*
X134743198Y-135594229D01*
X134743201Y-135594231D01*
X134859592Y-135632049D01*
X134960339Y-135664784D01*
X135185838Y-135700500D01*
X135185843Y-135700500D01*
X135414162Y-135700500D01*
X135639660Y-135664784D01*
X135856799Y-135594231D01*
X136060228Y-135490579D01*
X136244937Y-135356379D01*
X136406379Y-135194937D01*
X136540579Y-135010228D01*
X136644231Y-134806799D01*
X136714784Y-134589660D01*
X136750500Y-134364162D01*
X136750500Y-134135837D01*
X136714784Y-133910339D01*
X136644229Y-133693196D01*
X136540578Y-133489771D01*
X136406379Y-133305063D01*
X136244937Y-133143621D01*
X136060228Y-133009421D01*
X135856803Y-132905770D01*
X135639660Y-132835215D01*
X135414162Y-132799500D01*
X135414157Y-132799500D01*
X135185843Y-132799500D01*
X135185838Y-132799500D01*
X134960339Y-132835215D01*
X134743196Y-132905770D01*
X134539771Y-133009421D01*
X134355061Y-133143622D01*
X134193622Y-133305061D01*
X134059421Y-133489771D01*
X133955770Y-133693196D01*
X133885215Y-133910339D01*
X133849500Y-134135837D01*
X124500500Y-134135837D01*
X124500500Y-112975639D01*
X125737500Y-112975639D01*
X125737500Y-113174360D01*
X125768587Y-113370637D01*
X125829993Y-113559629D01*
X125829994Y-113559632D01*
X125920074Y-113736422D01*
X125920213Y-113736694D01*
X126037019Y-113897464D01*
X126177536Y-114037981D01*
X126338306Y-114154787D01*
X126425149Y-114199035D01*
X126515367Y-114245005D01*
X126515370Y-114245006D01*
X126609866Y-114275709D01*
X126704364Y-114306413D01*
X126900639Y-114337500D01*
X126900640Y-114337500D01*
X127099360Y-114337500D01*
X127099361Y-114337500D01*
X127295636Y-114306413D01*
X127484632Y-114245005D01*
X127661694Y-114154787D01*
X127822464Y-114037981D01*
X127962981Y-113897464D01*
X128079787Y-113736694D01*
X128159515Y-113580218D01*
X128207490Y-113529423D01*
X128275311Y-113512628D01*
X128341446Y-113535165D01*
X128380484Y-113580218D01*
X128460213Y-113736694D01*
X128577019Y-113897464D01*
X128717536Y-114037981D01*
X128878306Y-114154787D01*
X128965149Y-114199035D01*
X129055367Y-114245005D01*
X129055370Y-114245006D01*
X129149866Y-114275709D01*
X129244364Y-114306413D01*
X129440639Y-114337500D01*
X129440640Y-114337500D01*
X129639360Y-114337500D01*
X129639361Y-114337500D01*
X129835636Y-114306413D01*
X130024632Y-114245005D01*
X130201694Y-114154787D01*
X130362464Y-114037981D01*
X130502981Y-113897464D01*
X130619787Y-113736694D01*
X130699515Y-113580218D01*
X130747490Y-113529423D01*
X130815311Y-113512628D01*
X130881446Y-113535165D01*
X130920484Y-113580218D01*
X131000213Y-113736694D01*
X131117019Y-113897464D01*
X131257536Y-114037981D01*
X131418306Y-114154787D01*
X131505149Y-114199035D01*
X131595367Y-114245005D01*
X131595370Y-114245006D01*
X131689866Y-114275709D01*
X131784364Y-114306413D01*
X131980639Y-114337500D01*
X131980640Y-114337500D01*
X132179360Y-114337500D01*
X132179361Y-114337500D01*
X132375636Y-114306413D01*
X132564632Y-114245005D01*
X132741694Y-114154787D01*
X132902464Y-114037981D01*
X133042981Y-113897464D01*
X133159787Y-113736694D01*
X133239515Y-113580218D01*
X133287490Y-113529423D01*
X133355311Y-113512628D01*
X133421446Y-113535165D01*
X133460484Y-113580218D01*
X133540213Y-113736694D01*
X133657019Y-113897464D01*
X133797536Y-114037981D01*
X133958306Y-114154787D01*
X134045149Y-114199035D01*
X134135367Y-114245005D01*
X134135370Y-114245006D01*
X134229866Y-114275709D01*
X134324364Y-114306413D01*
X134520639Y-114337500D01*
X134520640Y-114337500D01*
X134719360Y-114337500D01*
X134719361Y-114337500D01*
X134915636Y-114306413D01*
X135104632Y-114245005D01*
X135281694Y-114154787D01*
X135442464Y-114037981D01*
X135582981Y-113897464D01*
X135699787Y-113736694D01*
X135779515Y-113580218D01*
X135827490Y-113529423D01*
X135895311Y-113512628D01*
X135961446Y-113535165D01*
X136000484Y-113580218D01*
X136080213Y-113736694D01*
X136197019Y-113897464D01*
X136337536Y-114037981D01*
X136498306Y-114154787D01*
X136585149Y-114199035D01*
X136675367Y-114245005D01*
X136675370Y-114245006D01*
X136769866Y-114275709D01*
X136864364Y-114306413D01*
X137060639Y-114337500D01*
X137060640Y-114337500D01*
X137259360Y-114337500D01*
X137259361Y-114337500D01*
X137455636Y-114306413D01*
X137644632Y-114245005D01*
X137821694Y-114154787D01*
X137982464Y-114037981D01*
X138122981Y-113897464D01*
X138239787Y-113736694D01*
X138319796Y-113579667D01*
X138367769Y-113528872D01*
X138435590Y-113512077D01*
X138501725Y-113534614D01*
X138540765Y-113579668D01*
X138620641Y-113736432D01*
X138647730Y-113773715D01*
X138647731Y-113773716D01*
X139262352Y-113159094D01*
X139285792Y-113246571D01*
X139344311Y-113347930D01*
X139427070Y-113430689D01*
X139528429Y-113489208D01*
X139615905Y-113512647D01*
X139001283Y-114127268D01*
X139001283Y-114127269D01*
X139038567Y-114154358D01*
X139215562Y-114244542D01*
X139404477Y-114305924D01*
X139600679Y-114337000D01*
X139799321Y-114337000D01*
X139995520Y-114305924D01*
X139995523Y-114305924D01*
X140184437Y-114244542D01*
X140361425Y-114154362D01*
X140398716Y-114127268D01*
X139784095Y-113512647D01*
X139871571Y-113489208D01*
X139972930Y-113430689D01*
X140055689Y-113347930D01*
X140114208Y-113246571D01*
X140137647Y-113159094D01*
X140752268Y-113773715D01*
X140779364Y-113736422D01*
X140859234Y-113579669D01*
X140907208Y-113528872D01*
X140975029Y-113512077D01*
X141041164Y-113534614D01*
X141080203Y-113579667D01*
X141160213Y-113736694D01*
X141277019Y-113897464D01*
X141417536Y-114037981D01*
X141578306Y-114154787D01*
X141665149Y-114199035D01*
X141755367Y-114245005D01*
X141755370Y-114245006D01*
X141849866Y-114275709D01*
X141944364Y-114306413D01*
X142140639Y-114337500D01*
X142140640Y-114337500D01*
X142339360Y-114337500D01*
X142339361Y-114337500D01*
X142535636Y-114306413D01*
X142724632Y-114245005D01*
X142901694Y-114154787D01*
X143062464Y-114037981D01*
X143202981Y-113897464D01*
X143319787Y-113736694D01*
X143410005Y-113559632D01*
X143471413Y-113370636D01*
X143502500Y-113174361D01*
X143502500Y-112975639D01*
X143471413Y-112779364D01*
X143410005Y-112590368D01*
X143410005Y-112590367D01*
X143364035Y-112500149D01*
X143319787Y-112413306D01*
X143202981Y-112252536D01*
X143062464Y-112112019D01*
X142901694Y-111995213D01*
X142724632Y-111904994D01*
X142724629Y-111904993D01*
X142535637Y-111843587D01*
X142437498Y-111828043D01*
X142339361Y-111812500D01*
X142140639Y-111812500D01*
X142075214Y-111822862D01*
X141944362Y-111843587D01*
X141755370Y-111904993D01*
X141755367Y-111904994D01*
X141578305Y-111995213D01*
X141417533Y-112112021D01*
X141277021Y-112252533D01*
X141160213Y-112413305D01*
X141080204Y-112570331D01*
X141032229Y-112621127D01*
X140964408Y-112637922D01*
X140898273Y-112615384D01*
X140859234Y-112570331D01*
X140779358Y-112413567D01*
X140752268Y-112376283D01*
X140137647Y-112990904D01*
X140114208Y-112903429D01*
X140055689Y-112802070D01*
X139972930Y-112719311D01*
X139871571Y-112660792D01*
X139784094Y-112637352D01*
X140398716Y-112022731D01*
X140398715Y-112022730D01*
X140361432Y-111995641D01*
X140184437Y-111905457D01*
X139995522Y-111844075D01*
X139799321Y-111813000D01*
X139600679Y-111813000D01*
X139404479Y-111844075D01*
X139404476Y-111844075D01*
X139215562Y-111905457D01*
X139038564Y-111995643D01*
X139001283Y-112022729D01*
X139001282Y-112022730D01*
X139615906Y-112637352D01*
X139528429Y-112660792D01*
X139427070Y-112719311D01*
X139344311Y-112802070D01*
X139285792Y-112903429D01*
X139262352Y-112990905D01*
X138647730Y-112376282D01*
X138647729Y-112376283D01*
X138620641Y-112413566D01*
X138540764Y-112570332D01*
X138492790Y-112621127D01*
X138424969Y-112637922D01*
X138358834Y-112615384D01*
X138319796Y-112570332D01*
X138239787Y-112413306D01*
X138122981Y-112252536D01*
X137982464Y-112112019D01*
X137821694Y-111995213D01*
X137644632Y-111904994D01*
X137644629Y-111904993D01*
X137455637Y-111843587D01*
X137357498Y-111828043D01*
X137259361Y-111812500D01*
X137060639Y-111812500D01*
X136995214Y-111822862D01*
X136864362Y-111843587D01*
X136675370Y-111904993D01*
X136675367Y-111904994D01*
X136498305Y-111995213D01*
X136337533Y-112112021D01*
X136197021Y-112252533D01*
X136080213Y-112413305D01*
X136000485Y-112569780D01*
X135952510Y-112620576D01*
X135884689Y-112637371D01*
X135818554Y-112614833D01*
X135779515Y-112569780D01*
X135760179Y-112531832D01*
X135699787Y-112413306D01*
X135582981Y-112252536D01*
X135442464Y-112112019D01*
X135281694Y-111995213D01*
X135104632Y-111904994D01*
X135104629Y-111904993D01*
X134915637Y-111843587D01*
X134817498Y-111828043D01*
X134719361Y-111812500D01*
X134520639Y-111812500D01*
X134455214Y-111822862D01*
X134324362Y-111843587D01*
X134135370Y-111904993D01*
X134135367Y-111904994D01*
X133958305Y-111995213D01*
X133797533Y-112112021D01*
X133657021Y-112252533D01*
X133540213Y-112413305D01*
X133460485Y-112569780D01*
X133412510Y-112620576D01*
X133344689Y-112637371D01*
X133278554Y-112614833D01*
X133239515Y-112569780D01*
X133220179Y-112531832D01*
X133159787Y-112413306D01*
X133042981Y-112252536D01*
X132902464Y-112112019D01*
X132741694Y-111995213D01*
X132564632Y-111904994D01*
X132564629Y-111904993D01*
X132375637Y-111843587D01*
X132277498Y-111828043D01*
X132179361Y-111812500D01*
X131980639Y-111812500D01*
X131915214Y-111822862D01*
X131784362Y-111843587D01*
X131595370Y-111904993D01*
X131595367Y-111904994D01*
X131418305Y-111995213D01*
X131257533Y-112112021D01*
X131117021Y-112252533D01*
X131000213Y-112413305D01*
X130920485Y-112569780D01*
X130872510Y-112620576D01*
X130804689Y-112637371D01*
X130738554Y-112614833D01*
X130699515Y-112569780D01*
X130680179Y-112531832D01*
X130619787Y-112413306D01*
X130502981Y-112252536D01*
X130362464Y-112112019D01*
X130201694Y-111995213D01*
X130024632Y-111904994D01*
X130024629Y-111904993D01*
X129835637Y-111843587D01*
X129737498Y-111828043D01*
X129639361Y-111812500D01*
X129440639Y-111812500D01*
X129375214Y-111822862D01*
X129244362Y-111843587D01*
X129055370Y-111904993D01*
X129055367Y-111904994D01*
X128878305Y-111995213D01*
X128717533Y-112112021D01*
X128577021Y-112252533D01*
X128460213Y-112413305D01*
X128380485Y-112569780D01*
X128332510Y-112620576D01*
X128264689Y-112637371D01*
X128198554Y-112614833D01*
X128159515Y-112569780D01*
X128140179Y-112531832D01*
X128079787Y-112413306D01*
X127962981Y-112252536D01*
X127822464Y-112112019D01*
X127661694Y-111995213D01*
X127484632Y-111904994D01*
X127484629Y-111904993D01*
X127295637Y-111843587D01*
X127197498Y-111828043D01*
X127099361Y-111812500D01*
X126900639Y-111812500D01*
X126835214Y-111822862D01*
X126704362Y-111843587D01*
X126515370Y-111904993D01*
X126515367Y-111904994D01*
X126338305Y-111995213D01*
X126177533Y-112112021D01*
X126037021Y-112252533D01*
X125920213Y-112413305D01*
X125829994Y-112590367D01*
X125829993Y-112590370D01*
X125768587Y-112779362D01*
X125737500Y-112975639D01*
X124500500Y-112975639D01*
X124500500Y-97735639D01*
X125737500Y-97735639D01*
X125737500Y-97934360D01*
X125768587Y-98130637D01*
X125829993Y-98319629D01*
X125829994Y-98319632D01*
X125920213Y-98496694D01*
X126037019Y-98657464D01*
X126177536Y-98797981D01*
X126338306Y-98914787D01*
X126425149Y-98959035D01*
X126515367Y-99005005D01*
X126515370Y-99005006D01*
X126609866Y-99035709D01*
X126704364Y-99066413D01*
X126900639Y-99097500D01*
X126900640Y-99097500D01*
X127099360Y-99097500D01*
X127099361Y-99097500D01*
X127295636Y-99066413D01*
X127484632Y-99005005D01*
X127661694Y-98914787D01*
X127822464Y-98797981D01*
X127962981Y-98657464D01*
X128079787Y-98496694D01*
X128159515Y-98340218D01*
X128207490Y-98289423D01*
X128275311Y-98272628D01*
X128341446Y-98295165D01*
X128380484Y-98340218D01*
X128460213Y-98496694D01*
X128577019Y-98657464D01*
X128717536Y-98797981D01*
X128878306Y-98914787D01*
X128965149Y-98959035D01*
X129055367Y-99005005D01*
X129055370Y-99005006D01*
X129149866Y-99035709D01*
X129244364Y-99066413D01*
X129440639Y-99097500D01*
X129440640Y-99097500D01*
X129639360Y-99097500D01*
X129639361Y-99097500D01*
X129835636Y-99066413D01*
X130024632Y-99005005D01*
X130201694Y-98914787D01*
X130362464Y-98797981D01*
X130502981Y-98657464D01*
X130619787Y-98496694D01*
X130699515Y-98340218D01*
X130747490Y-98289423D01*
X130815311Y-98272628D01*
X130881446Y-98295165D01*
X130920484Y-98340218D01*
X131000213Y-98496694D01*
X131117019Y-98657464D01*
X131257536Y-98797981D01*
X131418306Y-98914787D01*
X131505149Y-98959035D01*
X131595367Y-99005005D01*
X131595370Y-99005006D01*
X131689866Y-99035709D01*
X131784364Y-99066413D01*
X131980639Y-99097500D01*
X131980640Y-99097500D01*
X132179360Y-99097500D01*
X132179361Y-99097500D01*
X132375636Y-99066413D01*
X132564632Y-99005005D01*
X132741694Y-98914787D01*
X132902464Y-98797981D01*
X133042981Y-98657464D01*
X133159787Y-98496694D01*
X133239515Y-98340218D01*
X133287490Y-98289423D01*
X133355311Y-98272628D01*
X133421446Y-98295165D01*
X133460484Y-98340218D01*
X133540213Y-98496694D01*
X133657019Y-98657464D01*
X133797536Y-98797981D01*
X133958306Y-98914787D01*
X134045149Y-98959035D01*
X134135367Y-99005005D01*
X134135370Y-99005006D01*
X134229866Y-99035709D01*
X134324364Y-99066413D01*
X134520639Y-99097500D01*
X134520640Y-99097500D01*
X134719360Y-99097500D01*
X134719361Y-99097500D01*
X134915636Y-99066413D01*
X135104632Y-99005005D01*
X135281694Y-98914787D01*
X135442464Y-98797981D01*
X135582981Y-98657464D01*
X135699787Y-98496694D01*
X135779515Y-98340218D01*
X135827490Y-98289423D01*
X135895311Y-98272628D01*
X135961446Y-98295165D01*
X136000484Y-98340218D01*
X136080213Y-98496694D01*
X136197019Y-98657464D01*
X136337536Y-98797981D01*
X136498306Y-98914787D01*
X136585149Y-98959035D01*
X136675367Y-99005005D01*
X136675370Y-99005006D01*
X136769866Y-99035709D01*
X136864364Y-99066413D01*
X137060639Y-99097500D01*
X137060640Y-99097500D01*
X137259360Y-99097500D01*
X137259361Y-99097500D01*
X137455636Y-99066413D01*
X137644632Y-99005005D01*
X137821694Y-98914787D01*
X137982464Y-98797981D01*
X138122981Y-98657464D01*
X138239787Y-98496694D01*
X138319515Y-98340218D01*
X138367490Y-98289423D01*
X138435311Y-98272628D01*
X138501446Y-98295165D01*
X138540484Y-98340218D01*
X138620213Y-98496694D01*
X138737019Y-98657464D01*
X138877536Y-98797981D01*
X139038306Y-98914787D01*
X139125149Y-98959035D01*
X139215367Y-99005005D01*
X139215370Y-99005006D01*
X139309866Y-99035709D01*
X139404364Y-99066413D01*
X139600639Y-99097500D01*
X139600640Y-99097500D01*
X139799360Y-99097500D01*
X139799361Y-99097500D01*
X139995636Y-99066413D01*
X140184632Y-99005005D01*
X140361694Y-98914787D01*
X140522464Y-98797981D01*
X140662981Y-98657464D01*
X140779787Y-98496694D01*
X140859515Y-98340218D01*
X140907490Y-98289423D01*
X140975311Y-98272628D01*
X141041446Y-98295165D01*
X141080484Y-98340218D01*
X141160213Y-98496694D01*
X141277019Y-98657464D01*
X141417536Y-98797981D01*
X141578306Y-98914787D01*
X141665149Y-98959035D01*
X141755367Y-99005005D01*
X141755370Y-99005006D01*
X141849866Y-99035709D01*
X141944364Y-99066413D01*
X142140639Y-99097500D01*
X142140640Y-99097500D01*
X142339360Y-99097500D01*
X142339361Y-99097500D01*
X142535636Y-99066413D01*
X142724632Y-99005005D01*
X142901694Y-98914787D01*
X143062464Y-98797981D01*
X143202981Y-98657464D01*
X143319787Y-98496694D01*
X143410005Y-98319632D01*
X143471413Y-98130636D01*
X143502500Y-97934361D01*
X143502500Y-97735639D01*
X143471413Y-97539364D01*
X143410005Y-97350368D01*
X143410005Y-97350367D01*
X143319786Y-97173305D01*
X143202981Y-97012536D01*
X143062464Y-96872019D01*
X142901694Y-96755213D01*
X142724632Y-96664994D01*
X142724629Y-96664993D01*
X142535637Y-96603587D01*
X142437498Y-96588043D01*
X142339361Y-96572500D01*
X142140639Y-96572500D01*
X142075214Y-96582862D01*
X141944362Y-96603587D01*
X141755370Y-96664993D01*
X141755367Y-96664994D01*
X141578305Y-96755213D01*
X141417533Y-96872021D01*
X141277021Y-97012533D01*
X141160213Y-97173305D01*
X141080485Y-97329780D01*
X141032510Y-97380576D01*
X140964689Y-97397371D01*
X140898554Y-97374833D01*
X140859515Y-97329780D01*
X140779786Y-97173305D01*
X140662981Y-97012536D01*
X140522464Y-96872019D01*
X140361694Y-96755213D01*
X140184632Y-96664994D01*
X140184629Y-96664993D01*
X139995637Y-96603587D01*
X139897498Y-96588043D01*
X139799361Y-96572500D01*
X139600639Y-96572500D01*
X139535214Y-96582862D01*
X139404362Y-96603587D01*
X139215370Y-96664993D01*
X139215367Y-96664994D01*
X139038305Y-96755213D01*
X138877533Y-96872021D01*
X138737021Y-97012533D01*
X138620213Y-97173305D01*
X138540485Y-97329780D01*
X138492510Y-97380576D01*
X138424689Y-97397371D01*
X138358554Y-97374833D01*
X138319515Y-97329780D01*
X138239786Y-97173305D01*
X138122981Y-97012536D01*
X137982464Y-96872019D01*
X137821694Y-96755213D01*
X137644632Y-96664994D01*
X137644629Y-96664993D01*
X137455637Y-96603587D01*
X137357498Y-96588043D01*
X137259361Y-96572500D01*
X137060639Y-96572500D01*
X136995214Y-96582862D01*
X136864362Y-96603587D01*
X136675370Y-96664993D01*
X136675367Y-96664994D01*
X136498305Y-96755213D01*
X136337533Y-96872021D01*
X136197021Y-97012533D01*
X136080213Y-97173305D01*
X136000485Y-97329780D01*
X135952510Y-97380576D01*
X135884689Y-97397371D01*
X135818554Y-97374833D01*
X135779515Y-97329780D01*
X135699786Y-97173305D01*
X135582981Y-97012536D01*
X135442464Y-96872019D01*
X135281694Y-96755213D01*
X135104632Y-96664994D01*
X135104629Y-96664993D01*
X134915637Y-96603587D01*
X134817498Y-96588043D01*
X134719361Y-96572500D01*
X134520639Y-96572500D01*
X134455214Y-96582862D01*
X134324362Y-96603587D01*
X134135370Y-96664993D01*
X134135367Y-96664994D01*
X133958305Y-96755213D01*
X133797533Y-96872021D01*
X133657021Y-97012533D01*
X133540213Y-97173305D01*
X133460485Y-97329780D01*
X133412510Y-97380576D01*
X133344689Y-97397371D01*
X133278554Y-97374833D01*
X133239515Y-97329780D01*
X133159786Y-97173305D01*
X133042981Y-97012536D01*
X132902464Y-96872019D01*
X132741694Y-96755213D01*
X132564632Y-96664994D01*
X132564629Y-96664993D01*
X132375637Y-96603587D01*
X132277498Y-96588043D01*
X132179361Y-96572500D01*
X131980639Y-96572500D01*
X131915214Y-96582862D01*
X131784362Y-96603587D01*
X131595370Y-96664993D01*
X131595367Y-96664994D01*
X131418305Y-96755213D01*
X131257533Y-96872021D01*
X131117021Y-97012533D01*
X131000213Y-97173305D01*
X130920485Y-97329780D01*
X130872510Y-97380576D01*
X130804689Y-97397371D01*
X130738554Y-97374833D01*
X130699515Y-97329780D01*
X130619786Y-97173305D01*
X130502981Y-97012536D01*
X130362464Y-96872019D01*
X130201694Y-96755213D01*
X130024632Y-96664994D01*
X130024629Y-96664993D01*
X129835637Y-96603587D01*
X129737498Y-96588043D01*
X129639361Y-96572500D01*
X129440639Y-96572500D01*
X129375214Y-96582862D01*
X129244362Y-96603587D01*
X129055370Y-96664993D01*
X129055367Y-96664994D01*
X128878305Y-96755213D01*
X128717533Y-96872021D01*
X128577021Y-97012533D01*
X128460213Y-97173305D01*
X128380485Y-97329780D01*
X128332510Y-97380576D01*
X128264689Y-97397371D01*
X128198554Y-97374833D01*
X128159515Y-97329780D01*
X128079786Y-97173305D01*
X127962981Y-97012536D01*
X127822464Y-96872019D01*
X127661694Y-96755213D01*
X127484632Y-96664994D01*
X127484629Y-96664993D01*
X127295637Y-96603587D01*
X127197498Y-96588043D01*
X127099361Y-96572500D01*
X126900639Y-96572500D01*
X126835214Y-96582862D01*
X126704362Y-96603587D01*
X126515370Y-96664993D01*
X126515367Y-96664994D01*
X126338305Y-96755213D01*
X126177533Y-96872021D01*
X126037021Y-97012533D01*
X125920213Y-97173305D01*
X125829994Y-97350367D01*
X125829993Y-97350370D01*
X125768587Y-97539362D01*
X125737500Y-97735639D01*
X124500500Y-97735639D01*
X124500500Y-74402597D01*
X127522000Y-74402597D01*
X127522000Y-74662402D01*
X127562640Y-74918993D01*
X127642922Y-75166076D01*
X127724034Y-75325264D01*
X127760866Y-75397551D01*
X127913569Y-75607729D01*
X128097271Y-75791431D01*
X128307449Y-75944134D01*
X128452126Y-76017851D01*
X128538923Y-76062077D01*
X128538925Y-76062077D01*
X128538928Y-76062079D01*
X128786007Y-76142360D01*
X128918206Y-76163297D01*
X129042598Y-76183000D01*
X129042603Y-76183000D01*
X129302402Y-76183000D01*
X129415798Y-76165039D01*
X129558993Y-76142360D01*
X129806072Y-76062079D01*
X129859894Y-76034655D01*
X132392500Y-76034655D01*
X132392500Y-76582500D01*
X133326816Y-76582500D01*
X133322421Y-76586895D01*
X133269760Y-76678106D01*
X133242501Y-76779839D01*
X133242501Y-76885161D01*
X133269760Y-76986894D01*
X133322421Y-77078105D01*
X133326816Y-77082500D01*
X132392500Y-77082500D01*
X132392500Y-77630344D01*
X132398901Y-77689872D01*
X132398903Y-77689879D01*
X132449145Y-77824586D01*
X132449149Y-77824593D01*
X132535309Y-77939687D01*
X132535312Y-77939690D01*
X132650406Y-78025850D01*
X132650413Y-78025854D01*
X132785120Y-78076096D01*
X132785127Y-78076098D01*
X132844655Y-78082499D01*
X132844672Y-78082500D01*
X133392500Y-78082500D01*
X133392500Y-77148184D01*
X133396895Y-77152579D01*
X133488106Y-77205240D01*
X133589839Y-77232499D01*
X133695161Y-77232499D01*
X133796894Y-77205240D01*
X133888105Y-77152579D01*
X133892500Y-77148184D01*
X133892500Y-78082500D01*
X133928921Y-78082500D01*
X133995960Y-78102185D01*
X134041715Y-78154989D01*
X134051659Y-78224147D01*
X134022634Y-78287703D01*
X134001807Y-78306817D01*
X133847854Y-78418672D01*
X133847852Y-78418674D01*
X133847851Y-78418674D01*
X133708674Y-78557851D01*
X133708674Y-78557852D01*
X133708672Y-78557854D01*
X133703592Y-78564846D01*
X133592976Y-78717094D01*
X133503617Y-78892470D01*
X133442790Y-79079673D01*
X133412000Y-79274077D01*
X133412000Y-79470922D01*
X133442790Y-79665326D01*
X133503617Y-79852529D01*
X133592976Y-80027905D01*
X133708672Y-80187146D01*
X133847854Y-80326328D01*
X134007095Y-80442024D01*
X134089955Y-80484243D01*
X134182470Y-80531382D01*
X134182472Y-80531382D01*
X134182475Y-80531384D01*
X134282817Y-80563987D01*
X134369673Y-80592209D01*
X134564078Y-80623000D01*
X134564083Y-80623000D01*
X134760922Y-80623000D01*
X134955326Y-80592209D01*
X135142525Y-80531384D01*
X135317905Y-80442024D01*
X135477146Y-80326328D01*
X135594819Y-80208655D01*
X135656142Y-80175170D01*
X135725834Y-80180154D01*
X135770181Y-80208655D01*
X135887854Y-80326328D01*
X136047095Y-80442024D01*
X136129955Y-80484243D01*
X136222470Y-80531382D01*
X136222472Y-80531382D01*
X136222475Y-80531384D01*
X136322817Y-80563987D01*
X136409673Y-80592209D01*
X136604078Y-80623000D01*
X136604083Y-80623000D01*
X136800922Y-80623000D01*
X136995326Y-80592209D01*
X137182525Y-80531384D01*
X137357905Y-80442024D01*
X137517146Y-80326328D01*
X137656328Y-80187146D01*
X137772024Y-80027905D01*
X137861384Y-79852525D01*
X137922209Y-79665326D01*
X137953000Y-79470922D01*
X137953000Y-79274077D01*
X137922209Y-79079673D01*
X137861382Y-78892470D01*
X137772023Y-78717094D01*
X137656328Y-78557854D01*
X137517146Y-78418672D01*
X137357905Y-78302976D01*
X137327930Y-78287703D01*
X137182529Y-78213617D01*
X136995326Y-78152790D01*
X136800922Y-78122000D01*
X136800917Y-78122000D01*
X136604083Y-78122000D01*
X136604078Y-78122000D01*
X136409672Y-78152791D01*
X136409665Y-78152792D01*
X136351649Y-78171643D01*
X136281808Y-78173638D01*
X136221976Y-78137557D01*
X136191148Y-78074856D01*
X136199113Y-78005442D01*
X136243342Y-77951353D01*
X136257031Y-77943230D01*
X136337905Y-77902024D01*
X136497146Y-77786328D01*
X136636328Y-77647146D01*
X136752024Y-77487905D01*
X136841384Y-77312525D01*
X136902209Y-77125326D01*
X136909688Y-77078105D01*
X136933000Y-76930922D01*
X136933000Y-76734077D01*
X136902209Y-76539673D01*
X136841382Y-76352470D01*
X136794243Y-76259955D01*
X136752024Y-76177095D01*
X136636328Y-76017854D01*
X136497146Y-75878672D01*
X136337905Y-75762976D01*
X136162529Y-75673617D01*
X135975326Y-75612790D01*
X135780922Y-75582000D01*
X135780917Y-75582000D01*
X135584083Y-75582000D01*
X135584078Y-75582000D01*
X135389673Y-75612790D01*
X135202470Y-75673617D01*
X135027092Y-75762977D01*
X134964571Y-75808401D01*
X134898765Y-75831880D01*
X134830711Y-75816054D01*
X134792420Y-75782393D01*
X134749686Y-75725309D01*
X134634593Y-75639149D01*
X134634586Y-75639145D01*
X134499879Y-75588903D01*
X134499872Y-75588901D01*
X134440344Y-75582500D01*
X133892500Y-75582500D01*
X133892500Y-76516816D01*
X133888105Y-76512421D01*
X133796894Y-76459760D01*
X133695161Y-76432501D01*
X133589839Y-76432501D01*
X133488106Y-76459760D01*
X133396895Y-76512421D01*
X133392500Y-76516816D01*
X133392500Y-75582500D01*
X132844655Y-75582500D01*
X132785127Y-75588901D01*
X132785120Y-75588903D01*
X132650413Y-75639145D01*
X132650406Y-75639149D01*
X132535312Y-75725309D01*
X132535309Y-75725312D01*
X132449149Y-75840406D01*
X132449145Y-75840413D01*
X132398903Y-75975120D01*
X132398901Y-75975127D01*
X132392500Y-76034655D01*
X129859894Y-76034655D01*
X130037551Y-75944134D01*
X130247729Y-75791431D01*
X130431431Y-75607729D01*
X130584134Y-75397551D01*
X130702079Y-75166072D01*
X130782360Y-74918993D01*
X130805039Y-74775798D01*
X130823000Y-74662402D01*
X130823000Y-74402597D01*
X139522000Y-74402597D01*
X139522000Y-74662402D01*
X139562640Y-74918993D01*
X139642922Y-75166076D01*
X139724034Y-75325264D01*
X139760866Y-75397551D01*
X139913569Y-75607729D01*
X140097271Y-75791431D01*
X140307449Y-75944134D01*
X140452126Y-76017851D01*
X140538923Y-76062077D01*
X140538925Y-76062077D01*
X140538928Y-76062079D01*
X140786007Y-76142360D01*
X140918206Y-76163297D01*
X141042598Y-76183000D01*
X141042603Y-76183000D01*
X141302402Y-76183000D01*
X141415798Y-76165039D01*
X141558993Y-76142360D01*
X141806072Y-76062079D01*
X142037551Y-75944134D01*
X142247729Y-75791431D01*
X142431431Y-75607729D01*
X142584134Y-75397551D01*
X142702079Y-75166072D01*
X142782360Y-74918993D01*
X142805039Y-74775798D01*
X142823000Y-74662402D01*
X142823000Y-74402597D01*
X142801447Y-74266521D01*
X142782360Y-74146007D01*
X142702079Y-73898928D01*
X142702077Y-73898925D01*
X142702077Y-73898923D01*
X142659287Y-73814945D01*
X142584134Y-73667449D01*
X142431431Y-73457271D01*
X142247729Y-73273569D01*
X142037551Y-73120866D01*
X141965264Y-73084034D01*
X141806076Y-73002922D01*
X141558993Y-72922640D01*
X141302402Y-72882000D01*
X141302397Y-72882000D01*
X141042603Y-72882000D01*
X141042598Y-72882000D01*
X140786006Y-72922640D01*
X140538923Y-73002922D01*
X140307445Y-73120868D01*
X140097274Y-73273566D01*
X140097268Y-73273571D01*
X139913571Y-73457268D01*
X139913566Y-73457274D01*
X139760868Y-73667445D01*
X139642922Y-73898923D01*
X139562640Y-74146006D01*
X139522000Y-74402597D01*
X130823000Y-74402597D01*
X130801447Y-74266521D01*
X130782360Y-74146007D01*
X130702079Y-73898928D01*
X130702077Y-73898925D01*
X130702077Y-73898923D01*
X130659287Y-73814945D01*
X130584134Y-73667449D01*
X130431431Y-73457271D01*
X130247729Y-73273569D01*
X130037551Y-73120866D01*
X129965264Y-73084034D01*
X129806076Y-73002922D01*
X129558993Y-72922640D01*
X129302402Y-72882000D01*
X129302397Y-72882000D01*
X129042603Y-72882000D01*
X129042598Y-72882000D01*
X128786006Y-72922640D01*
X128538923Y-73002922D01*
X128307445Y-73120868D01*
X128097274Y-73273566D01*
X128097268Y-73273571D01*
X127913571Y-73457268D01*
X127913566Y-73457274D01*
X127760868Y-73667445D01*
X127642922Y-73898923D01*
X127562640Y-74146006D01*
X127522000Y-74402597D01*
X124500500Y-74402597D01*
X124500500Y-68624500D01*
X124520185Y-68557461D01*
X124572989Y-68511706D01*
X124624500Y-68500500D01*
X146375500Y-68500500D01*
X146442539Y-68520185D01*
G37*
%TD.AperFunction*%
%TD*%
M02*
