%TF.GenerationSoftware,KiCad,Pcbnew,9.0.2*%
%TF.CreationDate,2025-07-31T19:10:48+02:00*%
%TF.ProjectId,ff-led-panel,66662d6c-6564-42d7-9061-6e656c2e6b69,rev?*%
%TF.SameCoordinates,Original*%
%TF.FileFunction,Legend,Top*%
%TF.FilePolarity,Positive*%
%FSLAX46Y46*%
G04 Gerber Fmt 4.6, Leading zero omitted, Abs format (unit mm)*
G04 Created by KiCad (PCBNEW 9.0.2) date 2025-07-31 19:10:48*
%MOMM*%
%LPD*%
G01*
G04 APERTURE LIST*
G04 Aperture macros list*
%AMRoundRect*
0 Rectangle with rounded corners*
0 $1 Rounding radius*
0 $2 $3 $4 $5 $6 $7 $8 $9 X,Y pos of 4 corners*
0 Add a 4 corners polygon primitive as box body*
4,1,4,$2,$3,$4,$5,$6,$7,$8,$9,$2,$3,0*
0 Add four circle primitives for the rounded corners*
1,1,$1+$1,$2,$3*
1,1,$1+$1,$4,$5*
1,1,$1+$1,$6,$7*
1,1,$1+$1,$8,$9*
0 Add four rect primitives between the rounded corners*
20,1,$1+$1,$2,$3,$4,$5,0*
20,1,$1+$1,$4,$5,$6,$7,0*
20,1,$1+$1,$6,$7,$8,$9,0*
20,1,$1+$1,$8,$9,$2,$3,0*%
G04 Aperture macros list end*
%ADD10C,0.150000*%
%ADD11C,0.101600*%
%ADD12C,0.250000*%
%ADD13C,0.120000*%
%ADD14C,0.127000*%
%ADD15C,0.100000*%
%ADD16C,0.504000*%
%ADD17C,2.300000*%
%ADD18R,1.500000X1.500000*%
%ADD19C,1.500000*%
%ADD20RoundRect,0.250000X0.275000X-0.980000X0.275000X0.980000X-0.275000X0.980000X-0.275000X-0.980000X0*%
%ADD21C,0.500000*%
%ADD22RoundRect,0.250000X1.520000X-0.980000X1.520000X0.980000X-1.520000X0.980000X-1.520000X-0.980000X0*%
%ADD23RoundRect,0.150000X0.825000X0.150000X-0.825000X0.150000X-0.825000X-0.150000X0.825000X-0.150000X0*%
%ADD24RoundRect,0.266521X0.346479X0.671479X-0.346479X0.671479X-0.346479X-0.671479X0.346479X-0.671479X0*%
%ADD25RoundRect,0.131500X0.206500X0.131500X-0.206500X0.131500X-0.206500X-0.131500X0.206500X-0.131500X0*%
%ADD26RoundRect,0.159000X0.189000X-0.159000X0.189000X0.159000X-0.189000X0.159000X-0.189000X-0.159000X0*%
%ADD27RoundRect,0.159000X-0.159000X-0.189000X0.159000X-0.189000X0.159000X0.189000X-0.159000X0.189000X0*%
%ADD28RoundRect,0.159000X0.159000X0.189000X-0.159000X0.189000X-0.159000X-0.189000X0.159000X-0.189000X0*%
%ADD29RoundRect,0.152400X0.609600X-1.063600X0.609600X1.063600X-0.609600X1.063600X-0.609600X-1.063600X0*%
%ADD30C,1.524000*%
%ADD31RoundRect,0.152400X-0.609600X1.063600X-0.609600X-1.063600X0.609600X-1.063600X0.609600X1.063600X0*%
%ADD32C,1.900000*%
%ADD33C,1.700000*%
%ADD34R,2.100000X2.000000*%
%ADD35R,2.500000X1.900000*%
%ADD36R,2.000000X2.000000*%
G04 APERTURE END LIST*
D10*
X142404761Y-81454819D02*
X142071428Y-80978628D01*
X141833333Y-81454819D02*
X141833333Y-80454819D01*
X141833333Y-80454819D02*
X142214285Y-80454819D01*
X142214285Y-80454819D02*
X142309523Y-80502438D01*
X142309523Y-80502438D02*
X142357142Y-80550057D01*
X142357142Y-80550057D02*
X142404761Y-80645295D01*
X142404761Y-80645295D02*
X142404761Y-80788152D01*
X142404761Y-80788152D02*
X142357142Y-80883390D01*
X142357142Y-80883390D02*
X142309523Y-80931009D01*
X142309523Y-80931009D02*
X142214285Y-80978628D01*
X142214285Y-80978628D02*
X141833333Y-80978628D01*
X142785714Y-81407200D02*
X142928571Y-81454819D01*
X142928571Y-81454819D02*
X143166666Y-81454819D01*
X143166666Y-81454819D02*
X143261904Y-81407200D01*
X143261904Y-81407200D02*
X143309523Y-81359580D01*
X143309523Y-81359580D02*
X143357142Y-81264342D01*
X143357142Y-81264342D02*
X143357142Y-81169104D01*
X143357142Y-81169104D02*
X143309523Y-81073866D01*
X143309523Y-81073866D02*
X143261904Y-81026247D01*
X143261904Y-81026247D02*
X143166666Y-80978628D01*
X143166666Y-80978628D02*
X142976190Y-80931009D01*
X142976190Y-80931009D02*
X142880952Y-80883390D01*
X142880952Y-80883390D02*
X142833333Y-80835771D01*
X142833333Y-80835771D02*
X142785714Y-80740533D01*
X142785714Y-80740533D02*
X142785714Y-80645295D01*
X142785714Y-80645295D02*
X142833333Y-80550057D01*
X142833333Y-80550057D02*
X142880952Y-80502438D01*
X142880952Y-80502438D02*
X142976190Y-80454819D01*
X142976190Y-80454819D02*
X143214285Y-80454819D01*
X143214285Y-80454819D02*
X143357142Y-80502438D01*
X143738095Y-80550057D02*
X143785714Y-80502438D01*
X143785714Y-80502438D02*
X143880952Y-80454819D01*
X143880952Y-80454819D02*
X144119047Y-80454819D01*
X144119047Y-80454819D02*
X144214285Y-80502438D01*
X144214285Y-80502438D02*
X144261904Y-80550057D01*
X144261904Y-80550057D02*
X144309523Y-80645295D01*
X144309523Y-80645295D02*
X144309523Y-80740533D01*
X144309523Y-80740533D02*
X144261904Y-80883390D01*
X144261904Y-80883390D02*
X143690476Y-81454819D01*
X143690476Y-81454819D02*
X144309523Y-81454819D01*
X144642857Y-80454819D02*
X145261904Y-80454819D01*
X145261904Y-80454819D02*
X144928571Y-80835771D01*
X144928571Y-80835771D02*
X145071428Y-80835771D01*
X145071428Y-80835771D02*
X145166666Y-80883390D01*
X145166666Y-80883390D02*
X145214285Y-80931009D01*
X145214285Y-80931009D02*
X145261904Y-81026247D01*
X145261904Y-81026247D02*
X145261904Y-81264342D01*
X145261904Y-81264342D02*
X145214285Y-81359580D01*
X145214285Y-81359580D02*
X145166666Y-81407200D01*
X145166666Y-81407200D02*
X145071428Y-81454819D01*
X145071428Y-81454819D02*
X144785714Y-81454819D01*
X144785714Y-81454819D02*
X144690476Y-81407200D01*
X144690476Y-81407200D02*
X144642857Y-81359580D01*
X145642857Y-80550057D02*
X145690476Y-80502438D01*
X145690476Y-80502438D02*
X145785714Y-80454819D01*
X145785714Y-80454819D02*
X146023809Y-80454819D01*
X146023809Y-80454819D02*
X146119047Y-80502438D01*
X146119047Y-80502438D02*
X146166666Y-80550057D01*
X146166666Y-80550057D02*
X146214285Y-80645295D01*
X146214285Y-80645295D02*
X146214285Y-80740533D01*
X146214285Y-80740533D02*
X146166666Y-80883390D01*
X146166666Y-80883390D02*
X145595238Y-81454819D01*
X145595238Y-81454819D02*
X146214285Y-81454819D01*
X138738095Y-82454819D02*
X138738095Y-83264342D01*
X138738095Y-83264342D02*
X138785714Y-83359580D01*
X138785714Y-83359580D02*
X138833333Y-83407200D01*
X138833333Y-83407200D02*
X138928571Y-83454819D01*
X138928571Y-83454819D02*
X139119047Y-83454819D01*
X139119047Y-83454819D02*
X139214285Y-83407200D01*
X139214285Y-83407200D02*
X139261904Y-83359580D01*
X139261904Y-83359580D02*
X139309523Y-83264342D01*
X139309523Y-83264342D02*
X139309523Y-82454819D01*
X139738095Y-82550057D02*
X139785714Y-82502438D01*
X139785714Y-82502438D02*
X139880952Y-82454819D01*
X139880952Y-82454819D02*
X140119047Y-82454819D01*
X140119047Y-82454819D02*
X140214285Y-82502438D01*
X140214285Y-82502438D02*
X140261904Y-82550057D01*
X140261904Y-82550057D02*
X140309523Y-82645295D01*
X140309523Y-82645295D02*
X140309523Y-82740533D01*
X140309523Y-82740533D02*
X140261904Y-82883390D01*
X140261904Y-82883390D02*
X139690476Y-83454819D01*
X139690476Y-83454819D02*
X140309523Y-83454819D01*
X129983333Y-116359580D02*
X129935714Y-116407200D01*
X129935714Y-116407200D02*
X129792857Y-116454819D01*
X129792857Y-116454819D02*
X129697619Y-116454819D01*
X129697619Y-116454819D02*
X129554762Y-116407200D01*
X129554762Y-116407200D02*
X129459524Y-116311961D01*
X129459524Y-116311961D02*
X129411905Y-116216723D01*
X129411905Y-116216723D02*
X129364286Y-116026247D01*
X129364286Y-116026247D02*
X129364286Y-115883390D01*
X129364286Y-115883390D02*
X129411905Y-115692914D01*
X129411905Y-115692914D02*
X129459524Y-115597676D01*
X129459524Y-115597676D02*
X129554762Y-115502438D01*
X129554762Y-115502438D02*
X129697619Y-115454819D01*
X129697619Y-115454819D02*
X129792857Y-115454819D01*
X129792857Y-115454819D02*
X129935714Y-115502438D01*
X129935714Y-115502438D02*
X129983333Y-115550057D01*
X130935714Y-116454819D02*
X130364286Y-116454819D01*
X130650000Y-116454819D02*
X130650000Y-115454819D01*
X130650000Y-115454819D02*
X130554762Y-115597676D01*
X130554762Y-115597676D02*
X130459524Y-115692914D01*
X130459524Y-115692914D02*
X130364286Y-115740533D01*
X140411905Y-116454819D02*
X140411905Y-115454819D01*
X140411905Y-115454819D02*
X140650000Y-115454819D01*
X140650000Y-115454819D02*
X140792857Y-115502438D01*
X140792857Y-115502438D02*
X140888095Y-115597676D01*
X140888095Y-115597676D02*
X140935714Y-115692914D01*
X140935714Y-115692914D02*
X140983333Y-115883390D01*
X140983333Y-115883390D02*
X140983333Y-116026247D01*
X140983333Y-116026247D02*
X140935714Y-116216723D01*
X140935714Y-116216723D02*
X140888095Y-116311961D01*
X140888095Y-116311961D02*
X140792857Y-116407200D01*
X140792857Y-116407200D02*
X140650000Y-116454819D01*
X140650000Y-116454819D02*
X140411905Y-116454819D01*
X141935714Y-116454819D02*
X141364286Y-116454819D01*
X141650000Y-116454819D02*
X141650000Y-115454819D01*
X141650000Y-115454819D02*
X141554762Y-115597676D01*
X141554762Y-115597676D02*
X141459524Y-115692914D01*
X141459524Y-115692914D02*
X141364286Y-115740533D01*
X135833333Y-116359580D02*
X135785714Y-116407200D01*
X135785714Y-116407200D02*
X135642857Y-116454819D01*
X135642857Y-116454819D02*
X135547619Y-116454819D01*
X135547619Y-116454819D02*
X135404762Y-116407200D01*
X135404762Y-116407200D02*
X135309524Y-116311961D01*
X135309524Y-116311961D02*
X135261905Y-116216723D01*
X135261905Y-116216723D02*
X135214286Y-116026247D01*
X135214286Y-116026247D02*
X135214286Y-115883390D01*
X135214286Y-115883390D02*
X135261905Y-115692914D01*
X135261905Y-115692914D02*
X135309524Y-115597676D01*
X135309524Y-115597676D02*
X135404762Y-115502438D01*
X135404762Y-115502438D02*
X135547619Y-115454819D01*
X135547619Y-115454819D02*
X135642857Y-115454819D01*
X135642857Y-115454819D02*
X135785714Y-115502438D01*
X135785714Y-115502438D02*
X135833333Y-115550057D01*
X136214286Y-115550057D02*
X136261905Y-115502438D01*
X136261905Y-115502438D02*
X136357143Y-115454819D01*
X136357143Y-115454819D02*
X136595238Y-115454819D01*
X136595238Y-115454819D02*
X136690476Y-115502438D01*
X136690476Y-115502438D02*
X136738095Y-115550057D01*
X136738095Y-115550057D02*
X136785714Y-115645295D01*
X136785714Y-115645295D02*
X136785714Y-115740533D01*
X136785714Y-115740533D02*
X136738095Y-115883390D01*
X136738095Y-115883390D02*
X136166667Y-116454819D01*
X136166667Y-116454819D02*
X136785714Y-116454819D01*
X141833333Y-85359580D02*
X141785714Y-85407200D01*
X141785714Y-85407200D02*
X141642857Y-85454819D01*
X141642857Y-85454819D02*
X141547619Y-85454819D01*
X141547619Y-85454819D02*
X141404762Y-85407200D01*
X141404762Y-85407200D02*
X141309524Y-85311961D01*
X141309524Y-85311961D02*
X141261905Y-85216723D01*
X141261905Y-85216723D02*
X141214286Y-85026247D01*
X141214286Y-85026247D02*
X141214286Y-84883390D01*
X141214286Y-84883390D02*
X141261905Y-84692914D01*
X141261905Y-84692914D02*
X141309524Y-84597676D01*
X141309524Y-84597676D02*
X141404762Y-84502438D01*
X141404762Y-84502438D02*
X141547619Y-84454819D01*
X141547619Y-84454819D02*
X141642857Y-84454819D01*
X141642857Y-84454819D02*
X141785714Y-84502438D01*
X141785714Y-84502438D02*
X141833333Y-84550057D01*
X142166667Y-84454819D02*
X142833333Y-84454819D01*
X142833333Y-84454819D02*
X142404762Y-85454819D01*
X125833333Y-92359580D02*
X125785714Y-92407200D01*
X125785714Y-92407200D02*
X125642857Y-92454819D01*
X125642857Y-92454819D02*
X125547619Y-92454819D01*
X125547619Y-92454819D02*
X125404762Y-92407200D01*
X125404762Y-92407200D02*
X125309524Y-92311961D01*
X125309524Y-92311961D02*
X125261905Y-92216723D01*
X125261905Y-92216723D02*
X125214286Y-92026247D01*
X125214286Y-92026247D02*
X125214286Y-91883390D01*
X125214286Y-91883390D02*
X125261905Y-91692914D01*
X125261905Y-91692914D02*
X125309524Y-91597676D01*
X125309524Y-91597676D02*
X125404762Y-91502438D01*
X125404762Y-91502438D02*
X125547619Y-91454819D01*
X125547619Y-91454819D02*
X125642857Y-91454819D01*
X125642857Y-91454819D02*
X125785714Y-91502438D01*
X125785714Y-91502438D02*
X125833333Y-91550057D01*
X126166667Y-91454819D02*
X126785714Y-91454819D01*
X126785714Y-91454819D02*
X126452381Y-91835771D01*
X126452381Y-91835771D02*
X126595238Y-91835771D01*
X126595238Y-91835771D02*
X126690476Y-91883390D01*
X126690476Y-91883390D02*
X126738095Y-91931009D01*
X126738095Y-91931009D02*
X126785714Y-92026247D01*
X126785714Y-92026247D02*
X126785714Y-92264342D01*
X126785714Y-92264342D02*
X126738095Y-92359580D01*
X126738095Y-92359580D02*
X126690476Y-92407200D01*
X126690476Y-92407200D02*
X126595238Y-92454819D01*
X126595238Y-92454819D02*
X126309524Y-92454819D01*
X126309524Y-92454819D02*
X126214286Y-92407200D01*
X126214286Y-92407200D02*
X126166667Y-92359580D01*
X141833333Y-92359580D02*
X141785714Y-92407200D01*
X141785714Y-92407200D02*
X141642857Y-92454819D01*
X141642857Y-92454819D02*
X141547619Y-92454819D01*
X141547619Y-92454819D02*
X141404762Y-92407200D01*
X141404762Y-92407200D02*
X141309524Y-92311961D01*
X141309524Y-92311961D02*
X141261905Y-92216723D01*
X141261905Y-92216723D02*
X141214286Y-92026247D01*
X141214286Y-92026247D02*
X141214286Y-91883390D01*
X141214286Y-91883390D02*
X141261905Y-91692914D01*
X141261905Y-91692914D02*
X141309524Y-91597676D01*
X141309524Y-91597676D02*
X141404762Y-91502438D01*
X141404762Y-91502438D02*
X141547619Y-91454819D01*
X141547619Y-91454819D02*
X141642857Y-91454819D01*
X141642857Y-91454819D02*
X141785714Y-91502438D01*
X141785714Y-91502438D02*
X141833333Y-91550057D01*
X142690476Y-91788152D02*
X142690476Y-92454819D01*
X142452381Y-91407200D02*
X142214286Y-92121485D01*
X142214286Y-92121485D02*
X142833333Y-92121485D01*
D11*
X144516190Y-94653479D02*
X144516190Y-95167526D01*
X144516190Y-95167526D02*
X144546428Y-95228002D01*
X144546428Y-95228002D02*
X144576666Y-95258241D01*
X144576666Y-95258241D02*
X144637142Y-95288479D01*
X144637142Y-95288479D02*
X144758095Y-95288479D01*
X144758095Y-95288479D02*
X144818571Y-95258241D01*
X144818571Y-95258241D02*
X144848809Y-95228002D01*
X144848809Y-95228002D02*
X144879047Y-95167526D01*
X144879047Y-95167526D02*
X144879047Y-94653479D01*
X145514047Y-95288479D02*
X145151190Y-95288479D01*
X145332618Y-95288479D02*
X145332618Y-94653479D01*
X145332618Y-94653479D02*
X145272142Y-94744193D01*
X145272142Y-94744193D02*
X145211666Y-94804669D01*
X145211666Y-94804669D02*
X145151190Y-94834907D01*
D10*
X143380952Y-142454819D02*
X142809524Y-142454819D01*
X143095238Y-142454819D02*
X143095238Y-141454819D01*
X143095238Y-141454819D02*
X143000000Y-141597676D01*
X143000000Y-141597676D02*
X142904762Y-141692914D01*
X142904762Y-141692914D02*
X142809524Y-141740533D01*
X143761905Y-141550057D02*
X143809524Y-141502438D01*
X143809524Y-141502438D02*
X143904762Y-141454819D01*
X143904762Y-141454819D02*
X144142857Y-141454819D01*
X144142857Y-141454819D02*
X144238095Y-141502438D01*
X144238095Y-141502438D02*
X144285714Y-141550057D01*
X144285714Y-141550057D02*
X144333333Y-141645295D01*
X144333333Y-141645295D02*
X144333333Y-141740533D01*
X144333333Y-141740533D02*
X144285714Y-141883390D01*
X144285714Y-141883390D02*
X143714286Y-142454819D01*
X143714286Y-142454819D02*
X144333333Y-142454819D01*
X144619048Y-141454819D02*
X144952381Y-142454819D01*
X144952381Y-142454819D02*
X145285714Y-141454819D01*
X141833333Y-88859580D02*
X141785714Y-88907200D01*
X141785714Y-88907200D02*
X141642857Y-88954819D01*
X141642857Y-88954819D02*
X141547619Y-88954819D01*
X141547619Y-88954819D02*
X141404762Y-88907200D01*
X141404762Y-88907200D02*
X141309524Y-88811961D01*
X141309524Y-88811961D02*
X141261905Y-88716723D01*
X141261905Y-88716723D02*
X141214286Y-88526247D01*
X141214286Y-88526247D02*
X141214286Y-88383390D01*
X141214286Y-88383390D02*
X141261905Y-88192914D01*
X141261905Y-88192914D02*
X141309524Y-88097676D01*
X141309524Y-88097676D02*
X141404762Y-88002438D01*
X141404762Y-88002438D02*
X141547619Y-87954819D01*
X141547619Y-87954819D02*
X141642857Y-87954819D01*
X141642857Y-87954819D02*
X141785714Y-88002438D01*
X141785714Y-88002438D02*
X141833333Y-88050057D01*
X142738095Y-87954819D02*
X142261905Y-87954819D01*
X142261905Y-87954819D02*
X142214286Y-88431009D01*
X142214286Y-88431009D02*
X142261905Y-88383390D01*
X142261905Y-88383390D02*
X142357143Y-88335771D01*
X142357143Y-88335771D02*
X142595238Y-88335771D01*
X142595238Y-88335771D02*
X142690476Y-88383390D01*
X142690476Y-88383390D02*
X142738095Y-88431009D01*
X142738095Y-88431009D02*
X142785714Y-88526247D01*
X142785714Y-88526247D02*
X142785714Y-88764342D01*
X142785714Y-88764342D02*
X142738095Y-88859580D01*
X142738095Y-88859580D02*
X142690476Y-88907200D01*
X142690476Y-88907200D02*
X142595238Y-88954819D01*
X142595238Y-88954819D02*
X142357143Y-88954819D01*
X142357143Y-88954819D02*
X142261905Y-88907200D01*
X142261905Y-88907200D02*
X142214286Y-88859580D01*
D12*
%TO.C,RS232*%
X128072500Y-70832500D02*
X128072500Y-72032500D01*
X129072500Y-70832500D02*
X128072500Y-70832500D01*
X129072500Y-72032500D02*
X128072500Y-72032500D01*
X129072500Y-73132500D02*
X129072500Y-68532500D01*
X129072500Y-81532500D02*
X129072500Y-75932500D01*
X141272500Y-68532500D02*
X129072500Y-68532500D01*
X141272500Y-68532500D02*
X141272500Y-73132500D01*
X141272500Y-70832500D02*
X142272500Y-70832500D01*
X141272500Y-72032500D02*
X142272500Y-72032500D01*
X141272500Y-75932500D02*
X141272500Y-81532500D01*
X141272500Y-81532500D02*
X129072500Y-81532500D01*
X142272500Y-72032500D02*
X142272500Y-70832500D01*
D10*
%TO.C,U3*%
X131600000Y-123600000D02*
X138400000Y-123600000D01*
X131600000Y-126400000D02*
X131600000Y-123600000D01*
X138400000Y-123600000D02*
X138400000Y-126400000D01*
X138400000Y-126400000D02*
X131600000Y-126400000D01*
X138030000Y-123250000D02*
G75*
G02*
X137970000Y-123250000I-30000J0D01*
G01*
X137970000Y-123250000D02*
G75*
G02*
X138030000Y-123250000I30000J0D01*
G01*
D13*
%TO.C,U2*%
X134461800Y-83305000D02*
X132511800Y-83305000D01*
X134461800Y-83305000D02*
X136411800Y-83305000D01*
X134461800Y-93425000D02*
X132511800Y-93425000D01*
X134461800Y-93425000D02*
X136411800Y-93425000D01*
X137401800Y-93700000D02*
X136921800Y-93700000D01*
X137161800Y-93370000D01*
X137401800Y-93700000D01*
G36*
X137401800Y-93700000D02*
G01*
X136921800Y-93700000D01*
X137161800Y-93370000D01*
X137401800Y-93700000D01*
G37*
D10*
%TO.C,D1*%
X142760000Y-117150000D02*
X140100000Y-117150000D01*
X142760000Y-118850000D02*
X140100000Y-118850000D01*
X142760000Y-118850000D02*
X142760000Y-117150000D01*
D14*
%TO.C,U1*%
X124206000Y-98470000D02*
X124206000Y-112440000D01*
X126111000Y-96565000D02*
X143256000Y-96565000D01*
X126111000Y-114345000D02*
X143256000Y-114345000D01*
X145161000Y-100960000D02*
X146171272Y-100963728D01*
D15*
X145161000Y-112440000D02*
X145161000Y-98470000D01*
D14*
X145161000Y-112440000D02*
X145161000Y-98470000D01*
X146171000Y-109959000D02*
X145161000Y-109959000D01*
X146671000Y-101463728D02*
X146671000Y-109459000D01*
X124206000Y-98470000D02*
G75*
G02*
X126111000Y-96565000I1905001J-1D01*
G01*
X126111000Y-114345000D02*
G75*
G02*
X124206000Y-112440000I0J1905000D01*
G01*
X143256000Y-96565000D02*
G75*
G02*
X145161000Y-98470000I-1J-1905001D01*
G01*
X145161000Y-112440000D02*
G75*
G02*
X143256000Y-114345000I-1905000J0D01*
G01*
X146171272Y-100963728D02*
G75*
G02*
X146670999Y-101463728I-291J-500018D01*
G01*
X146671000Y-109459000D02*
G75*
G02*
X146171000Y-109959000I-500000J0D01*
G01*
D16*
X144242000Y-97598000D02*
G75*
G02*
X143738000Y-97598000I-252000J0D01*
G01*
X143738000Y-97598000D02*
G75*
G02*
X144242000Y-97598000I252000J0D01*
G01*
X145122000Y-96455000D02*
G75*
G02*
X144618000Y-96455000I-252000J0D01*
G01*
X144618000Y-96455000D02*
G75*
G02*
X145122000Y-96455000I252000J0D01*
G01*
D12*
%TO.C,12V*%
X130950000Y-130030000D02*
X130950000Y-131770000D01*
X130950000Y-137770000D02*
X130950000Y-134230000D01*
X130950000Y-142070000D02*
X140050000Y-142070000D01*
X130950000Y-143800000D02*
X130950000Y-140230000D01*
X137460000Y-128900000D02*
X137460000Y-130030000D01*
X137460000Y-130030000D02*
X130950000Y-130030000D01*
X140050000Y-128900000D02*
X137460000Y-128900000D01*
X140050000Y-128900000D02*
X140050000Y-131670000D01*
X140050000Y-131080000D02*
X130950000Y-131080000D01*
X140050000Y-134130000D02*
X140050000Y-137820000D01*
X140050000Y-140180000D02*
X140050000Y-143800000D01*
X140050000Y-143800000D02*
X130950000Y-143800000D01*
%TD*%
%LPC*%
D17*
%TO.C,RS232*%
X141172500Y-74532500D03*
X129172500Y-74532500D03*
D18*
X133642500Y-76832500D03*
D19*
X134662500Y-79372500D03*
X135682500Y-76832500D03*
X136702500Y-79372500D03*
%TD*%
D20*
%TO.C,U3*%
X137300000Y-122140000D03*
X135000000Y-122140000D03*
X132700000Y-122140000D03*
D21*
X134000000Y-128000000D03*
X135000000Y-128000000D03*
D22*
X135000000Y-128000000D03*
D21*
X136000000Y-128000000D03*
%TD*%
D23*
%TO.C,U2*%
X136936800Y-92810000D03*
X136936800Y-91540000D03*
X136936800Y-90270000D03*
X136936800Y-89000000D03*
X136936800Y-87730000D03*
X136936800Y-86460000D03*
X136936800Y-85190000D03*
X136936800Y-83920000D03*
X131986800Y-83920000D03*
X131986800Y-85190000D03*
X131986800Y-86460000D03*
X131986800Y-87730000D03*
X131986800Y-89000000D03*
X131986800Y-90270000D03*
X131986800Y-91540000D03*
X131986800Y-92810000D03*
%TD*%
D24*
%TO.C,C1*%
X131630000Y-118000000D03*
X128670000Y-118000000D03*
%TD*%
D25*
%TO.C,D1*%
X142200000Y-118000000D03*
X140100000Y-118000000D03*
%TD*%
D24*
%TO.C,C2*%
X137480000Y-118000000D03*
X134520000Y-118000000D03*
%TD*%
D26*
%TO.C,C7*%
X139500000Y-85500000D03*
X139500000Y-84500000D03*
%TD*%
D27*
%TO.C,C6*%
X135000000Y-95000000D03*
X136000000Y-95000000D03*
%TD*%
D28*
%TO.C,C3*%
X129000000Y-92000000D03*
X128000000Y-92000000D03*
%TD*%
D26*
%TO.C,C4*%
X139500000Y-92500000D03*
X139500000Y-91500000D03*
%TD*%
D29*
%TO.C,U1*%
X142240000Y-97000000D03*
D30*
X142240000Y-97835000D03*
D29*
X139700000Y-97000000D03*
D30*
X139700000Y-97835000D03*
D29*
X137160000Y-97000000D03*
D30*
X137160000Y-97835000D03*
D29*
X134620000Y-97000000D03*
D30*
X134620000Y-97835000D03*
D29*
X132080000Y-97000000D03*
D30*
X132080000Y-97835000D03*
D29*
X129540000Y-97000000D03*
D30*
X129540000Y-97835000D03*
D29*
X127000000Y-97000000D03*
D30*
X127000000Y-97835000D03*
X127000000Y-113075000D03*
D31*
X127000000Y-113910000D03*
D30*
X129540000Y-113075000D03*
D31*
X129540000Y-113910000D03*
D30*
X132080000Y-113075000D03*
D31*
X132080000Y-113910000D03*
D30*
X134620000Y-113075000D03*
D31*
X134620000Y-113910000D03*
D30*
X137160000Y-113075000D03*
D31*
X137160000Y-113910000D03*
D30*
X139700000Y-113075000D03*
D31*
X139700000Y-113910000D03*
D30*
X142240000Y-113075000D03*
D31*
X142240000Y-113910000D03*
%TD*%
D32*
%TO.C,12V*%
X135550000Y-134700000D03*
D33*
X135550000Y-139000000D03*
D34*
X130050000Y-133000000D03*
X130050000Y-139000000D03*
D35*
X141250000Y-139000000D03*
D36*
X141000000Y-132900000D03*
%TD*%
D26*
%TO.C,C5*%
X139500000Y-89000000D03*
X139500000Y-88000000D03*
%TD*%
%LPD*%
M02*
