%TF.GenerationSoftware,KiCad,Pcbnew,9.0.2*%
%TF.CreationDate,2025-07-31T19:10:48+02:00*%
%TF.ProjectId,ff-led-panel,66662d6c-6564-42d7-9061-6e656c2e6b69,rev?*%
%TF.SameCoordinates,Original*%
%TF.FileFunction,Copper,L2,Bot*%
%TF.FilePolarity,Positive*%
%FSLAX46Y46*%
G04 Gerber Fmt 4.6, Leading zero omitted, Abs format (unit mm)*
G04 Created by KiCad (PCBNEW 9.0.2) date 2025-07-31 19:10:48*
%MOMM*%
%LPD*%
G01*
G04 APERTURE LIST*
G04 Aperture macros list*
%AMRoundRect*
0 Rectangle with rounded corners*
0 $1 Rounding radius*
0 $2 $3 $4 $5 $6 $7 $8 $9 X,Y pos of 4 corners*
0 Add a 4 corners polygon primitive as box body*
4,1,4,$2,$3,$4,$5,$6,$7,$8,$9,$2,$3,0*
0 Add four circle primitives for the rounded corners*
1,1,$1+$1,$2,$3*
1,1,$1+$1,$4,$5*
1,1,$1+$1,$6,$7*
1,1,$1+$1,$8,$9*
0 Add four rect primitives between the rounded corners*
20,1,$1+$1,$2,$3,$4,$5,0*
20,1,$1+$1,$4,$5,$6,$7,0*
20,1,$1+$1,$6,$7,$8,$9,0*
20,1,$1+$1,$8,$9,$2,$3,0*%
G04 Aperture macros list end*
%TA.AperFunction,ComponentPad*%
%ADD10C,2.300000*%
%TD*%
%TA.AperFunction,ComponentPad*%
%ADD11R,1.500000X1.500000*%
%TD*%
%TA.AperFunction,ComponentPad*%
%ADD12C,1.500000*%
%TD*%
%TA.AperFunction,ComponentPad*%
%ADD13C,0.500000*%
%TD*%
%TA.AperFunction,SMDPad,CuDef*%
%ADD14RoundRect,0.250000X1.520000X-0.980000X1.520000X0.980000X-1.520000X0.980000X-1.520000X-0.980000X0*%
%TD*%
%TA.AperFunction,ComponentPad*%
%ADD15C,1.524000*%
%TD*%
%TA.AperFunction,ComponentPad*%
%ADD16C,1.900000*%
%TD*%
%TA.AperFunction,ComponentPad*%
%ADD17C,1.700000*%
%TD*%
%TA.AperFunction,ViaPad*%
%ADD18C,0.600000*%
%TD*%
%TA.AperFunction,Conductor*%
%ADD19C,0.400000*%
%TD*%
%TA.AperFunction,Conductor*%
%ADD20C,0.300000*%
%TD*%
G04 APERTURE END LIST*
D10*
%TO.P,RS232,*%
%TO.N,*%
X141172500Y-74532500D03*
X129172500Y-74532500D03*
D11*
%TO.P,RS232,1,1*%
%TO.N,/RS232 TX*%
X133642500Y-76832500D03*
D12*
%TO.P,RS232,2,2*%
%TO.N,/RS232 RX*%
X134662500Y-79372500D03*
%TO.P,RS232,3,3*%
%TO.N,unconnected-(RJ11-Pad3)*%
X135682500Y-76832500D03*
%TO.P,RS232,4,4*%
%TO.N,GND*%
X136702500Y-79372500D03*
%TD*%
D13*
%TO.P,U3,4,VOUT*%
%TO.N,/5V*%
X134000000Y-128000000D03*
X135000000Y-128000000D03*
D14*
X135000000Y-128000000D03*
D13*
X136000000Y-128000000D03*
%TD*%
D15*
%TO.P,U1,1,GPIO2/A0/D0*%
%TO.N,/UART RX*%
X142240000Y-97835000D03*
%TO.P,U1,2,GPIO3/A1/D1*%
%TO.N,/UART TX*%
X139700000Y-97835000D03*
%TO.P,U1,3,GPIO4/A2/D2*%
%TO.N,unconnected-(U1-GPIO4{slash}A2{slash}D2-Pad3)_1*%
X137160000Y-97835000D03*
%TO.P,U1,4,GPIO5/A3/D3*%
%TO.N,unconnected-(U1-GPIO5{slash}A3{slash}D3-Pad4)*%
X134620000Y-97835000D03*
%TO.P,U1,5,GPIO6/D4/SDA*%
%TO.N,unconnected-(U1-GPIO6{slash}D4{slash}SDA-Pad5)_1*%
X132080000Y-97835000D03*
%TO.P,U1,6,GPIO7/D5/SCL*%
%TO.N,unconnected-(U1-GPIO7{slash}D5{slash}SCL-Pad6)_1*%
X129540000Y-97835000D03*
%TO.P,U1,7,GPIO21/D6/TX*%
%TO.N,unconnected-(U1-GPIO21{slash}D6{slash}TX-Pad7)_1*%
X127000000Y-97835000D03*
%TO.P,U1,8,GPIO20/D7/RX*%
%TO.N,unconnected-(U1-GPIO20{slash}D7{slash}RX-Pad8)*%
X127000000Y-113075000D03*
%TO.P,U1,9,GPIO8/D8/SCK*%
%TO.N,unconnected-(U1-GPIO8{slash}D8{slash}SCK-Pad9)*%
X129540000Y-113075000D03*
%TO.P,U1,10,GPIO9/D9/MISO*%
%TO.N,unconnected-(U1-GPIO9{slash}D9{slash}MISO-Pad10)_1*%
X132080000Y-113075000D03*
%TO.P,U1,11,GPIO10/D10/MOSI*%
%TO.N,unconnected-(U1-GPIO10{slash}D10{slash}MOSI-Pad11)*%
X134620000Y-113075000D03*
%TO.P,U1,12,VCC_3V3*%
%TO.N,/3.3V*%
X137160000Y-113075000D03*
%TO.P,U1,13,GND*%
%TO.N,GND*%
X139700000Y-113075000D03*
%TO.P,U1,14,VBUS*%
%TO.N,/5VD*%
X142240000Y-113075000D03*
%TD*%
D16*
%TO.P,12V,*%
%TO.N,*%
X135550000Y-134700000D03*
D17*
X135550000Y-139000000D03*
%TD*%
D18*
%TO.N,/UART TX*%
X133737500Y-86628700D03*
%TO.N,/UART RX*%
X133479200Y-88070400D03*
%TD*%
D19*
%TO.N,/5V*%
X134000000Y-128000000D02*
X135000000Y-128000000D01*
X136000000Y-128000000D02*
X135000000Y-128000000D01*
D20*
%TO.N,/UART TX*%
X132827400Y-90962400D02*
X132827400Y-87538800D01*
X132827400Y-87538800D02*
X133737500Y-86628700D01*
X139700000Y-97835000D02*
X132827400Y-90962400D01*
%TO.N,/UART RX*%
X142240000Y-97835000D02*
X142240000Y-96831200D01*
X142240000Y-96831200D02*
X133479200Y-88070400D01*
%TD*%
M02*
