%TF.GenerationSoftware,KiCad,Pcbnew,9.0.2*%
%TF.CreationDate,2025-07-31T19:10:47+02:00*%
%TF.ProjectId,ff-led-panel,66662d6c-6564-42d7-9061-6e656c2e6b69,rev?*%
%TF.SameCoordinates,Original*%
%TF.FileFunction,Copper,L1,Top*%
%TF.FilePolarity,Positive*%
%FSLAX46Y46*%
G04 Gerber Fmt 4.6, Leading zero omitted, Abs format (unit mm)*
G04 Created by KiCad (PCBNEW 9.0.2) date 2025-07-31 19:10:47*
%MOMM*%
%LPD*%
G01*
G04 APERTURE LIST*
G04 Aperture macros list*
%AMRoundRect*
0 Rectangle with rounded corners*
0 $1 Rounding radius*
0 $2 $3 $4 $5 $6 $7 $8 $9 X,Y pos of 4 corners*
0 Add a 4 corners polygon primitive as box body*
4,1,4,$2,$3,$4,$5,$6,$7,$8,$9,$2,$3,0*
0 Add four circle primitives for the rounded corners*
1,1,$1+$1,$2,$3*
1,1,$1+$1,$4,$5*
1,1,$1+$1,$6,$7*
1,1,$1+$1,$8,$9*
0 Add four rect primitives between the rounded corners*
20,1,$1+$1,$2,$3,$4,$5,0*
20,1,$1+$1,$4,$5,$6,$7,0*
20,1,$1+$1,$6,$7,$8,$9,0*
20,1,$1+$1,$8,$9,$2,$3,0*%
G04 Aperture macros list end*
%TA.AperFunction,ComponentPad*%
%ADD10C,2.300000*%
%TD*%
%TA.AperFunction,ComponentPad*%
%ADD11R,1.500000X1.500000*%
%TD*%
%TA.AperFunction,ComponentPad*%
%ADD12C,1.500000*%
%TD*%
%TA.AperFunction,SMDPad,CuDef*%
%ADD13RoundRect,0.250000X0.275000X-0.980000X0.275000X0.980000X-0.275000X0.980000X-0.275000X-0.980000X0*%
%TD*%
%TA.AperFunction,ComponentPad*%
%ADD14C,0.500000*%
%TD*%
%TA.AperFunction,SMDPad,CuDef*%
%ADD15RoundRect,0.250000X1.520000X-0.980000X1.520000X0.980000X-1.520000X0.980000X-1.520000X-0.980000X0*%
%TD*%
%TA.AperFunction,SMDPad,CuDef*%
%ADD16RoundRect,0.150000X0.825000X0.150000X-0.825000X0.150000X-0.825000X-0.150000X0.825000X-0.150000X0*%
%TD*%
%TA.AperFunction,SMDPad,CuDef*%
%ADD17RoundRect,0.250000X0.325000X0.650000X-0.325000X0.650000X-0.325000X-0.650000X0.325000X-0.650000X0*%
%TD*%
%TA.AperFunction,SMDPad,CuDef*%
%ADD18RoundRect,0.112500X0.187500X0.112500X-0.187500X0.112500X-0.187500X-0.112500X0.187500X-0.112500X0*%
%TD*%
%TA.AperFunction,SMDPad,CuDef*%
%ADD19RoundRect,0.140000X0.170000X-0.140000X0.170000X0.140000X-0.170000X0.140000X-0.170000X-0.140000X0*%
%TD*%
%TA.AperFunction,SMDPad,CuDef*%
%ADD20RoundRect,0.140000X-0.140000X-0.170000X0.140000X-0.170000X0.140000X0.170000X-0.140000X0.170000X0*%
%TD*%
%TA.AperFunction,SMDPad,CuDef*%
%ADD21RoundRect,0.140000X0.140000X0.170000X-0.140000X0.170000X-0.140000X-0.170000X0.140000X-0.170000X0*%
%TD*%
%TA.AperFunction,SMDPad,CuDef*%
%ADD22RoundRect,0.152400X0.609600X-1.063600X0.609600X1.063600X-0.609600X1.063600X-0.609600X-1.063600X0*%
%TD*%
%TA.AperFunction,ComponentPad*%
%ADD23C,1.524000*%
%TD*%
%TA.AperFunction,SMDPad,CuDef*%
%ADD24RoundRect,0.152400X-0.609600X1.063600X-0.609600X-1.063600X0.609600X-1.063600X0.609600X1.063600X0*%
%TD*%
%TA.AperFunction,ComponentPad*%
%ADD25C,1.900000*%
%TD*%
%TA.AperFunction,ComponentPad*%
%ADD26C,1.700000*%
%TD*%
%TA.AperFunction,SMDPad,CuDef*%
%ADD27R,2.100000X2.000000*%
%TD*%
%TA.AperFunction,SMDPad,CuDef*%
%ADD28R,2.500000X1.900000*%
%TD*%
%TA.AperFunction,SMDPad,CuDef*%
%ADD29R,2.000000X2.000000*%
%TD*%
%TA.AperFunction,ViaPad*%
%ADD30C,0.600000*%
%TD*%
%TA.AperFunction,Conductor*%
%ADD31C,0.300000*%
%TD*%
%TA.AperFunction,Conductor*%
%ADD32C,0.400000*%
%TD*%
G04 APERTURE END LIST*
D10*
%TO.P,RS232,*%
%TO.N,*%
X141172500Y-74532500D03*
X129172500Y-74532500D03*
D11*
%TO.P,RS232,1,1*%
%TO.N,/RS232 TX*%
X133642500Y-76832500D03*
D12*
%TO.P,RS232,2,2*%
%TO.N,/RS232 RX*%
X134662500Y-79372500D03*
%TO.P,RS232,3,3*%
%TO.N,unconnected-(RJ11-Pad3)*%
X135682500Y-76832500D03*
%TO.P,RS232,4,4*%
%TO.N,GND*%
X136702500Y-79372500D03*
%TD*%
D13*
%TO.P,U3,1,GND*%
%TO.N,GND*%
X137300000Y-122140000D03*
%TO.P,U3,2,VOUT*%
%TO.N,/5V*%
X135000000Y-122140000D03*
%TO.P,U3,3,VIN*%
%TO.N,/12V*%
X132700000Y-122140000D03*
D14*
%TO.P,U3,4,VOUT*%
%TO.N,/5V*%
X134000000Y-128000000D03*
X135000000Y-128000000D03*
D15*
X135000000Y-128000000D03*
D14*
X136000000Y-128000000D03*
%TD*%
D16*
%TO.P,U2,1,C1+*%
%TO.N,Net-(U2-C1+)*%
X136936800Y-92810000D03*
%TO.P,U2,2,VS+*%
%TO.N,Net-(U2-VS+)*%
X136936800Y-91540000D03*
%TO.P,U2,3,C1-*%
%TO.N,Net-(U2-C1-)*%
X136936800Y-90270000D03*
%TO.P,U2,4,C2+*%
%TO.N,Net-(U2-C2+)*%
X136936800Y-89000000D03*
%TO.P,U2,5,C2-*%
%TO.N,Net-(U2-C2-)*%
X136936800Y-87730000D03*
%TO.P,U2,6,VS-*%
%TO.N,Net-(U2-VS-)*%
X136936800Y-86460000D03*
%TO.P,U2,7,T2OUT*%
%TO.N,unconnected-(U2-T2OUT-Pad7)*%
X136936800Y-85190000D03*
%TO.P,U2,8,R2IN*%
%TO.N,unconnected-(U2-R2IN-Pad8)*%
X136936800Y-83920000D03*
%TO.P,U2,9,R2OUT*%
%TO.N,unconnected-(U2-R2OUT-Pad9)*%
X131986800Y-83920000D03*
%TO.P,U2,10,T2IN*%
%TO.N,unconnected-(U2-T2IN-Pad10)*%
X131986800Y-85190000D03*
%TO.P,U2,11,T1IN*%
%TO.N,/UART TX*%
X131986800Y-86460000D03*
%TO.P,U2,12,R1OUT*%
%TO.N,/UART RX*%
X131986800Y-87730000D03*
%TO.P,U2,13,R1IN*%
%TO.N,/RS232 RX*%
X131986800Y-89000000D03*
%TO.P,U2,14,T1OUT*%
%TO.N,/RS232 TX*%
X131986800Y-90270000D03*
%TO.P,U2,15,GND*%
%TO.N,GND*%
X131986800Y-91540000D03*
%TO.P,U2,16,VCC*%
%TO.N,/3.3V*%
X131986800Y-92810000D03*
%TD*%
D17*
%TO.P,C1,1*%
%TO.N,/12V*%
X131630000Y-118000000D03*
%TO.P,C1,2*%
%TO.N,GND*%
X128670000Y-118000000D03*
%TD*%
D18*
%TO.P,D1,1*%
%TO.N,/5VD*%
X142200000Y-118000000D03*
%TO.P,D1,2*%
%TO.N,/5V*%
X140100000Y-118000000D03*
%TD*%
D17*
%TO.P,C2,1*%
%TO.N,/5V*%
X137480000Y-118000000D03*
%TO.P,C2,2*%
%TO.N,GND*%
X134520000Y-118000000D03*
%TD*%
D19*
%TO.P,C7,1*%
%TO.N,Net-(U2-VS-)*%
X139500000Y-85500000D03*
%TO.P,C7,2*%
%TO.N,GND*%
X139500000Y-84500000D03*
%TD*%
D20*
%TO.P,C6,1*%
%TO.N,Net-(U2-VS+)*%
X135000000Y-95000000D03*
%TO.P,C6,2*%
%TO.N,GND*%
X136000000Y-95000000D03*
%TD*%
D21*
%TO.P,C3,1*%
%TO.N,/3.3V*%
X129000000Y-92000000D03*
%TO.P,C3,2*%
%TO.N,GND*%
X128000000Y-92000000D03*
%TD*%
D19*
%TO.P,C4,1*%
%TO.N,Net-(U2-C1+)*%
X139500000Y-92500000D03*
%TO.P,C4,2*%
%TO.N,Net-(U2-C1-)*%
X139500000Y-91500000D03*
%TD*%
D22*
%TO.P,U1,1,GPIO2/A0/D0*%
%TO.N,/UART RX*%
X142240000Y-97000000D03*
D23*
X142240000Y-97835000D03*
D22*
%TO.P,U1,2,GPIO3/A1/D1*%
%TO.N,/UART TX*%
X139700000Y-97000000D03*
D23*
X139700000Y-97835000D03*
D22*
%TO.P,U1,3,GPIO4/A2/D2*%
%TO.N,unconnected-(U1-GPIO4{slash}A2{slash}D2-Pad3)*%
X137160000Y-97000000D03*
D23*
%TO.N,unconnected-(U1-GPIO4{slash}A2{slash}D2-Pad3)_1*%
X137160000Y-97835000D03*
D22*
%TO.P,U1,4,GPIO5/A3/D3*%
%TO.N,unconnected-(U1-GPIO5{slash}A3{slash}D3-Pad4)_1*%
X134620000Y-97000000D03*
D23*
%TO.N,unconnected-(U1-GPIO5{slash}A3{slash}D3-Pad4)*%
X134620000Y-97835000D03*
D22*
%TO.P,U1,5,GPIO6/D4/SDA*%
%TO.N,unconnected-(U1-GPIO6{slash}D4{slash}SDA-Pad5)*%
X132080000Y-97000000D03*
D23*
%TO.N,unconnected-(U1-GPIO6{slash}D4{slash}SDA-Pad5)_1*%
X132080000Y-97835000D03*
D22*
%TO.P,U1,6,GPIO7/D5/SCL*%
%TO.N,unconnected-(U1-GPIO7{slash}D5{slash}SCL-Pad6)*%
X129540000Y-97000000D03*
D23*
%TO.N,unconnected-(U1-GPIO7{slash}D5{slash}SCL-Pad6)_1*%
X129540000Y-97835000D03*
D22*
%TO.P,U1,7,GPIO21/D6/TX*%
%TO.N,unconnected-(U1-GPIO21{slash}D6{slash}TX-Pad7)*%
X127000000Y-97000000D03*
D23*
%TO.N,unconnected-(U1-GPIO21{slash}D6{slash}TX-Pad7)_1*%
X127000000Y-97835000D03*
%TO.P,U1,8,GPIO20/D7/RX*%
%TO.N,unconnected-(U1-GPIO20{slash}D7{slash}RX-Pad8)*%
X127000000Y-113075000D03*
D24*
%TO.N,unconnected-(U1-GPIO20{slash}D7{slash}RX-Pad8)_1*%
X127000000Y-113910000D03*
D23*
%TO.P,U1,9,GPIO8/D8/SCK*%
%TO.N,unconnected-(U1-GPIO8{slash}D8{slash}SCK-Pad9)*%
X129540000Y-113075000D03*
D24*
%TO.N,unconnected-(U1-GPIO8{slash}D8{slash}SCK-Pad9)_1*%
X129540000Y-113910000D03*
D23*
%TO.P,U1,10,GPIO9/D9/MISO*%
%TO.N,unconnected-(U1-GPIO9{slash}D9{slash}MISO-Pad10)_1*%
X132080000Y-113075000D03*
D24*
%TO.N,unconnected-(U1-GPIO9{slash}D9{slash}MISO-Pad10)*%
X132080000Y-113910000D03*
D23*
%TO.P,U1,11,GPIO10/D10/MOSI*%
%TO.N,unconnected-(U1-GPIO10{slash}D10{slash}MOSI-Pad11)*%
X134620000Y-113075000D03*
D24*
%TO.N,unconnected-(U1-GPIO10{slash}D10{slash}MOSI-Pad11)_1*%
X134620000Y-113910000D03*
D23*
%TO.P,U1,12,VCC_3V3*%
%TO.N,/3.3V*%
X137160000Y-113075000D03*
D24*
X137160000Y-113910000D03*
D23*
%TO.P,U1,13,GND*%
%TO.N,GND*%
X139700000Y-113075000D03*
D24*
X139700000Y-113910000D03*
D23*
%TO.P,U1,14,VBUS*%
%TO.N,/5VD*%
X142240000Y-113075000D03*
D24*
X142240000Y-113910000D03*
%TD*%
D25*
%TO.P,12V,*%
%TO.N,*%
X135550000Y-134700000D03*
D26*
X135550000Y-139000000D03*
D27*
%TO.P,12V,1,1*%
%TO.N,/12V*%
X130050000Y-133000000D03*
X130050000Y-139000000D03*
D28*
%TO.P,12V,2,2*%
%TO.N,GND*%
X141250000Y-139000000D03*
D29*
%TO.P,12V,3,3*%
X141000000Y-132900000D03*
%TD*%
D19*
%TO.P,C5,1*%
%TO.N,Net-(U2-C2+)*%
X139500000Y-89000000D03*
%TO.P,C5,2*%
%TO.N,Net-(U2-C2-)*%
X139500000Y-88000000D03*
%TD*%
D30*
%TO.N,/UART TX*%
X133737500Y-86628700D03*
%TO.N,/UART RX*%
X133479200Y-88070400D03*
%TD*%
D31*
%TO.N,/RS232 TX*%
X129000000Y-89000000D02*
X129000000Y-82000000D01*
X131986800Y-90270000D02*
X130270000Y-90270000D01*
X130270000Y-90270000D02*
X129000000Y-89000000D01*
X129000000Y-82000000D02*
X133642500Y-77357500D01*
X133642500Y-77357500D02*
X133642500Y-76832500D01*
%TO.N,/RS232 RX*%
X134662500Y-79372500D02*
X130000000Y-84035000D01*
X130000000Y-84035000D02*
X130000000Y-87988199D01*
X130000000Y-87988199D02*
X131011801Y-89000000D01*
X131011801Y-89000000D02*
X131986800Y-89000000D01*
%TO.N,Net-(U2-C1+)*%
X139190000Y-92810000D02*
X139500000Y-92500000D01*
X136936800Y-92810000D02*
X139190000Y-92810000D01*
%TO.N,Net-(U2-C1-)*%
X136936800Y-90270000D02*
X138270000Y-90270000D01*
X138270000Y-90270000D02*
X139500000Y-91500000D01*
%TO.N,Net-(U2-C2+)*%
X136936800Y-89000000D02*
X139500000Y-89000000D01*
%TO.N,Net-(U2-C2-)*%
X136936800Y-87730000D02*
X137014500Y-87652300D01*
X139230000Y-87730000D02*
X139500000Y-88000000D01*
X136936800Y-87730000D02*
X139230000Y-87730000D01*
%TO.N,Net-(U2-VS+)*%
X135000000Y-95000000D02*
X135000000Y-92501801D01*
X135961801Y-91540000D02*
X136936800Y-91540000D01*
X135000000Y-92501801D02*
X135961801Y-91540000D01*
%TO.N,Net-(U2-VS-)*%
X138540000Y-86460000D02*
X136936800Y-86460000D01*
X139500000Y-85500000D02*
X138540000Y-86460000D01*
D32*
%TO.N,/12V*%
X130050000Y-133000000D02*
X130050000Y-119580000D01*
X132700000Y-122140000D02*
X131630000Y-121070000D01*
X130050000Y-119580000D02*
X131630000Y-118000000D01*
X131630000Y-121070000D02*
X131630000Y-118000000D01*
X130050000Y-139000000D02*
X130050000Y-133000000D01*
%TO.N,/5V*%
X137480000Y-118000000D02*
X140100000Y-118000000D01*
X135000000Y-120480000D02*
X135000000Y-122140000D01*
X135000000Y-122140000D02*
X135000000Y-127000000D01*
X135000000Y-127000000D02*
X134000000Y-128000000D01*
X137480000Y-118000000D02*
X135000000Y-120480000D01*
%TO.N,/3.3V*%
X137160000Y-113910000D02*
X137160000Y-113075000D01*
X133350000Y-109265000D02*
X133350000Y-94173200D01*
X131986800Y-92810000D02*
X129810000Y-92810000D01*
X129810000Y-92810000D02*
X129000000Y-92000000D01*
X133350000Y-94173200D02*
X131986800Y-92810000D01*
X137160000Y-113075000D02*
X133350000Y-109265000D01*
D31*
%TO.N,/UART TX*%
X132155500Y-86628700D02*
X131986800Y-86460000D01*
X139700000Y-97000000D02*
X139700000Y-97835000D01*
X133737500Y-86628700D02*
X132155500Y-86628700D01*
%TO.N,/UART RX*%
X133479200Y-88070400D02*
X132327200Y-88070400D01*
X132327200Y-88070400D02*
X131986800Y-87730000D01*
X142240000Y-97835000D02*
X142240000Y-97000000D01*
D32*
%TO.N,/5VD*%
X142200000Y-113950000D02*
X142240000Y-113910000D01*
X142200000Y-118000000D02*
X142200000Y-113950000D01*
X142240000Y-113075000D02*
X142240000Y-113910000D01*
%TD*%
%TA.AperFunction,Conductor*%
%TO.N,GND*%
G36*
X135331651Y-78033356D02*
G01*
X135389673Y-78052209D01*
X135584078Y-78083000D01*
X135584083Y-78083000D01*
X135780922Y-78083000D01*
X135975326Y-78052209D01*
X136036390Y-78032367D01*
X136106230Y-78030372D01*
X136166063Y-78066452D01*
X136196892Y-78129153D01*
X136188928Y-78198567D01*
X136144700Y-78252657D01*
X136131003Y-78260784D01*
X136047359Y-78303402D01*
X136012373Y-78328820D01*
X136012372Y-78328820D01*
X136656055Y-78972501D01*
X136649839Y-78972501D01*
X136548106Y-78999760D01*
X136456895Y-79052421D01*
X136382421Y-79126895D01*
X136329760Y-79218106D01*
X136302501Y-79319839D01*
X136302501Y-79326054D01*
X135785887Y-78809440D01*
X135763085Y-78778056D01*
X135732024Y-78717095D01*
X135616328Y-78557854D01*
X135477146Y-78418672D01*
X135317905Y-78302976D01*
X135237036Y-78261771D01*
X135186241Y-78213798D01*
X135169446Y-78145977D01*
X135191983Y-78079842D01*
X135246698Y-78036390D01*
X135316219Y-78029417D01*
X135331651Y-78033356D01*
G37*
%TD.AperFunction*%
%TA.AperFunction,Conductor*%
G36*
X146442539Y-68520185D02*
G01*
X146488294Y-68572989D01*
X146499500Y-68624500D01*
X146499500Y-143330500D01*
X146479815Y-143397539D01*
X146427011Y-143443294D01*
X146375500Y-143454500D01*
X124624500Y-143454500D01*
X124557461Y-143434815D01*
X124511706Y-143382011D01*
X124500500Y-143330500D01*
X124500500Y-131952135D01*
X128499500Y-131952135D01*
X128499500Y-134047870D01*
X128499501Y-134047876D01*
X128505908Y-134107483D01*
X128556202Y-134242328D01*
X128556206Y-134242335D01*
X128642452Y-134357544D01*
X128642455Y-134357547D01*
X128757664Y-134443793D01*
X128757671Y-134443797D01*
X128802618Y-134460561D01*
X128892517Y-134494091D01*
X128952127Y-134500500D01*
X129225501Y-134500499D01*
X129292539Y-134520183D01*
X129338294Y-134572987D01*
X129349500Y-134624499D01*
X129349500Y-137375500D01*
X129329815Y-137442539D01*
X129277011Y-137488294D01*
X129225500Y-137499500D01*
X128952130Y-137499500D01*
X128952123Y-137499501D01*
X128892516Y-137505908D01*
X128757671Y-137556202D01*
X128757664Y-137556206D01*
X128642455Y-137642452D01*
X128642452Y-137642455D01*
X128556206Y-137757664D01*
X128556202Y-137757671D01*
X128505908Y-137892517D01*
X128500522Y-137942620D01*
X128499501Y-137952123D01*
X128499500Y-137952135D01*
X128499500Y-140047870D01*
X128499501Y-140047876D01*
X128505908Y-140107483D01*
X128556202Y-140242328D01*
X128556206Y-140242335D01*
X128642452Y-140357544D01*
X128642455Y-140357547D01*
X128757664Y-140443793D01*
X128757671Y-140443797D01*
X128892517Y-140494091D01*
X128892516Y-140494091D01*
X128899444Y-140494835D01*
X128952127Y-140500500D01*
X131147872Y-140500499D01*
X131207483Y-140494091D01*
X131342331Y-140443796D01*
X131457546Y-140357546D01*
X131543796Y-140242331D01*
X131594091Y-140107483D01*
X131600500Y-140047873D01*
X131600499Y-138893713D01*
X134199500Y-138893713D01*
X134199500Y-139106286D01*
X134232753Y-139316239D01*
X134298444Y-139518414D01*
X134394951Y-139707820D01*
X134519890Y-139879786D01*
X134670213Y-140030109D01*
X134842179Y-140155048D01*
X134842181Y-140155049D01*
X134842184Y-140155051D01*
X135031588Y-140251557D01*
X135233757Y-140317246D01*
X135443713Y-140350500D01*
X135443714Y-140350500D01*
X135656286Y-140350500D01*
X135656287Y-140350500D01*
X135866243Y-140317246D01*
X136068412Y-140251557D01*
X136257816Y-140155051D01*
X136323290Y-140107482D01*
X136429786Y-140030109D01*
X136429788Y-140030106D01*
X136429792Y-140030104D01*
X136462052Y-139997844D01*
X139500000Y-139997844D01*
X139506401Y-140057372D01*
X139506403Y-140057379D01*
X139556645Y-140192086D01*
X139556649Y-140192093D01*
X139642809Y-140307187D01*
X139642812Y-140307190D01*
X139757906Y-140393350D01*
X139757913Y-140393354D01*
X139892620Y-140443596D01*
X139892627Y-140443598D01*
X139952155Y-140449999D01*
X139952172Y-140450000D01*
X141000000Y-140450000D01*
X141500000Y-140450000D01*
X142547828Y-140450000D01*
X142547844Y-140449999D01*
X142607372Y-140443598D01*
X142607379Y-140443596D01*
X142742086Y-140393354D01*
X142742093Y-140393350D01*
X142857187Y-140307190D01*
X142857190Y-140307187D01*
X142943350Y-140192093D01*
X142943354Y-140192086D01*
X142993596Y-140057379D01*
X142993598Y-140057372D01*
X142999999Y-139997844D01*
X143000000Y-139997827D01*
X143000000Y-139250000D01*
X141500000Y-139250000D01*
X141500000Y-140450000D01*
X141000000Y-140450000D01*
X141000000Y-139250000D01*
X139500000Y-139250000D01*
X139500000Y-139997844D01*
X136462052Y-139997844D01*
X136580104Y-139879792D01*
X136580106Y-139879788D01*
X136580109Y-139879786D01*
X136705048Y-139707820D01*
X136705047Y-139707820D01*
X136705051Y-139707816D01*
X136801557Y-139518412D01*
X136867246Y-139316243D01*
X136900500Y-139106287D01*
X136900500Y-138893713D01*
X136867246Y-138683757D01*
X136801557Y-138481588D01*
X136705051Y-138292184D01*
X136705049Y-138292181D01*
X136705048Y-138292179D01*
X136580109Y-138120213D01*
X136462051Y-138002155D01*
X139500000Y-138002155D01*
X139500000Y-138750000D01*
X141000000Y-138750000D01*
X141500000Y-138750000D01*
X143000000Y-138750000D01*
X143000000Y-138002172D01*
X142999999Y-138002155D01*
X142993598Y-137942627D01*
X142993596Y-137942620D01*
X142943354Y-137807913D01*
X142943350Y-137807906D01*
X142857190Y-137692812D01*
X142857187Y-137692809D01*
X142742093Y-137606649D01*
X142742086Y-137606645D01*
X142607379Y-137556403D01*
X142607372Y-137556401D01*
X142547844Y-137550000D01*
X141500000Y-137550000D01*
X141500000Y-138750000D01*
X141000000Y-138750000D01*
X141000000Y-137550000D01*
X139952155Y-137550000D01*
X139892627Y-137556401D01*
X139892620Y-137556403D01*
X139757913Y-137606645D01*
X139757906Y-137606649D01*
X139642812Y-137692809D01*
X139642809Y-137692812D01*
X139556649Y-137807906D01*
X139556645Y-137807913D01*
X139506403Y-137942620D01*
X139506401Y-137942627D01*
X139500000Y-138002155D01*
X136462051Y-138002155D01*
X136429786Y-137969890D01*
X136257820Y-137844951D01*
X136068414Y-137748444D01*
X136068413Y-137748443D01*
X136068412Y-137748443D01*
X135866243Y-137682754D01*
X135866241Y-137682753D01*
X135866240Y-137682753D01*
X135704957Y-137657208D01*
X135656287Y-137649500D01*
X135443713Y-137649500D01*
X135395042Y-137657208D01*
X135233760Y-137682753D01*
X135031585Y-137748444D01*
X134842179Y-137844951D01*
X134670213Y-137969890D01*
X134519890Y-138120213D01*
X134394951Y-138292179D01*
X134298444Y-138481585D01*
X134232753Y-138683760D01*
X134199500Y-138893713D01*
X131600499Y-138893713D01*
X131600499Y-137952128D01*
X131594091Y-137892517D01*
X131576349Y-137844949D01*
X131543797Y-137757671D01*
X131543793Y-137757664D01*
X131457547Y-137642455D01*
X131457544Y-137642452D01*
X131342335Y-137556206D01*
X131342328Y-137556202D01*
X131207482Y-137505908D01*
X131207483Y-137505908D01*
X131147883Y-137499501D01*
X131147881Y-137499500D01*
X131147873Y-137499500D01*
X131147865Y-137499500D01*
X130874500Y-137499500D01*
X130807461Y-137479815D01*
X130761706Y-137427011D01*
X130750500Y-137375500D01*
X130750500Y-134624499D01*
X130761853Y-134585837D01*
X134099500Y-134585837D01*
X134099500Y-134814162D01*
X134135215Y-135039660D01*
X134205770Y-135256803D01*
X134309421Y-135460228D01*
X134443621Y-135644937D01*
X134605063Y-135806379D01*
X134789772Y-135940579D01*
X134885884Y-135989550D01*
X134993196Y-136044229D01*
X134993198Y-136044229D01*
X134993201Y-136044231D01*
X135109592Y-136082049D01*
X135210339Y-136114784D01*
X135435838Y-136150500D01*
X135435843Y-136150500D01*
X135664162Y-136150500D01*
X135889660Y-136114784D01*
X136106799Y-136044231D01*
X136310228Y-135940579D01*
X136494937Y-135806379D01*
X136656379Y-135644937D01*
X136790579Y-135460228D01*
X136894231Y-135256799D01*
X136964784Y-135039660D01*
X137000500Y-134814162D01*
X137000500Y-134585837D01*
X136964784Y-134360339D01*
X136894229Y-134143196D01*
X136825023Y-134007372D01*
X136794692Y-133947844D01*
X139500000Y-133947844D01*
X139506401Y-134007372D01*
X139506403Y-134007379D01*
X139556645Y-134142086D01*
X139556649Y-134142093D01*
X139642809Y-134257187D01*
X139642812Y-134257190D01*
X139757906Y-134343350D01*
X139757913Y-134343354D01*
X139892620Y-134393596D01*
X139892627Y-134393598D01*
X139952155Y-134399999D01*
X139952172Y-134400000D01*
X140750000Y-134400000D01*
X141250000Y-134400000D01*
X142047828Y-134400000D01*
X142047844Y-134399999D01*
X142107372Y-134393598D01*
X142107379Y-134393596D01*
X142242086Y-134343354D01*
X142242093Y-134343350D01*
X142357187Y-134257190D01*
X142357190Y-134257187D01*
X142443350Y-134142093D01*
X142443354Y-134142086D01*
X142493596Y-134007379D01*
X142493598Y-134007372D01*
X142499999Y-133947844D01*
X142500000Y-133947827D01*
X142500000Y-133150000D01*
X141250000Y-133150000D01*
X141250000Y-134400000D01*
X140750000Y-134400000D01*
X140750000Y-133150000D01*
X139500000Y-133150000D01*
X139500000Y-133947844D01*
X136794692Y-133947844D01*
X136790579Y-133939772D01*
X136656379Y-133755063D01*
X136494937Y-133593621D01*
X136310228Y-133459421D01*
X136106803Y-133355770D01*
X135889660Y-133285215D01*
X135664162Y-133249500D01*
X135664157Y-133249500D01*
X135435843Y-133249500D01*
X135435838Y-133249500D01*
X135210339Y-133285215D01*
X134993196Y-133355770D01*
X134789771Y-133459421D01*
X134605061Y-133593622D01*
X134443622Y-133755061D01*
X134309421Y-133939771D01*
X134205770Y-134143196D01*
X134135215Y-134360339D01*
X134099500Y-134585837D01*
X130761853Y-134585837D01*
X130770185Y-134557460D01*
X130822989Y-134511705D01*
X130874500Y-134500499D01*
X131147871Y-134500499D01*
X131147872Y-134500499D01*
X131207483Y-134494091D01*
X131207488Y-134494089D01*
X131286047Y-134464789D01*
X131342328Y-134443797D01*
X131342327Y-134443797D01*
X131342331Y-134443796D01*
X131457546Y-134357546D01*
X131543796Y-134242331D01*
X131594091Y-134107483D01*
X131600500Y-134047873D01*
X131600499Y-132650000D01*
X131600499Y-131952129D01*
X131600498Y-131952123D01*
X131600497Y-131952116D01*
X131594091Y-131892517D01*
X131593967Y-131892184D01*
X131579037Y-131852155D01*
X139500000Y-131852155D01*
X139500000Y-132650000D01*
X140750000Y-132650000D01*
X141250000Y-132650000D01*
X142500000Y-132650000D01*
X142500000Y-131852172D01*
X142499999Y-131852155D01*
X142493598Y-131792627D01*
X142493596Y-131792620D01*
X142443354Y-131657913D01*
X142443350Y-131657906D01*
X142357190Y-131542812D01*
X142357187Y-131542809D01*
X142242093Y-131456649D01*
X142242086Y-131456645D01*
X142107379Y-131406403D01*
X142107372Y-131406401D01*
X142047844Y-131400000D01*
X141250000Y-131400000D01*
X141250000Y-132650000D01*
X140750000Y-132650000D01*
X140750000Y-131400000D01*
X139952155Y-131400000D01*
X139892627Y-131406401D01*
X139892620Y-131406403D01*
X139757913Y-131456645D01*
X139757906Y-131456649D01*
X139642812Y-131542809D01*
X139642809Y-131542812D01*
X139556649Y-131657906D01*
X139556645Y-131657913D01*
X139506403Y-131792620D01*
X139506401Y-131792627D01*
X139500000Y-131852155D01*
X131579037Y-131852155D01*
X131543797Y-131757671D01*
X131543793Y-131757664D01*
X131457547Y-131642455D01*
X131457544Y-131642452D01*
X131342335Y-131556206D01*
X131342328Y-131556202D01*
X131207482Y-131505908D01*
X131207483Y-131505908D01*
X131147883Y-131499501D01*
X131147881Y-131499500D01*
X131147873Y-131499500D01*
X131147865Y-131499500D01*
X130874500Y-131499500D01*
X130807461Y-131479815D01*
X130761706Y-131427011D01*
X130750500Y-131375500D01*
X130750500Y-126969983D01*
X132729500Y-126969983D01*
X132729500Y-129030001D01*
X132729501Y-129030018D01*
X132740000Y-129132796D01*
X132740001Y-129132799D01*
X132795185Y-129299331D01*
X132795186Y-129299334D01*
X132887288Y-129448656D01*
X133011344Y-129572712D01*
X133160666Y-129664814D01*
X133327203Y-129719999D01*
X133429991Y-129730500D01*
X136570008Y-129730499D01*
X136672797Y-129719999D01*
X136839334Y-129664814D01*
X136988656Y-129572712D01*
X137112712Y-129448656D01*
X137204814Y-129299334D01*
X137259999Y-129132797D01*
X137270500Y-129030009D01*
X137270499Y-126969992D01*
X137259999Y-126867203D01*
X137204814Y-126700666D01*
X137112712Y-126551344D01*
X136988656Y-126427288D01*
X136839334Y-126335186D01*
X136672797Y-126280001D01*
X136672795Y-126280000D01*
X136570016Y-126269500D01*
X136570009Y-126269500D01*
X135824500Y-126269500D01*
X135757461Y-126249815D01*
X135711706Y-126197011D01*
X135700500Y-126145500D01*
X135700500Y-123806867D01*
X135720185Y-123739828D01*
X135739386Y-123718656D01*
X135738549Y-123717819D01*
X135744053Y-123712315D01*
X135867712Y-123588656D01*
X135959814Y-123439334D01*
X136014999Y-123272797D01*
X136025500Y-123170009D01*
X136025500Y-123169986D01*
X136275001Y-123169986D01*
X136285494Y-123272697D01*
X136340641Y-123439119D01*
X136340643Y-123439124D01*
X136432684Y-123588345D01*
X136556654Y-123712315D01*
X136705875Y-123804356D01*
X136705880Y-123804358D01*
X136872302Y-123859505D01*
X136872309Y-123859506D01*
X136975019Y-123869999D01*
X137550000Y-123869999D01*
X137624972Y-123869999D01*
X137624986Y-123869998D01*
X137727697Y-123859505D01*
X137894119Y-123804358D01*
X137894124Y-123804356D01*
X138043345Y-123712315D01*
X138167315Y-123588345D01*
X138259356Y-123439124D01*
X138259358Y-123439119D01*
X138314505Y-123272697D01*
X138314506Y-123272690D01*
X138324999Y-123169986D01*
X138325000Y-123169973D01*
X138325000Y-122390000D01*
X137550000Y-122390000D01*
X137550000Y-123869999D01*
X136975019Y-123869999D01*
X137049999Y-123869998D01*
X137050000Y-123869998D01*
X137050000Y-122390000D01*
X136275001Y-122390000D01*
X136275001Y-123169986D01*
X136025500Y-123169986D01*
X136025499Y-122130161D01*
X136025499Y-121110013D01*
X136275000Y-121110013D01*
X136275000Y-121890000D01*
X137050000Y-121890000D01*
X137550000Y-121890000D01*
X138324999Y-121890000D01*
X138324999Y-121110028D01*
X138324998Y-121110013D01*
X138314505Y-121007302D01*
X138259358Y-120840880D01*
X138259356Y-120840875D01*
X138167315Y-120691654D01*
X138043345Y-120567684D01*
X137894124Y-120475643D01*
X137894119Y-120475641D01*
X137727697Y-120420494D01*
X137727690Y-120420493D01*
X137624986Y-120410000D01*
X137550000Y-120410000D01*
X137550000Y-121890000D01*
X137050000Y-121890000D01*
X137050000Y-120410000D01*
X137049999Y-120409999D01*
X136975028Y-120410000D01*
X136975011Y-120410001D01*
X136872302Y-120420494D01*
X136705880Y-120475641D01*
X136705875Y-120475643D01*
X136556654Y-120567684D01*
X136432684Y-120691654D01*
X136340643Y-120840875D01*
X136340641Y-120840880D01*
X136285494Y-121007302D01*
X136285493Y-121007309D01*
X136275000Y-121110013D01*
X136025499Y-121110013D01*
X136025499Y-121109998D01*
X136025498Y-121109981D01*
X136014999Y-121007203D01*
X136014998Y-121007200D01*
X135959814Y-120840666D01*
X135885457Y-120720113D01*
X135867018Y-120652725D01*
X135887940Y-120586061D01*
X135903311Y-120567344D01*
X137033839Y-119436816D01*
X137095160Y-119403333D01*
X137121508Y-119400499D01*
X137855008Y-119400499D01*
X137855016Y-119400498D01*
X137855019Y-119400498D01*
X137911302Y-119394748D01*
X137957797Y-119389999D01*
X138124334Y-119334814D01*
X138273656Y-119242712D01*
X138397712Y-119118656D01*
X138489814Y-118969334D01*
X138544999Y-118802797D01*
X138544999Y-118802793D01*
X138545912Y-118798533D01*
X138579199Y-118737102D01*
X138640414Y-118703419D01*
X138667163Y-118700500D01*
X139721560Y-118700500D01*
X139756155Y-118705424D01*
X139815839Y-118722764D01*
X139815842Y-118722764D01*
X139815844Y-118722765D01*
X139850595Y-118725500D01*
X140349404Y-118725499D01*
X140384156Y-118722765D01*
X140532887Y-118679555D01*
X140666198Y-118600715D01*
X140775715Y-118491198D01*
X140854555Y-118357887D01*
X140897765Y-118209156D01*
X140900500Y-118174405D01*
X140900499Y-117825596D01*
X140897765Y-117790844D01*
X140854555Y-117642113D01*
X140775715Y-117508802D01*
X140775713Y-117508800D01*
X140775710Y-117508796D01*
X140666203Y-117399289D01*
X140666194Y-117399282D01*
X140585111Y-117351330D01*
X140532887Y-117320445D01*
X140384156Y-117277235D01*
X140384153Y-117277234D01*
X140384151Y-117277234D01*
X140353395Y-117274814D01*
X140349405Y-117274500D01*
X140349404Y-117274500D01*
X139850606Y-117274500D01*
X139850584Y-117274501D01*
X139815842Y-117277235D01*
X139756155Y-117294576D01*
X139721560Y-117299500D01*
X138667163Y-117299500D01*
X138600124Y-117279815D01*
X138554369Y-117227011D01*
X138545911Y-117201459D01*
X138545000Y-117197207D01*
X138544998Y-117197200D01*
X138489814Y-117030666D01*
X138397712Y-116881344D01*
X138273656Y-116757288D01*
X138124334Y-116665186D01*
X137957797Y-116610001D01*
X137957795Y-116610000D01*
X137855010Y-116599500D01*
X137104998Y-116599500D01*
X137104980Y-116599501D01*
X137002203Y-116610000D01*
X137002200Y-116610001D01*
X136835668Y-116665185D01*
X136835663Y-116665187D01*
X136686342Y-116757289D01*
X136562289Y-116881342D01*
X136470187Y-117030663D01*
X136470185Y-117030668D01*
X136470115Y-117030880D01*
X136415001Y-117197203D01*
X136415001Y-117197204D01*
X136415000Y-117197204D01*
X136404500Y-117299983D01*
X136404500Y-118033479D01*
X136384815Y-118100518D01*
X136368181Y-118121160D01*
X135806681Y-118682660D01*
X135745358Y-118716145D01*
X135675666Y-118711161D01*
X135619733Y-118669289D01*
X135595316Y-118603825D01*
X135595000Y-118594979D01*
X135595000Y-118250000D01*
X134770000Y-118250000D01*
X134770000Y-119399999D01*
X134789981Y-119399999D01*
X134857020Y-119419684D01*
X134902775Y-119472488D01*
X134912719Y-119541646D01*
X134883694Y-119605202D01*
X134877662Y-119611680D01*
X134455888Y-120033453D01*
X134455887Y-120033454D01*
X134379222Y-120148192D01*
X134326421Y-120275667D01*
X134326418Y-120275679D01*
X134301815Y-120399362D01*
X134301814Y-120399372D01*
X134299800Y-120409501D01*
X134299500Y-120411007D01*
X134299500Y-120475029D01*
X134299442Y-120476925D01*
X134289141Y-120508408D01*
X134279815Y-120540171D01*
X134278148Y-120542009D01*
X134277716Y-120543331D01*
X134274790Y-120545713D01*
X134260616Y-120561346D01*
X134261451Y-120562181D01*
X134132289Y-120691342D01*
X134040187Y-120840663D01*
X134040185Y-120840668D01*
X134040115Y-120840880D01*
X133985001Y-121007203D01*
X133985001Y-121007204D01*
X133985000Y-121007204D01*
X133974500Y-121109983D01*
X133974500Y-123170001D01*
X133974501Y-123170018D01*
X133985000Y-123272796D01*
X133985001Y-123272799D01*
X134040115Y-123439119D01*
X134040186Y-123439334D01*
X134132096Y-123588345D01*
X134132289Y-123588657D01*
X134261451Y-123717819D01*
X134259559Y-123719710D01*
X134292774Y-123766583D01*
X134299500Y-123806867D01*
X134299500Y-126145500D01*
X134279815Y-126212539D01*
X134227011Y-126258294D01*
X134175500Y-126269500D01*
X133429998Y-126269500D01*
X133429980Y-126269501D01*
X133327203Y-126280000D01*
X133327200Y-126280001D01*
X133160668Y-126335185D01*
X133160663Y-126335187D01*
X133011342Y-126427289D01*
X132887289Y-126551342D01*
X132795187Y-126700663D01*
X132795186Y-126700666D01*
X132740001Y-126867203D01*
X132740001Y-126867204D01*
X132740000Y-126867204D01*
X132729500Y-126969983D01*
X130750500Y-126969983D01*
X130750500Y-121400583D01*
X130770185Y-121333544D01*
X130822989Y-121287789D01*
X130892147Y-121277845D01*
X130955703Y-121306870D01*
X130989061Y-121353131D01*
X131009225Y-121401811D01*
X131060332Y-121478299D01*
X131085887Y-121516545D01*
X131085888Y-121516546D01*
X131638181Y-122068838D01*
X131671666Y-122130161D01*
X131674500Y-122156519D01*
X131674500Y-123170001D01*
X131674501Y-123170019D01*
X131685000Y-123272796D01*
X131685001Y-123272799D01*
X131740115Y-123439119D01*
X131740186Y-123439334D01*
X131832288Y-123588656D01*
X131956344Y-123712712D01*
X132105666Y-123804814D01*
X132272203Y-123859999D01*
X132374991Y-123870500D01*
X133025008Y-123870499D01*
X133025016Y-123870498D01*
X133025019Y-123870498D01*
X133081302Y-123864748D01*
X133127797Y-123859999D01*
X133294334Y-123804814D01*
X133443656Y-123712712D01*
X133567712Y-123588656D01*
X133659814Y-123439334D01*
X133714999Y-123272797D01*
X133725500Y-123170009D01*
X133725499Y-121109992D01*
X133714999Y-121007203D01*
X133659814Y-120840666D01*
X133567712Y-120691344D01*
X133443656Y-120567288D01*
X133348196Y-120508408D01*
X133294336Y-120475187D01*
X133294331Y-120475185D01*
X133292862Y-120474698D01*
X133127797Y-120420001D01*
X133127795Y-120420000D01*
X133025016Y-120409500D01*
X132454500Y-120409500D01*
X132387461Y-120389815D01*
X132341706Y-120337011D01*
X132330500Y-120285500D01*
X132330500Y-119369377D01*
X132350185Y-119302338D01*
X132389406Y-119263837D01*
X132423654Y-119242713D01*
X132423653Y-119242713D01*
X132423656Y-119242712D01*
X132547712Y-119118656D01*
X132639814Y-118969334D01*
X132694999Y-118802797D01*
X132705500Y-118700009D01*
X132705500Y-118699986D01*
X133445001Y-118699986D01*
X133455494Y-118802697D01*
X133510641Y-118969119D01*
X133510643Y-118969124D01*
X133602684Y-119118345D01*
X133726654Y-119242315D01*
X133875875Y-119334356D01*
X133875880Y-119334358D01*
X134042302Y-119389505D01*
X134042309Y-119389506D01*
X134145019Y-119399999D01*
X134269999Y-119399999D01*
X134270000Y-119399998D01*
X134270000Y-118250000D01*
X133445001Y-118250000D01*
X133445001Y-118699986D01*
X132705500Y-118699986D01*
X132705499Y-117825606D01*
X132705499Y-117300013D01*
X133445000Y-117300013D01*
X133445000Y-117750000D01*
X134270000Y-117750000D01*
X134770000Y-117750000D01*
X135594999Y-117750000D01*
X135594999Y-117300028D01*
X135594998Y-117300013D01*
X135584505Y-117197302D01*
X135529358Y-117030880D01*
X135529356Y-117030875D01*
X135437315Y-116881654D01*
X135313345Y-116757684D01*
X135164124Y-116665643D01*
X135164119Y-116665641D01*
X134997697Y-116610494D01*
X134997690Y-116610493D01*
X134894986Y-116600000D01*
X134770000Y-116600000D01*
X134770000Y-117750000D01*
X134270000Y-117750000D01*
X134270000Y-116600000D01*
X134145027Y-116600000D01*
X134145012Y-116600001D01*
X134042302Y-116610494D01*
X133875880Y-116665641D01*
X133875875Y-116665643D01*
X133726654Y-116757684D01*
X133602684Y-116881654D01*
X133510643Y-117030875D01*
X133510641Y-117030880D01*
X133455494Y-117197302D01*
X133455493Y-117197309D01*
X133445000Y-117300013D01*
X132705499Y-117300013D01*
X132705499Y-117299998D01*
X132705498Y-117299981D01*
X132694999Y-117197203D01*
X132694998Y-117197200D01*
X132639814Y-117030666D01*
X132547712Y-116881344D01*
X132423656Y-116757288D01*
X132274334Y-116665186D01*
X132107797Y-116610001D01*
X132107795Y-116610000D01*
X132005010Y-116599500D01*
X131254998Y-116599500D01*
X131254980Y-116599501D01*
X131152203Y-116610000D01*
X131152200Y-116610001D01*
X130985668Y-116665185D01*
X130985663Y-116665187D01*
X130836342Y-116757289D01*
X130712289Y-116881342D01*
X130620187Y-117030663D01*
X130620185Y-117030668D01*
X130620115Y-117030880D01*
X130565001Y-117197203D01*
X130565001Y-117197204D01*
X130565000Y-117197204D01*
X130554500Y-117299983D01*
X130554500Y-118033480D01*
X130534815Y-118100519D01*
X130518181Y-118121161D01*
X129956681Y-118682661D01*
X129895358Y-118716146D01*
X129825666Y-118711162D01*
X129769733Y-118669290D01*
X129745316Y-118603826D01*
X129745000Y-118594980D01*
X129745000Y-118250000D01*
X128920000Y-118250000D01*
X128920000Y-119399999D01*
X129044972Y-119399999D01*
X129044986Y-119399998D01*
X129147696Y-119389505D01*
X129187567Y-119376293D01*
X129257395Y-119373890D01*
X129317438Y-119409620D01*
X129348632Y-119472139D01*
X129349978Y-119506138D01*
X129349500Y-119510996D01*
X129349500Y-131375500D01*
X129329815Y-131442539D01*
X129277011Y-131488294D01*
X129225500Y-131499500D01*
X128952130Y-131499500D01*
X128952123Y-131499501D01*
X128892516Y-131505908D01*
X128757671Y-131556202D01*
X128757664Y-131556206D01*
X128642455Y-131642452D01*
X128642452Y-131642455D01*
X128556206Y-131757664D01*
X128556202Y-131757671D01*
X128505908Y-131892517D01*
X128499501Y-131952116D01*
X128499501Y-131952123D01*
X128499500Y-131952135D01*
X124500500Y-131952135D01*
X124500500Y-118699986D01*
X127595001Y-118699986D01*
X127605494Y-118802697D01*
X127660641Y-118969119D01*
X127660643Y-118969124D01*
X127752684Y-119118345D01*
X127876654Y-119242315D01*
X128025875Y-119334356D01*
X128025880Y-119334358D01*
X128192302Y-119389505D01*
X128192309Y-119389506D01*
X128295019Y-119399999D01*
X128419999Y-119399999D01*
X128420000Y-119399998D01*
X128420000Y-118250000D01*
X127595001Y-118250000D01*
X127595001Y-118699986D01*
X124500500Y-118699986D01*
X124500500Y-117300013D01*
X127595000Y-117300013D01*
X127595000Y-117750000D01*
X128420000Y-117750000D01*
X128920000Y-117750000D01*
X129744999Y-117750000D01*
X129744999Y-117300028D01*
X129744998Y-117300013D01*
X129734505Y-117197302D01*
X129679358Y-117030880D01*
X129679356Y-117030875D01*
X129587315Y-116881654D01*
X129463345Y-116757684D01*
X129314124Y-116665643D01*
X129314119Y-116665641D01*
X129147697Y-116610494D01*
X129147690Y-116610493D01*
X129044986Y-116600000D01*
X128920000Y-116600000D01*
X128920000Y-117750000D01*
X128420000Y-117750000D01*
X128420000Y-116600000D01*
X128295027Y-116600000D01*
X128295012Y-116600001D01*
X128192302Y-116610494D01*
X128025880Y-116665641D01*
X128025875Y-116665643D01*
X127876654Y-116757684D01*
X127752684Y-116881654D01*
X127660643Y-117030875D01*
X127660641Y-117030880D01*
X127605494Y-117197302D01*
X127605493Y-117197309D01*
X127595000Y-117300013D01*
X124500500Y-117300013D01*
X124500500Y-95870458D01*
X125737500Y-95870458D01*
X125737500Y-98129541D01*
X125740412Y-98166546D01*
X125740413Y-98166552D01*
X125786434Y-98324954D01*
X125786435Y-98324957D01*
X125870405Y-98466943D01*
X125870406Y-98466944D01*
X125870408Y-98466947D01*
X125966608Y-98563147D01*
X125979240Y-98577938D01*
X126037019Y-98657464D01*
X126177536Y-98797981D01*
X126338306Y-98914787D01*
X126425149Y-98959035D01*
X126515367Y-99005005D01*
X126515370Y-99005006D01*
X126608629Y-99035307D01*
X126704364Y-99066413D01*
X126900639Y-99097500D01*
X126900640Y-99097500D01*
X127099360Y-99097500D01*
X127099361Y-99097500D01*
X127295636Y-99066413D01*
X127484632Y-99005005D01*
X127661694Y-98914787D01*
X127822464Y-98797981D01*
X127962981Y-98657464D01*
X128020762Y-98577933D01*
X128026039Y-98571175D01*
X128029537Y-98567000D01*
X128129592Y-98466947D01*
X128168439Y-98401259D01*
X128174962Y-98393477D01*
X128195927Y-98379509D01*
X128214337Y-98362321D01*
X128224505Y-98360471D01*
X128233110Y-98354739D01*
X128258299Y-98354324D01*
X128283079Y-98349817D01*
X128292634Y-98353759D01*
X128302970Y-98353589D01*
X128324379Y-98366854D01*
X128347668Y-98376462D01*
X128356691Y-98386875D01*
X128362363Y-98390390D01*
X128365575Y-98397128D01*
X128376732Y-98410004D01*
X128410405Y-98466943D01*
X128410408Y-98466947D01*
X128506608Y-98563147D01*
X128519240Y-98577938D01*
X128577019Y-98657464D01*
X128717536Y-98797981D01*
X128878306Y-98914787D01*
X128965149Y-98959035D01*
X129055367Y-99005005D01*
X129055370Y-99005006D01*
X129148629Y-99035307D01*
X129244364Y-99066413D01*
X129440639Y-99097500D01*
X129440640Y-99097500D01*
X129639360Y-99097500D01*
X129639361Y-99097500D01*
X129835636Y-99066413D01*
X130024632Y-99005005D01*
X130201694Y-98914787D01*
X130362464Y-98797981D01*
X130502981Y-98657464D01*
X130560762Y-98577933D01*
X130566039Y-98571175D01*
X130569537Y-98567000D01*
X130669592Y-98466947D01*
X130708439Y-98401259D01*
X130714962Y-98393477D01*
X130735927Y-98379509D01*
X130754337Y-98362321D01*
X130764505Y-98360471D01*
X130773110Y-98354739D01*
X130798299Y-98354324D01*
X130823079Y-98349817D01*
X130832634Y-98353759D01*
X130842970Y-98353589D01*
X130864379Y-98366854D01*
X130887668Y-98376462D01*
X130896691Y-98386875D01*
X130902363Y-98390390D01*
X130905575Y-98397128D01*
X130916732Y-98410004D01*
X130950405Y-98466943D01*
X130950408Y-98466947D01*
X131046608Y-98563147D01*
X131059240Y-98577938D01*
X131117019Y-98657464D01*
X131257536Y-98797981D01*
X131418306Y-98914787D01*
X131505149Y-98959035D01*
X131595367Y-99005005D01*
X131595370Y-99005006D01*
X131688629Y-99035307D01*
X131784364Y-99066413D01*
X131980639Y-99097500D01*
X131980640Y-99097500D01*
X132179360Y-99097500D01*
X132179361Y-99097500D01*
X132375636Y-99066413D01*
X132471371Y-99035307D01*
X132487182Y-99030170D01*
X132557023Y-99028175D01*
X132616856Y-99064255D01*
X132647684Y-99126956D01*
X132649500Y-99148101D01*
X132649500Y-109196006D01*
X132649500Y-109333994D01*
X132649500Y-109333996D01*
X132649499Y-109333996D01*
X132676418Y-109469322D01*
X132676421Y-109469332D01*
X132729222Y-109596807D01*
X132805887Y-109711545D01*
X132805888Y-109711546D01*
X134695162Y-111600819D01*
X134728647Y-111662142D01*
X134723663Y-111731834D01*
X134681791Y-111787767D01*
X134616327Y-111812184D01*
X134607481Y-111812500D01*
X134520639Y-111812500D01*
X134455214Y-111822862D01*
X134324362Y-111843587D01*
X134135370Y-111904993D01*
X134135367Y-111904994D01*
X133958305Y-111995213D01*
X133797533Y-112112021D01*
X133657018Y-112252536D01*
X133599239Y-112332061D01*
X133593960Y-112338821D01*
X133590446Y-112343013D01*
X133490408Y-112443053D01*
X133451564Y-112508733D01*
X133445038Y-112516521D01*
X133424076Y-112530485D01*
X133405662Y-112547679D01*
X133395492Y-112549528D01*
X133386891Y-112555259D01*
X133361703Y-112555674D01*
X133336921Y-112560182D01*
X133327366Y-112556240D01*
X133317031Y-112556411D01*
X133295616Y-112543142D01*
X133272331Y-112533536D01*
X133263308Y-112523123D01*
X133257638Y-112519610D01*
X133254426Y-112512873D01*
X133243268Y-112499996D01*
X133209592Y-112443053D01*
X133113390Y-112346851D01*
X133100758Y-112332060D01*
X133042984Y-112252539D01*
X132902466Y-112112021D01*
X132902464Y-112112019D01*
X132741694Y-111995213D01*
X132564632Y-111904994D01*
X132564629Y-111904993D01*
X132375637Y-111843587D01*
X132265853Y-111826199D01*
X132179361Y-111812500D01*
X131980639Y-111812500D01*
X131915214Y-111822862D01*
X131784362Y-111843587D01*
X131595370Y-111904993D01*
X131595367Y-111904994D01*
X131418305Y-111995213D01*
X131257533Y-112112021D01*
X131117018Y-112252536D01*
X131059239Y-112332061D01*
X131053960Y-112338821D01*
X131050446Y-112343013D01*
X130950408Y-112443053D01*
X130911564Y-112508733D01*
X130905038Y-112516521D01*
X130884076Y-112530485D01*
X130865662Y-112547679D01*
X130855492Y-112549528D01*
X130846891Y-112555259D01*
X130821703Y-112555674D01*
X130796921Y-112560182D01*
X130787366Y-112556240D01*
X130777031Y-112556411D01*
X130755616Y-112543142D01*
X130732331Y-112533536D01*
X130723308Y-112523123D01*
X130717638Y-112519610D01*
X130714426Y-112512873D01*
X130703268Y-112499996D01*
X130669592Y-112443053D01*
X130573390Y-112346851D01*
X130560758Y-112332060D01*
X130502984Y-112252539D01*
X130362466Y-112112021D01*
X130362464Y-112112019D01*
X130201694Y-111995213D01*
X130024632Y-111904994D01*
X130024629Y-111904993D01*
X129835637Y-111843587D01*
X129725853Y-111826199D01*
X129639361Y-111812500D01*
X129440639Y-111812500D01*
X129375214Y-111822862D01*
X129244362Y-111843587D01*
X129055370Y-111904993D01*
X129055367Y-111904994D01*
X128878305Y-111995213D01*
X128717533Y-112112021D01*
X128577018Y-112252536D01*
X128519239Y-112332061D01*
X128513960Y-112338821D01*
X128510446Y-112343013D01*
X128410408Y-112443053D01*
X128371564Y-112508733D01*
X128365038Y-112516521D01*
X128344076Y-112530485D01*
X128325662Y-112547679D01*
X128315492Y-112549528D01*
X128306891Y-112555259D01*
X128281703Y-112555674D01*
X128256921Y-112560182D01*
X128247366Y-112556240D01*
X128237031Y-112556411D01*
X128215616Y-112543142D01*
X128192331Y-112533536D01*
X128183308Y-112523123D01*
X128177638Y-112519610D01*
X128174426Y-112512873D01*
X128163268Y-112499996D01*
X128129592Y-112443053D01*
X128033390Y-112346851D01*
X128020758Y-112332060D01*
X127962984Y-112252539D01*
X127822466Y-112112021D01*
X127822464Y-112112019D01*
X127661694Y-111995213D01*
X127484632Y-111904994D01*
X127484629Y-111904993D01*
X127295637Y-111843587D01*
X127185853Y-111826199D01*
X127099361Y-111812500D01*
X126900639Y-111812500D01*
X126835214Y-111822862D01*
X126704362Y-111843587D01*
X126515370Y-111904993D01*
X126515367Y-111904994D01*
X126338305Y-111995213D01*
X126177533Y-112112021D01*
X126037018Y-112252536D01*
X125979239Y-112332061D01*
X125966604Y-112346854D01*
X125870413Y-112443046D01*
X125870405Y-112443056D01*
X125786435Y-112585042D01*
X125786434Y-112585045D01*
X125740413Y-112743447D01*
X125740412Y-112743453D01*
X125737500Y-112780458D01*
X125737500Y-115039541D01*
X125740412Y-115076546D01*
X125740413Y-115076552D01*
X125786434Y-115234954D01*
X125786435Y-115234957D01*
X125870405Y-115376943D01*
X125870412Y-115376952D01*
X125987047Y-115493587D01*
X125987051Y-115493590D01*
X125987053Y-115493592D01*
X126129041Y-115577564D01*
X126170090Y-115589490D01*
X126287447Y-115623586D01*
X126287450Y-115623586D01*
X126287452Y-115623587D01*
X126324466Y-115626500D01*
X126324474Y-115626500D01*
X127675526Y-115626500D01*
X127675534Y-115626500D01*
X127712548Y-115623587D01*
X127712550Y-115623586D01*
X127712552Y-115623586D01*
X127754323Y-115611449D01*
X127870959Y-115577564D01*
X128012947Y-115493592D01*
X128129592Y-115376947D01*
X128163268Y-115320003D01*
X128214337Y-115272321D01*
X128283079Y-115259817D01*
X128347668Y-115286462D01*
X128376732Y-115320004D01*
X128410405Y-115376943D01*
X128410407Y-115376946D01*
X128410412Y-115376952D01*
X128527047Y-115493587D01*
X128527051Y-115493590D01*
X128527053Y-115493592D01*
X128669041Y-115577564D01*
X128710090Y-115589490D01*
X128827447Y-115623586D01*
X128827450Y-115623586D01*
X128827452Y-115623587D01*
X128864466Y-115626500D01*
X128864474Y-115626500D01*
X130215526Y-115626500D01*
X130215534Y-115626500D01*
X130252548Y-115623587D01*
X130252550Y-115623586D01*
X130252552Y-115623586D01*
X130294323Y-115611449D01*
X130410959Y-115577564D01*
X130552947Y-115493592D01*
X130669592Y-115376947D01*
X130703268Y-115320003D01*
X130754337Y-115272321D01*
X130823079Y-115259817D01*
X130887668Y-115286462D01*
X130916732Y-115320004D01*
X130950405Y-115376943D01*
X130950407Y-115376946D01*
X130950412Y-115376952D01*
X131067047Y-115493587D01*
X131067051Y-115493590D01*
X131067053Y-115493592D01*
X131209041Y-115577564D01*
X131250090Y-115589490D01*
X131367447Y-115623586D01*
X131367450Y-115623586D01*
X131367452Y-115623587D01*
X131404466Y-115626500D01*
X131404474Y-115626500D01*
X132755526Y-115626500D01*
X132755534Y-115626500D01*
X132792548Y-115623587D01*
X132792550Y-115623586D01*
X132792552Y-115623586D01*
X132834323Y-115611449D01*
X132950959Y-115577564D01*
X133092947Y-115493592D01*
X133209592Y-115376947D01*
X133243268Y-115320003D01*
X133294337Y-115272321D01*
X133363079Y-115259817D01*
X133427668Y-115286462D01*
X133456732Y-115320004D01*
X133490405Y-115376943D01*
X133490407Y-115376946D01*
X133490412Y-115376952D01*
X133607047Y-115493587D01*
X133607051Y-115493590D01*
X133607053Y-115493592D01*
X133749041Y-115577564D01*
X133790090Y-115589490D01*
X133907447Y-115623586D01*
X133907450Y-115623586D01*
X133907452Y-115623587D01*
X133944466Y-115626500D01*
X133944474Y-115626500D01*
X135295526Y-115626500D01*
X135295534Y-115626500D01*
X135332548Y-115623587D01*
X135332550Y-115623586D01*
X135332552Y-115623586D01*
X135374323Y-115611449D01*
X135490959Y-115577564D01*
X135632947Y-115493592D01*
X135749592Y-115376947D01*
X135783268Y-115320003D01*
X135834337Y-115272321D01*
X135903079Y-115259817D01*
X135967668Y-115286462D01*
X135996732Y-115320004D01*
X136030405Y-115376943D01*
X136030407Y-115376946D01*
X136030412Y-115376952D01*
X136147047Y-115493587D01*
X136147051Y-115493590D01*
X136147053Y-115493592D01*
X136289041Y-115577564D01*
X136330090Y-115589490D01*
X136447447Y-115623586D01*
X136447450Y-115623586D01*
X136447452Y-115623587D01*
X136484466Y-115626500D01*
X136484474Y-115626500D01*
X137835526Y-115626500D01*
X137835534Y-115626500D01*
X137872548Y-115623587D01*
X137872550Y-115623586D01*
X137872552Y-115623586D01*
X137914323Y-115611449D01*
X138030959Y-115577564D01*
X138172947Y-115493592D01*
X138289592Y-115376947D01*
X138289776Y-115376637D01*
X138323558Y-115319514D01*
X138374626Y-115271830D01*
X138443368Y-115259326D01*
X138507958Y-115285971D01*
X138537022Y-115319513D01*
X138570803Y-115376634D01*
X138570810Y-115376643D01*
X138687356Y-115493189D01*
X138687365Y-115493196D01*
X138829243Y-115577102D01*
X138829246Y-115577103D01*
X138987526Y-115623088D01*
X138987532Y-115623089D01*
X139024518Y-115625999D01*
X140375469Y-115625999D01*
X140375491Y-115625998D01*
X140412466Y-115623089D01*
X140570757Y-115577102D01*
X140712634Y-115493196D01*
X140712643Y-115493189D01*
X140829189Y-115376643D01*
X140829193Y-115376637D01*
X140862976Y-115319514D01*
X140914045Y-115271830D01*
X140982787Y-115259326D01*
X141047376Y-115285971D01*
X141076440Y-115319511D01*
X141110408Y-115376947D01*
X141110410Y-115376949D01*
X141110412Y-115376952D01*
X141227047Y-115493587D01*
X141227051Y-115493590D01*
X141227053Y-115493592D01*
X141369041Y-115577564D01*
X141410095Y-115589491D01*
X141468979Y-115627095D01*
X141498187Y-115690567D01*
X141499500Y-115708567D01*
X141499500Y-117516788D01*
X141482232Y-117579908D01*
X141445447Y-117642108D01*
X141445446Y-117642110D01*
X141402234Y-117790847D01*
X141402234Y-117790849D01*
X141399500Y-117825589D01*
X141399500Y-118174393D01*
X141399501Y-118174415D01*
X141402234Y-118209152D01*
X141402234Y-118209155D01*
X141402235Y-118209156D01*
X141445445Y-118357887D01*
X141445446Y-118357888D01*
X141524282Y-118491194D01*
X141524289Y-118491203D01*
X141633796Y-118600710D01*
X141633805Y-118600717D01*
X141639062Y-118603826D01*
X141767113Y-118679555D01*
X141915844Y-118722765D01*
X141950595Y-118725500D01*
X142449404Y-118725499D01*
X142484156Y-118722765D01*
X142632887Y-118679555D01*
X142766198Y-118600715D01*
X142875715Y-118491198D01*
X142954555Y-118357887D01*
X142997765Y-118209156D01*
X143000500Y-118174405D01*
X143000499Y-117825596D01*
X142997765Y-117790844D01*
X142954555Y-117642113D01*
X142952942Y-117639386D01*
X142917768Y-117579908D01*
X142900500Y-117516788D01*
X142900500Y-115731810D01*
X142920185Y-115664771D01*
X142972989Y-115619016D01*
X142989905Y-115612734D01*
X143037603Y-115598875D01*
X143110959Y-115577564D01*
X143252947Y-115493592D01*
X143369592Y-115376947D01*
X143453564Y-115234959D01*
X143499587Y-115076548D01*
X143502500Y-115039534D01*
X143502500Y-112780466D01*
X143499587Y-112743452D01*
X143492573Y-112719311D01*
X143453565Y-112585045D01*
X143453564Y-112585042D01*
X143453564Y-112585041D01*
X143392795Y-112482287D01*
X143369594Y-112443056D01*
X143369590Y-112443051D01*
X143369585Y-112443046D01*
X143273390Y-112346851D01*
X143260758Y-112332060D01*
X143202984Y-112252539D01*
X143062466Y-112112021D01*
X143062464Y-112112019D01*
X142901694Y-111995213D01*
X142724632Y-111904994D01*
X142724629Y-111904993D01*
X142535637Y-111843587D01*
X142425853Y-111826199D01*
X142339361Y-111812500D01*
X142140639Y-111812500D01*
X142075214Y-111822862D01*
X141944362Y-111843587D01*
X141755370Y-111904993D01*
X141755367Y-111904994D01*
X141578305Y-111995213D01*
X141417533Y-112112021D01*
X141277018Y-112252536D01*
X141219239Y-112332061D01*
X141213992Y-112338784D01*
X141210469Y-112342990D01*
X141110408Y-112443053D01*
X141071285Y-112509204D01*
X141064779Y-112516975D01*
X141043798Y-112530964D01*
X141025371Y-112548170D01*
X141015227Y-112550015D01*
X141006647Y-112555736D01*
X140981433Y-112556161D01*
X140956629Y-112560673D01*
X140947097Y-112556740D01*
X140936787Y-112556915D01*
X140915347Y-112543642D01*
X140892040Y-112534027D01*
X140883043Y-112523643D01*
X140877380Y-112520138D01*
X140874161Y-112513393D01*
X140862977Y-112500486D01*
X140829195Y-112443364D01*
X140829192Y-112443360D01*
X140757191Y-112371360D01*
X140137647Y-112990904D01*
X140114208Y-112903429D01*
X140055689Y-112802070D01*
X139972930Y-112719311D01*
X139871571Y-112660792D01*
X139784094Y-112637352D01*
X140398716Y-112022731D01*
X140398715Y-112022730D01*
X140361432Y-111995641D01*
X140184437Y-111905457D01*
X139995522Y-111844075D01*
X139799321Y-111813000D01*
X139600679Y-111813000D01*
X139404479Y-111844075D01*
X139404476Y-111844075D01*
X139215562Y-111905457D01*
X139038564Y-111995643D01*
X139001283Y-112022729D01*
X139001282Y-112022730D01*
X139615906Y-112637352D01*
X139528429Y-112660792D01*
X139427070Y-112719311D01*
X139344311Y-112802070D01*
X139285792Y-112903429D01*
X139262352Y-112990905D01*
X138642807Y-112371360D01*
X138570810Y-112443357D01*
X138570800Y-112443370D01*
X138537021Y-112500487D01*
X138485952Y-112548170D01*
X138417210Y-112560673D01*
X138352621Y-112534027D01*
X138335220Y-112516975D01*
X138328716Y-112509208D01*
X138289592Y-112443053D01*
X138189518Y-112342979D01*
X138186007Y-112338786D01*
X138185489Y-112337600D01*
X138180758Y-112332060D01*
X138122984Y-112252539D01*
X137982466Y-112112021D01*
X137982464Y-112112019D01*
X137821694Y-111995213D01*
X137644632Y-111904994D01*
X137644629Y-111904993D01*
X137455637Y-111843587D01*
X137345853Y-111826199D01*
X137259361Y-111812500D01*
X137060639Y-111812500D01*
X137060634Y-111812500D01*
X136974143Y-111826199D01*
X136904850Y-111817245D01*
X136867064Y-111791407D01*
X134086819Y-109011162D01*
X134053334Y-108949839D01*
X134050500Y-108923481D01*
X134050500Y-99148101D01*
X134070185Y-99081062D01*
X134122989Y-99035307D01*
X134192147Y-99025363D01*
X134212818Y-99030170D01*
X134251215Y-99042645D01*
X134324364Y-99066413D01*
X134520639Y-99097500D01*
X134520640Y-99097500D01*
X134719360Y-99097500D01*
X134719361Y-99097500D01*
X134915636Y-99066413D01*
X135104632Y-99005005D01*
X135281694Y-98914787D01*
X135442464Y-98797981D01*
X135582981Y-98657464D01*
X135640762Y-98577933D01*
X135646039Y-98571175D01*
X135649537Y-98567000D01*
X135749592Y-98466947D01*
X135788439Y-98401259D01*
X135794962Y-98393477D01*
X135815927Y-98379509D01*
X135834337Y-98362321D01*
X135844505Y-98360471D01*
X135853110Y-98354739D01*
X135878299Y-98354324D01*
X135903079Y-98349817D01*
X135912634Y-98353759D01*
X135922970Y-98353589D01*
X135944379Y-98366854D01*
X135967668Y-98376462D01*
X135976691Y-98386875D01*
X135982363Y-98390390D01*
X135985575Y-98397128D01*
X135996732Y-98410004D01*
X136030405Y-98466943D01*
X136030408Y-98466947D01*
X136126608Y-98563147D01*
X136139240Y-98577938D01*
X136197019Y-98657464D01*
X136337536Y-98797981D01*
X136498306Y-98914787D01*
X136585149Y-98959035D01*
X136675367Y-99005005D01*
X136675370Y-99005006D01*
X136768629Y-99035307D01*
X136864364Y-99066413D01*
X137060639Y-99097500D01*
X137060640Y-99097500D01*
X137259360Y-99097500D01*
X137259361Y-99097500D01*
X137455636Y-99066413D01*
X137644632Y-99005005D01*
X137821694Y-98914787D01*
X137982464Y-98797981D01*
X138122981Y-98657464D01*
X138180762Y-98577933D01*
X138186039Y-98571175D01*
X138189537Y-98567000D01*
X138289592Y-98466947D01*
X138328439Y-98401259D01*
X138334962Y-98393477D01*
X138355927Y-98379509D01*
X138374337Y-98362321D01*
X138384505Y-98360471D01*
X138393110Y-98354739D01*
X138418299Y-98354324D01*
X138443079Y-98349817D01*
X138452634Y-98353759D01*
X138462970Y-98353589D01*
X138484379Y-98366854D01*
X138507668Y-98376462D01*
X138516691Y-98386875D01*
X138522363Y-98390390D01*
X138525575Y-98397128D01*
X138536732Y-98410004D01*
X138570405Y-98466943D01*
X138570408Y-98466947D01*
X138666608Y-98563147D01*
X138679240Y-98577938D01*
X138737019Y-98657464D01*
X138877536Y-98797981D01*
X139038306Y-98914787D01*
X139125149Y-98959035D01*
X139215367Y-99005005D01*
X139215370Y-99005006D01*
X139308629Y-99035307D01*
X139404364Y-99066413D01*
X139600639Y-99097500D01*
X139600640Y-99097500D01*
X139799360Y-99097500D01*
X139799361Y-99097500D01*
X139995636Y-99066413D01*
X140184632Y-99005005D01*
X140361694Y-98914787D01*
X140522464Y-98797981D01*
X140662981Y-98657464D01*
X140720762Y-98577933D01*
X140726039Y-98571175D01*
X140729537Y-98567000D01*
X140829592Y-98466947D01*
X140868439Y-98401259D01*
X140874962Y-98393477D01*
X140895927Y-98379509D01*
X140914337Y-98362321D01*
X140924505Y-98360471D01*
X140933110Y-98354739D01*
X140958299Y-98354324D01*
X140983079Y-98349817D01*
X140992634Y-98353759D01*
X141002970Y-98353589D01*
X141024379Y-98366854D01*
X141047668Y-98376462D01*
X141056691Y-98386875D01*
X141062363Y-98390390D01*
X141065575Y-98397128D01*
X141076732Y-98410004D01*
X141110405Y-98466943D01*
X141110408Y-98466947D01*
X141206608Y-98563147D01*
X141219240Y-98577938D01*
X141277019Y-98657464D01*
X141417536Y-98797981D01*
X141578306Y-98914787D01*
X141665149Y-98959035D01*
X141755367Y-99005005D01*
X141755370Y-99005006D01*
X141848629Y-99035307D01*
X141944364Y-99066413D01*
X142140639Y-99097500D01*
X142140640Y-99097500D01*
X142339360Y-99097500D01*
X142339361Y-99097500D01*
X142535636Y-99066413D01*
X142724632Y-99005005D01*
X142901694Y-98914787D01*
X143062464Y-98797981D01*
X143202981Y-98657464D01*
X143260760Y-98577936D01*
X143273389Y-98563148D01*
X143369592Y-98466947D01*
X143453564Y-98324959D01*
X143499587Y-98166548D01*
X143502500Y-98129534D01*
X143502500Y-95870466D01*
X143499587Y-95833452D01*
X143453564Y-95675041D01*
X143369592Y-95533053D01*
X143369590Y-95533051D01*
X143369587Y-95533047D01*
X143252952Y-95416412D01*
X143252943Y-95416405D01*
X143110957Y-95332435D01*
X143110954Y-95332434D01*
X142952552Y-95286413D01*
X142952546Y-95286412D01*
X142915541Y-95283500D01*
X142915534Y-95283500D01*
X141564466Y-95283500D01*
X141564458Y-95283500D01*
X141527453Y-95286412D01*
X141527447Y-95286413D01*
X141369045Y-95332434D01*
X141369042Y-95332435D01*
X141227056Y-95416405D01*
X141227047Y-95416412D01*
X141110412Y-95533047D01*
X141110408Y-95533053D01*
X141076732Y-95589996D01*
X141025662Y-95637679D01*
X140956921Y-95650182D01*
X140892331Y-95623536D01*
X140863268Y-95589996D01*
X140829592Y-95533053D01*
X140829589Y-95533050D01*
X140829587Y-95533047D01*
X140712952Y-95416412D01*
X140712943Y-95416405D01*
X140570957Y-95332435D01*
X140570954Y-95332434D01*
X140412552Y-95286413D01*
X140412546Y-95286412D01*
X140375541Y-95283500D01*
X140375534Y-95283500D01*
X139024466Y-95283500D01*
X139024458Y-95283500D01*
X138987453Y-95286412D01*
X138987447Y-95286413D01*
X138829045Y-95332434D01*
X138829042Y-95332435D01*
X138687056Y-95416405D01*
X138687047Y-95416412D01*
X138570412Y-95533047D01*
X138570408Y-95533053D01*
X138536732Y-95589996D01*
X138485662Y-95637679D01*
X138416921Y-95650182D01*
X138352331Y-95623536D01*
X138323268Y-95589996D01*
X138289592Y-95533053D01*
X138289589Y-95533050D01*
X138289587Y-95533047D01*
X138172952Y-95416412D01*
X138172943Y-95416405D01*
X138030957Y-95332435D01*
X138030954Y-95332434D01*
X137872552Y-95286413D01*
X137872546Y-95286412D01*
X137835541Y-95283500D01*
X137835534Y-95283500D01*
X136863997Y-95283500D01*
X136796958Y-95263815D01*
X136780487Y-95250000D01*
X136124000Y-95250000D01*
X136056961Y-95230315D01*
X136011206Y-95177511D01*
X136000000Y-95126000D01*
X136000000Y-95000000D01*
X135904500Y-95000000D01*
X135837461Y-94980315D01*
X135791706Y-94927511D01*
X135780500Y-94876000D01*
X135780500Y-94765317D01*
X135780499Y-94765302D01*
X135777643Y-94729008D01*
X135777642Y-94729005D01*
X135754924Y-94650809D01*
X135750000Y-94616213D01*
X135750000Y-94195703D01*
X135749720Y-94195494D01*
X136250000Y-94195494D01*
X136250000Y-94750000D01*
X136778790Y-94750000D01*
X136777145Y-94729089D01*
X136732031Y-94573804D01*
X136649721Y-94434625D01*
X136649714Y-94434616D01*
X136535383Y-94320285D01*
X136535374Y-94320278D01*
X136396193Y-94237967D01*
X136396190Y-94237965D01*
X136250001Y-94195493D01*
X136250000Y-94195494D01*
X135749720Y-94195494D01*
X135700317Y-94158611D01*
X135692024Y-94147562D01*
X135680433Y-94140042D01*
X135671460Y-94120166D01*
X135658374Y-94102731D01*
X135657370Y-94088953D01*
X135651686Y-94076360D01*
X135650500Y-94059249D01*
X135650500Y-93660325D01*
X135670185Y-93593286D01*
X135722989Y-93547531D01*
X135792147Y-93537587D01*
X135837620Y-93553593D01*
X135851402Y-93561744D01*
X135893024Y-93573836D01*
X136009226Y-93607597D01*
X136009229Y-93607597D01*
X136009231Y-93607598D01*
X136046106Y-93610500D01*
X136046114Y-93610500D01*
X137827486Y-93610500D01*
X137827494Y-93610500D01*
X137864369Y-93607598D01*
X137864371Y-93607597D01*
X137864373Y-93607597D01*
X137913631Y-93593286D01*
X138022198Y-93561744D01*
X138125705Y-93500529D01*
X138164195Y-93477768D01*
X138227316Y-93460500D01*
X139254071Y-93460500D01*
X139338615Y-93443682D01*
X139379744Y-93435501D01*
X139498127Y-93386465D01*
X139546544Y-93354114D01*
X139604669Y-93315277D01*
X139610824Y-93309121D01*
X139619742Y-93302885D01*
X139642957Y-93295070D01*
X139664451Y-93283334D01*
X139684100Y-93281221D01*
X139685961Y-93280595D01*
X139687147Y-93280893D01*
X139690809Y-93280500D01*
X139734682Y-93280500D01*
X139734690Y-93280500D01*
X139770993Y-93277643D01*
X139770995Y-93277642D01*
X139770997Y-93277642D01*
X139811975Y-93265736D01*
X139926395Y-93232494D01*
X140065687Y-93150117D01*
X140180117Y-93035687D01*
X140262494Y-92896395D01*
X140307643Y-92740993D01*
X140310500Y-92704690D01*
X140310500Y-92295310D01*
X140307643Y-92259007D01*
X140307390Y-92258137D01*
X140273014Y-92139815D01*
X140262494Y-92103605D01*
X140238551Y-92063120D01*
X140221368Y-91995398D01*
X140238552Y-91936878D01*
X140262494Y-91896395D01*
X140300578Y-91765310D01*
X140307642Y-91740997D01*
X140307643Y-91740991D01*
X140308586Y-91729005D01*
X140310500Y-91704690D01*
X140310500Y-91295310D01*
X140307643Y-91259007D01*
X140301396Y-91237506D01*
X140262495Y-91103609D01*
X140262494Y-91103606D01*
X140262494Y-91103605D01*
X140180117Y-90964313D01*
X140180115Y-90964311D01*
X140180112Y-90964307D01*
X140065692Y-90849887D01*
X140065684Y-90849881D01*
X139926393Y-90767505D01*
X139926390Y-90767504D01*
X139770997Y-90722357D01*
X139770991Y-90722356D01*
X139734697Y-90719500D01*
X139734690Y-90719500D01*
X139690808Y-90719500D01*
X139623769Y-90699815D01*
X139603127Y-90683181D01*
X138782128Y-89862181D01*
X138771515Y-89842744D01*
X138757015Y-89826011D01*
X138755098Y-89812679D01*
X138748643Y-89800858D01*
X138750222Y-89778771D01*
X138747071Y-89756853D01*
X138752666Y-89744601D01*
X138753627Y-89731166D01*
X138766897Y-89713439D01*
X138776096Y-89693297D01*
X138787427Y-89686014D01*
X138795499Y-89675233D01*
X138816244Y-89667495D01*
X138834874Y-89655523D01*
X138856792Y-89652371D01*
X138860963Y-89650816D01*
X138869809Y-89650500D01*
X138901039Y-89650500D01*
X138964159Y-89667767D01*
X139073605Y-89732494D01*
X139114587Y-89744400D01*
X139229002Y-89777642D01*
X139229005Y-89777642D01*
X139229007Y-89777643D01*
X139265310Y-89780500D01*
X139265318Y-89780500D01*
X139734682Y-89780500D01*
X139734690Y-89780500D01*
X139770993Y-89777643D01*
X139770995Y-89777642D01*
X139770997Y-89777642D01*
X139815463Y-89764723D01*
X139926395Y-89732494D01*
X140065687Y-89650117D01*
X140180117Y-89535687D01*
X140262494Y-89396395D01*
X140304280Y-89252569D01*
X140307642Y-89240997D01*
X140307643Y-89240991D01*
X140309634Y-89215694D01*
X140310500Y-89204690D01*
X140310500Y-88795310D01*
X140307643Y-88759007D01*
X140304280Y-88747432D01*
X140262495Y-88603609D01*
X140262494Y-88603605D01*
X140238551Y-88563120D01*
X140221368Y-88495398D01*
X140238552Y-88436878D01*
X140262494Y-88396395D01*
X140307643Y-88240993D01*
X140310500Y-88204690D01*
X140310500Y-87795310D01*
X140307643Y-87759007D01*
X140262494Y-87603605D01*
X140180117Y-87464313D01*
X140180115Y-87464311D01*
X140180112Y-87464307D01*
X140065692Y-87349887D01*
X140065684Y-87349881D01*
X139926393Y-87267505D01*
X139926390Y-87267504D01*
X139770997Y-87222357D01*
X139770991Y-87222356D01*
X139734697Y-87219500D01*
X139734690Y-87219500D01*
X139674467Y-87219500D01*
X139607428Y-87199815D01*
X139605577Y-87198603D01*
X139563821Y-87170703D01*
X139538127Y-87153535D01*
X139419744Y-87104499D01*
X139419738Y-87104497D01*
X139294071Y-87079500D01*
X139294069Y-87079500D01*
X139139809Y-87079500D01*
X139072770Y-87059815D01*
X139027015Y-87007011D01*
X139017071Y-86937853D01*
X139046096Y-86874297D01*
X139052128Y-86867819D01*
X139603127Y-86316819D01*
X139664450Y-86283334D01*
X139690808Y-86280500D01*
X139734682Y-86280500D01*
X139734690Y-86280500D01*
X139770993Y-86277643D01*
X139770995Y-86277642D01*
X139770997Y-86277642D01*
X139811975Y-86265736D01*
X139926395Y-86232494D01*
X140065687Y-86150117D01*
X140180117Y-86035687D01*
X140262494Y-85896395D01*
X140295736Y-85781975D01*
X140307642Y-85740997D01*
X140307643Y-85740991D01*
X140310499Y-85704697D01*
X140310500Y-85704690D01*
X140310500Y-85295310D01*
X140307643Y-85259007D01*
X140262494Y-85103605D01*
X140238261Y-85062629D01*
X140221078Y-84994906D01*
X140238263Y-84936384D01*
X140262031Y-84896196D01*
X140304504Y-84750000D01*
X139883787Y-84750000D01*
X139849191Y-84745076D01*
X139770994Y-84722357D01*
X139770991Y-84722356D01*
X139734697Y-84719500D01*
X139734690Y-84719500D01*
X139265310Y-84719500D01*
X139265302Y-84719500D01*
X139229008Y-84722356D01*
X139229005Y-84722357D01*
X139150809Y-84745076D01*
X139116213Y-84750000D01*
X138695496Y-84750000D01*
X138737968Y-84896195D01*
X138737968Y-84896196D01*
X138761738Y-84936388D01*
X138778921Y-85004112D01*
X138761739Y-85062629D01*
X138737504Y-85103608D01*
X138737504Y-85103609D01*
X138692357Y-85259002D01*
X138692356Y-85259008D01*
X138689500Y-85295302D01*
X138689500Y-85339192D01*
X138680855Y-85368632D01*
X138674332Y-85398619D01*
X138670577Y-85403634D01*
X138669815Y-85406231D01*
X138653181Y-85426873D01*
X138623981Y-85456073D01*
X138562658Y-85489558D01*
X138492966Y-85484574D01*
X138437033Y-85442702D01*
X138412616Y-85377238D01*
X138412300Y-85368392D01*
X138412300Y-84974313D01*
X138412299Y-84974298D01*
X138411513Y-84964313D01*
X138409398Y-84937431D01*
X138363544Y-84779602D01*
X138279881Y-84638135D01*
X138279878Y-84638132D01*
X138275098Y-84631969D01*
X138277550Y-84630066D01*
X138250955Y-84581421D01*
X138255904Y-84511726D01*
X138276740Y-84479304D01*
X138275098Y-84478031D01*
X138279875Y-84471870D01*
X138279881Y-84471865D01*
X138363544Y-84330398D01*
X138363545Y-84330394D01*
X138363546Y-84330393D01*
X138386903Y-84250000D01*
X138695496Y-84250000D01*
X139250000Y-84250000D01*
X139750000Y-84250000D01*
X140304504Y-84250000D01*
X140262031Y-84103804D01*
X140179721Y-83964625D01*
X140179714Y-83964616D01*
X140065383Y-83850285D01*
X140065374Y-83850278D01*
X139926195Y-83767968D01*
X139926190Y-83767966D01*
X139770918Y-83722855D01*
X139770912Y-83722854D01*
X139750000Y-83721209D01*
X139750000Y-84250000D01*
X139250000Y-84250000D01*
X139250000Y-83721210D01*
X139249999Y-83721209D01*
X139229087Y-83722854D01*
X139229081Y-83722855D01*
X139073809Y-83767966D01*
X139073804Y-83767968D01*
X138934625Y-83850278D01*
X138934616Y-83850285D01*
X138820285Y-83964616D01*
X138820278Y-83964625D01*
X138737968Y-84103804D01*
X138695496Y-84250000D01*
X138386903Y-84250000D01*
X138389718Y-84240310D01*
X138409397Y-84172573D01*
X138409398Y-84172567D01*
X138412299Y-84135701D01*
X138412300Y-84135694D01*
X138412300Y-83704306D01*
X138409398Y-83667431D01*
X138363544Y-83509602D01*
X138279881Y-83368135D01*
X138279879Y-83368133D01*
X138279876Y-83368129D01*
X138163670Y-83251923D01*
X138163662Y-83251917D01*
X138022196Y-83168255D01*
X138022193Y-83168254D01*
X137864373Y-83122402D01*
X137864367Y-83122401D01*
X137827501Y-83119500D01*
X137827494Y-83119500D01*
X136046106Y-83119500D01*
X136046098Y-83119500D01*
X136009232Y-83122401D01*
X136009226Y-83122402D01*
X135851406Y-83168254D01*
X135851403Y-83168255D01*
X135709937Y-83251917D01*
X135709929Y-83251923D01*
X135593723Y-83368129D01*
X135593717Y-83368137D01*
X135510055Y-83509603D01*
X135510054Y-83509606D01*
X135464202Y-83667426D01*
X135464201Y-83667432D01*
X135461300Y-83704298D01*
X135461300Y-84135701D01*
X135464201Y-84172567D01*
X135464202Y-84172573D01*
X135510054Y-84330393D01*
X135510055Y-84330396D01*
X135593717Y-84471862D01*
X135598502Y-84478031D01*
X135596056Y-84479927D01*
X135622657Y-84528642D01*
X135617673Y-84598334D01*
X135596869Y-84630703D01*
X135598502Y-84631969D01*
X135593717Y-84638137D01*
X135510055Y-84779603D01*
X135510054Y-84779606D01*
X135464202Y-84937426D01*
X135464201Y-84937432D01*
X135461300Y-84974298D01*
X135461300Y-85405701D01*
X135464201Y-85442567D01*
X135464202Y-85442573D01*
X135510054Y-85600393D01*
X135510055Y-85600396D01*
X135593717Y-85741862D01*
X135598502Y-85748031D01*
X135596056Y-85749927D01*
X135622657Y-85798642D01*
X135617673Y-85868334D01*
X135596869Y-85900703D01*
X135598502Y-85901969D01*
X135593717Y-85908137D01*
X135510055Y-86049603D01*
X135510054Y-86049606D01*
X135464202Y-86207426D01*
X135464201Y-86207432D01*
X135461300Y-86244298D01*
X135461300Y-86675701D01*
X135464201Y-86712567D01*
X135464202Y-86712573D01*
X135510054Y-86870393D01*
X135510055Y-86870396D01*
X135593717Y-87011862D01*
X135598502Y-87018031D01*
X135596056Y-87019927D01*
X135622657Y-87068642D01*
X135617673Y-87138334D01*
X135596869Y-87170703D01*
X135598502Y-87171969D01*
X135593717Y-87178137D01*
X135510055Y-87319603D01*
X135510054Y-87319606D01*
X135464202Y-87477426D01*
X135464201Y-87477432D01*
X135461300Y-87514298D01*
X135461300Y-87945701D01*
X135464201Y-87982567D01*
X135464202Y-87982573D01*
X135510054Y-88140393D01*
X135510055Y-88140396D01*
X135510056Y-88140398D01*
X135515289Y-88149246D01*
X135593717Y-88281862D01*
X135598502Y-88288031D01*
X135596056Y-88289927D01*
X135622657Y-88338642D01*
X135617673Y-88408334D01*
X135596869Y-88440703D01*
X135598502Y-88441969D01*
X135593717Y-88448137D01*
X135510055Y-88589603D01*
X135510054Y-88589606D01*
X135464202Y-88747426D01*
X135464201Y-88747432D01*
X135461300Y-88784298D01*
X135461300Y-89215701D01*
X135464201Y-89252567D01*
X135464202Y-89252573D01*
X135510054Y-89410393D01*
X135510055Y-89410396D01*
X135593717Y-89551862D01*
X135598502Y-89558031D01*
X135596056Y-89559927D01*
X135622657Y-89608642D01*
X135617673Y-89678334D01*
X135596869Y-89710703D01*
X135598502Y-89711969D01*
X135593717Y-89718137D01*
X135510055Y-89859603D01*
X135510054Y-89859606D01*
X135464202Y-90017426D01*
X135464201Y-90017432D01*
X135461300Y-90054298D01*
X135461300Y-90485701D01*
X135464201Y-90522567D01*
X135464202Y-90522573D01*
X135510054Y-90680393D01*
X135510055Y-90680396D01*
X135593717Y-90821862D01*
X135598502Y-90828031D01*
X135596056Y-90829927D01*
X135622657Y-90878642D01*
X135617673Y-90948334D01*
X135602274Y-90977241D01*
X135596353Y-90985500D01*
X135593719Y-90988135D01*
X135590199Y-90994086D01*
X135587024Y-90998516D01*
X135576733Y-91006556D01*
X135555139Y-91029373D01*
X135547127Y-91034726D01*
X135547125Y-91034729D01*
X134494727Y-92087126D01*
X134494726Y-92087127D01*
X134426508Y-92189225D01*
X134426504Y-92189230D01*
X134423538Y-92193668D01*
X134423536Y-92193671D01*
X134374499Y-92312056D01*
X134374497Y-92312062D01*
X134349500Y-92437729D01*
X134349500Y-94401037D01*
X134345149Y-94416938D01*
X134345692Y-94431531D01*
X134332232Y-94464158D01*
X134281232Y-94550395D01*
X134230163Y-94598078D01*
X134161422Y-94610582D01*
X134096832Y-94583937D01*
X134056902Y-94526602D01*
X134050500Y-94487274D01*
X134050500Y-94104204D01*
X134023581Y-93968877D01*
X134023580Y-93968876D01*
X134023580Y-93968872D01*
X134023578Y-93968867D01*
X133970777Y-93841392D01*
X133894112Y-93726654D01*
X133894111Y-93726653D01*
X133459615Y-93292158D01*
X133426130Y-93230835D01*
X133428219Y-93169883D01*
X133459398Y-93062569D01*
X133462300Y-93025694D01*
X133462300Y-92594306D01*
X133459398Y-92557431D01*
X133413544Y-92399602D01*
X133329881Y-92258135D01*
X133329878Y-92258132D01*
X133325098Y-92251969D01*
X133327435Y-92250155D01*
X133300598Y-92201050D01*
X133305556Y-92131356D01*
X133326354Y-92098998D01*
X133324703Y-92097717D01*
X133329486Y-92091550D01*
X133413081Y-91950198D01*
X133458900Y-91792486D01*
X133459095Y-91790001D01*
X133459095Y-91790000D01*
X130514505Y-91790000D01*
X130514504Y-91790001D01*
X130514699Y-91792488D01*
X130514700Y-91792494D01*
X130560723Y-91950905D01*
X130560524Y-92020775D01*
X130522582Y-92079445D01*
X130458943Y-92108288D01*
X130441647Y-92109500D01*
X130151519Y-92109500D01*
X130084480Y-92089815D01*
X130063838Y-92073181D01*
X129814943Y-91824286D01*
X129781458Y-91762963D01*
X129779006Y-91746330D01*
X129778586Y-91740997D01*
X129777643Y-91729007D01*
X129770580Y-91704697D01*
X129732495Y-91573609D01*
X129732494Y-91573606D01*
X129732494Y-91573605D01*
X129650117Y-91434313D01*
X129650115Y-91434311D01*
X129650112Y-91434307D01*
X129535692Y-91319887D01*
X129535684Y-91319881D01*
X129432738Y-91258999D01*
X129396395Y-91237506D01*
X129396394Y-91237505D01*
X129396393Y-91237505D01*
X129396390Y-91237504D01*
X129240997Y-91192357D01*
X129240991Y-91192356D01*
X129204697Y-91189500D01*
X129204690Y-91189500D01*
X128795310Y-91189500D01*
X128795302Y-91189500D01*
X128759008Y-91192356D01*
X128759002Y-91192357D01*
X128603609Y-91237504D01*
X128603608Y-91237504D01*
X128562629Y-91261739D01*
X128494905Y-91278920D01*
X128436388Y-91261738D01*
X128396193Y-91237967D01*
X128396190Y-91237965D01*
X128250001Y-91195493D01*
X128250000Y-91195494D01*
X128250000Y-91616213D01*
X128245076Y-91650809D01*
X128222357Y-91729005D01*
X128222356Y-91729008D01*
X128219500Y-91765302D01*
X128219500Y-92234697D01*
X128222356Y-92270991D01*
X128222357Y-92270994D01*
X128245076Y-92349190D01*
X128250000Y-92383786D01*
X128250000Y-92804503D01*
X128396196Y-92762031D01*
X128436384Y-92738263D01*
X128504107Y-92721078D01*
X128562629Y-92738261D01*
X128567255Y-92740997D01*
X128603605Y-92762494D01*
X128644587Y-92774400D01*
X128759002Y-92807642D01*
X128759005Y-92807642D01*
X128759007Y-92807643D01*
X128776330Y-92809006D01*
X128841619Y-92833888D01*
X128854286Y-92844943D01*
X129363453Y-93354111D01*
X129363454Y-93354112D01*
X129478192Y-93430777D01*
X129592396Y-93478081D01*
X129605672Y-93483580D01*
X129605676Y-93483580D01*
X129605677Y-93483581D01*
X129741003Y-93510500D01*
X129741006Y-93510500D01*
X129741007Y-93510500D01*
X130780831Y-93510500D01*
X130843951Y-93527767D01*
X130901402Y-93561744D01*
X130943024Y-93573836D01*
X131059226Y-93607597D01*
X131059229Y-93607597D01*
X131059231Y-93607598D01*
X131096106Y-93610500D01*
X131745281Y-93610500D01*
X131812320Y-93630185D01*
X131832962Y-93646819D01*
X132613181Y-94427038D01*
X132646666Y-94488361D01*
X132649500Y-94514719D01*
X132649500Y-95159500D01*
X132629815Y-95226539D01*
X132577011Y-95272294D01*
X132525500Y-95283500D01*
X131404458Y-95283500D01*
X131367453Y-95286412D01*
X131367447Y-95286413D01*
X131209045Y-95332434D01*
X131209042Y-95332435D01*
X131067056Y-95416405D01*
X131067047Y-95416412D01*
X130950412Y-95533047D01*
X130950408Y-95533053D01*
X130916732Y-95589996D01*
X130865662Y-95637679D01*
X130796921Y-95650182D01*
X130732331Y-95623536D01*
X130703268Y-95589996D01*
X130669592Y-95533053D01*
X130669589Y-95533050D01*
X130669587Y-95533047D01*
X130552952Y-95416412D01*
X130552943Y-95416405D01*
X130410957Y-95332435D01*
X130410954Y-95332434D01*
X130252552Y-95286413D01*
X130252546Y-95286412D01*
X130215541Y-95283500D01*
X130215534Y-95283500D01*
X128864466Y-95283500D01*
X128864458Y-95283500D01*
X128827453Y-95286412D01*
X128827447Y-95286413D01*
X128669045Y-95332434D01*
X128669042Y-95332435D01*
X128527056Y-95416405D01*
X128527047Y-95416412D01*
X128410412Y-95533047D01*
X128410408Y-95533053D01*
X128376732Y-95589996D01*
X128325662Y-95637679D01*
X128256921Y-95650182D01*
X128192331Y-95623536D01*
X128163268Y-95589996D01*
X128129592Y-95533053D01*
X128129589Y-95533050D01*
X128129587Y-95533047D01*
X128012952Y-95416412D01*
X128012943Y-95416405D01*
X127870957Y-95332435D01*
X127870954Y-95332434D01*
X127712552Y-95286413D01*
X127712546Y-95286412D01*
X127675541Y-95283500D01*
X127675534Y-95283500D01*
X126324466Y-95283500D01*
X126324458Y-95283500D01*
X126287453Y-95286412D01*
X126287447Y-95286413D01*
X126129045Y-95332434D01*
X126129042Y-95332435D01*
X125987056Y-95416405D01*
X125987047Y-95416412D01*
X125870412Y-95533047D01*
X125870405Y-95533056D01*
X125786435Y-95675042D01*
X125786434Y-95675045D01*
X125740413Y-95833447D01*
X125740412Y-95833453D01*
X125737500Y-95870458D01*
X124500500Y-95870458D01*
X124500500Y-92250000D01*
X127221210Y-92250000D01*
X127222854Y-92270910D01*
X127267968Y-92426195D01*
X127350278Y-92565374D01*
X127350285Y-92565383D01*
X127464616Y-92679714D01*
X127464625Y-92679721D01*
X127603804Y-92762031D01*
X127750000Y-92804504D01*
X127750000Y-92250000D01*
X127221210Y-92250000D01*
X124500500Y-92250000D01*
X124500500Y-91749999D01*
X127221209Y-91749999D01*
X127221210Y-91750000D01*
X127750000Y-91750000D01*
X127750000Y-91195494D01*
X127749998Y-91195493D01*
X127603809Y-91237965D01*
X127603806Y-91237967D01*
X127464625Y-91320278D01*
X127464616Y-91320285D01*
X127350285Y-91434616D01*
X127350278Y-91434625D01*
X127267968Y-91573804D01*
X127267966Y-91573809D01*
X127222855Y-91729081D01*
X127222854Y-91729087D01*
X127221209Y-91749999D01*
X124500500Y-91749999D01*
X124500500Y-89064071D01*
X128349499Y-89064071D01*
X128374497Y-89189738D01*
X128374499Y-89189744D01*
X128423535Y-89308127D01*
X128494723Y-89414669D01*
X128494726Y-89414673D01*
X128494727Y-89414674D01*
X129764724Y-90684669D01*
X129847559Y-90767504D01*
X129855332Y-90775277D01*
X129961866Y-90846461D01*
X129961875Y-90846466D01*
X129970134Y-90849887D01*
X130080256Y-90895501D01*
X130080260Y-90895501D01*
X130080261Y-90895502D01*
X130205928Y-90920500D01*
X130205931Y-90920500D01*
X130466904Y-90920500D01*
X130533943Y-90940185D01*
X130579698Y-90992989D01*
X130589642Y-91062147D01*
X130573636Y-91107621D01*
X130560518Y-91129801D01*
X130514699Y-91287513D01*
X130514504Y-91289998D01*
X130514505Y-91290000D01*
X133459095Y-91290000D01*
X133459095Y-91289998D01*
X133458900Y-91287513D01*
X133413081Y-91129801D01*
X133329485Y-90988447D01*
X133324700Y-90982278D01*
X133327166Y-90980364D01*
X133300602Y-90931776D01*
X133305549Y-90862082D01*
X133326656Y-90829232D01*
X133325101Y-90828026D01*
X133329877Y-90821868D01*
X133329881Y-90821865D01*
X133413544Y-90680398D01*
X133459398Y-90522569D01*
X133462300Y-90485694D01*
X133462300Y-90054306D01*
X133459398Y-90017431D01*
X133413544Y-89859602D01*
X133329881Y-89718135D01*
X133329878Y-89718132D01*
X133325098Y-89711969D01*
X133327550Y-89710066D01*
X133300955Y-89661421D01*
X133305904Y-89591726D01*
X133326740Y-89559304D01*
X133325098Y-89558031D01*
X133329875Y-89551870D01*
X133329881Y-89551865D01*
X133413544Y-89410398D01*
X133459398Y-89252569D01*
X133462300Y-89215694D01*
X133462300Y-88991708D01*
X133481985Y-88924669D01*
X133534789Y-88878914D01*
X133562109Y-88870091D01*
X133712697Y-88840137D01*
X133858379Y-88779794D01*
X133989489Y-88692189D01*
X134100989Y-88580689D01*
X134188594Y-88449579D01*
X134248937Y-88303897D01*
X134279700Y-88149242D01*
X134279700Y-87991558D01*
X134279700Y-87991555D01*
X134279699Y-87991553D01*
X134248938Y-87836910D01*
X134248937Y-87836903D01*
X134231709Y-87795310D01*
X134188597Y-87691227D01*
X134188590Y-87691214D01*
X134100989Y-87560111D01*
X134100986Y-87560107D01*
X134079819Y-87538940D01*
X134046334Y-87477617D01*
X134051318Y-87407925D01*
X134093190Y-87351992D01*
X134111602Y-87341512D01*
X134111309Y-87340964D01*
X134116672Y-87338096D01*
X134116679Y-87338094D01*
X134247789Y-87250489D01*
X134359289Y-87138989D01*
X134446894Y-87007879D01*
X134507237Y-86862197D01*
X134538000Y-86707542D01*
X134538000Y-86549858D01*
X134538000Y-86549855D01*
X134537999Y-86549853D01*
X134507238Y-86395210D01*
X134507237Y-86395203D01*
X134459726Y-86280500D01*
X134446897Y-86249527D01*
X134446890Y-86249514D01*
X134359289Y-86118411D01*
X134359286Y-86118407D01*
X134247792Y-86006913D01*
X134247788Y-86006910D01*
X134116685Y-85919309D01*
X134116672Y-85919302D01*
X133971001Y-85858964D01*
X133970989Y-85858961D01*
X133816345Y-85828200D01*
X133816342Y-85828200D01*
X133658658Y-85828200D01*
X133658655Y-85828200D01*
X133500380Y-85859683D01*
X133430789Y-85853456D01*
X133375611Y-85810593D01*
X133352367Y-85744703D01*
X133368435Y-85676706D01*
X133369457Y-85674945D01*
X133413544Y-85600398D01*
X133455475Y-85456073D01*
X133459397Y-85442573D01*
X133459398Y-85442567D01*
X133460633Y-85426873D01*
X133462300Y-85405694D01*
X133462300Y-84974306D01*
X133459398Y-84937431D01*
X133413544Y-84779602D01*
X133329881Y-84638135D01*
X133329878Y-84638132D01*
X133325098Y-84631969D01*
X133327550Y-84630066D01*
X133300955Y-84581421D01*
X133305904Y-84511726D01*
X133326740Y-84479304D01*
X133325098Y-84478031D01*
X133329875Y-84471870D01*
X133329881Y-84471865D01*
X133413544Y-84330398D01*
X133459398Y-84172569D01*
X133462300Y-84135694D01*
X133462300Y-83704306D01*
X133459398Y-83667431D01*
X133413544Y-83509602D01*
X133329881Y-83368135D01*
X133329879Y-83368133D01*
X133329876Y-83368129D01*
X133213670Y-83251923D01*
X133213662Y-83251917D01*
X133072196Y-83168255D01*
X133072193Y-83168254D01*
X132914373Y-83122402D01*
X132914367Y-83122401D01*
X132877501Y-83119500D01*
X132877494Y-83119500D01*
X132134808Y-83119500D01*
X132067769Y-83099815D01*
X132022014Y-83047011D01*
X132012070Y-82977853D01*
X132041095Y-82914297D01*
X132047127Y-82907819D01*
X132219738Y-82735207D01*
X134319010Y-80635934D01*
X134380331Y-80602451D01*
X134426087Y-80601144D01*
X134564078Y-80623000D01*
X134564083Y-80623000D01*
X134760922Y-80623000D01*
X134955326Y-80592209D01*
X134960564Y-80590507D01*
X135142525Y-80531384D01*
X135317905Y-80442024D01*
X135477146Y-80326328D01*
X135616328Y-80187146D01*
X135732024Y-80027905D01*
X135763088Y-79966936D01*
X135785887Y-79935558D01*
X136302501Y-79418944D01*
X136302501Y-79425161D01*
X136329760Y-79526894D01*
X136382421Y-79618105D01*
X136456895Y-79692579D01*
X136548106Y-79745240D01*
X136649839Y-79772499D01*
X136656054Y-79772499D01*
X136012373Y-80416177D01*
X136012373Y-80416178D01*
X136047358Y-80441596D01*
X136222664Y-80530918D01*
X136409794Y-80591721D01*
X136604118Y-80622500D01*
X136800882Y-80622500D01*
X136995205Y-80591721D01*
X137182335Y-80530918D01*
X137357643Y-80441595D01*
X137392625Y-80416178D01*
X137392626Y-80416178D01*
X136748947Y-79772499D01*
X136755161Y-79772499D01*
X136856894Y-79745240D01*
X136948105Y-79692579D01*
X137022579Y-79618105D01*
X137075240Y-79526894D01*
X137102499Y-79425161D01*
X137102499Y-79418946D01*
X137746178Y-80062626D01*
X137746178Y-80062625D01*
X137771595Y-80027643D01*
X137860918Y-79852335D01*
X137921721Y-79665205D01*
X137952500Y-79470882D01*
X137952500Y-79274117D01*
X137921721Y-79079794D01*
X137860918Y-78892664D01*
X137771596Y-78717358D01*
X137746178Y-78682373D01*
X137746177Y-78682373D01*
X137102499Y-79326052D01*
X137102499Y-79319839D01*
X137075240Y-79218106D01*
X137022579Y-79126895D01*
X136948105Y-79052421D01*
X136856894Y-78999760D01*
X136755161Y-78972501D01*
X136748946Y-78972501D01*
X137392625Y-78328820D01*
X137392625Y-78328819D01*
X137357645Y-78303405D01*
X137182335Y-78214081D01*
X136995205Y-78153278D01*
X136800882Y-78122500D01*
X136604118Y-78122500D01*
X136409794Y-78153278D01*
X136409789Y-78153279D01*
X136348795Y-78173097D01*
X136278954Y-78175092D01*
X136219121Y-78139011D01*
X136188294Y-78076309D01*
X136196259Y-78006895D01*
X136240488Y-77952807D01*
X136254185Y-77944681D01*
X136337901Y-77902026D01*
X136337900Y-77902026D01*
X136337905Y-77902024D01*
X136497146Y-77786328D01*
X136636328Y-77647146D01*
X136752024Y-77487905D01*
X136841384Y-77312525D01*
X136902209Y-77125326D01*
X136933000Y-76930922D01*
X136933000Y-76734077D01*
X136902209Y-76539673D01*
X136841382Y-76352470D01*
X136794243Y-76259955D01*
X136752024Y-76177095D01*
X136636328Y-76017854D01*
X136497146Y-75878672D01*
X136337905Y-75762976D01*
X136337903Y-75762975D01*
X136162529Y-75673617D01*
X135975326Y-75612790D01*
X135780922Y-75582000D01*
X135780917Y-75582000D01*
X135584083Y-75582000D01*
X135584078Y-75582000D01*
X135389673Y-75612790D01*
X135202470Y-75673617D01*
X135027095Y-75762975D01*
X134964977Y-75808107D01*
X134899170Y-75831586D01*
X134831116Y-75815760D01*
X134792826Y-75782100D01*
X134771951Y-75754215D01*
X134750046Y-75724954D01*
X134750044Y-75724953D01*
X134750044Y-75724952D01*
X134634835Y-75638706D01*
X134634828Y-75638702D01*
X134499982Y-75588408D01*
X134499983Y-75588408D01*
X134440383Y-75582001D01*
X134440381Y-75582000D01*
X134440373Y-75582000D01*
X134440364Y-75582000D01*
X132844629Y-75582000D01*
X132844623Y-75582001D01*
X132785016Y-75588408D01*
X132650171Y-75638702D01*
X132650164Y-75638706D01*
X132534955Y-75724952D01*
X132534952Y-75724955D01*
X132448706Y-75840164D01*
X132448702Y-75840171D01*
X132398408Y-75975017D01*
X132392001Y-76034616D01*
X132392000Y-76034635D01*
X132392001Y-77633692D01*
X132391084Y-77633692D01*
X132375896Y-77697916D01*
X132355834Y-77724218D01*
X128494726Y-81585326D01*
X128423534Y-81691874D01*
X128374499Y-81810255D01*
X128374497Y-81810261D01*
X128349500Y-81935928D01*
X128349500Y-81935931D01*
X128349500Y-89064069D01*
X128349500Y-89064071D01*
X128349499Y-89064071D01*
X124500500Y-89064071D01*
X124500500Y-74402597D01*
X127522000Y-74402597D01*
X127522000Y-74662402D01*
X127562640Y-74918993D01*
X127642922Y-75166076D01*
X127760868Y-75397554D01*
X127899531Y-75588408D01*
X127913569Y-75607729D01*
X128097271Y-75791431D01*
X128307449Y-75944134D01*
X128452126Y-76017851D01*
X128538923Y-76062077D01*
X128538925Y-76062077D01*
X128538928Y-76062079D01*
X128786007Y-76142360D01*
X128918206Y-76163297D01*
X129042598Y-76183000D01*
X129042603Y-76183000D01*
X129302402Y-76183000D01*
X129415798Y-76165039D01*
X129558993Y-76142360D01*
X129806072Y-76062079D01*
X130037551Y-75944134D01*
X130247729Y-75791431D01*
X130431431Y-75607729D01*
X130584134Y-75397551D01*
X130702079Y-75166072D01*
X130782360Y-74918993D01*
X130805039Y-74775798D01*
X130823000Y-74662402D01*
X130823000Y-74402597D01*
X139522000Y-74402597D01*
X139522000Y-74662402D01*
X139562640Y-74918993D01*
X139642922Y-75166076D01*
X139760868Y-75397554D01*
X139899531Y-75588408D01*
X139913569Y-75607729D01*
X140097271Y-75791431D01*
X140307449Y-75944134D01*
X140452126Y-76017851D01*
X140538923Y-76062077D01*
X140538925Y-76062077D01*
X140538928Y-76062079D01*
X140786007Y-76142360D01*
X140918206Y-76163297D01*
X141042598Y-76183000D01*
X141042603Y-76183000D01*
X141302402Y-76183000D01*
X141415798Y-76165039D01*
X141558993Y-76142360D01*
X141806072Y-76062079D01*
X142037551Y-75944134D01*
X142247729Y-75791431D01*
X142431431Y-75607729D01*
X142584134Y-75397551D01*
X142702079Y-75166072D01*
X142782360Y-74918993D01*
X142805039Y-74775798D01*
X142823000Y-74662402D01*
X142823000Y-74402597D01*
X142801447Y-74266521D01*
X142782360Y-74146007D01*
X142702079Y-73898928D01*
X142702077Y-73898925D01*
X142702077Y-73898923D01*
X142659287Y-73814945D01*
X142584134Y-73667449D01*
X142431431Y-73457271D01*
X142247729Y-73273569D01*
X142037551Y-73120866D01*
X141965264Y-73084034D01*
X141806076Y-73002922D01*
X141558993Y-72922640D01*
X141302402Y-72882000D01*
X141302397Y-72882000D01*
X141042603Y-72882000D01*
X141042598Y-72882000D01*
X140786006Y-72922640D01*
X140538923Y-73002922D01*
X140307445Y-73120868D01*
X140097274Y-73273566D01*
X140097268Y-73273571D01*
X139913571Y-73457268D01*
X139913566Y-73457274D01*
X139760868Y-73667445D01*
X139642922Y-73898923D01*
X139562640Y-74146006D01*
X139522000Y-74402597D01*
X130823000Y-74402597D01*
X130801447Y-74266521D01*
X130782360Y-74146007D01*
X130702079Y-73898928D01*
X130702077Y-73898925D01*
X130702077Y-73898923D01*
X130659287Y-73814945D01*
X130584134Y-73667449D01*
X130431431Y-73457271D01*
X130247729Y-73273569D01*
X130037551Y-73120866D01*
X129965264Y-73084034D01*
X129806076Y-73002922D01*
X129558993Y-72922640D01*
X129302402Y-72882000D01*
X129302397Y-72882000D01*
X129042603Y-72882000D01*
X129042598Y-72882000D01*
X128786006Y-72922640D01*
X128538923Y-73002922D01*
X128307445Y-73120868D01*
X128097274Y-73273566D01*
X128097268Y-73273571D01*
X127913571Y-73457268D01*
X127913566Y-73457274D01*
X127760868Y-73667445D01*
X127642922Y-73898923D01*
X127562640Y-74146006D01*
X127522000Y-74402597D01*
X124500500Y-74402597D01*
X124500500Y-68624500D01*
X124520185Y-68557461D01*
X124572989Y-68511706D01*
X124624500Y-68500500D01*
X146375500Y-68500500D01*
X146442539Y-68520185D01*
G37*
%TD.AperFunction*%
%TD*%
M02*
